<?xml version="1.0" encoding="utf-8"?>
<!-- Generator: Adobe Illustrator 17.1.0, SVG Export Plug-In . SVG Version: 6.00 Build 0)  -->
<!DOCTYPE svg PUBLIC "-//W3C//DTD SVG 1.1//EN" "http://www.w3.org/Graphics/SVG/1.1/DTD/svg11.dtd">
<svg version="1.1" id="Layer_1" xmlns="http://www.w3.org/2000/svg" xmlns:xlink="http://www.w3.org/1999/xlink" x="0px" y="0px"
	 viewBox="0 0 792 1224" enable-background="new 0 0 792 1224" xml:space="preserve">
<g>
	<polygon fill="#FF6699" points="254.4,525.3 253.4,525.5 252.4,526 251.5,526.6 250.7,527.3 249.7,528.2 249.1,529.3 248.7,530.5 
		248.6,531.2 248.6,531.9 248.5,534.8 248.6,536.3 248.8,537.9 249.4,540.8 250.3,543.8 254.6,554.2 255.5,553.5 256.6,553 
		258.6,551.8 262.7,549.4 262.9,549.2 263.2,549 263.7,548.7 264.7,548 266.7,546.7 268.8,545.4 270.8,544 267.7,537.9 266.4,535.6 
		265.7,534.5 265.1,533.6 263.6,531.8 262,530.1 260.2,528.6 259.3,527.9 258.4,527.3 256.4,526.2 	"/>
	<polygon fill="#FF9900" points="254.6,554.2 259.4,564.3 261.2,563.4 263.1,562.4 264,561.8 265,561.2 266.9,560.1 268.7,558.8 
		269.6,558.1 270.5,557.4 272.4,556 274.1,554.4 275.1,553.5 270.8,544 268.8,545.4 266.7,546.7 264.7,548 263.7,548.7 263.2,549 
		262.9,549.2 262.7,549.4 258.6,551.8 256.6,553 255.5,553.5 	"/>
	<path fill="#FF9900" d="M413.4,362.1l-1.3-2.1l-1.3-1.9l-1.4-1.7l-1.4-1.6l-0.8-0.8l-0.8-0.7l-0.9-0.7l-0.8-0.6l-1.7-1.1l-0.9-0.5
		l-0.8-0.4l-1.9-0.9l-1.9-0.7l-2.1-0.6l-2.1-0.4l-2.2-0.3l-1.1-0.1H389h-2.3l-1.2,0.1l-1.1,0.2l-2.9,0.2l-2.7,0.5l-2.6,0.7l-2.5,1.1
		l-2.5,1.2l-2.2,1.5l-2.2,1.8l-2,2.1l-2.4,2.7l-1.1,1.4l-1,1.5l-1.8,3l-0.8,1.5l-0.6,1.7l-1.3,3.2l-0.5,1.6l-0.4,1.7L354,378
		l-0.3,3.6l-0.1,2.9l0.2,2.9l3.2,8.2l1.2,1.2l1.3,1.1l1.3,1.1l1.4,1l1.3,1l1.3,0.9l2.7,1.7l1.3,0.7l1.4,0.6l2.8,1.1l2.8,0.8l2.9,0.6
		l2.9,0.3l3,0.1l2.9-0.2l1.5-0.2l1.5-0.2l1.5-0.3l1.5-0.4l1.5-0.4l1.6-0.5l1.5-0.6l1.6-0.6l1.6-0.7l1.7-0.7l7.1-3.7l2.2-2.8l2.1-2.7
		l1.8-2.7l1.7-2.6l0.5-3.4l0.2-3.3v-1.7l0-1.5l-0.4-3.3l-0.8-3.4l-1-3.3l-0.6-1.7l-0.4-0.9l-0.2-0.4l-0.1-0.4l-0.7-1.7L413.4,362.1
		L413.4,362.1z M384.3,349.6l2.1-0.1h1l1,0.1l1.9,0.3l1.8,0.4l1.7,0.5l1.7,0.6l1.5,0.8l1.5,0.9l1.4,1l0.6,0.5l0.7,0.6l1.2,1.3
		l1.2,1.4l1,1.5l1,1.7l0.9,1.8l0.4,1l0.5,1.1l0.3,0.9l0.1,0.5l0.2,0.5l0.3,1l0.1,0.5l0.2,0.5l0.3,1.8l0.3,1.9l0.1,1.8l-0.1,1.8
		l-0.1,0.9l-0.1,0.4v0.5l-0.3,1.8l-0.1,0.2l-0.1,0.2l-0.1,0.4l-0.2,0.9l-0.1,0.2l-0.1,0.2l-0.1,0.4l-0.3,0.9l-0.8,1.6l-0.8,1.6
		l-1.1,1.5l-0.6,0.7l-0.2,0.2l-0.1,0.2l-0.2,0.4l-0.4,0.3l-0.2,0.2L403,390l-0.6,0.7l-1.5,1.5l-0.4,0.2l-0.2,0.1l-0.1,0.2l-0.6,0.5
		l-1.3,1l-0.4,0.2l-0.3,0.2l-0.6,0.4l-1.3,0.8l-1.4,0.6l-0.4,0.1l-0.2,0.1l-0.1,0.1l-0.6,0.3l-1.4,0.4l-0.4,0.1l-0.3,0.1l-0.6,0.2
		l-1.5,0.2l-1.4,0.2l-1.5,0.1l-1.4-0.1l-1.5-0.2l-1.5-0.3l-1.5-0.4l-1.5-0.4l-1.9-0.7l-1.7-0.8l-1.7-0.9l-1.5-1l-1.5-1.3l-1.3-1.3
		l-1.2-1.5l-1-1.6l-0.9-1.5l-0.7-1.5l-1.1-2.9l-0.5-1.5l-0.3-1.4l-0.2-1.5v-1.4l-0.1-1.5l0.2-1.5l0.2-1.5l0.5-1.5l0.5-1.5l0.6-1.5
		l0.7-1.5l0.8-1.5l1-1.7l1.1-1.6l0.3-0.9l0.5-0.7l0.9-1.6l1.1-1.4l1.1-1.2l1.3-1.1l1.4-1l1.5-0.8l1.6-0.6l1.7-0.4l2.2-1L384.3,349.6
		L384.3,349.6z"/>
	<polygon fill="#FFFFFF" points="407.5,365 407,364 406.6,363 405.7,361.2 404.7,359.5 403.7,358 402.4,356.5 401.2,355.2 
		400.5,354.6 399.9,354.1 398.5,353.1 397,352.1 395.5,351.3 393.8,350.7 392.1,350.2 390.2,349.9 388.4,349.6 387.3,349.5 
		386.3,349.5 384.3,349.6 381.8,350.2 379.6,351.2 377.8,351.6 376.2,352.3 374.7,353.1 373.3,354 372,355.1 370.9,356.3 
		369.8,357.7 368.9,359.2 368.4,360 368.1,360.8 367,362.5 366,364.2 365.2,365.7 364.5,367.2 363.9,368.7 363.4,370.2 363,371.7 
		362.8,373.2 362.6,374.7 362.7,376.2 362.7,377.6 362.9,379.1 363.2,380.5 363.6,382 364.7,384.8 365.4,386.2 366.3,387.7 
		367.3,389.3 368.5,390.8 369.8,392.1 371.3,393.4 372.8,394.5 374.4,395.4 376.2,396.2 378.1,396.9 379.6,397.3 381.2,397.7 
		382.7,397.9 384.3,398.1 385.7,398.1 387.2,398.1 388.6,397.9 390.1,397.7 390.7,397.5 391,397.4 391.4,397.3 392.8,396.9 
		393.5,396.6 393.6,396.5 393.8,396.4 394.2,396.3 395.6,395.7 396.9,394.9 397.5,394.5 397.8,394.3 398.2,394.2 399.5,393.2 
		400.2,392.7 400.3,392.5 400.5,392.4 400.8,392.2 402.3,390.7 403,390 403.1,389.8 403.3,389.6 403.7,389.3 403.9,388.9 404,388.7 
		404.2,388.5 404.9,387.8 406,386.3 406.8,384.7 407.6,383.1 407.9,382.3 408,381.9 408.1,381.7 408.2,381.5 408.5,380.6 
		408.6,380.2 408.6,380 408.8,379.8 409.1,378 409.1,377.6 409.1,377.2 409.3,376.3 409.4,374.5 409.3,372.7 409,370.8 408.6,368.9 
		408.4,368.4 408.3,367.9 408.1,367 407.9,366.5 407.7,366 	"/>
	<polygon fill="#66CC99" points="353.7,387.4 354,389.6 354.2,390.8 354.6,391.9 355.3,394.1 356.2,396.2 357.2,398.2 358.5,400.2 
		359.9,402.1 360.7,403 361.6,403.9 363.8,406.1 366.3,408.1 367.5,409 368.8,409.9 371.5,411.4 374.3,412.5 377.2,413.4 
		378.6,413.8 380.2,414.1 381.7,414.4 383.3,414.6 383.8,416.9 384.4,419.3 385.1,421.7 386,424.2 386.8,425.8 387.3,426.6 
		388,427.4 389.3,428.6 390.1,429.2 391,429.7 397.1,433.7 398.3,433.7 398.9,433.7 399.5,433.8 401.9,433.8 404.2,433.7 
		406.5,433.5 401.6,429.6 400,428.4 398.5,427.2 397.1,425.9 395.7,424.7 394.4,423.3 393.1,421.9 391.9,420.4 390.8,419 
		389.9,414.6 389.9,414.6 391.8,414.4 392.7,414.2 393.6,414.1 394.5,413.9 395.4,413.7 397.2,413.3 397.9,412.9 398.3,412.8 
		398.8,412.7 400.4,412 401.9,411.3 403.4,410.5 404.1,409.9 404.2,409.8 404.4,409.7 404.8,409.4 406.2,408.5 407.5,407.3 
		408.8,406.1 409.9,404.7 411.1,403.3 412.1,401.8 413.1,400.2 414.6,397.2 415.9,394.4 416.9,391.4 417.8,388.6 416.2,391.2 
		414.4,393.9 412.3,396.7 410.2,399.5 403.1,403.1 401.4,403.9 399.8,404.6 398.2,405.2 396.7,405.8 395,406.2 393.5,406.7 392,407 
		390.5,407.4 389,407.6 387.4,407.7 384.5,407.9 381.5,407.9 378.6,407.5 375.8,406.9 372.9,406.1 370.1,404.9 368.7,404.3 
		367.4,403.6 364.7,401.9 363.4,401 362.1,400.1 360.7,399 359.4,397.9 358.2,396.8 357,395.6 	"/>
	<path fill="#FF9900" d="M406.5,433.5l-2.3,0.1l-2.3,0.1h-2.4l-0.6-0.1h-0.6h-1.1l0.5,0.6l2.2,1.9l2.1,2.1l1.9,2.1l1.8,2.3l1.5,2.2
		l1.4,2.4l1.2,2.4l1.1,2.5l0.8,2.5l0.7,2.6l0.5,2.7l0.4,2.8l0.1,2.8v2.9l-0.3,3l-0.4,3l-0.9,1.7l-0.5,0.9l-0.4,0.9l-1,1.7l-0.9,1.7
		l-1.1,1.6l-1,1.6l-1.1,1.6l-1.2,1.6l-1.3,1.4l-0.7,0.6l-0.6,0.6l-0.8,0.5l-0.4,0.3l-0.3,0.3l-0.8,0.5l-0.4,0.2l-0.2,0.1l-0.1,0.2
		l-0.2,0.1l-0.2,0.1l-0.4,0.2l-0.8,0.4l-1.6,0.6l-1.8,0.4l-1,0.1l-0.9,0.2l-2.3,0.1h-2.1l-2.1-0.2l-1.9-0.3l-1.9-0.5l-1.8-0.6
		l-1.7-0.8l-1.5-0.9l-1.5-1.1l-1.4-1.1l-1.3-1.4l-1.1-1.5l-1.2-1.7l-1-1.7l-0.9-1.9l-0.7-2.1l-1-3.2l-0.3-1.6l-0.1-1.5l-0.1-1.5
		l0.1-1.4l0.5-2.8l0.8-2.7l1.4-2.6l0.8-1.3l1-1.2l2.2-2.3l1.5-1.3l1.7-1.1l1.4-0.8l1.5-0.6l1.4-0.5l1.4-0.3l0.6-0.2l0.6-0.1h1.3h0.6
		l0.6,0.1l0.6,0.1l0.6,0.2l1.1,0.4l0.5,0.2l0.6,0.3l1,0.7l1,0.9l0.9,1l0.9,1.1l0.4,0.6l0.5,0.7l0.8,1.4l0.5,1.1l0.5,1.1l0.4,1.1
		l0.3,1.1l0.1,1.1l0.1,1.1v1l-0.1,1.1l-0.3,0.9l-0.1,0.2l-0.1,0.1v0.2l-0.1,0.5l-0.3,0.4l-0.1,0.2l-0.1,0.1v0.2l-0.5,1l-0.6,0.8
		l-0.4,0.4l-0.2,0.2l-0.1,0.3l-0.8,0.9l-0.5,0.4l-0.4,0.5l-0.6,0.3l-0.5,0.3l-0.5,0.2l-0.5,0.2l-1.2-0.1l-1-0.1l-1-0.2l-0.8-0.2
		l-0.8-0.3l-0.7-0.3l-0.6-0.4l-0.5-0.5l-0.5-0.6l-0.3-0.6l-0.3-0.7l-0.1-0.7l-0.1-0.9v-0.9l0.1-0.9l0.2-1l0.5-0.2l0.6-0.1l0.5-0.2
		l0.5-0.2l0.4-0.3l0.4-0.2l0.3-0.3l0.4-0.3l0.1-0.2l0.1-0.2l0.1-0.2l0.1-0.2l0.1-0.4l0.1-0.2l0.1-0.2v-0.5v-0.3l0.1-0.2l-0.1-0.5
		v-0.5l-0.3-0.9l-0.3-0.7l-0.4-0.6l-0.5-0.5l-0.5-0.3l-0.6-0.3l-0.7-0.2l-0.8,0.1h-1.1l-1,0.1l-0.9,0.2l-0.8,0.3l-0.8,0.3l-0.7,0.4
		l-0.6,0.4l-0.5,0.5l-0.6,0.5l-0.5,0.6l-0.7,1.5l-0.3,0.8l-0.2,0.9l-0.1,1v1.1l-0.1,1.4l0.1,1.4l0.1,1.3l0.3,1.3l0.3,1.2l0.5,1.1
		l0.5,1.1l0.7,1.1l0.7,0.9l0.8,0.9l0.9,0.9l1.1,0.8l1.1,0.7l1.2,0.6l1.3,0.6l1.5,0.5l1.1,0.3l0.6,0.1l0.6,0.2l1.1,0.2h0.6l0.6,0.1
		l0.5-0.1h0.6l1.1-0.1l1-0.3l0.5-0.2l0.6-0.1l0.9-0.5l0.1-0.1l0.1-0.1l0.2-0.1l0.5-0.2l0.9-0.6l0.2-0.2l0.3-0.2l0.5-0.3l0.4-0.4
		l0.2-0.2l0.2-0.2l0.9-0.9l0.8-1l0.4-0.5l0.1-0.2l0.1-0.1l0.2-0.2l1-1.7l0.8-1.6l0.7-1.7l0.6-1.6l0.4-1.7l0.3-1.6l0.1-1.7l0.1-1.6
		l-0.2-1.7l-0.3-1.6l-0.5-1.7l-0.5-1.6l-0.8-1.7l-0.9-1.6l-1-1.7l-1.1-1.6l-1-1.4l-1-1.1l-1.1-1l-1.1-0.9l-1.3-0.8l-1.3-0.7
		l-0.7-0.3l-0.6-0.2l-1.4-0.4l-2.2-0.5l-2.1-0.3l-2.1-0.1l-1.9,0.1l-1.9,0.1l-1.8,0.3l-1.8,0.5l-1.7,0.6l-1.7,0.7l-1.6,0.9l-1.5,1.1
		l-1.5,1.2l-1.5,1.3l-1.3,1.5l-1.3,1.7l-1.2,1.9l-0.8,1.2l-0.6,1.3l-1.1,2.7l-0.7,2.8l-0.2,2.9l-0.1,2.7v1.4l0.1,1.4l0.3,2.7
		l0.6,2.7l0.3,1.3l0.4,1.3l0.9,2.6l1.1,2.5l1.3,2.5l0.6,1l0.7,1.1l1.5,2l1.6,1.8l0.8,0.9l1,0.9l1.9,1.5l2.1,1.4l2.2,1.1l1.1,0.5
		l1.3,0.5l1,0.4l-3.5,0.2l-3.3,0.5l-3.3,0.6l-3.2,0.9l1.3,2.5l1.2,2.5l1,2.6l0.9,2.6l0.6,2.6l0.5,2.6l0.3,2.7l0.1,2.7l-0.1,2.6
		l-0.2,2.7l-0.5,2.7l-0.6,2.8l-0.9,2.7l-1,2.9l-1.2,2.9l-1.3,2.9l-0.6,0.9l-0.5,0.9l-0.6,0.8l-0.6,0.9L364,551l-0.2-0.1l-0.1,0.1
		l-0.1,0.2L363,552l-0.4,0.3l-0.1,0l-0.1,0.1l-0.1,0.2l-0.6,0.7l-1.5,1.2l-0.8,0.5l-0.8,0.5l-0.9,0.4l-0.8,0.4l-1.8,0.7l-3.2,0.9
		l-3.1,0.8l-3.1,0.7l-3.1,0.5l-3.2,0.5l-3.1,0.4l-1.6,0.1l-1.5,0.2l-3.1,0.3l-3.2,0.1h-3.1l-3.2-0.1l-3.1-0.2l-3.2-0.3l-3.1-0.3
		l-3.2-0.5l-3.1-0.6l-13.5,33.5l2.7,3.2l2.8,3.3l2.7,3.4l2.7,3.5l2.6,3.5l2.6,3.6l2.6,3.7l2.6,3.8l1,1.5l1.1,1.5l1.1,1.4l1.3,1.5
		l1.8-1.2l1.9-1.3l1.8-1.5l1.9-1.5l1.9-1.7l1.9-1.8l1.9-2.1l1.9-2.1l2.2-2.7l2.1-2.6l2-2.6l1.9-2.6l24,23l1.9-1.5l1-0.9l1-0.8
		l1.9-1.7l1.9-1.7l1.8-1.9l1.8-1.9l0.8-1.1l0.9-1l0.4-0.6l0.5-0.5l0.9-1l9.2-12.2l1.6,1.8l1.9,2l1.9,2.1l2.1,2.2l2.2,2.2l2.4,2.4
		l2.5,2.4l2.6,2.6l2.6,2.3l2.8,2.2l2.8,2.1l3,2l13.4-27.2l5.1,5.5l2.6,2.7l2.8,2.7l5.6,5.3l5.8,5.2l9,7.8l8.1-34.7l1.6,2.6l1.8,2.7
		l1.9,2.7l2.1,2.8l17.4,23.1l0-23.2l0.9,1l1.1,1.1l1.2,1l1.3,1.1l-8.4-22.5l-2.9-6.8l-3-6.6l-3.2-6.6l-3.3-6.5l-1.8-3.2l-2.5,1.3
		l-2.6,1.3l-2.4,1l-2.3,0.9l-2.3,0.8l-2.2,0.7l-2.2,0.6l-2.2,0.5l-2.1,0.4l-2.1,0.4l-2.1,0.2l-2.1,0.1l-2-0.1l-1.9-0.1l-1.9-0.3
		l-1.9-0.3l-1.8-0.5l-1.8-0.5l-1.8-0.7l-1.7-0.7l-1.7-0.9l-1.7-0.9l-1.7-1.1l-1.6-1.1l-1.5-1.2l-1.5-1.3l-1.5-1.5l-1.4-1.5l-1.4-1.6
		l-1.4-1.7l-1.3-1.8l-1.3-1.9l-1.3-2.1l-1.2-2.2l-1.1-2.1l-0.8-2l-0.8-2l-0.6-2l-0.3-1.1l-0.2-1l-0.3-2l-0.2-2v-2l0.1-2.1l0.2-2
		l0.3-2.1l0.6-2l0.6-2.1l0.8-2l1-2.1l1.1-2l1.1-2.1l-17.5-3.3l1.4-0.6l1.5-0.7l1.4-0.8l1.5-0.9l1.4-1l1.4-1.1l1.4-1.2l1.4-1.2
		l0.6-0.8l0.7-0.7l1.3-1.5l1.1-1.6l1.1-1.5l1-1.6l0.5-0.9l0.5-0.8l0.8-1.7l0.8-1.7l0.6-1.8l0.6-1.8l0.2-1l0.3-0.9l0.2-1l0.2-0.9
		l0.1-1l0.2-1l0.2-1.9l0.1-1.9l0.1-1.9l-0.1-2.6l-0.2-2.4l-0.3-2.4l-0.4-2.2l-0.6-2.3l-0.6-2.2l-0.7-2.2l-0.8-2.1l-1-2.1l-1.1-1.9
		l-1.2-1.9l-1.2-1.8l-1.5-1.8l-1.5-1.7l-1.6-1.7L406.5,433.5L406.5,433.5z M391,533.5l1.6,0.3l1.6,0.5l1.5,0.5l1.4,0.7l1.3,0.7
		l1.3,0.9l1.1,0.9l1.1,1.1l1,1.1l0.9,1.2l0.8,1.3l0.8,1.4l0.6,1.4l0.6,1.6l0.5,1.6l0.5,1.8l0.3,2.4l0.3,2.4l0.1,2.4l0.1,2.5
		l-0.1,2.5l-0.2,2.5l-0.3,2.4l-0.4,2.5l-0.4,1.4l-0.2,0.7l-0.2,0.7l-0.5,1.4l-0.5,1.4l-0.7,1.3l-0.4,0.6l-0.2,0.3l-0.1,0.4l-0.2,0.3
		l-0.2,0.3l-0.4,0.6l-0.8,1.3l-1.7,1.8l-0.9,0.8l-0.8,0.7l-0.9,0.6l-0.9,0.6l-0.5,0.2l-0.3,0.1l-0.1,0.1l-0.1,0.1l-0.9,0.4l-1,0.3
		l-1,0.3H393l-0.2,0.1l-0.5,0.1l-1,0.1h-1.1l-0.2-0.1h-0.1h-0.3H389l-1.1-0.1l-0.6-0.1l-0.5-0.1l-1.1-0.3l-1-0.3l-2-0.8l-1.8-0.9
		l-1.7-1.2l-1.6-1.4l-0.8-0.8l-0.7-0.8l-1.3-1.7l-1.1-1.9l-1.4-3l-0.6-1.5L371,571l-0.8-3l-0.5-3l-0.2-3.1l0.1-3.1l0.1-1.6l0.3-1.5
		l0.3-1.6l0.5-1.5l0.5-1.9l0.7-1.8l0.7-1.7l0.9-1.6l0.9-1.6l1-1.4l1.1-1.4l1.3-1.2l1.2-1.2l1.4-1.1l1.5-1l1.7-0.8l1.6-0.8l1.8-0.7
		l1.8-0.6L391,533.5L391,533.5z"/>
	<path fill="#66CC99" d="M407.4,550.7l-0.5-1.8l-0.5-1.6l-0.6-1.6l-0.6-1.4l-0.8-1.4l-0.8-1.3l-0.9-1.2l-1-1.1l-1-1.2l-1.1-0.9
		l-1.3-0.9l-1.3-0.7l-1.4-0.7l-1.5-0.5l-1.6-0.5l-1.6-0.3l-2.1,0.5l-1.8,0.6l-1.8,0.7l-1.6,0.8l-1.7,0.8l-1.5,1l-1.4,1.1l-1.2,1.2
		l-1.3,1.2l-1.1,1.4l-1,1.4l-0.9,1.6l-0.9,1.6l-0.7,1.7l-0.7,1.8l-0.5,1.9l-0.5,1.5l-0.3,1.6l-0.3,1.5l-0.1,1.6l-0.1,3.1l0.2,3.1
		l0.5,3l0.8,3l0.5,1.4l0.6,1.5l1.4,3l1.1,1.9l1.3,1.7l0.7,0.8l0.8,0.8l1.6,1.4l1.7,1.2l1.8,0.9l2,0.8l1,0.3l1.1,0.3l0.5,0.1l0.6,0.1
		l1.1,0.1h0.5h0.3h0.1l0.2,0.1h1.1l1-0.1l0.5-0.1l0.2-0.1h0.3l1-0.3l1-0.3l0.9-0.4l0.1-0.1l0.1-0.1l0.3-0.1l0.5-0.2l0.9-0.6l0.9-0.6
		l0.8-0.7l0.9-0.8l1.7-1.8l0.8-1.3l0.4-0.6l0.2-0.3l0.2-0.3l0.1-0.4l0.2-0.3l0.4-0.6l0.7-1.3l0.5-1.4l0.5-1.4l0.2-0.7l0.2-0.7
		l0.4-1.4l0.4-2.5l0.3-2.4l0.2-2.5l0.1-2.4l0.1-2.5l-0.1-2.4l-0.3-2.4L407.4,550.7L407.4,550.7z M388.9,541.5l2.8-0.7l1.1,0.4
		l1.1,0.5l1.1,0.5l1.1,0.7l1,0.6l0.9,0.7l0.8,0.9l0.8,0.9l0.7,0.9l0.6,1.1l0.6,1.1l0.6,1.2l0.4,1.2l0.4,1.3l0.3,1.4l0.3,1.5l0.2,2.2
		v0.5v0.3l0.1,0.3l0.1,1.1l-0.1,2.2l-0.1,1.1l-0.1,1.2l-0.2,1l-0.1,0.5l-0.1,0.1v0.2v0.3l-0.6,2.2l-0.8,2.1l-0.5,1.1l-0.4,1.1
		l-0.7,1.1l-0.4,0.5l-0.1,0.1l-0.1,0.2l-0.1,0.3l-0.8,1l-0.4,0.4l-0.2,0.2l-0.1,0.3l-0.3,0.2l-0.2,0.2l-0.4,0.4l-0.8,0.7l-0.9,0.6
		l-0.2,0.1l-0.1,0.1l-0.1,0.1l-0.4,0.3l-1,0.4l-0.5,0.2l-0.5,0.2l-1,0.2l-1,0.2h-1.1l-1.1-0.1l-0.6-0.1l-0.2-0.1h-0.1h-0.2L386,581
		l-1.3-0.5l-1.2-0.7l-1.1-0.9l-1-1l-1.2-1.7l-1.1-1.6l-1-1.7l-0.7-1.6l-0.7-1.7l-0.5-1.7l-0.5-1.7l-0.2-1.7l-0.2-1.8l-0.1-1.8
		l0.1-1.8l0.3-1.8l0.3-1.9l0.6-1.8l0.6-1.9l0.8-1.9l0.8-1.7l1-1.5l1.1-1.3l1.3-1l0.6-0.5l0.8-0.4l1.6-0.6l0.8-0.3l1-0.2L388.9,541.5
		L388.9,541.5z"/>
	<polygon fill="#FFFFFF" points="391.7,540.8 388.9,541.5 386.9,541.8 385.9,542 385.1,542.3 383.5,542.9 382.7,543.4 382.1,543.9 
		380.7,545 379.6,546.3 378.7,547.8 377.9,549.5 377.1,551.4 376.5,553.3 375.9,555.2 375.6,557 375.3,558.8 375.2,560.7 
		375.3,562.5 375.5,564.3 375.7,566 376.2,567.7 376.6,569.4 377.3,571.1 378,572.8 379,574.5 380.1,576 381.3,577.7 382.3,578.8 
		383.4,579.7 384.6,580.5 386,581 387.1,581.2 387.4,581.2 387.5,581.2 387.7,581.3 388.4,581.4 389.5,581.4 390.6,581.4 
		391.7,581.2 392.7,581 393.2,580.8 393.7,580.7 394.7,580.3 395.1,580 395.1,579.9 395.3,579.8 395.5,579.7 396.4,579.1 
		397.2,578.4 397.6,577.9 397.8,577.8 398.1,577.6 398.2,577.3 398.4,577.1 398.8,576.7 399.5,575.7 399.7,575.4 399.8,575.2 
		399.9,575.1 400.3,574.6 401,573.4 401.4,572.3 401.8,571.2 402.6,569.1 403.1,566.9 403.1,566.6 403.1,566.4 403.2,566.3 
		403.3,565.8 403.6,564.8 403.6,563.6 403.8,562.5 403.9,560.3 403.8,559.1 403.8,558.8 403.8,558.5 403.8,558 403.6,555.8 
		403.2,554.3 402.9,552.9 402.5,551.6 402.2,550.4 401.6,549.2 401,548.1 400.3,547 399.7,546.2 398.8,545.2 398,544.4 397.1,543.6 
		396.2,542.9 395.1,542.3 394,541.7 392.8,541.2 	"/>
	<path fill="#66CC99" d="M351.2,499.7l-4.2-3.9l-0.6,1.2l-0.6,1.2l-0.4,0.5l-0.1,0.1l-0.1,0.1v0.1l-0.1,0.3l-0.7,1.1l-0.8,0.9
		l-0.8,1l-0.9,0.9l-0.9,0.8l3.7,2.9l1.2,1.1l1.2,1.2l1.1,1.3l1.2,1.5l-5.7,3.6l-2.8,1.8l-2.7,2l-5.3,4.1l-2.6,2.2l-2.5,2.3l-2.9,2.7
		l-2.7,2.9l-2.6,3l-1.3,1.5l-1.1,1.7l-3.5,4.7l-3.1,4.9l-2.9,5l-2.6,5.3l3.1,0.6l3.2,0.5l3.1,0.4l3.2,0.3l3.1,0.2l3.2,0.1h3.1
		l3.2-0.1l3.1-0.3l1.5-0.2l1.6-0.1l3.1-0.4l3.2-0.5l3.1-0.6l3.1-0.7l3.1-0.8l3.2-0.9l1.8-0.7l0.8-0.4l0.9-0.4l0.8-0.5l0.8-0.5
		l1.5-1.2l0.6-0.7l0.1-0.2l0.1-0.1l0.1-0.1l0.4-0.3l0.6-0.7l0.1-0.2l0.1-0.1l0.1-0.1l0.4-0.3l0.6-0.9l0.6-0.8l0.5-0.9l0.6-0.9
		l1.3-2.9l1.2-2.9l1-2.9l0.9-2.7l0.6-2.8l0.5-2.7l0.2-2.7l0.1-2.6l-0.1-2.7l-0.3-2.7l-0.5-2.5l-0.6-2.6l-0.9-2.6l-1-2.6l-1.2-2.5
		l-1.3-2.5l-2.6,0.7l-2.6,0.9l-2.5,1l-2.4,1.2l-1.2-2.3l-1.3-2.1l-1.4-1.9L351.2,499.7L351.2,499.7z M354.8,521.4l1.7,0.4l1.7,0.5
		l1.5,0.5l1.5,0.7l1.2,0.7l1.1,0.9l1,0.9l0.9,1.1l0.6,1.1l0.6,1.2l0.4,1.3l0.3,1.4l0.1,1.4v1.6l-0.2,1.6l-0.2,1.8l-0.4,1.1l-1.1-1.4
		l-1-1.2l-1.1-1.2l-1.1-1l-1.2-1l-1.2-0.9l-1.3-0.9l-1.3-0.7l-1.5-0.7l-1.4-0.6l-1.5-0.5l-1.5-0.4l-1.7-0.4l-1.6-0.2l-1.7-0.2
		l-1.7-0.1l0.8-1.5l1-1.3l1.1-1.1l1.2-0.9l1.3-0.8l1.5-0.6l1.6-0.5L354.8,521.4L354.8,521.4z M365.5,541.8l-2.3,3l-1,0.7l-0.9,0.7
		l-0.9,0.6l-0.9,0.5l-0.5,0.2l-0.5,0.2l-0.9,0.3l-0.9,0.2l-0.9,0.2l-1-0.1l-0.9-0.1l-0.9-0.2l-0.9-0.3l-0.5-0.2l-0.3-0.1l-0.1-0.1
		h-0.1l-0.9-0.5l-0.9-0.6l-0.9-0.6l-1.7-1.4l-0.9-0.7l-0.6-0.7l-0.7-0.8l-0.5-0.7l-0.5-0.8l-0.3-0.7l-0.6-1.7l-0.2-1.7v-1.8l0.2-1.8
		l1.3-0.2l1.3,0l2.6,0.2l2.6,0.5l2.7,0.9l1.6,0.6l1.7,0.8l1.5,0.8l1.6,1l1.4,1l1.5,1.1l1.4,1.1L365.5,541.8L365.5,541.8z"/>
	<polygon fill="#FFFFFF" points="366.9,538.5 367,536.7 367.3,535.1 367.2,533.4 367.2,532 366.9,530.6 366.5,529.3 365.9,528.1 
		365.3,527 364.4,525.9 363.4,525 362.3,524.1 361.1,523.4 359.7,522.7 358.2,522.2 356.5,521.8 354.8,521.4 352.9,521.6 
		351.3,522.1 349.9,522.7 348.5,523.5 347.3,524.4 346.2,525.5 345.2,526.8 344.4,528.2 346.1,528.3 347.8,528.5 349.4,528.7 
		351.1,529 352.6,529.4 354.2,529.9 355.6,530.5 357,531.2 358.3,531.9 359.7,532.8 360.9,533.7 362.1,534.7 363.2,535.8 364.4,537 
		365.4,538.2 366.5,539.6 	"/>
	<polygon fill="#FFFFFF" points="363.2,544.8 365.5,541.8 364.1,540.5 362.8,539.3 361.3,538.3 359.9,537.2 358.3,536.3 
		356.7,535.5 355.1,534.7 353.5,534.1 350.7,533.3 348.1,532.8 345.5,532.6 344.2,532.7 342.9,532.8 342.6,534.6 342.6,536.4 
		342.9,538.1 343.5,539.8 343.8,540.5 344.2,541.3 344.8,542.1 345.4,542.9 346,543.5 346.8,544.3 348.4,545.6 349.3,546.3 
		350.2,546.8 351.1,547.3 351.2,547.3 351.3,547.4 351.6,547.5 352.1,547.7 353,548 353.9,548.2 354.8,548.2 355.8,548.3 
		356.7,548.1 357.6,547.9 358.5,547.6 358.9,547.4 359.4,547.3 360.3,546.8 361.2,546.2 362.1,545.5 	"/>
	<path fill="#66CC99" d="M415.4,505.3l-1.1,2.1l-1.1,2l-1,2.1l-0.8,2l-0.6,2.1l-0.6,2l-0.3,2.1l-0.2,2l-0.1,2.1v2l0.2,2l0.3,2l0.2,1
		l0.3,1.1l0.6,2l0.8,2l0.8,2l1.1,2.1l1.2,2.2l1.3,2.1l1.3,1.9l1.3,1.8l1.4,1.7l1.4,1.6l1.4,1.5l1.5,1.5l1.5,1.3l1.5,1.2l1.6,1.1
		l1.7,1.1l1.7,0.9l1.7,0.9l1.7,0.7l1.8,0.7l1.8,0.5l1.8,0.5l1.9,0.3l1.9,0.3l1.9,0.1l2,0.1l2.1-0.1l2.1-0.2l2.1-0.4l2.1-0.4l2.2-0.5
		l2.2-0.6l2.2-0.7l2.3-0.8l2.3-0.9l2.4-1l2.6-1.3l2.5-1.3l-1.8-3l-1.8-2.9l-3.7-5.6l-2.1-2.8l-2-2.6l-2.1-2.6l-2.2-2.6l-2.5-2.7
		l-2.5-2.6l-2.6-2.5l-1.3-1.2l-1.3-1.1l-2.8-2.3l-2.8-2.1l-2.9-1.9l-3-1.8l-3.8-2.2l1.1-2.1l4-5.8l-0.8-0.3l-1.3-0.6l-1.3-0.6
		l-1.3-0.7l-1.1-0.8l-2.5-2.6l-2.1,4.2l-0.7,1.4l-0.5,1.5l-0.3,1.5l-0.2,1.5l-3.2-1.3l-3.1-1.1l-3.2-1.1L415.4,505.3L415.4,505.3z
		 M444.7,533.2l0.3,3.4l-0.1,0.9l-0.1,0.4v0.5l-0.1,0.4l-0.1,0.4l-0.1,0.9l-0.2,0.7l-0.2,0.8l-0.4,0.7l-0.1,0.2l-0.1,0.2l-0.1,0.4
		l-0.5,0.6l-0.2,0.3l-0.1,0.2l-0.1,0.2l-0.2,0.1l-0.1,0.2l-0.2,0.3l-0.5,0.6l-0.7,0.5l-0.6,0.6l-0.8,0.5l-0.8,0.6l-1.2,0.6l-1.1,0.5
		l-1.2,0.3l-1.1,0.4l-1.1,0.2l-1,0.2l-1-0.1l-0.9-0.1l-1-0.3l-0.9-0.3l-0.8-0.4l-0.8-0.5l-0.8-0.6l-0.8-0.7l-0.7-0.8l-0.6-0.9
		l0.6-1.7l0.8-1.5l1-1.4l1-1.3l1.1-1.1l1.1-1.1l1.1-0.9l1.2-0.9l1.3-0.7l1.3-0.6l1.3-0.5l1.4-0.4l1.5-0.3l1.5-0.2h1.6l1.6,0.1
		L444.7,533.2L444.7,533.2z M440.1,528.9L440.1,528.9l-2.7,0.3l-2.5,0.5l-2.4,0.8l-2.2,1.1l-2.2,1.3l-2,1.6l-1.9,1.9l-1.7,2.1
		l-0.2,1.1l-1,1.6l-0.6-1.4l-0.4-1.3l-0.3-1.3l-0.1-1.2l0.1-2.4l0.2-1.1l0.5-1.1l0.5-1.1l0.6-1l0.7-1l0.8-1l2-1.8l1.2-0.9l1.3-0.8
		l2.9-1.3h1l1.1,0.1l1,0.1l1,0.2l0.9,0.2l0.9,0.3l1.7,0.7l1.4,0.8l1.3,1l1.1,1.1l0.5,0.6l0.5,0.7L440.1,528.9L440.1,528.9z"/>
	<polygon fill="#FFFFFF" points="445,536.6 444.7,533.2 443,532.9 441.4,532.9 439.8,532.9 438.3,533 436.8,533.3 435.4,533.7 
		434,534.2 432.7,534.8 431.4,535.5 430.2,536.3 429,537.2 427.9,538.3 426.9,539.5 425.8,540.8 424.9,542.1 424,543.7 423.4,545.4 
		424.1,546.3 424.8,547.1 425.5,547.7 426.4,548.4 427.1,548.8 428,549.3 428.9,549.5 429.8,549.8 430.7,549.8 431.7,549.9 
		432.7,549.7 433.8,549.6 434.9,549.2 436,548.8 437.2,548.3 438.4,547.8 439.2,547.2 440,546.7 440.6,546.1 441.3,545.5 
		441.8,544.9 442.1,544.6 442.2,544.4 442.4,544.3 442.5,544.1 442.6,544 442.8,543.6 443.3,543 443.5,542.6 443.5,542.4 
		443.7,542.2 444,541.5 444.3,540.7 444.5,540 444.7,539.1 444.7,538.7 444.9,538.3 444.9,537.8 444.9,537.4 	"/>
	<polygon fill="#FFFFFF" points="440.1,528.9 440.1,528.9 443,528.4 442.5,527.7 442,527 440.9,525.9 439.5,524.9 438.1,524.1 
		436.4,523.5 435.5,523.2 434.6,523 433.5,522.8 432.6,522.7 431.5,522.6 430.5,522.6 427.6,523.9 426.3,524.7 425,525.6 
		423.1,527.4 422.2,528.4 421.5,529.4 420.9,530.4 420.5,531.5 420.1,532.6 419.9,533.7 419.8,536 419.9,537.2 420.2,538.5 
		420.6,539.8 421.2,541.2 422.1,539.5 422.4,538.5 424.1,536.4 426,534.5 427.9,532.9 430.2,531.6 432.4,530.5 434.9,529.7 
		437.4,529.2 	"/>
	<polygon fill="#FF9900" points="340.8,491.5 340.6,491.5 333.7,500.5 335.6,501.1 336.9,501.7 338.3,502.3 339.6,503 340.9,503.9 
		341.8,503.1 342.7,502.2 343.5,501.3 344.4,500.3 345.1,499.3 345.2,499 345.2,498.9 345.3,498.8 345.4,498.7 345.8,498.2 
		346.4,497 347.1,495.8 345.5,494.5 344,493.4 342.4,492.4 	"/>
	<polygon fill="#FF6699" points="340.6,491.5 340.1,491.2 338.6,490.5 337.2,490 334.3,489 332.7,488.5 331.2,488.1 328.1,487.6 
		327.2,487.7 325.4,488 323.7,488.6 322.1,489.3 320.7,490.4 320,490.8 319.6,491.4 319.1,492 318.9,492.7 318.7,494.1 318.8,494.9 
		319,495.9 319.7,496.4 320.5,496.8 322.3,497.7 323.1,498 324.1,498.3 326.1,498.7 333.5,500.4 333.7,500.5 	"/>
	<polygon fill="#F46E1D" points="275.1,553.5 274.1,554.4 272.4,556 270.5,557.4 269.6,558.1 268.7,558.8 266.9,560.1 265,561.2 
		264,561.8 263.1,562.4 261.2,563.4 259.4,564.3 261.6,569.2 263.8,574.1 265.9,579.1 267.9,584.1 269.7,589.2 271.4,594.4 
		273.1,599.6 274.6,604.9 279.5,626 277.7,636.9 275.7,647.9 274.5,653.7 273.7,659.5 273,665.3 272.5,671.2 271.6,675 271,679.8 
		270.5,686.3 270.2,693 270.1,699.6 270.4,706.2 270.5,709.8 270.9,713.4 271.4,717 272.1,720.7 274.2,721.8 276.3,722.9 
		278.5,723.9 280.7,724.9 282.9,725.7 285.2,726.5 287.5,727.2 289.9,727.8 292.2,728.3 294.6,728.8 297,729.2 299.4,729.5 
		301.9,729.7 304.4,729.9 306.9,729.9 309.5,729.9 314.9,729.5 319.5,719.1 324.4,708.9 329.3,698.8 334.4,688.8 335.6,686.4 
		337,684.1 338.5,681.9 340.2,679.9 341.9,677.8 343.8,676 345.7,674.1 347.9,672.5 351.4,669.8 355,667.3 358.7,664.9 362.5,662.8 
		366.4,660.7 370.3,658.9 374.4,657.2 378.5,655.8 381.4,655.1 402.2,652 405.1,651.8 407.9,651.7 410.7,651.8 413.5,652 
		416.2,652.3 418.9,652.8 420.2,653 421.5,653.4 424.2,654.2 425.4,654.6 426.7,655 429.2,656 431.6,657.1 434.1,658.5 436.4,659.8 
		438.7,661.3 439.8,662.1 441,663 443.3,664.9 444.4,665.9 445.6,667.1 446.7,668.2 447.7,669.6 448.6,670.8 449.5,672.2 
		450.3,673.7 451.1,675.2 452.2,677.9 453.2,680.7 454,683.5 454.8,686.3 455.3,689.2 455.8,692.1 456.1,695 456.3,698 457.3,726.2 
		507.2,730.9 508.5,727.6 509.8,724.4 511,721.1 512.2,717.8 512.2,717.1 512.9,712.1 513.4,707.2 513.9,702.2 514.4,697.4 
		513.2,674.5 513.2,674.2 510.3,654.6 509.5,649.3 508.5,644.2 507.4,639 506.1,634 505.7,633.1 507.3,630 510.8,622.5 512.8,618.8 
		514.8,615.2 516.8,611.5 519,608 521.3,604.5 523.7,601.1 525.7,598.2 527.8,595.4 529.9,592.7 532.1,590 536.7,584.8 541.5,579.9 
		525.7,569.1 523.8,571.2 521.2,574 518.8,577 516.4,580.1 514.2,583.3 511.8,586.6 509.6,590 507.6,593.5 505.8,597.1 504.1,600.7 
		502.7,604.4 501.4,608.2 500.3,612.1 499,608 497.6,606.8 496.4,605.8 495.3,604.6 494.4,603.6 494.4,626.7 477.1,603.7 475,600.8 
		473.1,598.1 471.2,595.4 469.6,592.8 461.5,627.6 452.5,619.8 446.7,614.5 441.1,609.2 438.3,606.5 435.7,603.8 430.6,598.3 
		417.2,625.4 414.2,623.4 411.4,621.4 408.5,619.1 405.9,616.8 403.3,614.3 400.8,611.8 398.4,609.5 396.1,607.2 394,605 392.1,603 
		390.2,601 388.6,599.1 379.4,611.3 378.5,612.4 378.1,612.9 377.7,613.5 376.8,614.5 376,615.6 374.2,617.5 372.4,619.5 
		370.5,621.2 368.5,623 367.5,623.8 366.6,624.6 364.6,626.1 340.6,603.1 338.7,605.8 336.7,608.4 334.6,611.1 332.4,613.8 
		330.5,615.9 328.6,618 326.6,619.8 324.8,621.5 322.8,623.1 321.1,624.6 319.2,625.8 317.4,627 316.1,625.6 314.9,624.2 
		313.7,622.7 312.8,621.2 310.1,617.4 307.6,613.7 305,610.1 302.4,606.6 299.7,603 297,599.7 294.2,596.3 291.5,593.1 291.5,593.3 
		289.1,599.8 288.1,594.4 286.8,589 285.5,583.7 284,578.4 281.9,572 279.8,565.8 277.5,559.6 	"/>
	<path fill="#FF9900" d="M431.8,499.7l2.5,2.6l1.1,0.8l1.3,0.7l1.3,0.6l1.3,0.6l0.8,0.3l4.4-4.4l-0.8-1.2l-0.8-1l-1-1l-1-0.9
		l-1.2-0.9l-1.3-0.7l-1.3-0.7l-1.5-0.5L431.8,499.7L431.8,499.7z M438.8,498.1l0.2,0.2l-0.5,0.3L438.8,498.1L438.8,498.1z"/>
	<path fill="#FF6699" d="M444.5,500.9l1.9-1.7l2-1.6l2.1-1.4l2.2-1.3l0.6-0.5l0.6-0.5l0.2-0.3l0.1-0.2l0.2-0.1l0.6-0.5l0.5-0.6
		l0.5-0.6l0.4-0.7l0.4-0.7l0.3-1.1l0.3-1l0.2-1l0.1-0.9l-0.1-0.8l-0.1-0.7l-0.3-0.7l-0.3-0.5l-0.5-0.6l-0.5-0.3l-0.7-0.4l-0.7-0.2
		l-0.9-0.3l-1-0.1l-1.1,0l-1.1,0.1l-2.2,1.1L446,484l-2,1.3l-1.9,1.5l-1.8,1.5l-1.7,1.7l-1.6,1.8l-1.5,1.9l1.5,0.5l1.3,0.7l1.3,0.7
		l1.2,0.9l1,0.9l1,1l0.8,1L444.5,500.9L444.5,500.9z M452.8,486.8l-0.2,0.3l-0.3-0.3l0.3-0.1L452.8,486.8L452.8,486.8z"/>
	<polygon fill="#FF6699" points="555.8,549.3 553,550.2 550.4,551.3 547.8,552.5 545.3,553.8 542.8,555.2 540.4,556.7 538,558.2 
		535.8,560 539.3,563 541.2,564.4 543.2,565.8 545.1,567.1 547.2,568.3 551.5,570.6 552.9,569.3 554.1,568.2 555.3,567.1 
		556.3,565.9 557.4,564.8 558.2,563.5 558.7,562.9 559.2,562.3 559.6,561.6 560,561 560.4,560.3 560.9,559.6 561.5,558.4 
		561.9,557.4 562.2,556.3 562.5,555.4 562.5,554.5 562.5,553.7 562.3,552.9 562.1,552.3 561.7,551.6 561.2,551.1 560.6,550.6 
		559.9,550.3 559,549.9 558.1,549.6 557,549.4 	"/>
	<polygon fill="#FF9900" points="528.3,566.4 525.7,569.1 541.5,579.9 551.5,570.6 547.2,568.3 545.1,567.1 543.2,565.8 
		541.2,564.4 539.3,563 535.8,560 	"/>
	<polygon fill="#FF6699" points="473.2,741.8 460.2,739.3 461.2,741.9 462.3,744.6 463.5,747.2 464.8,749.7 466.8,753.7 
		475.6,757.2 479.8,757.8 485.2,756.8 490,754.5 490,754.7 490.8,754.2 493.4,751.4 494.7,749.9 495.4,749.2 495.5,748.9 
		495.5,748.8 495.7,748.8 496.1,748.5 497.2,746.9 498.4,745.4 499.6,743.9 500.7,742.3 499,742.6 497.3,742.8 494,743.1 
		493.1,743.1 492.7,743.1 492.3,743.1 490.6,743.3 488.9,743.3 487.2,743.3 485.4,743.2 483.7,743.1 480.2,742.9 478.4,742.6 
		476.7,742.4 474.9,742.1 474,741.9 	"/>
	<polygon fill="#FF9900" points="460.2,739.3 473.2,741.8 474,741.9 474.9,742.1 476.7,742.4 478.4,742.6 480.2,742.9 483.7,743.1 
		485.4,743.2 487.2,743.3 488.9,743.3 490.6,743.3 492.3,743.1 492.7,743.1 493.1,743.1 494,743.1 497.3,742.8 499,742.6 
		500.7,742.3 502.4,739.6 504,736.8 505.5,734 507,731.1 507.2,730.9 457.3,726.2 457.8,729.5 458,731.2 458.4,732.9 459.3,736.1 	
		"/>
	<polygon fill="#FF6699" points="309.1,741.1 307,741.2 305,741.3 303,741.4 301.1,741.4 299.1,741.2 297.1,740.9 295.2,740.6 
		293.3,740.3 291.4,739.7 289.4,739.1 287.5,738.5 285.7,737.8 283.7,737 281.9,736 280.1,735.1 278.3,734 275.6,733.7 276.6,736.5 
		278,740 279.6,743.4 281.4,746.6 283.4,749.9 283.9,750.2 284.8,750.4 285.9,750.7 286.1,750.7 286.3,750.8 286.8,750.9 
		287.9,751.1 288.7,751.2 289.7,751.3 291.7,751.4 292,751.3 292.5,751.3 293.4,751.3 294.2,751.2 295.1,751.1 296.8,750.8 
		298.4,750.3 298.8,750.1 299.2,750 299.9,749.6 300.6,749.2 301.4,748.8 302.8,747.9 304.2,746.8 305.5,745.5 306.8,744.2 
		307.9,742.7 	"/>
	<polygon fill="#FF9900" points="278.3,734 280.1,735.1 281.9,736 283.7,737 285.7,737.8 287.5,738.5 289.4,739.1 291.4,739.7 
		293.3,740.3 295.2,740.6 297.1,740.9 299.1,741.2 301.1,741.4 303,741.4 305,741.3 307,741.2 309.1,741.1 314.9,729.5 309.5,729.9 
		306.9,729.9 304.4,729.9 301.9,729.7 299.4,729.5 297,729.2 294.6,728.8 292.2,728.3 289.9,727.8 287.5,727.2 285.2,726.5 
		282.9,725.7 280.7,724.9 278.5,723.9 276.3,722.9 274.2,721.8 272.1,720.7 275,732 275.6,733.7 	"/>
</g>
<text transform="matrix(1 0 0 1 31.5824 818.1867)" font-family="'IrishGrover'" font-size="129.4478">P</text>
<text transform="matrix(1 0 0 1 107.0429 818.1867)" font-family="'IrishGrover'" font-size="86.2986">aper</text>
<text transform="matrix(1 0 0 1 298.5202 818.1867)" font-family="'IrishGrover'" font-size="129.4478"> M</text>
<text transform="matrix(1 0 0 1 442.0144 818.1867)" font-family="'IrishGrover'" font-size="86.2986">onsters</text>
</svg>
