<?xml version="1.0" encoding="utf-8"?>
<!-- Generator: Adobe Illustrator 17.1.0, SVG Export Plug-In . SVG Version: 6.00 Build 0)  -->
<!DOCTYPE svg PUBLIC "-//W3C//DTD SVG 1.1//EN" "http://www.w3.org/Graphics/SVG/1.1/DTD/svg11.dtd">
<svg version="1.1" id="Layer_1" xmlns="http://www.w3.org/2000/svg" xmlns:xlink="http://www.w3.org/1999/xlink" x="0px" y="0px"
	 viewBox="0 0 720 480" enable-background="new 0 0 720 480" xml:space="preserve">
<g>
	<polygon fill="#FF6699" points="247.7,171.3 246.9,171.4 246.1,171.8 245.4,172.2 244.7,172.8 244,173.5 243.5,174.4 243.2,175.4 
		243.1,175.9 243.1,176.5 243,178.8 243.1,180 243.2,181.2 243.7,183.5 244.4,185.9 247.8,194.1 248.6,193.6 249.4,193.2 251,192.3 
		254.3,190.3 254.4,190.2 254.6,190 255,189.8 255.9,189.3 257.5,188.2 259.1,187.1 260.7,186.1 258.2,181.2 257.2,179.4 
		256.6,178.6 256.1,177.8 255,176.4 253.7,175.1 252.3,173.9 251.5,173.3 250.8,172.8 249.3,172 	"/>
	<polygon fill="#66CC99" points="247.8,194.1 251.6,202.2 253.1,201.4 254.6,200.6 255.3,200.2 256.1,199.7 257.6,198.8 259,197.8 
		259.7,197.2 260.5,196.7 261.9,195.5 263.3,194.3 264.1,193.6 260.7,186.1 259.1,187.1 257.5,188.2 255.9,189.3 255,189.8 
		254.6,190 254.4,190.2 254.3,190.3 251,192.3 249.4,193.2 248.6,193.6 	"/>
	<path fill="#F46E1D" d="M373.8,41.7l-1-1.6l-1-1.5l-1.1-1.4l-1.1-1.2l-0.7-0.6l-0.6-0.6l-0.7-0.5l-0.6-0.5l-1.3-0.9l-0.7-0.4
		l-0.7-0.3l-1.5-0.7l-1.5-0.6l-1.6-0.5l-1.6-0.3l-1.7-0.3l-0.9-0.1h-0.9h-1.8l-1,0l-0.9,0.1l-2.3,0.1l-2.2,0.4l-2.1,0.6l-2,0.8l-2,1
		l-1.8,1.2l-1.7,1.4l-1.6,1.6l-1.9,2.1l-0.9,1.1l-0.8,1.2l-1.4,2.4l-0.7,1.2l-0.5,1.4l-1,2.6l-0.4,1.3l-0.3,1.4l-0.5,2.8l-0.3,2.9
		l-0.1,2.3l0.2,2.3l2.5,6.5l1,1l1,0.9l1,0.9l1.1,0.8l1,0.8l1.1,0.7l2.1,1.3l1,0.5l1.1,0.5l2.2,0.9l2.2,0.7l2.3,0.5l2.3,0.3l2.4,0.1
		l2.3-0.2l1.2-0.1l1.2-0.2l1.2-0.3l1.2-0.3l1.2-0.3l1.3-0.4l1.2-0.5l1.3-0.5l1.3-0.6l1.3-0.6l5.6-2.9l1.7-2.2l1.6-2.2l1.4-2.1
		l1.3-2.1l0.4-2.7l0.2-2.6v-1.3l0-1.2l-0.3-2.6l-0.6-2.7l-0.8-2.6l-0.5-1.3l-0.3-0.7l-0.1-0.3l-0.1-0.3l-0.6-1.3L373.8,41.7
		L373.8,41.7z M350.7,31.8l1.6,0h0.8l0.8,0.1l1.5,0.2l1.5,0.3l1.4,0.4l1.3,0.5l1.2,0.6l1.2,0.7l1.1,0.8l0.5,0.4l0.6,0.5l1,1l1,1.1
		l0.8,1.2l0.8,1.3l0.7,1.5l0.3,0.8l0.4,0.8l0.2,0.7l0.1,0.4l0.1,0.4l0.2,0.8l0.1,0.4l0.1,0.4l0.2,1.5l0.3,1.5l0.1,1.4l0,1.4
		l-0.1,0.7l0,0.3v0.4l-0.3,1.4L370,56l-0.1,0.2l-0.1,0.3l-0.2,0.7l-0.1,0.1l-0.1,0.2l-0.1,0.3l-0.2,0.7l-0.7,1.2l-0.7,1.2l-0.9,1.2
		l-0.5,0.6l-0.1,0.1l-0.1,0.2l-0.2,0.3l-0.3,0.3l-0.1,0.1l-0.1,0.2l-0.5,0.6l-1.2,1.2l-0.3,0.2l-0.1,0.1l-0.1,0.1l-0.5,0.4l-1,0.8
		l-0.3,0.1l-0.3,0.2l-0.5,0.3l-1,0.6l-1.1,0.5l-0.3,0.1l-0.1,0l-0.1,0.1l-0.5,0.3l-1.1,0.3l-0.3,0l-0.3,0.1l-0.5,0.2l-1.2,0.2
		l-1.1,0.1l-1.2,0l-1.1,0l-1.2-0.1l-1.2-0.2l-1.2-0.3l-1.2-0.3l-1.5-0.6l-1.4-0.6l-1.3-0.7l-1.2-0.8l-1.2-1l-1-1l-1-1.2l-0.8-1.2
		l-0.7-1.2l-0.6-1.2l-0.9-2.3l-0.4-1.2l-0.2-1.1l-0.1-1.2v-1.1l-0.1-1.2l0.1-1.2l0.1-1.2l0.4-1.2l0.4-1.2l0.4-1.2l0.6-1.2l0.7-1.2
		l0.8-1.4l0.9-1.3l0.3-0.7l0.4-0.6l0.7-1.2l0.9-1.1l0.9-1l1.1-0.8l1.1-0.8l1.2-0.6l1.3-0.5l1.4-0.3l1.8-0.8L350.7,31.8L350.7,31.8z"
		/>
	<polygon fill="#FFFFFF" points="369.1,44.1 368.7,43.3 368.4,42.5 367.7,41 366.9,39.7 366.1,38.5 365.1,37.4 364.1,36.3 
		363.6,35.8 363.1,35.4 362,34.6 360.8,33.9 359.6,33.2 358.3,32.7 356.9,32.4 355.4,32.1 353.9,31.8 353.1,31.8 352.3,31.8 
		350.7,31.8 348.7,32.3 347,33.1 345.6,33.5 344.3,34 343.1,34.6 342,35.3 341,36.2 340.1,37.1 339.2,38.2 338.5,39.5 338.1,40.1 
		337.9,40.8 337,42.1 336.2,43.4 335.6,44.6 335,45.8 334.5,47 334.2,48.2 333.8,49.4 333.7,50.5 333.5,51.7 333.6,52.9 333.6,54.1 
		333.7,55.2 333.9,56.4 334.3,57.5 335.1,59.8 335.7,60.9 336.4,62.1 337.2,63.4 338.2,64.6 339.2,65.6 340.4,66.6 341.6,67.4 
		342.9,68.2 344.3,68.8 345.8,69.4 347,69.7 348.2,70 349.5,70.2 350.7,70.3 351.8,70.4 353,70.3 354.1,70.2 355.3,70 355.8,69.9 
		356.1,69.8 356.4,69.7 357.5,69.4 358,69.1 358.1,69.1 358.3,69 358.6,68.9 359.7,68.5 360.7,67.8 361.2,67.5 361.5,67.3 
		361.8,67.2 362.8,66.5 363.3,66 363.4,65.9 363.5,65.8 363.8,65.6 365,64.5 365.5,63.9 365.6,63.7 365.8,63.6 366.1,63.3 366.3,63 
		366.4,62.9 366.5,62.7 367,62.1 367.9,61 368.6,59.7 369.2,58.4 369.4,57.8 369.5,57.5 369.6,57.3 369.7,57.2 369.9,56.5 370,56.1 
		370,56 370.1,55.8 370.4,54.4 370.4,54 370.4,53.7 370.5,53 370.6,51.6 370.5,50.2 370.3,48.7 370,47.2 369.9,46.8 369.8,46.4 
		369.6,45.6 369.4,45.2 369.3,44.9 	"/>
	<polygon fill="#CC3300" points="326.5,61.8 326.7,63.6 326.9,64.5 327.1,65.4 327.7,67.1 328.4,68.8 329.2,70.4 330.2,72 
		331.4,73.5 332,74.2 332.7,75 334.5,76.7 336.4,78.3 337.4,79 338.4,79.7 340.6,80.9 342.8,81.8 345.1,82.5 346.2,82.8 347.5,83.1 
		348.7,83.2 350,83.4 350.3,85.3 350.8,87.2 351.3,89.1 352,91 352.7,92.3 353.1,93 353.6,93.5 354.7,94.6 355.3,95 356,95.4 
		360.9,98.6 361.8,98.6 362.3,98.6 362.8,98.6 364.7,98.6 366.5,98.5 368.3,98.4 364.5,95.3 363.2,94.4 362,93.4 360.8,92.4 
		359.8,91.4 358.7,90.3 357.7,89.2 356.8,88.1 355.9,86.9 355.1,83.4 355.2,83.4 356.7,83.2 357.4,83.1 358.1,83 358.8,82.9 
		359.5,82.7 360.9,82.4 361.5,82.1 361.8,82 362.2,81.9 363.5,81.4 364.7,80.8 365.9,80.1 366.4,79.7 366.5,79.6 366.7,79.5 
		367,79.3 368.1,78.5 369.1,77.6 370.1,76.7 371,75.6 372,74.5 372.8,73.2 373.6,72 374.8,69.6 375.8,67.4 376.6,65.1 377.3,62.8 
		376,64.9 374.6,67 372.9,69.2 371.2,71.4 365.6,74.3 364.3,74.9 363,75.5 361.7,76 360.5,76.4 359.2,76.8 358,77.1 356.8,77.4 
		355.6,77.7 354.4,77.8 353.2,78 350.9,78.1 348.5,78.1 346.2,77.8 343.9,77.3 341.7,76.7 339.4,75.7 338.3,75.2 337.3,74.7 
		335.2,73.4 334.1,72.7 333.1,71.9 332,71.1 331,70.2 330,69.3 329,68.3 	"/>
	<path fill="#F46E1D" d="M368.3,98.4l-1.8,0.1l-1.8,0.1h-1.9l-0.5,0h-0.4h-0.9l0.4,0.5l1.7,1.5l1.7,1.7l1.5,1.7l1.4,1.8l1.2,1.8
		l1.1,1.9l0.9,1.9l0.9,2l0.6,2l0.6,2.1l0.4,2.1l0.3,2.2l0.1,2.2v2.3l-0.2,2.4l-0.3,2.4l-0.7,1.4l-0.4,0.7l-0.3,0.7l-0.8,1.3
		l-0.7,1.3l-0.9,1.2l-0.8,1.3l-0.9,1.2l-0.9,1.3l-1,1.1l-0.6,0.5l-0.5,0.5l-0.6,0.4l-0.3,0.2l-0.3,0.3l-0.6,0.4l-0.3,0.2l-0.1,0.1
		l-0.1,0.1l-0.2,0l-0.1,0.1l-0.3,0.1l-0.6,0.3l-1.3,0.5l-1.4,0.3l-0.8,0.1l-0.7,0.1l-1.8,0h-1.7l-1.7-0.2l-1.5-0.3l-1.5-0.4
		l-1.4-0.4l-1.3-0.6l-1.2-0.7l-1.2-0.9l-1.1-0.9l-1-1.1l-0.9-1.2l-0.9-1.4l-0.8-1.4l-0.7-1.5l-0.6-1.6l-0.8-2.6l-0.3-1.2l-0.1-1.2
		l0-1.2l0-1.1l0.4-2.2l0.7-2.1l1.1-2.1l0.6-1l0.8-0.9l1.8-1.8l1.2-1l1.4-0.8l1.1-0.6l1.2-0.5l1.1-0.4l1.1-0.2l0.4-0.1l0.5,0h1h0.5
		l0.5,0.1l0.5,0.1l0.5,0.2l0.9,0.3l0.4,0.2l0.4,0.3l0.8,0.6l0.8,0.7l0.7,0.8l0.7,0.9l0.3,0.5l0.4,0.6l0.7,1.1l0.4,0.9l0.4,0.9
		l0.3,0.9l0.3,0.9l0.1,0.8l0.1,0.8v0.8l0,0.8l-0.3,0.7l-0.1,0.2l-0.1,0.1v0.1l-0.1,0.4l-0.2,0.3l-0.1,0.2l-0.1,0.1v0.1l-0.4,0.8
		l-0.5,0.6l-0.3,0.3l-0.1,0.2l-0.1,0.2l-0.7,0.7l-0.4,0.3l-0.3,0.4l-0.5,0.3l-0.4,0.2l-0.4,0.1l-0.4,0.1l-1,0l-0.8-0.1l-0.8-0.1
		l-0.7-0.2l-0.7-0.3l-0.6-0.3l-0.5-0.3l-0.4-0.4l-0.4-0.5l-0.3-0.5l-0.3-0.6l-0.1-0.6l-0.1-0.7v-0.7l0-0.7l0.1-0.8l0.4-0.1l0.4-0.1
		l0.4-0.1l0.4-0.1l0.3-0.2l0.3-0.2l0.3-0.3l0.3-0.2l0.1-0.2l0.1-0.1l0-0.2l0.1-0.1l0.1-0.3l0.1-0.2l0.1-0.1v-0.4v-0.2l0-0.2l0-0.4
		v-0.4l-0.2-0.7l-0.2-0.6l-0.3-0.5l-0.4-0.4l-0.4-0.2l-0.5-0.2l-0.6-0.1l-0.6,0h-0.9l-0.8,0.1l-0.7,0.1l-0.6,0.2l-0.7,0.2l-0.6,0.3
		l-0.5,0.3L344,121l-0.4,0.4l-0.4,0.5l-0.6,1.2l-0.3,0.6l-0.2,0.7l-0.1,0.8v0.9l-0.1,1.1l0.1,1.1l0.1,1l0.3,1l0.2,0.9l0.4,0.9
		l0.4,0.9l0.6,0.8l0.5,0.7l0.7,0.7l0.7,0.7l0.9,0.6l0.9,0.6l1,0.5l1,0.5l1.2,0.4l0.9,0.3l0.4,0.1l0.5,0.1l0.9,0.1h0.4l0.5,0l0.4,0
		h0.4l0.9-0.1l0.8-0.2l0.4-0.1l0.5-0.1l0.7-0.4l0.1-0.1l0.1,0l0.2-0.1l0.4-0.2l0.7-0.5l0.1-0.2l0.2-0.1l0.4-0.3l0.3-0.3l0.1-0.2
		l0.2-0.1l0.7-0.7l0.6-0.8l0.3-0.4l0.1-0.1l0.1-0.1l0.2-0.2l0.8-1.3l0.7-1.2l0.6-1.3l0.5-1.2l0.3-1.3l0.3-1.2l0.1-1.3l0-1.2
		l-0.1-1.4l-0.2-1.2l-0.4-1.3l-0.4-1.2l-0.6-1.3l-0.7-1.2l-0.8-1.3l-0.9-1.2l-0.8-1.1l-0.8-0.9l-0.9-0.8l-0.9-0.7l-1-0.6l-1-0.6
		l-0.6-0.3l-0.5-0.2l-1.1-0.3l-1.7-0.4l-1.6-0.3l-1.7-0.1l-1.5,0l-1.5,0.1l-1.5,0.3L344,108l-1.3,0.5l-1.4,0.6l-1.3,0.7l-1.2,0.8
		l-1.2,1l-1.2,1.1l-1.1,1.2l-1,1.3l-1,1.5l-0.6,1l-0.5,1l-0.9,2.1l-0.6,2.2l-0.1,2.3l0,2.2v1.1l0.1,1.1l0.3,2.1l0.5,2.1l0.2,1l0.3,1
		l0.7,2.1l0.9,2l1,2l0.5,0.8l0.6,0.9l1.2,1.6l1.3,1.5l0.7,0.7l0.8,0.7l1.5,1.2l1.7,1.1l1.8,0.9l0.9,0.4l1,0.4l0.8,0.3l-2.8,0.2
		l-2.6,0.4l-2.6,0.5l-2.5,0.7l1,2l1,2l0.8,2.1l0.7,2.1l0.5,2.1l0.4,2.1l0.2,2.1l0.1,2.2l-0.1,2.1l-0.2,2.2l-0.4,2.2l-0.4,2.2
		l-0.7,2.2l-0.8,2.3l-1,2.3l-1,2.3l-0.4,0.7l-0.4,0.7l-0.5,0.6l-0.4,0.7l-0.3,0.3l-0.1-0.1l-0.1,0.1l-0.1,0.2l-0.5,0.6l-0.3,0.3
		l-0.1,0l-0.1,0.1l-0.1,0.2l-0.5,0.6l-1.2,0.9l-0.7,0.4l-0.6,0.4l-0.7,0.3l-0.7,0.3l-1.4,0.6l-2.5,0.7l-2.4,0.6l-2.4,0.6l-2.4,0.4
		l-2.5,0.4l-2.5,0.3l-1.3,0.1l-1.2,0.1l-2.5,0.2l-2.5,0h-2.4l-2.5-0.1l-2.4-0.1l-2.5-0.3l-2.4-0.3l-2.5-0.4l-2.4-0.4L277.1,225
		l2.1,2.5l2.2,2.6l2.1,2.7l2.2,2.8l2,2.8l2.1,2.9l2,2.9l2.1,3l0.8,1.2l0.9,1.2l0.9,1.1l1.1,1.2l1.4-1l1.5-1l1.4-1.2l1.5-1.2l1.5-1.4
		l1.5-1.5l1.5-1.6l1.5-1.7l1.8-2.2l1.7-2.1l1.6-2.1l1.5-2.1l19,18.3l1.5-1.2l0.8-0.7l0.8-0.6l1.5-1.4l1.5-1.4l1.4-1.5l1.4-1.5
		l0.7-0.8l0.7-0.8l0.3-0.5l0.4-0.4l0.7-0.8l7.3-9.7l1.3,1.5l1.5,1.6l1.5,1.6l1.7,1.8l1.8,1.8l1.9,1.9l2,1.9l2.1,2.1l2.1,1.8l2.2,1.8
		l2.2,1.6l2.4,1.6l10.7-21.5l4,4.4l2.1,2.1l2.2,2.2l4.4,4.2l4.6,4.1l7.1,6.2l6.5-27.6l1.3,2.1l1.4,2.1l1.5,2.2l1.7,2.2l13.8,18.3
		l0-18.4l0.7,0.8l0.9,0.9l1,0.8l1.1,0.9l-6.6-17.9l-2.3-5.4l-2.4-5.3l-2.5-5.2l-2.6-5.1l-1.4-2.5l-2,1l-2,1.1l-1.9,0.8L416,199
		l-1.8,0.6l-1.8,0.6l-1.8,0.5l-1.7,0.4l-1.7,0.3l-1.6,0.3l-1.7,0.1l-1.6,0l-1.6,0l-1.5,0l-1.5-0.2l-1.5-0.2l-1.5-0.4l-1.4-0.4
		l-1.4-0.5l-1.4-0.6l-1.4-0.7l-1.3-0.7l-1.3-0.9l-1.3-0.9l-1.2-1l-1.2-1l-1.2-1.2l-1.1-1.2l-1.1-1.3l-1.1-1.4l-1.1-1.5l-1-1.5
		l-1-1.7l-0.9-1.7l-0.9-1.6l-0.7-1.6l-0.6-1.6l-0.5-1.6l-0.3-0.8l-0.1-0.8l-0.3-1.6l-0.1-1.6V170l0-1.7l0.2-1.6l0.3-1.6l0.5-1.6
		l0.5-1.7l0.7-1.6l0.8-1.6l0.9-1.6l0.9-1.7l-13.9-2.6l1.1-0.5l1.2-0.6l1.1-0.6l1.2-0.7l1.1-0.8l1.1-0.8l1.1-1l1.1-1l0.5-0.6l0.6-0.6
		l1-1.2l0.9-1.2l0.9-1.2l0.8-1.3l0.4-0.7l0.4-0.6l0.7-1.3l0.7-1.3l0.5-1.4l0.5-1.4l0.1-0.8l0.2-0.7l0.1-0.8l0.2-0.7l0.1-0.8l0.1-0.8
		l0.2-1.5l0.1-1.5l0.1-1.5l-0.1-2.1l-0.1-1.9l-0.3-1.9L379,117l-0.5-1.8l-0.5-1.8l-0.6-1.7l-0.7-1.6l-0.8-1.7l-0.9-1.5l-1-1.5
		l-1-1.5l-1.2-1.5l-1.2-1.3l-1.3-1.3L368.3,98.4L368.3,98.4z M356.1,177.7l1.3,0.3l1.3,0.4l1.2,0.4l1.1,0.5l1,0.6l1,0.7l0.9,0.7
		l0.9,0.9l0.8,0.9l0.7,1l0.6,1l0.6,1.1l0.5,1.1l0.5,1.3l0.4,1.3l0.4,1.5l0.3,1.9l0.3,1.9l0.1,1.9l0.1,2l-0.1,1.9l-0.1,2l-0.3,1.9
		l-0.3,2l-0.3,1.1l-0.2,0.6l-0.2,0.6l-0.4,1.1l-0.4,1.1l-0.6,1l-0.3,0.5l-0.1,0.3l-0.1,0.3l-0.2,0.2l-0.1,0.3l-0.3,0.5l-0.7,1
		l-1.4,1.4l-0.7,0.6l-0.7,0.6l-0.7,0.5L361,219l-0.4,0.2l-0.2,0.1l-0.1,0l0,0.1l-0.7,0.3l-0.8,0.3l-0.8,0.2h-0.3l-0.2,0l-0.4,0.1
		l-0.8,0.1h-0.9l-0.1,0H355h-0.2h-0.4l-0.9-0.1l-0.4-0.1l-0.4,0l-0.9-0.3l-0.8-0.3l-1.6-0.6l-1.5-0.7l-1.4-0.9l-1.3-1.1l-0.6-0.6
		l-0.5-0.6l-1.1-1.4l-0.9-1.5l-1.1-2.4l-0.5-1.2l-0.4-1.1l-0.6-2.4l-0.4-2.4l-0.1-2.4l0.1-2.4l0.1-1.2l0.3-1.2l0.3-1.2l0.4-1.2
		l0.4-1.5l0.6-1.5l0.6-1.4l0.7-1.2l0.7-1.2l0.8-1.1l0.9-1.1l1-1l1-1l1.1-0.8l1.2-0.8l1.3-0.6l1.3-0.6l1.4-0.6l1.5-0.5L356.1,177.7
		L356.1,177.7z"/>
	<path fill="#CC3300" d="M369,191.3l-0.4-1.5l-0.4-1.3l-0.5-1.3l-0.5-1.1l-0.6-1.1l-0.6-1l-0.7-1l-0.8-0.9l-0.8-0.9l-0.9-0.7l-1-0.7
		l-1-0.6l-1.1-0.5l-1.2-0.4l-1.3-0.4l-1.3-0.3l-1.7,0.4l-1.5,0.5l-1.4,0.6l-1.3,0.6l-1.3,0.6l-1.2,0.8l-1.1,0.8l-1,1l-1,0.9
		l-0.9,1.1l-0.8,1.1l-0.7,1.2l-0.7,1.2L341,190l-0.6,1.5l-0.4,1.5l-0.4,1.2l-0.3,1.2l-0.3,1.2l-0.1,1.2l-0.1,2.4l0.1,2.4l0.4,2.4
		l0.6,2.4l0.4,1.1l0.5,1.2l1.1,2.4l0.9,1.5l1.1,1.4l0.5,0.6l0.6,0.6l1.3,1.1l1.4,0.9l1.5,0.7l1.6,0.6l0.8,0.3l0.9,0.3l0.4,0l0.4,0.1
		l0.9,0.1h0.4h0.2h0.1l0.1,0h0.9l0.8-0.1l0.4-0.1l0.2,0h0.3l0.8-0.2l0.8-0.3l0.7-0.3l0-0.1l0.1,0l0.2-0.1l0.4-0.2l0.7-0.5l0.7-0.5
		l0.7-0.6l0.7-0.6l1.3-1.4l0.7-1l0.3-0.5l0.1-0.3l0.2-0.2l0.1-0.3l0.1-0.3l0.3-0.5l0.6-1l0.4-1.1l0.4-1.1l0.1-0.6l0.2-0.6l0.3-1.1
		l0.3-2l0.3-1.9l0.1-2l0.1-1.9l0-1.9l-0.1-1.9l-0.3-1.9L369,191.3L369,191.3z M354.3,184.1l2.2-0.6l0.9,0.3l0.9,0.4l0.9,0.4l0.9,0.6
		l0.8,0.5l0.7,0.6l0.7,0.7l0.7,0.7l0.5,0.7l0.5,0.8l0.5,0.9l0.5,1l0.3,1l0.3,1l0.3,1.1l0.3,1.2l0.1,1.8v0.4v0.2l0,0.3l0.1,0.9
		l-0.1,1.8l-0.1,0.9l0,0.9l-0.2,0.8l-0.1,0.4l-0.1,0.1v0.1v0.3l-0.5,1.8l-0.6,1.7l-0.4,0.8l-0.3,0.9l-0.6,0.9l-0.3,0.4l-0.1,0.1
		l0,0.1l-0.1,0.3l-0.6,0.8l-0.3,0.3l-0.1,0.2l-0.1,0.2l-0.2,0.1l-0.1,0.2l-0.3,0.3l-0.7,0.6l-0.7,0.5l-0.2,0.1l-0.1,0l0,0.1
		l-0.3,0.3l-0.8,0.3l-0.4,0.1l-0.4,0.2l-0.8,0.2l-0.8,0.1h-0.9l-0.9,0l-0.5-0.1l-0.1,0h-0.1H353l-0.9-0.2L351,215l-1-0.6l-0.9-0.7
		l-0.8-0.8l-1-1.3l-0.9-1.2l-0.8-1.4l-0.6-1.3l-0.6-1.4l-0.4-1.4l-0.4-1.4l-0.1-1.3l-0.1-1.4l0-1.4l0-1.5l0.3-1.4l0.3-1.5l0.5-1.5
		l0.4-1.5l0.7-1.5l0.6-1.4l0.8-1.2l0.9-1.1l1.1-0.8l0.5-0.4l0.6-0.3l1.3-0.5l0.7-0.3l0.8-0.2L354.3,184.1L354.3,184.1z"/>
	<polygon fill="#FFFFFF" points="356.6,183.6 354.3,184.1 352.8,184.3 352,184.5 351.3,184.7 350.1,185.2 349.4,185.6 348.9,186 
		347.9,186.8 347,187.9 346.3,189 345.7,190.4 345,191.9 344.5,193.4 344.1,194.9 343.8,196.4 343.6,197.8 343.5,199.3 343.6,200.7 
		343.7,202.1 343.9,203.5 344.3,204.9 344.6,206.2 345.2,207.6 345.7,208.9 346.5,210.2 347.4,211.5 348.3,212.8 349.1,213.6 
		350,214.4 351,215 352,215.4 353,215.6 353.2,215.6 353.3,215.6 353.4,215.6 353.9,215.7 354.8,215.7 355.8,215.7 356.6,215.6 
		357.4,215.4 357.7,215.3 358.1,215.1 359,214.9 359.3,214.6 359.3,214.5 359.4,214.5 359.6,214.4 360.3,213.9 361,213.3 361.3,213 
		361.5,212.8 361.7,212.7 361.7,212.5 361.9,212.3 362.2,212 362.8,211.2 362.9,210.9 363,210.8 363.1,210.7 363.4,210.3 
		363.9,209.4 364.2,208.5 364.6,207.7 365.2,206 365.7,204.2 365.7,204 365.7,203.9 365.7,203.8 365.8,203.4 366,202.5 366.1,201.6 
		366.2,200.7 366.3,199 366.2,198.1 366.2,197.8 366.2,197.6 366.2,197.2 366,195.4 365.7,194.2 365.5,193.1 365.2,192.1 
		364.9,191.2 364.4,190.2 363.9,189.3 363.4,188.5 362.9,187.8 362.3,187 361.6,186.4 360.9,185.7 360.1,185.2 359.3,184.7 
		358.4,184.3 357.5,183.8 	"/>
	<path fill="#CC3300" d="M324.5,150.9l-3.3-3.1l-0.5,1l-0.5,0.9l-0.3,0.4l-0.1,0.1l0,0v0.1l-0.1,0.3l-0.6,0.8l-0.7,0.7l-0.7,0.8
		l-0.7,0.7l-0.7,0.6l2.9,2.3l1,0.9l1,1l0.9,1l1,1.2l-4.5,2.9l-2.2,1.5l-2.2,1.6l-4.2,3.3l-2.1,1.7l-2,1.8l-2.3,2.1l-2.2,2.3
		l-2.1,2.4l-1,1.2l-0.9,1.3l-2.8,3.7l-2.5,3.9l-2.3,4l-2.1,4.2l2.4,0.4l2.5,0.4l2.5,0.3l2.5,0.3l2.4,0.1l2.5,0.1h2.4l2.5,0l2.5-0.2
		l1.2-0.1l1.3-0.1l2.5-0.3l2.5-0.4l2.4-0.5l2.4-0.6l2.4-0.6l2.5-0.7l1.4-0.6l0.7-0.3l0.7-0.3l0.6-0.4l0.7-0.4l1.2-0.9l0.5-0.6
		l0.1-0.2l0-0.1l0.1,0l0.3-0.3l0.5-0.6l0.1-0.2l0.1-0.1l0.1,0l0.3-0.3l0.4-0.7l0.5-0.6l0.4-0.7l0.4-0.7l1-2.3l1-2.3l0.8-2.3l0.7-2.2
		l0.4-2.2l0.4-2.2l0.2-2.2l0.1-2.1l-0.1-2.2l-0.2-2.1l-0.4-2l-0.5-2.1l-0.7-2.1l-0.8-2.1l-1-2l-1-2l-2.1,0.6l-2,0.7l-2,0.8l-1.9,0.9
		l-1-1.8l-1-1.6l-1.1-1.5L324.5,150.9L324.5,150.9z M327.3,168.1l1.4,0.3l1.3,0.4l1.2,0.4l1.2,0.6l1,0.6l0.9,0.7l0.8,0.7l0.7,0.9
		l0.5,0.9l0.5,1l0.3,1l0.3,1.1l0.1,1.1v1.3l-0.1,1.3l-0.1,1.5l-0.3,0.8l-0.9-1.1l-0.8-1l-0.9-1l-0.9-0.8l-1-0.8l-1-0.7l-1.1-0.7
		l-1-0.5l-1.2-0.6l-1.1-0.5l-1.2-0.4l-1.2-0.3l-1.3-0.3l-1.3-0.2l-1.4-0.1l-1.3,0l0.7-1.2l0.8-1l0.9-0.9l1-0.7l1.1-0.6l1.2-0.5
		l1.3-0.4L327.3,168.1L327.3,168.1z M335.8,184.3l-1.8,2.4l-0.8,0.6l-0.7,0.6l-0.7,0.5l-0.7,0.4l-0.4,0.1l-0.4,0.2l-0.7,0.3
		l-0.7,0.1l-0.7,0.1l-0.8,0l-0.7,0l-0.7-0.2l-0.7-0.2l-0.4-0.2l-0.2-0.1l-0.1,0h0l-0.7-0.4l-0.7-0.5l-0.7-0.5l-1.3-1.1l-0.7-0.6
		l-0.5-0.6l-0.5-0.6l-0.4-0.6l-0.4-0.6l-0.3-0.6l-0.5-1.3l-0.2-1.3v-1.4l0.2-1.4l1-0.1l1,0l2.1,0.1l2.1,0.4l2.2,0.7l1.3,0.5l1.3,0.6
		l1.2,0.6l1.3,0.8l1.1,0.8l1.2,0.9l1.1,0.9L335.8,184.3L335.8,184.3z"/>
	<polygon fill="#FFFFFF" points="336.9,181.7 337,180.3 337.2,179 337.2,177.7 337.1,176.5 336.9,175.4 336.6,174.4 336.1,173.5 
		335.7,172.6 334.9,171.7 334.2,171 333.3,170.3 332.3,169.7 331.2,169.2 330,168.8 328.7,168.4 327.3,168.1 325.8,168.3 
		324.6,168.7 323.4,169.2 322.3,169.8 321.4,170.5 320.5,171.4 319.7,172.4 319.1,173.6 320.4,173.6 321.8,173.7 323,173.9 
		324.4,174.2 325.6,174.5 326.8,174.9 327.9,175.4 329.1,175.9 330.1,176.4 331.2,177.1 332.2,177.9 333.1,178.7 334,179.5 
		334.9,180.5 335.7,181.5 336.6,182.6 	"/>
	<polygon fill="#FFFFFF" points="333.9,186.7 335.8,184.3 334.7,183.3 333.6,182.4 332.5,181.5 331.3,180.7 330.1,180 328.9,179.3 
		327.5,178.7 326.3,178.2 324.1,177.5 322,177.2 319.9,177 318.9,177.1 317.9,177.2 317.7,178.6 317.7,180.1 317.9,181.4 
		318.3,182.7 318.6,183.3 319,183.9 319.4,184.5 319.9,185.2 320.3,185.7 320.9,186.3 322.3,187.4 323,187.9 323.7,188.3 
		324.4,188.7 324.4,188.7 324.5,188.7 324.8,188.8 325.2,189 325.9,189.2 326.6,189.4 327.3,189.4 328.1,189.5 328.8,189.3 
		329.5,189.2 330.2,189 330.6,188.8 331,188.7 331.7,188.3 332.4,187.8 333.1,187.3 	"/>
	<path fill="#CC3300" d="M375.4,155.3l-0.9,1.7l-0.8,1.6l-0.8,1.6l-0.7,1.6l-0.5,1.7l-0.5,1.6l-0.3,1.6l-0.2,1.6l0,1.7v1.6l0.1,1.6
		l0.3,1.6l0.1,0.8l0.3,0.8l0.5,1.6l0.6,1.6l0.7,1.6l0.9,1.6l0.9,1.7l1,1.6l1,1.5l1.1,1.5l1.1,1.4l1.1,1.3l1.1,1.2l1.2,1.2l1.2,1
		l1.2,1l1.3,0.9l1.3,0.9l1.3,0.7l1.4,0.7l1.4,0.6l1.4,0.5l1.4,0.4l1.5,0.4l1.5,0.2l1.5,0.2l1.5,0l1.6,0l1.6,0l1.7-0.1l1.6-0.3
		l1.7-0.3l1.7-0.4l1.8-0.5l1.8-0.6l1.8-0.6l1.8-0.7l1.9-0.8l2-1.1l2-1l-1.4-2.4l-1.4-2.3l-3-4.5l-1.6-2.2l-1.6-2.1l-1.7-2.1
		l-1.7-2.1l-2-2.1l-2-2.1l-2.1-2l-1.1-1l-1-0.9L401,168l-2.2-1.6l-2.3-1.5l-2.4-1.4l-3-1.7l0.9-1.7l3.2-4.6l-0.7-0.2l-1.1-0.5
		l-1-0.5l-1-0.5l-0.9-0.6l-1.9-2.1l-1.7,3.3l-0.6,1.1l-0.4,1.2l-0.3,1.2l-0.1,1.2l-2.5-1l-2.5-0.9l-2.5-0.9L375.4,155.3L375.4,155.3
		z M398.7,177.5l0.2,2.7l0,0.7l0,0.3v0.4l-0.1,0.3l0,0.3l-0.1,0.7l-0.2,0.6l-0.2,0.6l-0.3,0.6l-0.1,0.1l-0.1,0.2l-0.1,0.3l-0.4,0.5
		l-0.2,0.3l-0.1,0.1l-0.1,0.2l-0.1,0.1l-0.1,0.1l-0.2,0.3l-0.4,0.5l-0.6,0.4l-0.5,0.5l-0.6,0.4l-0.6,0.5l-1,0.5l-0.9,0.4l-0.9,0.3
		l-0.9,0.3l-0.9,0.1l-0.8,0.1l-0.8,0l-0.7,0l-0.8-0.2l-0.7-0.2l-0.7-0.3l-0.6-0.4l-0.7-0.5l-0.6-0.6l-0.6-0.6l-0.5-0.7l0.5-1.3
		l0.7-1.2l0.8-1.1l0.8-1l0.9-0.9l0.9-0.9l0.9-0.7l1-0.7l1.1-0.6l1-0.5l1.1-0.4l1.1-0.3l1.2-0.2l1.2-0.1h1.3l1.3,0L398.7,177.5
		L398.7,177.5z M395,174.1L395,174.1l-2.2,0.3l-2,0.4l-1.9,0.6l-1.8,0.9l-1.8,1l-1.6,1.2l-1.5,1.5l-1.4,1.7l-0.2,0.8l-0.8,1.3
		l-0.5-1.1l-0.3-1l-0.3-1l-0.1-1l0-1.9l0.1-0.9l0.4-0.8l0.4-0.9l0.4-0.8l0.6-0.8l0.7-0.8l1.6-1.5l1-0.7l1.1-0.6l2.3-1.1h0.8l0.9,0.1
		l0.8,0.1l0.8,0.2l0.7,0.1l0.7,0.2l1.4,0.5l1.1,0.6l1.1,0.8l0.9,0.9l0.4,0.5l0.4,0.6L395,174.1L395,174.1z"/>
	<polygon fill="#FFFFFF" points="398.9,180.2 398.7,177.5 397.3,177.3 396,177.2 394.7,177.2 393.6,177.4 392.3,177.6 391.2,177.9 
		390.2,178.3 389.1,178.8 388.1,179.3 387.1,180 386.2,180.7 385.3,181.6 384.5,182.5 383.7,183.5 382.9,184.6 382.2,185.8 
		381.8,187.2 382.3,187.9 382.8,188.5 383.4,189 384.1,189.5 384.7,189.9 385.4,190.2 386.1,190.4 386.8,190.6 387.5,190.7 
		388.3,190.7 389.1,190.6 390,190.5 390.8,190.2 391.8,189.9 392.7,189.5 393.6,189 394.3,188.6 394.9,188.2 395.4,187.7 
		395.9,187.3 396.3,186.8 396.5,186.5 396.6,186.4 396.8,186.3 396.9,186.2 396.9,186 397.2,185.8 397.6,185.3 397.7,185 
		397.7,184.8 397.8,184.7 398.1,184.1 398.3,183.4 398.5,182.9 398.6,182.2 398.7,181.8 398.8,181.5 398.8,181.2 398.8,180.8 	"/>
	<polygon fill="#FFFFFF" points="395,174.1 395,174.1 397.3,173.7 396.9,173.1 396.5,172.6 395.6,171.7 394.5,170.9 393.4,170.3 
		392.1,169.8 391.3,169.6 390.6,169.4 389.8,169.3 389,169.2 388.2,169.1 387.4,169.1 385.1,170.2 384,170.8 383,171.5 381.5,172.9 
		380.8,173.7 380.2,174.5 379.8,175.3 379.4,176.1 379.1,177 378.9,177.9 378.9,179.7 378.9,180.7 379.2,181.7 379.5,182.7 
		380,183.8 380.7,182.5 380.9,181.7 382.3,180 383.8,178.5 385.3,177.3 387.1,176.2 388.9,175.4 390.8,174.7 392.8,174.3 	"/>
	<polygon fill="#66CC99" points="316.2,144.4 316.1,144.4 310.6,151.5 312.1,152 313.1,152.5 314.2,153 315.2,153.6 316.3,154.2 
		317,153.6 317.7,152.9 318.4,152.2 319,151.4 319.6,150.6 319.7,150.3 319.7,150.3 319.8,150.2 319.9,150.1 320.2,149.7 
		320.7,148.8 321.2,147.8 319.9,146.8 318.7,145.9 317.4,145.2 	"/>
	<polygon fill="#FF6699" points="316.1,144.4 315.7,144.2 314.5,143.7 313.4,143.2 311.1,142.4 309.8,142 308.6,141.7 306.1,141.3 
		305.4,141.4 304,141.6 302.7,142.1 301.4,142.7 300.3,143.5 299.7,143.9 299.4,144.3 299,144.8 298.9,145.4 298.7,146.5 
		298.7,147.2 298.9,147.9 299.5,148.3 300.1,148.7 301.5,149.3 302.2,149.6 303,149.8 304.6,150.1 310.5,151.5 310.6,151.5 	"/>
	<polygon fill="#FF9900" points="264.1,193.6 263.3,194.3 261.9,195.5 260.5,196.7 259.7,197.2 259,197.8 257.6,198.8 256.1,199.7 
		255.3,200.2 254.6,200.6 253.1,201.4 251.6,202.2 253.4,206 255.2,210 256.8,213.9 258.4,217.9 259.8,221.9 261.2,226 262.5,230.2 
		263.7,234.3 267.6,251.1 266.2,259.8 264.6,268.5 263.7,273.1 263,277.7 262.4,282.3 262.1,287 261.3,289.9 260.9,293.8 
		260.4,298.9 260.2,304.2 260.2,309.4 260.3,314.7 260.5,317.6 260.8,320.5 261.2,323.3 261.7,326.2 263.4,327.1 265,328 
		266.8,328.8 268.5,329.5 270.3,330.2 272.1,330.8 274,331.4 275.8,331.9 277.7,332.3 279.5,332.7 281.5,332.9 283.4,333.2 
		285.3,333.4 287.3,333.5 289.3,333.5 291.4,333.5 295.7,333.2 299.3,325 303.2,316.9 307.1,308.8 311.1,300.9 312.1,299 
		313.2,297.2 314.4,295.5 315.7,293.8 317.1,292.2 318.6,290.7 320.1,289.3 321.9,288 324.6,285.8 327.5,283.9 330.4,282 
		333.4,280.3 336.5,278.7 339.6,277.2 342.8,275.9 346.1,274.7 348.4,274.2 364.9,271.8 367.2,271.6 369.5,271.5 371.7,271.6 
		373.9,271.7 376,272 378.2,272.3 379.2,272.6 380.3,272.9 382.4,273.5 383.3,273.8 384.3,274.1 386.3,274.9 388.2,275.8 
		390.2,276.9 392,277.9 393.9,279.1 394.8,279.8 395.7,280.5 397.5,281.9 398.4,282.8 399.3,283.7 400.2,284.6 401,285.7 
		401.7,286.7 402.4,287.8 403.1,288.9 403.7,290.1 404.5,292.3 405.3,294.5 406,296.7 406.6,299 407,301.2 407.4,303.5 407.7,305.8 
		407.8,308.2 408.6,330.6 448.2,334.3 449.2,331.7 450.3,329.1 451.2,326.5 452.1,324 452.2,323.4 452.7,319.4 453.1,315.5 
		453.5,311.6 453.9,307.7 453,289.5 453,289.4 450.7,273.8 450,269.6 449.2,265.5 448.3,261.4 447.3,257.5 447,256.7 448.3,254.3 
		451.1,248.3 452.6,245.4 454.2,242.5 455.9,239.6 457.6,236.8 459.4,234.1 461.3,231.4 462.9,229.1 464.5,226.8 466.2,224.7 
		468,222.6 471.6,218.5 475.4,214.5 462.9,206 461.4,207.6 459.3,209.9 457.4,212.2 455.5,214.7 453.7,217.2 451.9,219.8 
		450.1,222.6 448.5,225.3 447.1,228.2 445.8,231 444.6,234 443.6,237 442.7,240.1 441.7,236.8 440.6,235.9 439.6,235.1 438.8,234.2 
		438.1,233.3 438.1,251.7 424.3,233.4 422.6,231.1 421.1,229 419.7,226.8 418.4,224.8 412,252.3 404.8,246.2 400.2,242 395.8,237.8 
		393.6,235.6 391.5,233.5 387.5,229.1 376.8,250.6 374.4,249.1 372.2,247.4 369.9,245.7 367.9,243.8 365.8,241.8 363.8,239.9 
		361.9,238 360.1,236.2 358.4,234.5 356.9,232.8 355.4,231.3 354.2,229.8 346.9,239.5 346.1,240.3 345.8,240.7 345.5,241.2 
		344.8,242 344.1,242.8 342.7,244.4 341.3,245.9 339.7,247.3 338.2,248.7 337.4,249.3 336.7,250 335.1,251.2 316.1,233 314.5,235.1 
		313,237.2 311.3,239.2 309.5,241.4 308,243.1 306.5,244.7 305,246.2 303.5,247.6 302,248.8 300.5,250 299.1,251 297.6,251.9 
		296.6,250.8 295.7,249.6 294.7,248.5 294,247.3 291.9,244.3 289.9,241.4 287.8,238.5 285.7,235.7 283.6,232.9 281.4,230.2 
		279.3,227.6 277.1,225 277.1,225.2 275.2,230.3 274.4,226 273.4,221.8 272.3,217.5 271.2,213.3 269.5,208.3 267.8,203.4 266,198.4 
			"/>
	<path fill="#66CC99" d="M388.4,150.9l1.9,2.1l0.9,0.6l1,0.5l1,0.5l1.1,0.5l0.7,0.2l3.5-3.5l-0.7-1l-0.7-0.8l-0.8-0.8l-0.8-0.7
		l-1-0.7l-1-0.6l-1.1-0.6l-1.2-0.4L388.4,150.9L388.4,150.9z M394,149.7l0.1,0.2l-0.4,0.2L394,149.7L394,149.7z"/>
	<path fill="#FF6699" d="M398.5,151.9l1.5-1.4l1.6-1.2l1.7-1.1l1.8-1l0.5-0.4l0.5-0.4l0.2-0.3l0.1-0.1l0.1-0.1l0.4-0.4l0.4-0.5
		l0.4-0.5l0.3-0.6l0.3-0.6l0.3-0.9l0.2-0.8l0.1-0.8l0-0.7l-0.1-0.7l-0.1-0.6l-0.2-0.6l-0.3-0.4l-0.4-0.5l-0.4-0.3l-0.6-0.3l-0.6-0.2
		l-0.7-0.2l-0.8-0.1l-0.9,0l-0.9,0l-1.8,0.9l-1.6,1.1l-1.6,1.1l-1.5,1.2l-1.5,1.2l-1.3,1.4l-1.3,1.4l-1.2,1.5l1.2,0.4l1.1,0.6l1,0.6
		l1,0.7l0.8,0.7l0.8,0.8l0.7,0.8L398.5,151.9L398.5,151.9z M405.1,140.7l-0.2,0.3l-0.3-0.3l0.3-0.1L405.1,140.7L405.1,140.7z"/>
	<polygon fill="#FF6699" points="486.7,190.3 484.5,191 482.5,191.9 480.4,192.8 478.4,193.8 476.4,194.9 474.6,196.1 472.7,197.3 
		470.9,198.7 473.7,201.1 475.2,202.3 476.8,203.4 478.3,204.3 479.9,205.3 483.3,207.2 484.5,206.1 485.4,205.3 486.3,204.4 
		487.1,203.5 488,202.5 488.7,201.5 489.1,201 489.5,200.6 489.8,200 490.1,199.5 490.4,199 490.8,198.5 491.2,197.5 491.6,196.7 
		491.9,195.8 492,195.1 492.1,194.4 492.1,193.7 491.9,193.1 491.8,192.7 491.4,192.1 491.1,191.7 490.6,191.3 490,191 489.3,190.7 
		488.6,190.5 487.7,190.4 	"/>
	<polygon fill="#66CC99" points="465,203.8 462.9,206 475.4,214.5 483.3,207.2 479.9,205.3 478.3,204.3 476.8,203.4 475.2,202.3 
		473.7,201.1 470.9,198.7 	"/>
	<polygon fill="#FF6699" points="421.2,342.9 410.9,341 411.7,343.1 412.6,345.2 413.5,347.2 414.6,349.3 416.2,352.4 423.2,355.2 
		426.5,355.6 430.7,354.8 434.6,353.1 434.6,353.2 435.2,352.8 437.3,350.6 438.3,349.4 438.8,348.8 438.9,348.6 439,348.5 
		439.1,348.5 439.4,348.2 440.3,347 441.2,345.8 442.2,344.6 443.1,343.4 441.7,343.6 440.4,343.7 437.7,344 437,344 436.7,344 
		436.4,344 435,344.1 433.7,344.1 432.3,344.2 430.9,344.1 429.6,344 426.8,343.8 425.4,343.6 424,343.4 422.6,343.2 421.9,343 	"/>
	<polygon fill="#66CC99" points="410.9,341 421.2,342.9 421.9,343 422.6,343.2 424,343.4 425.4,343.6 426.8,343.8 429.6,344 
		430.9,344.1 432.3,344.2 433.7,344.1 435,344.1 436.4,344 436.7,344 437,344 437.7,344 440.4,343.7 441.7,343.6 443.1,343.4 
		444.4,341.2 445.7,339 446.9,336.8 448,334.5 448.2,334.3 408.6,330.6 409,333.2 409.2,334.5 409.5,335.9 410.2,338.4 	"/>
	<polygon fill="#FF6699" points="291,342.4 289.4,342.5 287.8,342.6 286.2,342.6 284.7,342.6 283.1,342.5 281.6,342.3 280,342 
		278.5,341.7 277,341.3 275.5,340.9 274,340.3 272.5,339.8 270.9,339.1 269.5,338.4 268.1,337.6 266.6,336.8 264.5,336.5 
		265.3,338.8 266.4,341.5 267.7,344.2 269.1,346.8 270.7,349.4 271.1,349.7 271.8,349.8 272.6,350 272.8,350 273,350.1 273.4,350.1 
		274.2,350.3 274.9,350.4 275.7,350.5 277.2,350.6 277.5,350.5 277.9,350.5 278.6,350.5 279.3,350.4 280,350.4 281.3,350.1 
		282.6,349.7 282.9,349.6 283.2,349.4 283.8,349.2 284.3,348.8 284.9,348.5 286.1,347.8 287.2,347 288.2,345.9 289.2,344.9 
		290.1,343.7 	"/>
	<polygon fill="#66CC99" points="266.6,336.8 268.1,337.6 269.5,338.4 270.9,339.1 272.5,339.8 274,340.3 275.5,340.9 277,341.3 
		278.5,341.7 280,342 281.6,342.3 283.1,342.5 284.7,342.6 286.2,342.6 287.8,342.6 289.4,342.5 291,342.4 295.7,333.2 291.4,333.5 
		289.3,333.5 287.3,333.5 285.3,333.4 283.4,333.2 281.5,332.9 279.5,332.7 277.7,332.3 275.8,331.9 274,331.4 272.1,330.8 
		270.3,330.2 268.5,329.5 266.8,328.8 265,328 263.4,327.1 261.7,326.2 264,335.2 264.5,336.5 	"/>
</g>
<g enable-background="new    ">
	<path d="M67.3,331.8c2.5,0.6,4.8,1.1,6.9,1.4c2,0.3,3.8,0.5,5.2,0.7c1.7,0.2,3.1,0.3,4.4,0.2c1.6-0.1,3.6-0.3,6-0.7
		c2.4-0.4,4.9-0.8,7.6-1.2c2.7-0.4,5.3-0.7,7.9-1c2.6-0.3,4.9-0.3,6.8-0.1c1.9,0.2,4,0.7,6.1,1.4c2.1,0.7,4.1,1.6,6,2.8
		c1.9,1.2,3.5,2.6,4.9,4.3c1.4,1.7,2.2,3.6,2.6,5.8c0.3,2.1,0.1,4.4-0.6,6.9c-0.7,2.4-1.9,4.8-3.5,7.1c-1.6,2.3-3.6,4.4-6,6.4
		c-2.4,1.9-5.1,3.5-8,4.7c-2.3,0.9-4.9,1.5-7.6,2c-2.3,0.4-5.1,0.7-8.2,0.8c-3.1,0.1-6.4-0.2-9.9-1c-0.5,1.9-0.7,3.7-0.8,5.4
		c0,1.6,0,3.1,0.2,4.4c0.2,1.5,0.5,2.8,0.8,4c0.4,1.2,0.9,2.6,1.5,4.2c0.5,1.3,1.2,3,1.9,4.9c0.7,1.9,1.6,4,2.6,6.4
		c-1.2,0-2.4,0-3.5,0.1c-1.1,0-2.2,0.1-3.1,0.2c-1.1,0.1-2.1,0.1-3,0.2c-1.1,0.1-2.3,0.2-3.6,0.4c-1.1,0.1-2.6,0.3-4.3,0.6
		c-1.7,0.3-3.6,0.6-5.8,1c1.4-2,2.5-3.9,3.4-5.6c0.8-1.7,1.5-3.2,1.9-4.5c0.5-1.5,0.8-2.8,0.9-4c0.1-1,0.1-2.8,0.1-5.3
		c0-2.5-0.1-5.5-0.2-8.8c-0.1-3.3-0.2-6.9-0.3-10.5c-0.1-3.7-0.3-7.1-0.5-10.4c-0.2-3.2-0.4-6-0.7-8.4c-0.2-2.3-0.5-3.9-0.7-4.6
		c-0.3-0.9-0.7-1.8-1.4-2.8c-0.5-0.9-1.3-1.9-2.3-3.1C70,334.6,68.8,333.2,67.3,331.8z M88.1,351.5c-0.1,0.7-0.1,1.4-0.1,2.1
		c0,1.4,0.1,3.2,0.3,5.4c0.5,1.1,1.1,2.1,1.8,2.8c0.7,0.7,1.5,1.3,2.3,1.7c0.8,0.4,1.7,0.7,2.6,0.8c0.9,0.1,1.7,0.2,2.6,0.2
		c2-0.1,4.1-0.5,6.3-1.4c2.9-1.3,5-3.1,6.2-5.4c1.2-2.3,1.8-4.7,1.9-7.2c0.1-2.5-0.4-4.7-1.3-6.8c-0.9-2.1-2-3.5-3.3-4.2
		c-1.1-0.5-2.4-0.7-4.1-0.6c-1.5,0.1-3.3,0.4-5.5,1.1c-2.2,0.7-4.9,1.9-8.1,3.6c-0.3,1.2-0.6,2.3-0.8,3.2c-0.2,0.9-0.4,1.8-0.5,2.5
		C88.2,350.1,88.1,350.8,88.1,351.5z"/>
</g>
<g enable-background="new    ">
	<path d="M136.8,376.5c0.2-0.3,0.4-0.8,0.4-1.5s0.2-1.6,0.5-2.5c0.3-0.9,0.8-1.9,1.5-2.9c0.7-1,1.9-2,3.5-2.9
		c1.6-0.9,3.1-1.4,4.5-1.6c1.5-0.2,2.9-0.1,4.2,0.2c1.3,0.3,2.6,0.8,3.8,1.5c1.2,0.7,2.3,1.4,3.2,2.2c0.7,0.5,1.2,1.3,1.6,2.3
		c0.4,1,0.7,2.1,0.9,3.4c0.2,1.2,0.4,2.6,0.5,3.9c0.1,1.4,0.2,2.7,0.2,3.9c0,1.3,0.1,2.4,0.1,3.5c0,1,0.1,1.9,0.2,2.6
		c0.2,1,0.5,1.8,0.9,2.5c0.4,0.7,0.9,1.3,1.5,1.7c0.5,0.5,1.1,0.8,1.6,1.1c0.5,0.3,1,0.5,1.4,0.6c0.3,0.1,0.5,0.2,0.7,0.3
		c0.4,0.2,0.8,0.2,0.9,0c-0.3,0.6-0.5,1.2-0.7,1.6c-0.2,0.4-0.4,0.8-0.5,1.1c-0.2,0.4-0.3,0.6-0.5,0.9c-0.1,0.3-0.3,0.5-0.5,0.7
		c-0.1,0.2-0.3,0.5-0.5,0.7c-0.2,0.3-0.4,0.6-0.7,0.9c-0.6-0.2-1.1-0.5-1.6-0.8c-0.5-0.3-1-0.6-1.4-0.9c-0.5-0.3-0.9-0.6-1.3-0.9
		c-0.4-0.3-0.8-0.7-1.1-1.1c-0.3-0.4-0.6-0.7-1-1.1c-0.3-0.4-0.6-0.8-0.8-1.3c-0.3,0.6-0.9,1.4-1.9,2.5c-1,1.1-2.3,2-3.9,2.9
		s-3.5,1.5-5.6,1.8c-2.1,0.4-4.4,0.1-7-0.7c-1.1-0.4-2.2-0.9-3.1-1.6c-1-0.7-1.8-1.5-2.5-2.5c-0.7-1-1.2-2.1-1.5-3.4
		c-0.3-1.3-0.3-2.7,0-4.2c0.3-1.6,0.9-2.9,1.7-3.9c0.8-1.1,1.8-1.9,2.9-2.6c1.1-0.7,2.4-1.2,3.7-1.5c1.4-0.4,2.8-0.6,4.3-0.7
		c1.2,0,2.3,0,3.5,0.2c1,0.2,2,0.5,3.1,1c1.1,0.5,2,1.2,2.7,2.1c0-2.4-0.1-4.2-0.2-5.6c-0.1-1.4-0.2-2.5-0.3-3.2
		c-0.2-0.9-0.3-1.5-0.5-1.9c-0.2-0.3-0.5-0.7-0.7-1.1c-0.2-0.4-0.5-0.8-0.9-1.1c-0.4-0.3-0.8-0.6-1.3-0.8c-0.5-0.2-1.2-0.3-1.9-0.3
		c-0.8,0-1.4,0.2-1.8,0.6c-0.4,0.4-0.8,0.8-1,1.2c-0.2,0.5-0.4,1-0.4,1.5c0,0.5,0,1,0.1,1.4c0.1,0.3,0.2,0.6,0.4,0.9
		c0.2,0.3,0.4,0.6,0.7,0.9c0.3,0.3,0.7,0.6,1.3,0.8c-1,0.1-1.9,0.2-2.7,0.3c-0.8,0.1-1.5,0.1-2.1,0.2c-0.7,0.1-1.2,0.2-1.7,0.2
		c-0.5,0-1.1,0.1-1.7,0.3c-0.6,0.1-1.3,0.2-2.1,0.3c-0.8,0.1-1.8,0.3-2.9,0.5c0.3-0.3,0.5-0.6,0.7-0.9c0.2-0.3,0.4-0.5,0.6-0.8
		C136.5,376.9,136.6,376.7,136.8,376.5z M146.8,384.4c-0.8,0-1.6,0.2-2.4,0.6s-1.5,0.8-2.1,1.4c-0.6,0.6-1.1,1.3-1.6,2.1
		c-0.4,0.8-0.6,1.6-0.6,2.6s0.2,1.8,0.7,2.4c0.5,0.7,1.1,1.3,1.9,1.7c0.8,0.4,1.6,0.7,2.5,0.8c0.9,0.1,1.8,0,2.7-0.3
		c0.8-0.3,1.6-0.8,2.4-1.5c0.8-0.7,1.4-1.4,1.9-2.3c0.5-0.8,0.9-1.6,1.1-2.5c0.2-0.8,0.2-1.5,0.1-2c-0.4-1.2-1.2-2-2.4-2.4
		C149.8,384.5,148.4,384.3,146.8,384.4z"/>
	<path d="M166.6,372.4c1.4-0.2,2.6-0.4,3.5-0.6c0.9-0.2,1.7-0.3,2.2-0.4c0.7-0.1,1.2-0.2,1.5-0.3c0.4-0.1,0.9-0.2,1.5-0.4
		c0.6-0.2,1.3-0.4,2.3-0.6s2.1-0.6,3.5-1c-0.4,0.4-0.6,0.8-0.8,1.2c-0.2,0.3-0.4,0.6-0.6,0.8c-0.2,0.3-0.3,0.5-0.5,0.7
		c-0.1,0.2-0.3,0.6-0.4,1c-0.1,0.4-0.2,0.9-0.3,1.5c-0.1,0.6-0.2,1.5-0.3,2.5c2.4-1.5,4.6-2.7,6.7-3.4c2-0.8,3.8-1.3,5.3-1.6
		c1.8-0.4,3.4-0.5,4.8-0.4c1.8,0.1,3.4,0.5,5,1.2c1.5,0.6,2.9,1.4,4.2,2.3c1.2,0.9,2.3,1.9,3.3,2.9s1.7,2.1,2.2,3.2
		c0.4,0.7,0.6,1.7,0.7,3.1c0.1,1.3,0,2.8-0.4,4.3c-0.4,1.5-1.1,3-2.1,4.4c-1,1.4-2.4,2.6-4.2,3.4c-3.2,1.4-6.3,2.2-9.4,2.4
		c-1.3,0.1-2.7,0-4.1-0.1c-1.4-0.2-2.8-0.6-4.2-1.1c-1.4-0.6-2.8-1.4-4-2.5c-1.3-1.1-2.5-2.5-3.5-4.2c-0.4,2.3-0.6,4.2-0.8,5.9
		c-0.2,1.7-0.3,3.1-0.3,4.2c0,1.3,0,2.4,0,3.3c0.1,0.9,0.3,1.8,0.5,2.9c0.2,0.9,0.5,1.9,1,3.1c0.4,1.2,1,2.4,1.6,3.7
		c-0.3-0.1-0.6-0.1-1.1-0.2c-0.5,0-0.9,0-1.4,0.1c-0.5,0.1-1.1,0.2-1.8,0.3c-0.6,0.1-1.3,0.3-2.1,0.5c-0.6,0.1-1.3,0.3-2.2,0.5
		c-0.8,0.2-1.7,0.4-2.5,0.7c0.5-0.6,0.9-1.2,1.2-2c0.3-0.7,0.5-1.4,0.7-2c0.2-0.8,0.3-1.5,0.5-2.3c0-0.7,0.1-1.9,0.2-3.8
		c0.1-1.8,0.2-4,0.3-6.4c0.1-2.4,0.2-5,0.2-7.7s0.1-5.2,0.1-7.5c0-2.3,0-4.2,0-5.8c0-1.6-0.1-2.5-0.3-2.8c-0.2-0.3-0.5-0.6-1-1
		c-0.4-0.3-1-0.6-1.7-0.9C168.7,373.1,167.8,372.8,166.6,372.4z M182.5,384.6c-0.3,1-0.4,2-0.2,3c0.2,1,0.6,1.9,1.4,2.7
		c0.7,0.8,1.8,1.6,3.1,2.2c1.4,0.6,3.1,1.1,5.1,1.4c2,0.3,3.6,0.3,4.7-0.1c1.1-0.4,1.9-1,2.4-1.9c0.5-0.9,0.9-1.9,1-3.1
		c0.2-1.2,0.4-2.4,0.7-3.7c0.3-1.2,0.2-2.5-0.1-3.8c-0.4-1.3-0.9-2.5-1.5-3.6c-0.6-1.1-1.4-1.9-2.1-2.6c-0.8-0.7-1.5-1-2-1
		c-1.4,0-2.7,0.4-4.1,1.1c-1.3,0.7-2.6,1.6-3.7,2.7c-1.1,1.1-2.1,2.2-2.9,3.4C183.3,382.5,182.8,383.6,182.5,384.6z"/>
	<path d="M230.5,392.8c1.2,0,2.4-0.1,3.5-0.4c0.9-0.2,1.7-0.6,2.6-1.1c0.8-0.5,1.4-1.3,1.6-2.3c0.9,0.2,1.6,0.3,2.3,0.4
		c0.6,0.1,1.2,0.2,1.6,0.3c0.5,0.1,0.9,0.2,1.3,0.3c0.4,0.1,0.8,0.2,1.3,0.3c0.4,0.1,1,0.2,1.6,0.3c0.6,0.1,1.4,0.3,2.3,0.4
		c-0.7-0.1-1.3,0-2,0.2c-0.7,0.2-1.3,0.5-2,0.7c-0.7,0.3-1.4,0.7-2,1.1c-0.4,0.3-0.9,0.7-1.4,1.2c-0.5,0.5-1.2,1-2.2,1.5
		c-0.9,0.5-2.2,0.9-3.7,1.2c-1.5,0.3-3.5,0.5-5.9,0.4c-2.9-0.1-5.3-0.6-7.3-1.6c-2-1-3.5-2.1-4.7-3.5c-1.2-1.4-2.1-2.9-2.6-4.6
		c-0.5-1.6-0.8-3.2-0.9-4.6c0-1.4,0.4-2.9,1.3-4.5c0.9-1.6,2.1-3,3.8-4.3c1.6-1.3,3.6-2.4,5.9-3.2c2.3-0.8,4.9-1.2,7.6-1.2
		c1.6,0,3.1,0.2,4.4,0.6c1.4,0.4,2.6,0.9,3.7,1.5c1.1,0.6,2.1,1.3,3,2.1c0.8,0.8,1.6,1.6,2.1,2.4c0.6,0.8,1.1,1.7,1.5,2.7
		c0.4,0.8,0.6,1.7,0.9,2.7c0.2,1,0.3,2.1,0.2,3.1c-3.4,0.1-6.1,0.2-8.2,0.2c-2.1,0-3.7,0.1-4.8,0.1h-3h-2.3c-0.8,0-1.8,0-3.1,0.1
		c-1.3,0-2.9,0.1-4.7,0.2c0.2,1.8,0.8,3.2,1.7,4.1c0.9,1,1.9,1.7,2.9,2.2C227.8,392.4,229.1,392.7,230.5,392.8z M224.5,380.8
		c1.4,0.1,2.6,0.2,3.6,0.2c1,0,1.7,0.1,2.4,0.1c0.7,0,1.2,0.1,1.6,0.1h1.7c1.1,0,3.2-0.1,6.2-0.2c-0.1-2-0.5-3.5-1.2-4.5
		c-0.7-1-1.4-1.8-2.2-2.3c-0.9-0.5-1.9-0.8-2.9-0.9c-2.9,0-5,0.6-6.5,1.8S224.8,378.1,224.5,380.8z"/>
	<path d="M250.3,371.5c0.8,0,1.6,0.1,2.3,0c0.7,0,1.3-0.1,1.8-0.1c0.6,0,1.1-0.1,1.5-0.1c0.7-0.1,1.4-0.2,2.1-0.3
		c0.6-0.1,1.3-0.2,2-0.4c0.7-0.2,1.4-0.3,2-0.6c-0.3,0.7-0.5,1.2-0.7,1.7c-0.2,0.5-0.3,0.9-0.4,1.3c-0.1,0.4-0.2,0.7-0.2,1
		c0,0.3-0.1,0.7-0.1,1.1c0,0.8,0,2,0,3.7c2.3-2,4.3-3.6,5.8-4.7c1.6-1.1,2.8-2,3.8-2.6c1.1-0.7,2-1.2,2.6-1.4
		c1.6-0.3,3.1,0.1,4.3,1.1c0.5,0.4,1,1,1.5,1.8c0.5,0.7,0.9,1.7,1.3,2.9c0.4,1.2,0.6,2.6,0.8,4.3c0.2,1.7,0.2,3.7,0.1,6
		c-0.9,0.1-1.8,0.2-2.5,0.3c-0.7,0.1-1.3,0.2-1.8,0.2c-0.6,0.1-1.1,0.1-1.6,0.1l-1.8,0.2c-0.6,0.1-1.4,0.2-2.3,0.2
		c-0.9,0.1-2,0.2-3.3,0.3c1.9-1.5,3.1-2.8,3.6-4c0.6-1.1,0.8-2.1,0.7-2.8c-0.1-0.8-0.5-1.6-1.2-2.2c-0.8-0.5-1.8-0.7-2.7-0.5
		c-0.8,0.1-1.8,0.5-2.9,1.1c-1.1,0.7-2.3,1.9-3.5,3.7c0.1,2.9,0.2,5.2,0.3,7.1c0.1,1.9,0.2,3.4,0.3,4.5c0.1,1.3,0.2,2.4,0.3,3.1
		c0.1,0.7,0.4,1.4,0.8,2.1c0.3,0.6,0.8,1.3,1.3,2.1c0.6,0.8,1.3,1.5,2.3,2.3c-2-0.1-3.6-0.1-4.8,0c-0.8,0-1.4,0.1-2,0.1
		c-0.6,0.1-1.3,0.2-2,0.3c-0.6,0.1-1.3,0.2-2.2,0.3c-0.8,0.1-1.7,0.2-2.7,0.4c0.4-0.5,0.6-1.1,0.9-1.7c0.2-0.6,0.4-1.3,0.5-1.8
		c0.2-0.7,0.3-1.4,0.4-2.1c0-0.6,0.1-1.6,0.1-2.8c0-1.2,0-2.7-0.1-4.2s-0.1-3.2-0.2-4.9c-0.1-1.7-0.2-3.3-0.3-4.8
		c-0.1-1.5-0.3-2.8-0.4-4c-0.2-1.1-0.3-1.9-0.5-2.4c-0.2-0.5-0.5-1.1-0.8-1.6c-0.3-0.5-0.6-1-1-1.6
		C251.2,372.7,250.7,372.2,250.3,371.5z"/>
</g>
<g enable-background="new    ">
	<path d="M313.1,331.7c2.1,0.1,4,0.1,5.6,0c1.6,0,2.9,0,3.9,0h2.9c0.7-0.1,1.6-0.1,2.7-0.1c0.9,0,2.1,0,3.4,0c1.3,0,2.9,0,4.6,0.1
		c0.5,1.9,1.2,3.7,1.9,5.5c0.7,1.8,1.3,3.4,1.9,4.8c0.7,1.7,1.3,3.2,2,4.7c0.7,1.5,1.5,3.2,2.4,5.3c0.8,1.7,1.8,3.9,2.9,6.4
		c1.1,2.5,2.5,5.4,4,8.6c0.7-2.1,1.4-4,2.1-5.7c0.6-1.7,1.2-3.2,1.7-4.5c0.5-1.5,1-2.8,1.3-4c0.3-1.2,0.7-2.7,1.1-4.4
		c0.3-1.5,0.7-3.2,1.2-5.3c0.4-2.1,0.9-4.5,1.4-7.2c1.9,0,3.7,0,5.2,0c1.5,0,2.9,0,4-0.1c1.3,0,2.4,0,3.4-0.1c1.1,0,2.5-0.1,4.3-0.2
		c1.5-0.1,3.6-0.3,6.2-0.4c2.6-0.1,5.8-0.3,9.6-0.5c-1.4,1-2.5,2-3.4,3c-0.8,1-1.5,1.8-2,2.6c-0.5,0.9-0.9,1.7-1,2.5
		c-0.1,0.7-0.3,2.2-0.4,4.6c-0.1,2.4-0.2,5.3-0.3,8.6c-0.1,3.3-0.2,6.8-0.2,10.6c0,3.7,0,7.3,0.1,10.6c0.1,3.3,0.2,6.2,0.4,8.7
		c0.2,2.4,0.4,4,0.8,4.7c0.5,0.8,1.1,1.7,1.9,2.8c0.7,0.9,1.7,2,2.9,3.2s2.7,2.5,4.7,4c-3.1,0.1-5.6,0.2-7.7,0.3
		c-2,0.1-3.7,0.1-5.1,0.2c-1.5,0.1-2.8,0.1-3.7,0.1c-1,0-2.4,0-4.1,0.1c-1.5,0.1-3.6,0.2-6.1,0.3c-2.5,0.1-5.8,0.3-9.8,0.5
		c0.9-1.1,1.8-2.1,2.6-3.2c0.8-1.1,1.5-2,2-2.9c0.7-1,1.2-2,1.7-2.9c0.5-1.3,0.8-3.6,1.1-6.9c0.3-2.9,0.5-7,0.6-12.4
		c0.1-5.4,0.1-12.6,0-21.7c-1.3,2.1-2.4,4.1-3.4,6.2c-1,2-1.8,3.9-2.6,5.6c-0.8,1.9-1.5,3.8-2.2,5.6c-0.7,1.9-1.4,3.9-2.1,6.2
		c-0.7,1.9-1.5,4.2-2.4,6.9c-0.9,2.7-1.9,5.6-3.1,8.8l-3.8,0.2c-0.5-2.7-1.1-5.1-1.6-7.3c-0.5-2.2-1.1-4-1.6-5.6
		c-0.6-1.8-1.2-3.4-1.8-4.8c-0.7-1.4-1.4-3-2.2-4.7c-0.7-1.5-1.6-3.2-2.7-5.2c-1-2-2.2-4.2-3.6-6.7c-0.7,6.8-1.1,12.4-1.2,16.6
		c-0.1,4.2-0.1,7.5,0,9.9c0.1,2.8,0.3,4.8,0.6,6.1c0.4,1.1,1,2.4,1.9,3.8c0.7,1.2,1.8,2.6,3.1,4.3c1.3,1.6,3,3.5,5.1,5.5
		c-1.5,0-3,0-4.6,0c-1.6,0-3.1,0-4.4,0.1c-1.6,0.1-3.2,0.1-4.7,0.1c-1.6,0.1-3.5,0.2-5.6,0.3c-1.9,0.1-4.1,0.3-6.7,0.4
		c-2.6,0.1-5.6,0.4-9,0.7c1.5-0.9,2.7-1.9,3.6-2.8c0.9-0.9,1.7-1.7,2.2-2.5c0.7-0.9,1.2-1.7,1.5-2.6c0.2-0.5,0.4-1.7,0.6-3.5
		c0.2-1.8,0.3-4,0.5-6.6c0.2-2.6,0.3-5.5,0.4-8.7c0.1-3.2,0.2-6.5,0.3-9.8c0.1-3.3,0.2-6.6,0.3-9.7c0.1-3.2,0.1-6,0.2-8.6
		c0-2.6,0.1-4.7,0.1-6.5c0-1.7,0-2.8,0-3.3c-0.2-1-0.5-2-0.9-3c-0.3-0.9-0.9-1.8-1.6-2.7C315.2,333.3,314.3,332.5,313.1,331.7z"/>
</g>
<g enable-background="new    ">
	<path d="M413.4,373.6c1.2,0,2.4,0.2,3.6,0.6c1.2,0.4,2.5,1,3.6,1.6c1.2,0.6,2.2,1.3,3.2,2.1c1,0.7,1.7,1.4,2.4,2.1
		c1.1,1.2,1.9,2.8,2.3,4.8c0.4,2,0.5,4.1,0.2,6.2c-0.3,2.1-0.9,4.1-1.9,6c-1,1.9-2.3,3.3-4.1,4.1c-1.2,0.6-2.5,1.1-3.7,1.5
		c-1.2,0.4-2.4,0.6-3.5,0.8c-1.1,0.2-2.2,0.3-3.1,0.3c-1,0-1.8,0-2.5-0.1c-1.3-0.1-2.7-0.6-4.2-1.4c-1.4-0.8-2.8-1.9-4.1-3.1
		c-1.3-1.2-2.4-2.6-3.2-4.1c-0.9-1.5-1.4-2.9-1.6-4.2c-0.3-1.8-0.3-3.7-0.1-5.7c0.2-2,0.8-3.9,2-5.5c1.1-1.7,2.9-3.1,5.2-4.2
		C406.2,374.2,409.4,373.6,413.4,373.6z M411.2,399.5c0.5,0.1,1.2,0,2-0.4c0.8-0.3,1.7-0.9,2.5-1.6c0.8-0.8,1.6-1.7,2.2-2.9
		c0.6-1.2,1-2.6,1.2-4.3c0.1-1.6,0.1-3.2,0-4.5c-0.1-1.4-0.3-2.6-0.6-3.6c-0.3-1-0.7-1.9-1.1-2.6c-0.4-0.7-0.8-1.1-1.3-1.4
		c-0.8-0.4-1.7-0.7-2.7-1c-1.1-0.2-2-0.2-2.7,0.2c-0.4,0.2-0.8,0.6-1.3,1.1c-0.5,0.6-1.1,1.3-1.6,2.2c-0.5,0.9-1,1.9-1.4,3
		c-0.4,1.1-0.7,2.3-0.9,3.5c-0.2,1.2-0.2,2.5-0.1,3.9c0.1,1.4,0.4,2.7,0.8,3.9c0.4,1.2,1.1,2.3,1.9,3.1
		C408.9,398.9,409.9,399.4,411.2,399.5z"/>
	<path d="M434,396.2c0.3-1.5,0.5-2.8,0.7-3.9c0.2-1.1,0.3-2.1,0.4-2.8c0.1-0.9,0.1-1.6,0.1-2.3c0-0.8-0.1-1.7-0.1-2.7
		c0-1-0.1-2.1-0.1-3.1c-0.1-1-0.1-2-0.2-2.8c-0.1-0.8-0.2-1.4-0.3-1.8c-0.2-0.4-0.4-0.7-0.7-1.1c-0.6-0.8-1.5-1.5-2.7-2.2
		c1-0.2,1.9-0.4,2.6-0.6c0.7-0.2,1.3-0.3,1.8-0.4c0.5-0.2,1-0.3,1.4-0.5c0.4-0.1,0.8-0.3,1.3-0.4c0.4-0.1,0.9-0.2,1.5-0.3
		c0.6-0.1,1.2-0.3,2-0.5l-0.2,6.1c1.4-1.7,2.9-3,4.3-3.8c1.5-0.8,2.9-1.4,4.1-1.8c1.5-0.4,2.9-0.7,4.3-0.7c1.8,0.1,3.4,0.4,5,0.9
		c1.5,0.5,2.9,1.1,4,1.7c1.1,0.6,2.1,1.3,2.8,2c0.7,0.7,1.1,1.3,1.3,1.9c0.5,1.7,0.7,3.3,0.4,4.8c-0.3,1.4-0.6,2.9-1,4.2
		c-0.4,1.4-0.8,2.7-1.1,4c-0.3,1.3-0.2,2.8,0.3,4.3c0.2,0.4,0.4,0.8,0.5,1.2c0.2,0.4,0.4,0.7,0.7,1.1c0.3,0.4,0.6,0.6,0.9,0.9
		c-0.5,0-1-0.1-1.5-0.1c-0.5,0-0.9-0.1-1.3-0.1c-0.5,0-0.9-0.1-1.3-0.1c-0.4,0-1-0.1-1.8-0.1c-1.3,0-3.3,0.1-6,0.2
		c0.4-0.9,0.7-1.7,1-2.4c0.2-0.6,0.5-1.2,0.6-1.6c0.2-0.5,0.3-0.9,0.4-1.1c0.5-1.3,0.9-2.8,1-4.4c0.1-1.6,0-3.3-0.4-5
		c-0.1-0.6-0.4-1.3-0.7-2.1c-0.3-0.8-0.7-1.6-1.2-2.3c-0.5-0.8-1.1-1.4-1.8-1.9c-0.7-0.5-1.5-0.8-2.4-0.9c-0.9-0.1-1.9,0.1-3,0.7
		c-1.1,0.5-2.3,1.5-3.5,2.9c-0.9,1.2-1.7,2.7-2.2,4.4c-0.5,1.5-0.8,3.3-1,5.5c-0.2,2.2,0.1,4.8,0.8,7.7c-0.6-0.1-1.2-0.1-1.7-0.2
		c-0.5,0-1-0.1-1.3-0.1c-0.4,0-0.8-0.1-1.2-0.1c-0.4,0-0.8,0-1.3-0.1c-0.4,0-1,0-1.7,0C435.7,396.3,434.9,396.2,434,396.2z"/>
	<path d="M501.5,365.4c-0.4,1-0.7,1.9-1,2.7c-0.3,0.8-0.5,1.5-0.8,2.1c-0.2,0.7-0.4,1.3-0.6,1.9c-0.2,0.6-0.4,1.3-0.6,2.1
		c-0.2,0.7-0.5,1.6-0.8,2.6s-0.7,2.3-1.2,3.7c-0.4-2.1-1-3.8-1.9-5.1c-0.9-1.3-1.9-2.3-2.9-3c-1.2-0.8-2.4-1.4-3.7-1.7
		c-2.4-0.4-4.1-0.4-5.2,0.1c-1.1,0.5-1.8,1.1-2.1,1.9c-0.2,0.3-0.4,0.7-0.6,1.2c-0.2,0.5-0.4,0.9-0.5,1.4c-0.1,0.5-0.1,1-0.1,1.5
		c0,0.5,0.2,0.9,0.6,1.2c0.2,0.2,0.8,0.5,1.7,0.9s2.1,0.8,3.4,1.3c1.3,0.5,2.7,1,4.2,1.5c1.5,0.5,2.9,1.1,4.2,1.6
		c1.3,0.5,2.5,1.1,3.5,1.6c1,0.5,1.6,1,1.9,1.5c0.3,0.4,0.6,1,0.9,1.8c0.3,0.7,0.6,1.5,0.7,2.4s0.2,1.8,0.1,2.7
		c-0.1,0.9-0.3,1.8-0.8,2.7c-0.4,0.9-1.1,1.7-2.1,2.5c-1,0.8-2.2,1.4-3.8,1.9c-1.9,0.6-3.7,0.7-5.4,0.5s-3.3-0.7-4.8-1.2
		c-1.4-0.5-2.7-1.1-3.8-1.6c-1.1-0.5-1.8-0.7-2.3-0.6c-0.5,0.1-1,0.3-1.7,0.7c-0.6,0.4-1.2,0.8-1.8,1.2c-0.6,0.4-1,0.8-1.4,1.1
		s-0.6,0.5-0.6,0.4c0-0.1,0.1-0.4,0.2-0.8c0.2-0.4,0.3-1,0.5-1.6c0.2-0.6,0.4-1.4,0.6-2.1c0.2-0.8,0.3-1.5,0.4-2.2
		c0.1-0.6,0.2-1.3,0.3-2.1c0.1-0.8,0.2-1.7,0.4-2.8c0.2-1.1,0.3-2.4,0.6-4c0.2,1.2,0.5,2.2,1,3c0.4,0.8,0.8,1.6,1.2,2.2
		c0.5,0.7,1,1.3,1.4,1.8c0.7,0.6,1.5,1.2,2.4,1.7c0.9,0.5,1.8,1,2.8,1.4c0.9,0.4,1.8,0.6,2.7,0.7c0.8,0.1,1.6,0,2.1-0.3
		c0.6-0.3,1.1-0.8,1.5-1.5c0.4-0.7,0.7-1.5,0.9-2.3s0.2-1.7,0.2-2.4c0-0.8-0.2-1.4-0.6-1.9c-0.3-0.3-0.9-0.7-1.8-1.2
		c-1-0.5-2.1-1-3.4-1.6c-1.3-0.6-2.7-1.2-4.1-1.8c-1.4-0.6-2.8-1.3-4.1-1.9c-1.3-0.6-2.3-1.3-3.1-1.9c-0.8-0.6-1.3-1.1-1.4-1.6
		c-0.1-0.7-0.2-1.5-0.2-2.4c0-0.9,0-1.7,0.2-2.6s0.5-1.7,0.9-2.5c0.5-0.8,1.2-1.5,2.1-2c0.6-0.4,1.4-0.6,2.5-0.8
		c1-0.2,2.2-0.3,3.4-0.3c1.2,0,2.5,0,3.9,0.1s2.6,0.2,3.8,0.4s2.3,0.3,3.3,0.6c1,0.2,1.8,0.4,2.3,0.6c0.6,0.2,1.3,0.2,2,0.1
		c0.6-0.1,1.3-0.4,2-0.9C500,367.3,500.8,366.5,501.5,365.4z"/>
	<path d="M503.1,361.4c1.3,0.1,2.5,0.2,3.4,0.3c0.9,0.1,1.7,0.2,2.2,0.2c0.7,0,1.2,0.1,1.6,0.1c0.4,0,0.9,0,1.6,0
		c0.6,0,1.3-0.1,2.3-0.2c0.9-0.1,2.1-0.2,3.5-0.4c-0.3,0.4-0.6,0.8-0.7,1.2c-0.2,0.3-0.3,0.6-0.5,0.9l-0.4,0.8
		c-0.1,0.3-0.2,0.5-0.3,0.8c-0.1,0.2-0.2,0.5-0.2,0.8c-0.1,0.3-0.1,0.6-0.2,1h10.3l-0.9,5.4l-9.4-0.5c-0.2,2.3-0.4,4-0.5,5.3
		c-0.1,1.2-0.2,2.2-0.3,2.7l-0.1,1.2c-0.1,1.7-0.3,3.5-0.4,5.5c-0.1,2-0.2,3.8-0.1,5.5c0,1.7,0.2,3.1,0.5,4.2
		c0.3,1.1,0.7,1.7,1.4,1.7c0.7,0,1.3-0.2,1.9-0.5c0.6-0.4,1.1-0.8,1.5-1.3c0.4-0.5,0.7-1,1-1.5c0.2-0.5,0.3-0.9,0.3-1.2
		c0-0.3-0.1-0.6-0.2-0.9c-0.2-0.7-0.6-1.5-1.2-2.5c1.3,0.3,2.4,0.6,3.4,0.9c0.5,0.2,0.9,0.4,1.3,0.5c0.4,0.2,1,0.4,1.5,0.6
		c0.5,0.2,1.1,0.5,1.9,0.8c0.8,0.3,1.6,0.7,2.7,1.1c-1,0.2-1.7,0.5-2.1,0.9c-0.3,0.2-0.5,0.4-0.6,0.6c-0.3,0.5-0.7,1.1-1.1,2
		c-0.4,0.8-1,1.6-1.8,2.4c-0.8,0.8-1.9,1.5-3.2,2.1c-1.4,0.6-3.2,1-5.4,1.1c-2.4,0.1-4.2-0.3-5.4-1.2c-1.2-0.9-2.1-1.9-2.7-3.1
		c-0.6-1.2-0.9-2.3-1-3.5c-0.1-1.2-0.2-1.9-0.2-2.3c0-0.4,0-1.4,0-3c0-1.6,0.1-3.4,0.2-5.3c0.1-1.9,0.2-3.8,0.3-5.6
		c0.1-1.8,0.1-3.1,0.1-4c0-0.4,0-0.9,0.1-1.4c0-0.4,0-0.8,0-1.3c0-0.5,0-0.9,0-1.4l-9.7-0.1l-0.4-3.8l9.8,0.3
		c-0.1-0.5-0.2-0.9-0.3-1.4c-0.1-0.4-0.2-0.8-0.3-1c-0.1-0.3-0.3-0.6-0.4-0.8c-0.2-0.2-0.4-0.5-0.6-0.7c-0.2-0.2-0.5-0.5-0.9-0.9
		C504,362.3,503.6,361.9,503.1,361.4z"/>
	<path d="M544.6,392.8c1.2,0,2.4-0.1,3.5-0.4c0.9-0.2,1.7-0.6,2.6-1.1c0.8-0.5,1.4-1.3,1.6-2.3c0.9,0.2,1.6,0.3,2.3,0.4
		c0.6,0.1,1.2,0.2,1.6,0.3c0.5,0.1,0.9,0.2,1.3,0.3c0.4,0.1,0.8,0.2,1.3,0.3c0.4,0.1,1,0.2,1.6,0.3c0.6,0.1,1.4,0.3,2.3,0.4
		c-0.7-0.1-1.3,0-2,0.2c-0.7,0.2-1.3,0.5-2,0.7c-0.7,0.3-1.4,0.7-2,1.1c-0.4,0.3-0.9,0.7-1.4,1.2c-0.5,0.5-1.2,1-2.2,1.5
		c-0.9,0.5-2.2,0.9-3.7,1.2c-1.5,0.3-3.5,0.5-5.9,0.4c-2.9-0.1-5.3-0.6-7.3-1.6c-2-1-3.5-2.1-4.7-3.5c-1.2-1.4-2.1-2.9-2.6-4.6
		c-0.5-1.6-0.8-3.2-0.9-4.6c0-1.4,0.4-2.9,1.3-4.5c0.9-1.6,2.2-3,3.8-4.3c1.6-1.3,3.6-2.4,5.9-3.2c2.3-0.8,4.9-1.2,7.6-1.2
		c1.6,0,3.1,0.2,4.4,0.6c1.4,0.4,2.6,0.9,3.7,1.5c1.1,0.6,2.1,1.3,3,2.1c0.8,0.8,1.6,1.6,2.1,2.4c0.6,0.8,1.1,1.7,1.5,2.7
		c0.4,0.8,0.6,1.7,0.9,2.7c0.2,1,0.3,2.1,0.2,3.1c-3.4,0.1-6.1,0.2-8.2,0.2c-2.1,0-3.7,0.1-4.8,0.1h-3h-2.3c-0.8,0-1.8,0-3.1,0.1
		c-1.3,0-2.9,0.1-4.7,0.2c0.2,1.8,0.8,3.2,1.7,4.1c0.9,1,1.9,1.7,2.9,2.2C542,392.4,543.3,392.7,544.6,392.8z M538.6,380.8
		c1.4,0.1,2.6,0.2,3.6,0.2c1,0,1.7,0.1,2.4,0.1c0.7,0,1.2,0.1,1.6,0.1h1.7c1.1,0,3.2-0.1,6.2-0.2c-0.1-2-0.5-3.5-1.2-4.5
		c-0.7-1-1.4-1.8-2.2-2.3c-0.9-0.5-1.9-0.8-2.9-0.9c-2.9,0-5,0.6-6.5,1.8C539.9,376.2,539,378.1,538.6,380.8z"/>
	<path d="M564.4,371.5c0.8,0,1.6,0.1,2.3,0c0.7,0,1.3-0.1,1.8-0.1c0.6,0,1.1-0.1,1.5-0.1c0.7-0.1,1.4-0.2,2.1-0.3
		c0.6-0.1,1.3-0.2,2-0.4c0.7-0.2,1.4-0.3,2-0.6c-0.3,0.7-0.5,1.2-0.7,1.7c-0.2,0.5-0.3,0.9-0.4,1.3c-0.1,0.4-0.2,0.7-0.2,1
		c0,0.3-0.1,0.7-0.1,1.1c0,0.8,0,2,0,3.7c2.3-2,4.3-3.6,5.8-4.7s2.8-2,3.8-2.6c1.1-0.7,2-1.2,2.6-1.4c1.6-0.3,3.1,0.1,4.3,1.1
		c0.5,0.4,1,1,1.5,1.8c0.5,0.7,0.9,1.7,1.3,2.9s0.6,2.6,0.8,4.3c0.2,1.7,0.2,3.7,0.1,6c-0.9,0.1-1.8,0.2-2.5,0.3
		c-0.7,0.1-1.3,0.2-1.8,0.2c-0.6,0.1-1.1,0.1-1.6,0.1l-1.8,0.2c-0.6,0.1-1.4,0.2-2.3,0.2c-0.9,0.1-2,0.2-3.3,0.3
		c1.9-1.5,3.1-2.8,3.6-4c0.6-1.1,0.8-2.1,0.7-2.8c-0.1-0.8-0.5-1.6-1.2-2.2c-0.8-0.5-1.8-0.7-2.7-0.5c-0.8,0.1-1.8,0.5-2.9,1.1
		c-1.1,0.7-2.3,1.9-3.5,3.7c0.1,2.9,0.2,5.2,0.3,7.1c0.1,1.9,0.2,3.4,0.3,4.5c0.1,1.3,0.2,2.4,0.3,3.1c0.1,0.7,0.4,1.4,0.8,2.1
		c0.3,0.6,0.8,1.3,1.3,2.1c0.6,0.8,1.3,1.5,2.3,2.3c-2-0.1-3.6-0.1-4.8,0c-0.8,0-1.4,0.1-2,0.1c-0.6,0.1-1.3,0.2-2,0.3
		c-0.6,0.1-1.3,0.2-2.2,0.3c-0.8,0.1-1.7,0.2-2.7,0.4c0.4-0.5,0.6-1.1,0.9-1.7c0.2-0.6,0.4-1.3,0.5-1.8c0.2-0.7,0.3-1.4,0.4-2.1
		c0-0.6,0.1-1.6,0.1-2.8s0-2.7-0.1-4.2c-0.1-1.6-0.1-3.2-0.2-4.9c-0.1-1.7-0.2-3.3-0.3-4.8c-0.1-1.5-0.3-2.8-0.4-4
		c-0.2-1.1-0.3-1.9-0.5-2.4c-0.2-0.5-0.5-1.1-0.8-1.6c-0.3-0.5-0.6-1-1-1.6C565.4,372.7,564.9,372.2,564.4,371.5z"/>
	<path d="M627.3,365.4c-0.4,1-0.7,1.9-1,2.7c-0.3,0.8-0.5,1.5-0.8,2.1c-0.2,0.7-0.4,1.3-0.6,1.9c-0.2,0.6-0.4,1.3-0.6,2.1
		c-0.2,0.7-0.5,1.6-0.8,2.6s-0.7,2.3-1.2,3.7c-0.4-2.1-1-3.8-1.9-5.1c-0.9-1.3-1.9-2.3-2.9-3c-1.2-0.8-2.4-1.4-3.7-1.7
		c-2.4-0.4-4.1-0.4-5.2,0.1c-1.1,0.5-1.8,1.1-2.1,1.9c-0.2,0.3-0.4,0.7-0.6,1.2c-0.2,0.5-0.4,0.9-0.5,1.4c-0.1,0.5-0.1,1-0.1,1.5
		c0,0.5,0.2,0.9,0.6,1.2c0.2,0.2,0.8,0.5,1.7,0.9s2.1,0.8,3.4,1.3c1.3,0.5,2.7,1,4.2,1.5c1.5,0.5,2.9,1.1,4.2,1.6
		c1.3,0.5,2.5,1.1,3.5,1.6c1,0.5,1.6,1,1.9,1.5c0.3,0.4,0.6,1,0.9,1.8c0.3,0.7,0.6,1.5,0.7,2.4s0.2,1.8,0.1,2.7
		c-0.1,0.9-0.3,1.8-0.8,2.7c-0.4,0.9-1.1,1.7-2.1,2.5c-1,0.8-2.2,1.4-3.8,1.9c-1.9,0.6-3.7,0.7-5.4,0.5s-3.3-0.7-4.8-1.2
		c-1.4-0.5-2.7-1.1-3.8-1.6c-1.1-0.5-1.8-0.7-2.3-0.6c-0.5,0.1-1,0.3-1.7,0.7c-0.6,0.4-1.2,0.8-1.8,1.2c-0.6,0.4-1,0.8-1.4,1.1
		s-0.6,0.5-0.6,0.4c0-0.1,0.1-0.4,0.2-0.8c0.2-0.4,0.3-1,0.5-1.6c0.2-0.6,0.4-1.4,0.6-2.1c0.2-0.8,0.3-1.5,0.4-2.2
		c0.1-0.6,0.2-1.3,0.3-2.1c0.1-0.8,0.2-1.7,0.4-2.8c0.2-1.1,0.3-2.4,0.6-4c0.2,1.2,0.5,2.2,1,3c0.4,0.8,0.8,1.6,1.2,2.2
		c0.5,0.7,1,1.3,1.4,1.8c0.7,0.6,1.5,1.2,2.4,1.7c0.9,0.5,1.8,1,2.8,1.4c0.9,0.4,1.8,0.6,2.7,0.7c0.8,0.1,1.6,0,2.1-0.3
		c0.6-0.3,1.1-0.8,1.5-1.5c0.4-0.7,0.7-1.5,0.9-2.3s0.2-1.7,0.2-2.4c0-0.8-0.2-1.4-0.6-1.9c-0.3-0.3-0.9-0.7-1.8-1.2
		c-1-0.5-2.1-1-3.4-1.6c-1.3-0.6-2.7-1.2-4.1-1.8c-1.4-0.6-2.8-1.3-4.1-1.9c-1.3-0.6-2.3-1.3-3.1-1.9c-0.8-0.6-1.3-1.1-1.4-1.6
		c-0.1-0.7-0.2-1.5-0.2-2.4c0-0.9,0-1.7,0.2-2.6s0.5-1.7,0.9-2.5c0.5-0.8,1.2-1.5,2.1-2c0.6-0.4,1.4-0.6,2.5-0.8
		c1-0.2,2.2-0.3,3.4-0.3c1.2,0,2.5,0,3.9,0.1s2.6,0.2,3.8,0.4s2.3,0.3,3.3,0.6c1,0.2,1.8,0.4,2.3,0.6c0.6,0.2,1.3,0.2,2,0.1
		c0.6-0.1,1.3-0.4,2-0.9C625.8,367.3,626.6,366.5,627.3,365.4z"/>
</g>
</svg>
