<svg xmlns="http://www.w3.org/2000/svg" viewBox="0 0 792 1224" enable-background="new 0 0 792 1224"><path fill="#f69" d="M254.4 525.3l-1 .2-1 .5-.9.6-.8.7-1 .9-.6 1.1-.4 1.2-.1.7v.7l-.1 2.9.1 1.5.2 1.6.6 2.9.9 3 4.3 10.4.9-.7 1.1-.5 2-1.2 4.1-2.4.2-.2.3-.2.5-.3 1-.7 2-1.3 2.1-1.3 2-1.4-3.1-6.1-1.3-2.3-.7-1.1-.6-.9-1.5-1.8-1.6-1.7-1.8-1.5-.9-.7-.9-.6-2-1.1z"/><path fill="#f90" d="M254.6 554.2l4.8 10.1 1.8-.9 1.9-1 .9-.6 1-.6 1.9-1.1 1.8-1.3.9-.7.9-.7 1.9-1.4 1.7-1.6 1-.9-4.3-9.5-2 1.4-2.1 1.3-2 1.3-1 .7-.5.3-.3.2-.2.2-4.1 2.4-2 1.2-1.1.5zM413.4 362.1l-1.3-2.1-1.3-1.9-1.4-1.7-1.4-1.6-.8-.8-.8-.7-.9-.7-.8-.6-1.7-1.1-.9-.5-.8-.4-1.9-.9-1.9-.7-2.1-.6-2.1-.4-2.2-.3-1.1-.1h-3.3l-1.2.1-1.1.2-2.9.2-2.7.5-2.6.7-2.5 1.1-2.5 1.2-2.2 1.5-2.2 1.8-2 2.1-2.4 2.7-1.1 1.4-1 1.5-1.8 3-.8 1.5-.6 1.7-1.3 3.2-.5 1.6-.4 1.7-.9 3.3-.3 3.6-.1 2.9.2 2.9 3.2 8.2 1.2 1.2 1.3 1.1 1.3 1.1 1.4 1 1.3 1 1.3.9 2.7 1.7 1.3.7 1.4.6 2.8 1.1 2.8.8 2.9.6 2.9.3 3 .1 2.9-.2 1.5-.2 1.5-.2 1.5-.3 1.5-.4 1.5-.4 1.6-.5 1.5-.6 1.6-.6 1.6-.7 1.7-.7 7.1-3.7 2.2-2.8 2.1-2.7 1.8-2.7 1.7-2.6.5-3.4.2-3.3v-3.2l-.4-3.3-.8-3.4-1-3.3-.6-1.7-.4-.9-.2-.4-.1-.4-.7-1.7-1-1.4zm-29.1-12.5l2.1-.1h1l1 .1 1.9.3 1.8.4 1.7.5 1.7.6 1.5.8 1.5.9 1.4 1 .6.5.7.6 1.2 1.3 1.2 1.4 1 1.5 1 1.7.9 1.8.4 1 .5 1.1.3.9.1.5.2.5.3 1 .1.5.2.5.3 1.8.3 1.9.1 1.8-.1 1.8-.1.9-.1.4v.5l-.3 1.8-.1.2-.1.2-.1.4-.2.9-.1.2-.1.2-.1.4-.3.9-.8 1.6-.8 1.6-1.1 1.5-.6.7-.2.2-.1.2-.2.4-.4.3-.2.2-.2.1-.6.7-1.5 1.5-.4.2-.2.1-.1.2-.6.5-1.3 1-.4.2-.3.2-.6.4-1.3.8-1.4.6-.4.1-.2.1-.1.1-.6.3-1.4.4-.4.1-.3.1-.6.2-1.5.2-1.4.2-1.5.1-1.4-.1-1.5-.2-1.5-.3-1.5-.4-1.5-.4-1.9-.7-1.7-.8-1.7-.9-1.5-1-1.5-1.3-1.3-1.3-1.2-1.5-1-1.6-.9-1.5-.7-1.5-1.1-2.9-.5-1.5-.3-1.4-.2-1.5v-1.4l-.1-1.5.2-1.5.2-1.5.5-1.5.5-1.5.6-1.5.7-1.5.8-1.5 1-1.7 1.1-1.6.3-.9.5-.7.9-1.6 1.1-1.4 1.1-1.2 1.3-1.1 1.4-1 1.5-.8 1.6-.6 1.7-.4 2.2-1 2.2-.5z"/><path fill="#fff" d="M407.5 365l-.5-1-.4-1-.9-1.8-1-1.7-1-1.5-1.3-1.5-1.2-1.3-.7-.6-.6-.5-1.4-1-1.5-1-1.5-.8-1.7-.6-1.7-.5-1.9-.3-1.8-.3-1.1-.1h-1l-2 .1-2.5.6-2.2 1-1.8.4-1.6.7-1.5.8-1.4.9-1.3 1.1-1.1 1.2-1.1 1.4-.9 1.5-.5.8-.3.8-1.1 1.7-1 1.7-.8 1.5-.7 1.5-.6 1.5-.5 1.5-.4 1.5-.2 1.5-.2 1.5.1 1.5v1.4l.2 1.5.3 1.4.4 1.5 1.1 2.8.7 1.4.9 1.5 1 1.6 1.2 1.5 1.3 1.3 1.5 1.3 1.5 1.1 1.6.9 1.8.8 1.9.7 1.5.4 1.6.4 1.5.2 1.6.2h2.9l1.4-.2 1.5-.2.6-.2.3-.1.4-.1 1.4-.4.7-.3.1-.1.2-.1.4-.1 1.4-.6 1.3-.8.6-.4.3-.2.4-.1 1.3-1 .7-.5.1-.2.2-.1.3-.2 1.5-1.5.7-.7.1-.2.2-.2.4-.3.2-.4.1-.2.2-.2.7-.7 1.1-1.5.8-1.6.8-1.6.3-.8.1-.4.1-.2.1-.2.3-.9.1-.4v-.2l.2-.2.3-1.8v-.8l.2-.9.1-1.8-.1-1.8-.3-1.9-.4-1.9-.2-.5-.1-.5-.2-.9-.2-.5-.2-.5z"/><path fill="#6c9" d="M353.7 387.4l.3 2.2.2 1.2.4 1.1.7 2.2.9 2.1 1 2 1.3 2 1.4 1.9.8.9.9.9 2.2 2.2 2.5 2 1.2.9 1.3.9 2.7 1.5 2.8 1.1 2.9.9 1.4.4 1.6.3 1.5.3 1.6.2.5 2.3.6 2.4.7 2.4.9 2.5.8 1.6.5.8.7.8 1.3 1.2.8.6.9.5 6.1 4h1.7999999999999998l.6.1h2.4l2.3-.1 2.3-.2-4.9-3.9-1.6-1.2-1.5-1.2-1.4-1.3-1.4-1.2-1.3-1.4-1.3-1.4-1.2-1.5-1.1-1.4-.9-4.4 1.9-.2.9-.2.9-.1.9-.2.9-.2 1.8-.4.7-.4.4-.1.5-.1 1.6-.7 1.5-.7 1.5-.8.7-.6.1-.1.2-.1.4-.3 1.4-.9 1.3-1.2 1.3-1.2 1.1-1.4 1.2-1.4 1-1.5 1-1.6 1.5-3 1.3-2.8 1-3 .9-2.8-1.6 2.6-1.8 2.7-2.1 2.8-2.1 2.8-7.1 3.6-1.7.8-1.6.7-1.6.6-1.5.6-1.7.4-1.5.5-1.5.3-1.5.4-1.5.2-1.6.1-2.9.2h-3l-2.9-.4-2.8-.6-2.9-.8-2.8-1.2-1.4-.6-1.3-.7-2.7-1.7-1.3-.9-1.3-.9-1.4-1.1-1.3-1.1-1.2-1.1-1.2-1.2z"/><path fill="#f90" d="M406.5 433.5l-2.3.1-2.3.1h-2.4l-.6-.1h-1.7000000000000002l.5.6 2.2 1.9 2.1 2.1 1.9 2.1 1.8 2.3 1.5 2.2 1.4 2.4 1.2 2.4 1.1 2.5.8 2.5.7 2.6.5 2.7.4 2.8.1 2.8v2.9l-.3 3-.4 3-.9 1.7-.5.9-.4.9-1 1.7-.9 1.7-1.1 1.6-1 1.6-1.1 1.6-1.2 1.6-1.3 1.4-.7.6-.6.6-.8.5-.4.3-.3.3-.8.5-.4.2-.2.1-.1.2-.2.1-.2.1-.4.2-.8.4-1.6.6-1.8.4-1 .1-.9.2-2.3.1h-2.1l-2.1-.2-1.9-.3-1.9-.5-1.8-.6-1.7-.8-1.5-.9-1.5-1.1-1.4-1.1-1.3-1.4-1.1-1.5-1.2-1.7-1-1.7-.9-1.9-.7-2.1-1-3.2-.3-1.6-.1-1.5-.1-1.5.1-1.4.5-2.8.8-2.7 1.4-2.6.8-1.3 1-1.2 2.2-2.3 1.5-1.3 1.7-1.1 1.4-.8 1.5-.6 1.4-.5 1.4-.3.6-.2.6-.1h1.9l.6.1.6.1.6.2 1.1.4.5.2.6.3 1 .7 1 .9.9 1 .9 1.1.4.6.5.7.8 1.4.5 1.1.5 1.1.4 1.1.3 1.1.1 1.1.1 1.1v1l-.1 1.1-.3.9-.1.2-.1.1v.2l-.1.5-.3.4-.1.2-.1.1v.2l-.5 1-.6.8-.4.4-.2.2-.1.3-.8.9-.5.4-.4.5-.6.3-.5.3-.5.2-.5.2-1.2-.1-1-.1-1-.2-.8-.2-.8-.3-.7-.3-.6-.4-.5-.5-.5-.6-.3-.6-.3-.7-.1-.7-.1-.9v-.9l.1-.9.2-1 .5-.2.6-.1.5-.2.5-.2.4-.3.4-.2.3-.3.4-.3.1-.2.1-.2.1-.2.1-.2.1-.4.1-.2.1-.2v-.8l.1-.2-.1-.5v-.5l-.3-.9-.3-.7-.4-.6-.5-.5-.5-.3-.6-.3-.7-.2-.8.1h-1.1l-1 .1-.9.2-.8.3-.8.3-.7.4-.6.4-.5.5-.6.5-.5.6-.7 1.5-.3.8-.2.9-.1 1v1.1l-.1 1.4.1 1.4.1 1.3.3 1.3.3 1.2.5 1.1.5 1.1.7 1.1.7.9.8.9.9.9 1.1.8 1.1.7 1.2.6 1.3.6 1.5.5 1.1.3.6.1.6.2 1.1.2h.6l.6.1.5-.1h.6l1.1-.1 1-.3.5-.2.6-.1.9-.5.1-.1.1-.1.2-.1.5-.2.9-.6.2-.2.3-.2.5-.3.4-.4.2-.2.2-.2.9-.9.8-1 .4-.5.1-.2.1-.1.2-.2 1-1.7.8-1.6.7-1.7.6-1.6.4-1.7.3-1.6.1-1.7.1-1.6-.2-1.7-.3-1.6-.5-1.7-.5-1.6-.8-1.7-.9-1.6-1-1.7-1.1-1.6-1-1.4-1-1.1-1.1-1-1.1-.9-1.3-.8-1.3-.7-.7-.3-.6-.2-1.4-.4-2.2-.5-2.1-.3-2.1-.1-1.9.1-1.9.1-1.8.3-1.8.5-1.7.6-1.7.7-1.6.9-1.5 1.1-1.5 1.2-1.5 1.3-1.3 1.5-1.3 1.7-1.2 1.9-.8 1.2-.6 1.3-1.1 2.7-.7 2.8-.2 2.9-.1 2.7v1.4l.1 1.4.3 2.7.6 2.7.3 1.3.4 1.3.9 2.6 1.1 2.5 1.3 2.5.6 1 .7 1.1 1.5 2 1.6 1.8.8.9 1 .9 1.9 1.5 2.1 1.4 2.2 1.1 1.1.5 1.3.5 1 .4-3.5.2-3.3.5-3.3.6-3.2.9 1.3 2.5 1.2 2.5 1 2.6.9 2.6.6 2.6.5 2.6.3 2.7.1 2.7-.1 2.6-.2 2.7-.5 2.7-.6 2.8-.9 2.7-1 2.9-1.2 2.9-1.3 2.9-.6.9-.5.9-.6.8-.6.9-.2 1.6-.2-.1-.1.1-.1.2-.6.8-.4.3h-.1l-.1.1-.1.2-.6.7-1.5 1.2-.8.5-.8.5-.9.4-.8.4-1.8.7-3.2.9-3.1.8-3.1.7-3.1.5-3.2.5-3.1.4-1.6.1-1.5.2-3.1.3-3.2.1h-3.1l-3.2-.1-3.1-.2-3.2-.3-3.1-.3-3.2-.5-3.1-.6-13.5 33.5 2.7 3.2 2.8 3.3 2.7 3.4 2.7 3.5 2.6 3.5 2.6 3.6 2.6 3.7 2.6 3.8 1 1.5 1.1 1.5 1.1 1.4 1.3 1.5 1.8-1.2 1.9-1.3 1.8-1.5 1.9-1.5 1.9-1.7 1.9-1.8 1.9-2.1 1.9-2.1 2.2-2.7 2.1-2.6 2-2.6 1.9-2.6 24 23 1.9-1.5 1-.9 1-.8 1.9-1.7 1.9-1.7 1.8-1.9 1.8-1.9.8-1.1.9-1 .4-.6.5-.5.9-1 9.2-12.2 1.6 1.8 1.9 2 1.9 2.1 2.1 2.2 2.2 2.2 2.4 2.4 2.5 2.4 2.6 2.6 2.6 2.3 2.8 2.2 2.8 2.1 3 2 13.4-27.2 5.1 5.5 2.6 2.7 2.8 2.7 5.6 5.3 5.8 5.2 9 7.8 8.1-34.7 1.6 2.6 1.8 2.7 1.9 2.7 2.1 2.8 17.4 23.1v-23.2l.9 1 1.1 1.1 1.2 1 1.3 1.1-8.4-22.5-2.9-6.8-3-6.6-3.2-6.6-3.3-6.5-1.8-3.2-2.5 1.3-2.6 1.3-2.4 1-2.3.9-2.3.8-2.2.7-2.2.6-2.2.5-2.1.4-2.1.4-2.1.2-2.1.1-2-.1-1.9-.1-1.9-.3-1.9-.3-1.8-.5-1.8-.5-1.8-.7-1.7-.7-1.7-.9-1.7-.9-1.7-1.1-1.6-1.1-1.5-1.2-1.5-1.3-1.5-1.5-1.4-1.5-1.4-1.6-1.4-1.7-1.3-1.8-1.3-1.9-1.3-2.1-1.2-2.2-1.1-2.1-.8-2-.8-2-.6-2-.3-1.1-.2-1-.3-2-.2-2v-2l.1-2.1.2-2 .3-2.1.6-2 .6-2.1.8-2 1-2.1 1.1-2 1.1-2.1-17.5-3.3 1.4-.6 1.5-.7 1.4-.8 1.5-.9 1.4-1 1.4-1.1 1.4-1.2 1.4-1.2.6-.8.7-.7 1.3-1.5 1.1-1.6 1.1-1.5 1-1.6.5-.9.5-.8.8-1.7.8-1.7.6-1.8.6-1.8.2-1 .3-.9.2-1 .2-.9.1-1 .2-1 .2-1.9.1-1.9.1-1.9-.1-2.6-.2-2.4-.3-2.4-.4-2.2-.6-2.3-.6-2.2-.7-2.2-.8-2.1-1-2.1-1.1-1.9-1.2-1.9-1.2-1.8-1.5-1.8-1.5-1.7-1.6-1.7-.8-1.7zm-15.5 100l1.6.3 1.6.5 1.5.5 1.4.7 1.3.7 1.3.9 1.1.9 1.1 1.1 1 1.1.9 1.2.8 1.3.8 1.4.6 1.4.6 1.6.5 1.6.5 1.8.3 2.4.3 2.4.1 2.4.1 2.5-.1 2.5-.2 2.5-.3 2.4-.4 2.5-.4 1.4-.2.7-.2.7-.5 1.4-.5 1.4-.7 1.3-.4.6-.2.3-.1.4-.2.3-.2.3-.4.6-.8 1.3-1.7 1.8-.9.8-.8.7-.9.6-.9.6-.5.2-.3.1-.1.1-.1.1-.9.4-1 .3-1 .3h-.5l-.2.1-.5.1-1 .1h-1.1l-.2-.1h-1l-1.1-.1-.6-.1-.5-.1-1.1-.3-1-.3-2-.8-1.8-.9-1.7-1.2-1.6-1.4-.8-.8-.7-.8-1.3-1.7-1.1-1.9-1.4-3-.6-1.5-.7-1.1-.8-3-.5-3-.2-3.1.1-3.1.1-1.6.3-1.5.3-1.6.5-1.5.5-1.9.7-1.8.7-1.7.9-1.6.9-1.6 1-1.4 1.1-1.4 1.3-1.2 1.2-1.2 1.4-1.1 1.5-1 1.7-.8 1.6-.8 1.8-.7 1.8-.6 2.1-.3z"/><path fill="#6c9" d="M407.4 550.7l-.5-1.8-.5-1.6-.6-1.6-.6-1.4-.8-1.4-.8-1.3-.9-1.2-1-1.1-1-1.2-1.1-.9-1.3-.9-1.3-.7-1.4-.7-1.5-.5-1.6-.5-1.6-.3-2.1.5-1.8.6-1.8.7-1.6.8-1.7.8-1.5 1-1.4 1.1-1.2 1.2-1.3 1.2-1.1 1.4-1 1.4-.9 1.6-.9 1.6-.7 1.7-.7 1.8-.5 1.9-.5 1.5-.3 1.6-.3 1.5-.1 1.6-.1 3.1.2 3.1.5 3 .8 3 .5 1.4.6 1.5 1.4 3 1.1 1.9 1.3 1.7.7.8.8.8 1.6 1.4 1.7 1.2 1.8.9 2 .8 1 .3 1.1.3.5.1.6.1 1.1.1h.9l.2.1h1.1l1-.1.5-.1.2-.1h.3l1-.3 1-.3.9-.4.1-.1.1-.1.3-.1.5-.2.9-.6.9-.6.8-.7.9-.8 1.7-1.8.8-1.3.4-.6.2-.3.2-.3.1-.4.2-.3.4-.6.7-1.3.5-1.4.5-1.4.2-.7.2-.7.4-1.4.4-2.5.3-2.4.2-2.5.1-2.4.1-2.5-.1-2.4-.3-2.4-.1-2.9zm-18.5-9.2l2.8-.7 1.1.4 1.1.5 1.1.5 1.1.7 1 .6.9.7.8.9.8.9.7.9.6 1.1.6 1.1.6 1.2.4 1.2.4 1.3.3 1.4.3 1.5.2 2.2v.8l.1.3.1 1.1-.1 2.2-.1 1.1-.1 1.2-.2 1-.1.5-.1.1v.5l-.6 2.2-.8 2.1-.5 1.1-.4 1.1-.7 1.1-.4.5-.1.1-.1.2-.1.3-.8 1-.4.4-.2.2-.1.3-.3.2-.2.2-.4.4-.8.7-.9.6-.2.1-.1.1-.1.1-.4.3-1 .4-.5.2-.5.2-1 .2-1 .2h-1.1l-1.1-.1-.6-.1-.2-.1h-.30000000000000004l-1.3.1-1.3-.5-1.2-.7-1.1-.9-1-1-1.2-1.7-1.1-1.6-1-1.7-.7-1.6-.7-1.7-.5-1.7-.5-1.7-.2-1.7-.2-1.8-.1-1.8.1-1.8.3-1.8.3-1.9.6-1.8.6-1.9.8-1.9.8-1.7 1-1.5 1.1-1.3 1.3-1 .6-.5.8-.4 1.6-.6.8-.3 1-.2 2-.8z"/><path fill="#fff" d="M391.7 540.8l-2.8.7-2 .3-1 .2-.8.3-1.6.6-.8.5-.6.5-1.4 1.1-1.1 1.3-.9 1.5-.8 1.7-.8 1.9-.6 1.9-.6 1.9-.3 1.8-.3 1.8-.1 1.9.1 1.8.2 1.8.2 1.7.5 1.7.4 1.7.7 1.7.7 1.7 1 1.7 1.1 1.5 1.2 1.7 1 1.1 1.1.9 1.2.8 1.4.5 1.1.2h.4l.2.1.7.1h2.2l1.1-.2 1-.2.5-.2.5-.1 1-.4.4-.3v-.1l.2-.1.2-.1.9-.6.8-.7.4-.5.2-.1.3-.2.1-.3.2-.2.4-.4.7-1 .2-.3.1-.2.1-.1.4-.5.7-1.2.4-1.1.4-1.1.8-2.1.5-2.2v-.5l.1-.1.1-.5.3-1v-1.2l.2-1.1.1-2.2-.1-1.2v-1.1l-.2-2.2-.4-1.5-.3-1.4-.4-1.3-.3-1.2-.6-1.2-.6-1.1-.7-1.1-.6-.8-.9-1-.8-.8-.9-.8-.9-.7-1.1-.6-1.1-.6-1.2-.5z"/><path fill="#6c9" d="M351.2 499.7l-4.2-3.9-.6 1.2-.6 1.2-.4.5-.1.1-.1.1v.1l-.1.3-.7 1.1-.8.9-.8 1-.9.9-.9.8 3.7 2.9 1.2 1.1 1.2 1.2 1.1 1.3 1.2 1.5-5.7 3.6-2.8 1.8-2.7 2-5.3 4.1-2.6 2.2-2.5 2.3-2.9 2.7-2.7 2.9-2.6 3-1.3 1.5-1.1 1.7-3.5 4.7-3.1 4.9-2.9 5-2.6 5.3 3.1.6 3.2.5 3.1.4 3.2.3 3.1.2 3.2.1h3.1l3.2-.1 3.1-.3 1.5-.2 1.6-.1 3.1-.4 3.2-.5 3.1-.6 3.1-.7 3.1-.8 3.2-.9 1.8-.7.8-.4.9-.4.8-.5.8-.5 1.5-1.2.6-.7.1-.2.1-.1.1-.1.4-.3.6-.7.1-.2.1-.1.1-.1.4-.3.6-.9.6-.8.5-.9.6-.9 1.3-2.9 1.2-2.9 1-2.9.9-2.7.6-2.8.5-2.7.2-2.7.1-2.6-.1-2.7-.3-2.7-.5-2.5-.6-2.6-.9-2.6-1-2.6-1.2-2.5-1.3-2.5-2.6.7-2.6.9-2.5 1-2.4 1.2-1.2-2.3-1.3-2.1-1.4-1.9-1.5-2.1zm3.6 21.7l1.7.4 1.7.5 1.5.5 1.5.7 1.2.7 1.1.9 1 .9.9 1.1.6 1.1.6 1.2.4 1.3.3 1.4.1 1.4v1.6l-.2 1.6-.2 1.8-.4 1.1-1.1-1.4-1-1.2-1.1-1.2-1.1-1-1.2-1-1.2-.9-1.3-.9-1.3-.7-1.5-.7-1.4-.6-1.5-.5-1.5-.4-1.7-.4-1.6-.2-1.7-.2-1.7-.1.8-1.5 1-1.3 1.1-1.1 1.2-.9 1.3-.8 1.5-.6 1.6-.5 1.6-.1zm10.7 20.4l-2.3 3-1 .7-.9.7-.9.6-.9.5-.5.2-.5.2-.9.3-.9.2-.9.2-1-.1-.9-.1-.9-.2-.9-.3-.5-.2-.3-.1-.1-.1h-.1l-.9-.5-.9-.6-.9-.6-1.7-1.4-.9-.7-.6-.7-.7-.8-.5-.7-.5-.8-.3-.7-.6-1.7-.2-1.7v-1.8l.2-1.8 1.3-.2h1.3l2.6.2 2.6.5 2.7.9 1.6.6 1.7.8 1.5.8 1.6 1 1.4 1 1.5 1.1 1.4 1.1 1.7 1.2z"/><path fill="#fff" d="M366.9 538.5l.1-1.8.3-1.6-.1-1.7v-1.4l-.3-1.4-.4-1.3-.6-1.2-.6-1.1-.9-1.1-1-.9-1.1-.9-1.2-.7-1.4-.7-1.5-.5-1.7-.4-1.7-.4-1.9.2-1.6.5-1.4.6-1.4.8-1.2.9-1.1 1.1-1 1.3-.8 1.4 1.7.1 1.7.2 1.6.2 1.7.3 1.5.4 1.6.5 1.4.6 1.4.7 1.3.7 1.4.9 1.2.9 1.2 1 1.1 1.1 1.2 1.2 1 1.2 1.1 1.4zM363.2 544.8l2.3-3-1.4-1.3-1.3-1.2-1.5-1-1.4-1.1-1.6-.9-1.6-.8-1.6-.8-1.6-.6-2.8-.8-2.6-.5-2.6-.2-1.3.1-1.3.1-.3 1.8v1.8l.3 1.7.6 1.7.3.7.4.8.6.8.6.8.6.6.8.8 1.6 1.3.9.7.9.5.9.5h.1l.1.1.3.1.5.2.9.3.9.2h.9l1 .1.9-.2.9-.2.9-.3.4-.2.5-.1.9-.5.9-.6.9-.7z"/><path fill="#6c9" d="M415.4 505.3l-1.1 2.1-1.1 2-1 2.1-.8 2-.6 2.1-.6 2-.3 2.1-.2 2-.1 2.1v2l.2 2 .3 2 .2 1 .3 1.1.6 2 .8 2 .8 2 1.1 2.1 1.2 2.2 1.3 2.1 1.3 1.9 1.3 1.8 1.4 1.7 1.4 1.6 1.4 1.5 1.5 1.5 1.5 1.3 1.5 1.2 1.6 1.1 1.7 1.1 1.7.9 1.7.9 1.7.7 1.8.7 1.8.5 1.8.5 1.9.3 1.9.3 1.9.1 2 .1 2.1-.1 2.1-.2 2.1-.4 2.1-.4 2.2-.5 2.2-.6 2.2-.7 2.3-.8 2.3-.9 2.4-1 2.6-1.3 2.5-1.3-1.8-3-1.8-2.9-3.7-5.6-2.1-2.8-2-2.6-2.1-2.6-2.2-2.6-2.5-2.7-2.5-2.6-2.6-2.5-1.3-1.2-1.3-1.1-2.8-2.3-2.8-2.1-2.9-1.9-3-1.8-3.8-2.2 1.1-2.1 4-5.8-.8-.3-1.3-.6-1.3-.6-1.3-.7-1.1-.8-2.5-2.6-2.1 4.2-.7 1.4-.5 1.5-.3 1.5-.2 1.5-3.2-1.3-3.1-1.1-3.2-1.1-3.2-1.1zm29.3 27.9l.3 3.4-.1.9-.1.4v.5l-.1.4-.1.4-.1.9-.2.7-.2.8-.4.7-.1.2-.1.2-.1.4-.5.6-.2.3-.1.2-.1.2-.2.1-.1.2-.2.3-.5.6-.7.5-.6.6-.8.5-.8.6-1.2.6-1.1.5-1.2.3-1.1.4-1.1.2-1 .2-1-.1-.9-.1-1-.3-.9-.3-.8-.4-.8-.5-.8-.6-.8-.7-.7-.8-.6-.9.6-1.7.8-1.5 1-1.4 1-1.3 1.1-1.1 1.1-1.1 1.1-.9 1.2-.9 1.3-.7 1.3-.6 1.3-.5 1.4-.4 1.5-.3 1.5-.2h1.6l1.6.1 1.7.4zm-4.6-4.3l-2.7.3-2.5.5-2.4.8-2.2 1.1-2.2 1.3-2 1.6-1.9 1.9-1.7 2.1-.2 1.1-1 1.6-.6-1.4-.4-1.3-.3-1.3-.1-1.2.1-2.4.2-1.1.5-1.1.5-1.1.6-1 .7-1 .8-1 2-1.8 1.2-.9 1.3-.8 2.9-1.3h1l1.1.1 1 .1 1 .2.9.2.9.3 1.7.7 1.4.8 1.3 1 1.1 1.1.5.6.5.7-3 .6z"/><path fill="#fff" d="M445 536.6l-.3-3.4-1.7-.3h-3.2l-1.5.1-1.5.3-1.4.4-1.4.5-1.3.6-1.3.7-1.2.8-1.2.9-1.1 1.1-1 1.2-1.1 1.3-.9 1.3-.9 1.6-.6 1.7.7.9.7.8.7.6.9.7.7.4.9.5.9.2.9.3h.9l1 .1 1-.2 1.1-.1 1.1-.4 1.1-.4 1.2-.5 1.2-.5.8-.6.8-.5.6-.6.7-.6.5-.6.3-.3.1-.2.2-.1.1-.2.1-.1.2-.4.5-.6.2-.4v-.2l.2-.2.3-.7.3-.8.2-.7.2-.9v-.4l.2-.4v-.9zM440.1 528.9l2.9-.5-.5-.7-.5-.7-1.1-1.1-1.4-1-1.4-.8-1.7-.6-.9-.3-.9-.2-1.1-.2-.9-.1-1.1-.1h-1l-2.9 1.3-1.3.8-1.3.9-1.9 1.8-.9 1-.7 1-.6 1-.4 1.1-.4 1.1-.2 1.1-.1 2.3.1 1.2.3 1.3.4 1.3.6 1.4.9-1.7.3-1 1.7-2.1 1.9-1.9 1.9-1.6 2.3-1.3 2.2-1.1 2.5-.8 2.5-.5z"/><path fill="#f90" d="M340.8 491.5h-.2l-6.9 9 1.9.6 1.3.6 1.4.6 1.3.7 1.3.9.9-.8.9-.9.8-.9.9-1 .7-1 .1-.3v-.1l.1-.1.1-.1.4-.5.6-1.2.7-1.2-1.6-1.3-1.5-1.1-1.6-1z"/><path fill="#f69" d="M340.6 491.5l-.5-.3-1.5-.7-1.4-.5-2.9-1-1.6-.5-1.5-.4-3.1-.5-.9.1-1.8.3-1.7.6-1.6.7-1.4 1.1-.7.4-.4.6-.5.6-.2.7-.2 1.4.1.8.2 1 .7.5.8.4 1.8.9.8.3 1 .3 2 .4 7.4 1.7.2.1z"/><path fill="#F46E1D" d="M275.1 553.5l-1 .9-1.7 1.6-1.9 1.4-.9.7-.9.7-1.8 1.3-1.9 1.1-1 .6-.9.6-1.9 1-1.8.9 2.2 4.9 2.2 4.9 2.1 5 2 5 1.8 5.1 1.7 5.2 1.7 5.2 1.5 5.3 4.9 21.1-1.8 10.9-2 11-1.2 5.8-.8 5.8-.7 5.8-.5 5.9-.9 3.8-.6 4.8-.5 6.5-.3 6.7-.1 6.6.3 6.6.1 3.6.4 3.6.5 3.6.7 3.7 2.1 1.1 2.1 1.1 2.2 1 2.2 1 2.2.8 2.3.8 2.3.7 2.4.6 2.3.5 2.4.5 2.4.4 2.4.3 2.5.2 2.5.2h5.1l5.4-.4 4.6-10.4 4.9-10.2 4.9-10.1 5.1-10 1.2-2.4 1.4-2.3 1.5-2.2 1.7-2 1.7-2.1 1.9-1.8 1.9-1.9 2.2-1.6 3.5-2.7 3.6-2.5 3.7-2.4 3.8-2.1 3.9-2.1 3.9-1.8 4.1-1.7 4.1-1.4 2.9-.7 20.8-3.1 2.9-.2 2.8-.1 2.8.1 2.8.2 2.7.3 2.7.5 1.3.2 1.3.4 2.7.8 1.2.4 1.3.4 2.5 1 2.4 1.1 2.5 1.4 2.3 1.3 2.3 1.5 1.1.8 1.2.9 2.3 1.9 1.1 1 1.2 1.2 1.1 1.1 1 1.4.9 1.2.9 1.4.8 1.5.8 1.5 1.1 2.7 1 2.8.8 2.8.8 2.8.5 2.9.5 2.9.3 2.9.2 3 1 28.2 49.9 4.7 1.3-3.3 1.3-3.2 1.2-3.3 1.2-3.3v-.7l.7-5 .5-4.9.5-5 .5-4.8-1.2-22.9v-.3l-2.9-19.6-.8-5.3-1-5.1-1.1-5.2-1.3-5-.4-.9 1.6-3.1 3.5-7.5 2-3.7 2-3.6 2-3.7 2.2-3.5 2.3-3.5 2.4-3.4 2-2.9 2.1-2.8 2.1-2.7 2.2-2.7 4.6-5.2 4.8-4.9-15.8-10.8-1.9 2.1-2.6 2.8-2.4 3-2.4 3.1-2.2 3.2-2.4 3.3-2.2 3.4-2 3.5-1.8 3.6-1.7 3.6-1.4 3.7-1.3 3.8-1.1 3.9-1.3-4.1-1.4-1.2-1.2-1-1.1-1.2-.9-1v23.1l-17.3-23-2.1-2.9-1.9-2.7-1.9-2.7-1.6-2.6-8.1 34.8-9-7.8-5.8-5.3-5.6-5.3-2.8-2.7-2.6-2.7-5.1-5.5-13.4 27.1-3-2-2.8-2-2.9-2.3-2.6-2.3-2.6-2.5-2.5-2.5-2.4-2.3-2.3-2.3-2.1-2.2-1.9-2-1.9-2-1.6-1.9-9.2 12.2-.9 1.1-.4.5-.4.6-.9 1-.8 1.1-1.8 1.9-1.8 2-1.9 1.7-2 1.8-1 .8-.9.8-2 1.5-24-23-1.9 2.7-2 2.6-2.1 2.7-2.2 2.7-1.9 2.1-1.9 2.1-2 1.8-1.8 1.7-2 1.6-1.7 1.5-1.9 1.2-1.8 1.2-1.3-1.4-1.2-1.4-1.2-1.5-.9-1.5-2.7-3.8-2.5-3.7-2.6-3.6-2.6-3.5-2.7-3.6-2.7-3.3-2.8-3.4-2.7-3.2v.2l-2.4 6.5-1-5.4-1.3-5.4-1.3-5.3-1.5-5.3-2.1-6.4-2.1-6.2-2.3-6.2z"/><path fill="#f90" d="M431.8 499.7l2.5 2.6 1.1.8 1.3.7 1.3.6 1.3.6.8.3 4.4-4.4-.8-1.2-.8-1-1-1-1-.9-1.2-.9-1.3-.7-1.3-.7-1.5-.5-3.8 5.7zm7-1.6l.2.2-.5.3.3-.5z"/><path fill="#f69" d="M444.5 500.9l1.9-1.7 2-1.6 2.1-1.4 2.2-1.3.6-.5.6-.5.2-.3.1-.2.2-.1.6-.5.5-.6.5-.6.4-.7.4-.7.3-1.1.3-1 .2-1 .1-.9-.1-.8-.1-.7-.3-.7-.3-.5-.5-.6-.5-.3-.7-.4-.7-.2-.9-.3-1-.1h-1.1l-1.1.1-2.2 1.1-2.2 1.2-2 1.3-1.9 1.5-1.8 1.5-1.7 1.7-1.6 1.8-1.5 1.9 1.5.5 1.3.7 1.3.7 1.2.9 1 .9 1 1 .8 1 .9 1.5zm8.3-14.1l-.2.3-.3-.3.3-.1.2.1zM555.8 549.3l-2.8.9-2.6 1.1-2.6 1.2-2.5 1.3-2.5 1.4-2.4 1.5-2.4 1.5-2.2 1.8 3.5 3 1.9 1.4 2 1.4 1.9 1.3 2.1 1.2 4.3 2.3 1.4-1.3 1.2-1.1 1.2-1.1 1-1.2 1.1-1.1.8-1.3.5-.6.5-.6.4-.7.4-.6.4-.7.5-.7.6-1.2.4-1 .3-1.1.3-.9v-1.7000000000000002l-.2-.8-.2-.6-.4-.7-.5-.5-.6-.5-.7-.3-.9-.4-.9-.3-1.1-.2z"/><path fill="#f90" d="M528.3 566.4l-2.6 2.7 15.8 10.8 10-9.3-4.3-2.3-2.1-1.2-1.9-1.3-2-1.4-1.9-1.4-3.5-3z"/><path fill="#f69" d="M473.2 741.8l-13-2.5 1 2.6 1.1 2.7 1.2 2.6 1.3 2.5 2 4 8.8 3.5 4.2.6 5.4-1 4.8-2.3v.2l.8-.5 2.6-2.8 1.3-1.5.7-.7.1-.3v-.1h.2l.4-.3 1.1-1.6 1.2-1.5 1.2-1.5 1.1-1.6-1.7.3-1.7.2-3.3.3h-1.7000000000000002l-1.7.2h-3.4l-1.8-.1-1.7-.1-3.5-.2-1.8-.3-1.7-.2-1.8-.3-.9-.2z"/><path fill="#f90" d="M460.2 739.3l13 2.5.8.1.9.2 1.8.3 1.7.2 1.8.3 3.5.2 1.7.1 1.8.1h3.4l1.7-.2h1.7000000000000002l3.3-.3 1.7-.2 1.7-.3 1.7-2.7 1.6-2.8 1.5-2.8 1.5-2.9.2-.2-49.9-4.7.5 3.3.2 1.7.4 1.7.9 3.2z"/><path fill="#f69" d="M309.1 741.1l-2.1.1-2 .1-2 .1h-1.9l-2-.2-2-.3-1.9-.3-1.9-.3-1.9-.6-2-.6-1.9-.6-1.8-.7-2-.8-1.8-1-1.8-.9-1.8-1.1-2.7-.3 1 2.8 1.4 3.5 1.6 3.4 1.8 3.2 2 3.3.5.3.9.2 1.1.3h.2l.2.1.5.1 1.1.2.8.1 1 .1 2 .1.3-.1h1.4l.8-.1.9-.1 1.7-.3 1.6-.5.4-.2.4-.1.7-.4.7-.4.8-.4 1.4-.9 1.4-1.1 1.3-1.3 1.3-1.3 1.1-1.5z"/><path fill="#f90" d="M278.3 734l1.8 1.1 1.8.9 1.8 1 2 .8 1.8.7 1.9.6 2 .6 1.9.6 1.9.3 1.9.3 2 .3 2 .2h1.9l2-.1 2-.1 2.1-.1 5.8-11.6-5.4.4h-5.1l-2.5-.2-2.5-.2-2.4-.3-2.4-.4-2.4-.5-2.3-.5-2.4-.6-2.3-.7-2.3-.8-2.2-.8-2.2-1-2.2-1-2.1-1.1-2.1-1.1 2.9 11.3.6 1.7z"/><text transform="translate(31.582 818.187)" font-family="'IrishGrover'" font-size="129.448">P</text><text transform="translate(107.043 818.187)" font-family="'IrishGrover'" font-size="86.299">aper</text><text transform="translate(298.52 818.187)" font-family="'IrishGrover'" font-size="129.448">M</text><text transform="translate(442.014 818.187)" font-family="'IrishGrover'" font-size="86.299">onsters</text></svg>