<?xml version="1.0" encoding="utf-8"?>
<!-- Generator: Adobe Illustrator 17.1.0, SVG Export Plug-In . SVG Version: 6.00 Build 0)  -->
<!DOCTYPE svg PUBLIC "-//W3C//DTD SVG 1.1//EN" "http://www.w3.org/Graphics/SVG/1.1/DTD/svg11.dtd">
<svg version="1.1" xmlns="http://www.w3.org/2000/svg" xmlns:xlink="http://www.w3.org/1999/xlink" x="0px" y="0px"
	 viewBox="0 0 29.667 22.667" enable-background="new 0 0 29.667 22.667" xml:space="preserve">
<g>
	<polygon fill-rule="evenodd" clip-rule="evenodd" fill="#FF6699" points="9.53,8.087 9.491,8.095 9.455,8.111 9.422,8.133 
		9.391,8.161 9.355,8.194 9.331,8.236 9.316,8.281 9.312,8.305 9.312,8.333 9.309,8.443 9.312,8.499 9.319,8.556 9.341,8.667 
		9.375,8.777 9.536,9.168 9.572,9.144 9.611,9.123 9.688,9.079 9.841,8.988 9.848,8.98 9.858,8.974 9.877,8.962 9.916,8.938 
		9.992,8.889 10.067,8.837 10.143,8.788 10.028,8.557 9.979,8.472 9.953,8.432 9.929,8.397 9.873,8.328 9.813,8.267 9.748,8.21 
		9.712,8.184 9.679,8.162 9.604,8.121 9.53,8.087 	"/>
	<polygon fill-rule="evenodd" clip-rule="evenodd" fill="#66CC99" points="9.536,9.168 9.715,9.547 9.784,9.512 9.856,9.474 
		9.89,9.452 9.926,9.432 9.998,9.389 10.065,9.339 10.099,9.314 10.134,9.29 10.202,9.234 10.269,9.177 10.305,9.143 10.143,8.788 
		10.067,8.837 9.992,8.889 9.916,8.938 9.877,8.962 9.858,8.974 9.848,8.98 9.841,8.988 9.688,9.079 9.611,9.123 9.572,9.144 
		9.536,9.168 	"/>
	<path fill-rule="evenodd" clip-rule="evenodd" fill="#F46E1D" d="M15.484,1.971l-0.048-0.077l-0.048-0.071l-0.053-0.065
		l-0.053-0.059l-0.031-0.03l-0.029-0.026L15.19,1.618l-0.029-0.022l-0.062-0.043l-0.034-0.02l-0.031-0.016l-0.072-0.033L14.89,1.456
		l-0.077-0.022l-0.077-0.016l-0.082-0.012l-0.043-0.004l-0.041,0l-0.087,0l-0.045,0.002l-0.043,0.006l-0.11,0.006l-0.103,0.018
		l-0.098,0.028l-0.094,0.04l-0.094,0.046l-0.084,0.057l-0.082,0.067l-0.074,0.077l-0.091,0.101l-0.043,0.051l-0.036,0.055
		l-0.067,0.113l-0.031,0.057L13.364,2.19l-0.048,0.121l-0.019,0.061l-0.014,0.065L13.259,2.57l-0.012,0.136l-0.005,0.107
		l0.008,0.107l0.12,0.306l0.046,0.045l0.048,0.043l0.048,0.041l0.051,0.039l0.048,0.036l0.05,0.033l0.101,0.063l0.048,0.025
		l0.053,0.024l0.106,0.043l0.105,0.031l0.108,0.023l0.108,0.012l0.111,0.004l0.11-0.008l0.058-0.006l0.057-0.008l0.055-0.012
		l0.057-0.014l0.057-0.016l0.06-0.018l0.057-0.022l0.06-0.024l0.06-0.026l0.063-0.028l0.266-0.137l0.081-0.105l0.077-0.103
		l0.067-0.101l0.062-0.099l0.019-0.127l0.009-0.123l0-0.063L15.677,2.59l-0.015-0.123l-0.029-0.126l-0.039-0.123l-0.024-0.063
		l-0.015-0.032l-0.007-0.016l-0.005-0.014L15.515,2.03L15.484,1.971L15.484,1.971z M14.395,1.503l0.077-0.002l0.036,0l0.039,0.004
		l0.07,0.01l0.069,0.014l0.065,0.017l0.063,0.024l0.057,0.03l0.058,0.035l0.051,0.038l0.024,0.02l0.026,0.024l0.046,0.049
		l0.046,0.053l0.039,0.057l0.038,0.063l0.034,0.069l0.014,0.036l0.017,0.04l0.01,0.035l0.005,0.018l0.007,0.02l0.01,0.036
		l0.005,0.018l0.007,0.02L15.319,2.3l0.012,0.071l0.003,0.067l-0.002,0.067l-0.005,0.032l-0.002,0.016l0,0.018l-0.012,0.067
		l-0.005,0.006l-0.003,0.008L15.3,2.667l-0.009,0.032l-0.005,0.006l-0.003,0.008l-0.005,0.016l-0.01,0.032l-0.031,0.059
		l-0.031,0.059l-0.041,0.055l-0.024,0.028l-0.007,0.006L15.13,2.976l-0.009,0.016l-0.015,0.012l-0.007,0.006l-0.005,0.008
		L15.07,3.045L15.015,3.1l-0.014,0.008l-0.007,0.004l-0.005,0.006l-0.024,0.02l-0.048,0.036L14.902,3.18L14.89,3.188l-0.024,0.016
		l-0.048,0.03l-0.053,0.022l-0.014,0.004l-0.007,0.002l-0.005,0.004l-0.024,0.012l-0.053,0.016l-0.015,0.002l-0.012,0.004
		l-0.024,0.008l-0.055,0.008l-0.053,0.006l-0.058,0.002l-0.053-0.002l-0.057-0.006l-0.058-0.01l-0.058-0.014l-0.057-0.014
		L14.091,3.25l-0.065-0.03l-0.063-0.035l-0.055-0.039l-0.055-0.047l-0.048-0.049l-0.046-0.057l-0.039-0.059l-0.034-0.055
		L13.66,2.824l-0.041-0.107l-0.017-0.055l-0.01-0.053l-0.007-0.055l0-0.054l-0.003-0.057l0.007-0.055l0.007-0.055l0.017-0.056
		l0.017-0.057l0.021-0.055l0.027-0.058l0.031-0.055l0.036-0.065l0.043-0.061l0.012-0.032l0.017-0.028l0.033-0.059l0.041-0.051
		l0.043-0.046l0.05-0.04l0.051-0.036l0.057-0.03l0.06-0.024l0.065-0.016l0.084-0.038L14.395,1.503L14.395,1.503z"/>
	<polygon fill-rule="evenodd" clip-rule="evenodd" fill="#FFFFFF" points="15.263,2.082 15.246,2.043 15.232,2.007 15.198,1.938 
		15.16,1.875 15.121,1.818 15.075,1.764 15.029,1.715 15.003,1.691 14.979,1.672 14.928,1.634 14.871,1.599 14.813,1.569 
		14.751,1.545 14.686,1.528 14.616,1.514 14.547,1.504 14.508,1.501 14.472,1.501 14.395,1.503 14.302,1.526 14.218,1.564 
		14.153,1.58 14.093,1.604 14.036,1.634 13.985,1.669 13.935,1.709 13.892,1.754 13.851,1.806 13.818,1.865 13.801,1.893 
		13.788,1.925 13.746,1.986 13.71,2.051 13.679,2.107 13.652,2.164 13.631,2.219 13.614,2.277 13.597,2.332 13.59,2.387 
		13.583,2.443 13.586,2.5 13.586,2.553 13.593,2.609 13.603,2.662 13.619,2.717 13.66,2.824 13.687,2.877 13.721,2.933 
		13.759,2.992 13.805,3.049 13.853,3.098 13.909,3.146 13.964,3.185 14.026,3.22 14.091,3.25 14.163,3.278 14.221,3.291 
		14.278,3.305 14.336,3.315 14.394,3.321 14.446,3.323 14.504,3.321 14.557,3.315 14.612,3.307 14.636,3.299 14.648,3.295 
		14.663,3.293 14.715,3.277 14.739,3.265 14.744,3.261 14.751,3.259 14.766,3.255 14.818,3.233 14.866,3.203 14.89,3.188 
		14.902,3.18 14.917,3.174 14.965,3.138 14.989,3.118 14.994,3.112 15.001,3.108 15.015,3.1 15.07,3.045 15.094,3.017 15.099,3.009 
		15.106,3.003 15.121,2.991 15.13,2.976 15.135,2.968 15.142,2.962 15.166,2.934 15.207,2.879 15.238,2.819 15.269,2.76 
		15.279,2.728 15.283,2.713 15.286,2.705 15.291,2.699 15.3,2.667 15.305,2.651 15.307,2.643 15.312,2.637 15.324,2.57 
		15.324,2.552 15.326,2.537 15.331,2.505 15.334,2.438 15.331,2.371 15.319,2.3 15.307,2.228 15.299,2.208 15.295,2.191 
		15.285,2.155 15.278,2.136 15.273,2.118 15.263,2.082 	"/>
	<polygon fill-rule="evenodd" clip-rule="evenodd" fill="#CC3300" points="13.25,2.919 13.262,3.004 13.269,3.046 13.281,3.089 
		13.308,3.17 13.342,3.249 13.381,3.324 13.428,3.399 13.482,3.47 13.511,3.504 13.544,3.54 13.628,3.622 13.72,3.697 13.765,3.731 
		13.813,3.762 13.916,3.818 14.02,3.861 14.128,3.896 14.183,3.91 14.241,3.922 14.299,3.931 14.359,3.939 14.375,4.026 
		14.398,4.117 14.424,4.206 14.458,4.297 14.489,4.36 14.508,4.39 14.532,4.417 14.583,4.465 14.612,4.486 14.645,4.506 
		14.876,4.656 14.919,4.656 14.941,4.656 14.965,4.658 15.054,4.657 15.14,4.653 15.227,4.649 15.044,4.501 14.984,4.456 
		14.928,4.411 14.873,4.363 14.823,4.316 14.772,4.265 14.726,4.213 14.681,4.158 14.64,4.105 14.604,3.939 14.606,3.939 
		14.676,3.931 14.709,3.925 14.745,3.921 14.776,3.913 14.81,3.907 14.877,3.889 14.906,3.877 14.92,3.871 14.937,3.867 
		14.997,3.843 15.055,3.814 15.112,3.784 15.136,3.764 15.141,3.758 15.148,3.754 15.163,3.746 15.216,3.709 15.263,3.665 
		15.312,3.62 15.354,3.57 15.398,3.517 15.436,3.459 15.474,3.4 15.532,3.289 15.579,3.182 15.618,3.072 15.651,2.965 15.589,3.064 
		15.522,3.165 15.445,3.268 15.364,3.372 15.098,3.509 15.035,3.537 14.975,3.563 14.915,3.587 14.858,3.608 14.797,3.626 
		14.74,3.642 14.683,3.656 14.627,3.668 14.57,3.676 14.512,3.682 14.402,3.69 14.291,3.687 14.183,3.675 14.075,3.651 13.969,3.62 
		13.863,3.577 13.811,3.553 13.762,3.527 13.661,3.464 13.611,3.431 13.563,3.395 13.512,3.356 13.464,3.314 13.416,3.271 
		13.371,3.226 13.25,2.919 	"/>
	<path fill-rule="evenodd" clip-rule="evenodd" fill="#F46E1D" d="M15.227,4.649L15.14,4.653l-0.087,0.004l-0.089,0l-0.024-0.002
		l-0.021,0l-0.043,0l0.019,0.022l0.082,0.073l0.08,0.079l0.07,0.079l0.068,0.085l0.058,0.083l0.053,0.089l0.044,0.091l0.041,0.095
		l0.029,0.095l0.027,0.099l0.017,0.101l0.015,0.105l0.005,0.105l0,0.109l-0.01,0.111L15.46,6.188l-0.033,0.065L15.41,6.285
		l-0.015,0.034l-0.036,0.063l-0.033,0.063l-0.041,0.059l-0.038,0.061l-0.043,0.059L15.16,6.685l-0.048,0.053l-0.027,0.024
		l-0.023,0.024l-0.029,0.02l-0.014,0.01l-0.012,0.012l-0.029,0.018l-0.015,0.008l-0.007,0.004l-0.005,0.006l-0.009,0.002
		l-0.007,0.004L14.92,6.877l-0.029,0.014L14.83,6.913l-0.067,0.016l-0.036,0.004l-0.033,0.006l-0.087,0.002l-0.079,0l-0.079-0.008
		l-0.072-0.012l-0.072-0.02L14.239,6.88l-0.062-0.03l-0.055-0.032l-0.058-0.041l-0.051-0.043l-0.048-0.051l-0.041-0.055L13.88,6.564
		l-0.036-0.065l-0.034-0.073l-0.026-0.077l-0.036-0.121l-0.013-0.059l-0.005-0.055l-0.002-0.057l0.002-0.054l0.017-0.105
		l0.031-0.101l0.051-0.097l0.029-0.047l0.036-0.044l0.084-0.085l0.055-0.048l0.065-0.04l0.053-0.03l0.055-0.022l0.051-0.018
		l0.053-0.01l0.021-0.006l0.024-0.002l0.048,0l0.022,0l0.024,0.004l0.022,0.004l0.024,0.008l0.041,0.014l0.019,0.008l0.021,0.012
		l0.039,0.026l0.038,0.032l0.034,0.036l0.034,0.043l0.014,0.022l0.017,0.026l0.031,0.053l0.019,0.041l0.017,0.043l0.015,0.042
		l0.012,0.043l0.005,0.04l0.003,0.04l0,0.038l-0.002,0.04L14.84,5.998l-0.005,0.008l-0.003,0.004l0,0.006l-0.005,0.02l-0.01,0.016
		l-0.005,0.008l-0.003,0.004l0,0.006l-0.017,0.036L14.77,6.136l-0.014,0.016L14.749,6.16l-0.005,0.01l-0.031,0.032l-0.017,0.016
		l-0.014,0.018l-0.024,0.012l-0.019,0.01L14.62,6.265L14.6,6.271l-0.046-0.002l-0.039-0.004l-0.038-0.006l-0.031-0.008l-0.031-0.012
		l-0.026-0.012l-0.024-0.016l-0.017-0.018l-0.019-0.022l-0.012-0.024l-0.012-0.026L14.3,6.095l-0.005-0.032l0-0.034l0.002-0.035
		l0.007-0.038l0.019-0.006l0.021-0.004l0.019-0.006l0.019-0.006l0.014-0.01l0.015-0.008l0.012-0.012l0.014-0.01l0.003-0.008
		l0.005-0.006l0.002-0.008l0.005-0.006l0.005-0.016l0.003-0.008l0.005-0.006l0-0.02l0-0.01l0.002-0.008l-0.002-0.02l0-0.02
		l-0.01-0.032l-0.01-0.026l-0.015-0.022l-0.017-0.018L14.393,5.65l-0.022-0.01l-0.026-0.006l-0.029,0.002l-0.041,0l-0.036,0.004
		l-0.034,0.006l-0.029,0.01l-0.031,0.01l-0.026,0.014l-0.024,0.016l-0.019,0.02l-0.021,0.02L14.038,5.76l-0.026,0.056l-0.012,0.03
		L13.992,5.88l-0.005,0.036l0,0.042l-0.005,0.053l0.003,0.053l0.005,0.049l0.012,0.049l0.01,0.044l0.017,0.043l0.019,0.041
		l0.026,0.04l0.025,0.033l0.031,0.034l0.034,0.032l0.041,0.03l0.041,0.026l0.046,0.024l0.048,0.022l0.055,0.02l0.043,0.012
		l0.021,0.004l0.024,0.006l0.043,0.006l0.021,0l0.024,0.002l0.019-0.002l0.021,0l0.041-0.004l0.039-0.01l0.019-0.006l0.022-0.004
		l0.033-0.018l0.003-0.004l0.005-0.002l0.009-0.004l0.019-0.008l0.034-0.024l0.007-0.008l0.01-0.006l0.019-0.012l0.015-0.016
		l0.007-0.008l0.009-0.006l0.033-0.034l0.029-0.038l0.014-0.02l0.003-0.006l0.005-0.004l0.009-0.008l0.036-0.063l0.031-0.059
		l0.027-0.063l0.024-0.059l0.014-0.063l0.012-0.059l0.005-0.063l0.002-0.059L15.14,5.776l-0.01-0.059l-0.017-0.063l-0.019-0.059
		l-0.029-0.063l-0.032-0.059l-0.036-0.063l-0.041-0.059L14.918,5.3L14.88,5.258l-0.041-0.037l-0.043-0.034l-0.048-0.03l-0.048-0.026
		l-0.027-0.012l-0.024-0.008l-0.053-0.014l-0.081-0.02l-0.077-0.012L14.36,5.062l-0.072,0.002l-0.072,0.004L14.147,5.08L14.08,5.098
		l-0.062,0.024l-0.065,0.028l-0.06,0.034l-0.058,0.04L13.78,5.27L13.725,5.32l-0.05,0.057L13.626,5.44l-0.046,0.071L13.55,5.557
		l-0.024,0.049l-0.041,0.101l-0.026,0.105l-0.007,0.109L13.45,6.024l0,0.052l0.005,0.053l0.012,0.101l0.022,0.101l0.01,0.047
		l0.014,0.049l0.034,0.099l0.041,0.095l0.048,0.095l0.022,0.039l0.026,0.041l0.056,0.075l0.06,0.069l0.031,0.032l0.036,0.032
		l0.07,0.055l0.079,0.051L14.1,7.153l0.043,0.018l0.048,0.02l0.036,0.014l-0.13,0.008L13.973,7.23L13.85,7.254l-0.118,0.032
		l0.048,0.095l0.046,0.095l0.036,0.097l0.034,0.099l0.022,0.099l0.019,0.099l0.01,0.101l0.005,0.103l-0.005,0.099l-0.009,0.103
		l-0.019,0.103l-0.021,0.105l-0.033,0.103l-0.036,0.107l-0.046,0.107l-0.048,0.109l-0.021,0.032l-0.019,0.034l-0.024,0.03
		l-0.021,0.032l-0.014,0.012L13.63,9.047l-0.003,0.004l-0.005,0.008l-0.024,0.028l-0.014,0.012L13.58,9.1l-0.003,0.004l-0.005,0.008
		l-0.024,0.026l-0.058,0.044l-0.031,0.02l-0.029,0.02l-0.034,0.016l-0.031,0.016l-0.067,0.028l-0.12,0.032l-0.115,0.03l-0.115,0.026
		L12.833,9.39l-0.12,0.018l-0.116,0.014l-0.06,0.004l-0.057,0.006l-0.116,0.01l-0.12,0.002l-0.115,0l-0.12-0.004l-0.115-0.006
		l-0.12-0.012L11.659,9.41l-0.12-0.018l-0.115-0.021l-0.505,1.256l0.101,0.12l0.104,0.124l0.101,0.126l0.102,0.132l0.096,0.132
		l0.098,0.136l0.096,0.138l0.099,0.142l0.036,0.055l0.043,0.055l0.043,0.053l0.05,0.055l0.067-0.046l0.07-0.048l0.067-0.055
		l0.072-0.057l0.07-0.065l0.072-0.069l0.072-0.077L12.45,11.4l0.084-0.103l0.079-0.099l0.074-0.099l0.072-0.099l0.899,0.862
		l0.072-0.057l0.036-0.032l0.038-0.03l0.072-0.065l0.072-0.065l0.067-0.073l0.067-0.073l0.031-0.04l0.034-0.038l0.014-0.022
		l0.017-0.02l0.034-0.039l0.345-0.457l0.06,0.069l0.07,0.075l0.072,0.077l0.079,0.083l0.084,0.083l0.089,0.089l0.094,0.091
		l0.098,0.097l0.098,0.087l0.106,0.083l0.106,0.077l0.113,0.075l0.503-1.017l0.19,0.207l0.098,0.101l0.104,0.103l0.209,0.199
		l0.219,0.195l0.337,0.292l0.305-1.301l0.06,0.097l0.067,0.101l0.072,0.103l0.08,0.106l0.65,0.865l-0.001-0.868l0.034,0.039
		l0.041,0.041l0.046,0.039l0.05,0.043l-0.313-0.843l-0.109-0.255l-0.111-0.249l-0.12-0.247l-0.123-0.243l-0.067-0.118l-0.094,0.048
		l-0.096,0.05l-0.091,0.038l-0.087,0.034l-0.086,0.03l-0.084,0.026l-0.084,0.022l-0.082,0.018l-0.079,0.014l-0.077,0.014
		l-0.079,0.006l-0.077,0.002l-0.074-0.002l-0.072-0.002l-0.072-0.01l-0.07-0.01l-0.069-0.018l-0.067-0.018l-0.067-0.025
		l-0.065-0.026l-0.065-0.033l-0.062-0.033l-0.063-0.042l-0.06-0.041l-0.058-0.045l-0.055-0.049l-0.058-0.057l-0.053-0.057
		l-0.053-0.061l-0.051-0.065l-0.05-0.069l-0.048-0.073L15.55,8.714l-0.044-0.081l-0.041-0.077l-0.031-0.075l-0.029-0.075
		l-0.022-0.075l-0.012-0.04l-0.007-0.038l-0.012-0.075l-0.007-0.075l0-0.075l0.002-0.079l0.009-0.075l0.012-0.077l0.022-0.075
		l0.023-0.079l0.031-0.075l0.036-0.077l0.041-0.075l0.041-0.079l-0.655-0.122l0.053-0.024l0.057-0.026l0.053-0.03l0.055-0.032
		l0.053-0.038l0.053-0.04l0.053-0.046l0.053-0.045l0.024-0.03l0.026-0.028l0.048-0.058l0.043-0.059l0.043-0.057l0.039-0.061
		l0.017-0.032l0.019-0.03l0.031-0.063l0.031-0.063l0.024-0.067l0.022-0.067l0.007-0.036l0.01-0.033l0.007-0.036l0.009-0.034
		l0.005-0.038l0.007-0.036l0.009-0.071l0.005-0.073l0.005-0.073l-0.005-0.097l-0.007-0.091l-0.012-0.091L15.73,5.526l-0.022-0.087
		l-0.022-0.083L15.66,5.275l-0.031-0.077l-0.036-0.079l-0.041-0.073l-0.046-0.073L15.46,4.904l-0.056-0.069l-0.055-0.063
		l-0.06-0.063L15.227,4.649L15.227,4.649z M14.647,8.393l0.06,0.012l0.06,0.018l0.055,0.02l0.053,0.025l0.048,0.026l0.048,0.034
		l0.043,0.033l0.041,0.042l0.036,0.041l0.034,0.045l0.029,0.049l0.029,0.053l0.022,0.053l0.022,0.061l0.017,0.061l0.017,0.069
		l0.012,0.091l0.012,0.091l0.005,0.091l0.003,0.095L15.29,9.495l-0.007,0.095L15.271,9.68l-0.014,0.095l-0.014,0.051l-0.009,0.026
		L15.226,9.88l-0.019,0.051l-0.019,0.051l-0.026,0.048l-0.015,0.024l-0.007,0.012l-0.005,0.014l-0.009,0.01l-0.007,0.012
		l-0.014,0.024l-0.031,0.047L15.01,10.24l-0.033,0.03l-0.031,0.028l-0.033,0.024l-0.034,0.022l-0.019,0.008l-0.01,0.004
		l-0.005,0.002l-0.002,0.004l-0.034,0.016l-0.038,0.012l-0.038,0.01l-0.012,0l-0.009,0.002l-0.019,0.004l-0.039,0.004l-0.043,0
		l-0.007-0.002l-0.005,0l-0.01,0l-0.019,0l-0.043-0.004l-0.021-0.004l-0.019-0.002l-0.043-0.012l-0.039-0.012l-0.074-0.03
		l-0.069-0.035l-0.065-0.044l-0.06-0.051l-0.029-0.03l-0.025-0.03l-0.05-0.065l-0.041-0.071l-0.053-0.111l-0.024-0.055l-0.017-0.053
		l-0.029-0.111l-0.017-0.111l-0.007-0.115l0.005-0.115l0.005-0.059l0.012-0.057l0.012-0.059l0.017-0.057l0.019-0.073l0.026-0.069
		l0.026-0.065l0.033-0.059l0.034-0.059l0.038-0.053l0.041-0.051l0.048-0.046l0.046-0.045l0.053-0.04l0.055-0.038l0.063-0.03
		l0.06-0.03l0.067-0.026l0.069-0.022L14.647,8.393L14.647,8.393z"/>
	<path fill-rule="evenodd" clip-rule="evenodd" fill="#CC3300" d="M15.26,9.036l-0.017-0.069l-0.017-0.061l-0.022-0.061
		l-0.022-0.053l-0.029-0.053l-0.029-0.049l-0.034-0.045l-0.036-0.041L15.015,8.56l-0.043-0.033l-0.048-0.034l-0.048-0.026
		l-0.053-0.025l-0.055-0.02l-0.06-0.018l-0.06-0.012L14.57,8.409l-0.069,0.022l-0.067,0.026l-0.06,0.03l-0.063,0.03l-0.055,0.038
		l-0.053,0.04l-0.046,0.045L14.11,8.684l-0.041,0.051l-0.038,0.053l-0.034,0.059l-0.033,0.059l-0.026,0.065l-0.026,0.069
		l-0.019,0.073l-0.017,0.057l-0.012,0.059l-0.012,0.057l-0.005,0.059l-0.005,0.115l0.007,0.115l0.017,0.111l0.029,0.111l0.017,0.053
		l0.024,0.055l0.053,0.111l0.041,0.071l0.05,0.065l0.025,0.03l0.029,0.03l0.06,0.051l0.065,0.044l0.069,0.035l0.074,0.03
		l0.039,0.012l0.043,0.012l0.019,0.002l0.021,0.004l0.043,0.004l0.019,0l0.01,0l0.005,0l0.007,0.002l0.043,0l0.039-0.004
		l0.019-0.004l0.009-0.002l0.012,0l0.038-0.01l0.038-0.012l0.034-0.016l0.002-0.004l0.005-0.002l0.01-0.004l0.019-0.008l0.034-0.022
		l0.033-0.024l0.031-0.028l0.033-0.03l0.063-0.067l0.031-0.047l0.014-0.024l0.007-0.012l0.009-0.01l0.005-0.014l0.007-0.012
		l0.015-0.024l0.026-0.048l0.019-0.051l0.019-0.051l0.007-0.028l0.009-0.026l0.014-0.051l0.014-0.095l0.012-0.091l0.007-0.095
		l0.003-0.091L15.29,9.309l-0.005-0.091l-0.012-0.091L15.26,9.036L15.26,9.036z M14.566,8.694l0.106-0.026l0.043,0.014l0.043,0.02
		l0.041,0.02l0.041,0.026l0.036,0.024L14.909,8.8l0.031,0.032l0.031,0.035L14.996,8.9l0.024,0.04l0.022,0.042l0.022,0.045
		l0.014,0.046l0.015,0.049l0.012,0.052l0.012,0.055l0.007,0.083l0,0.02l0,0.01l0.002,0.012l0.003,0.043l-0.005,0.083L15.12,9.521
		l-0.002,0.044l-0.009,0.039l-0.005,0.02l-0.003,0.004l0,0.006l0,0.012l-0.022,0.083L15.05,9.807l-0.017,0.04l-0.014,0.041
		l-0.026,0.043l-0.015,0.02l-0.005,0.004l-0.002,0.006l-0.005,0.012l-0.029,0.038l-0.014,0.016l-0.007,0.008l-0.005,0.01
		l-0.01,0.006l-0.007,0.008l-0.015,0.016l-0.031,0.028l-0.033,0.022l-0.009,0.004l-0.005,0.002l-0.002,0.004l-0.015,0.012
		l-0.038,0.014l-0.019,0.006l-0.017,0.008l-0.039,0.008l-0.038,0.006l-0.043,0l-0.043-0.002l-0.024-0.004l-0.007-0.002l-0.005,0
		l-0.009,0l-0.043-0.008l-0.05-0.02l-0.046-0.028l-0.043-0.035l-0.036-0.039l-0.046-0.063l-0.041-0.059L14.16,9.864l-0.026-0.061
		l-0.027-0.065L14.09,9.674l-0.017-0.065l-0.007-0.063l-0.007-0.067l-0.002-0.067l0.002-0.069l0.012-0.067l0.012-0.071l0.022-0.069
		l0.021-0.071l0.031-0.071l0.029-0.065l0.036-0.055l0.041-0.05l0.05-0.039l0.024-0.02l0.029-0.016l0.06-0.024l0.031-0.012
		l0.036-0.008L14.566,8.694L14.566,8.694z"/>
	<polygon fill-rule="evenodd" clip-rule="evenodd" fill="#FFFFFF" points="14.672,8.668 14.566,8.694 14.492,8.704 14.455,8.711 
		14.424,8.723 14.364,8.747 14.335,8.763 14.311,8.783 14.261,8.822 14.221,8.872 14.185,8.927 14.156,8.993 14.125,9.064 
		14.103,9.135 14.082,9.204 14.07,9.275 14.058,9.342 14.056,9.412 14.058,9.479 14.065,9.546 14.073,9.609 14.09,9.674 
		14.107,9.738 14.133,9.803 14.16,9.864 14.196,9.927 14.237,9.986 14.283,10.05 14.319,10.089 14.362,10.124 14.408,10.152 
		14.458,10.172 14.501,10.18 14.511,10.18 14.515,10.18 14.523,10.182 14.547,10.186 14.59,10.187 14.633,10.187 14.672,10.181 
		14.71,10.173 14.727,10.165 14.746,10.16 14.784,10.146 14.799,10.134 14.801,10.13 14.806,10.128 14.816,10.124 14.849,10.102 
		14.88,10.074 14.895,10.058 14.902,10.051 14.912,10.044 14.916,10.035 14.924,10.027 14.938,10.011 14.966,9.973 14.972,9.961 
		14.974,9.956 14.978,9.952 14.993,9.932 15.019,9.888 15.034,9.847 15.05,9.807 15.079,9.728 15.101,9.645 15.101,9.633 
		15.101,9.627 15.103,9.623 15.108,9.603 15.117,9.564 15.12,9.521 15.124,9.479 15.129,9.396 15.126,9.353 15.124,9.341 
		15.124,9.331 15.124,9.311 15.117,9.228 15.105,9.173 15.092,9.121 15.078,9.072 15.064,9.027 15.042,8.981 15.02,8.94 14.996,8.9 
		14.972,8.867 14.94,8.831 14.909,8.8 14.876,8.77 14.84,8.746 14.799,8.721 14.758,8.701 14.715,8.681 14.672,8.668 	"/>
	<path fill-rule="evenodd" clip-rule="evenodd" fill="#CC3300" d="M13.156,7.127L13,6.981l-0.024,0.045L12.952,7.07l-0.015,0.02
		l-0.005,0.004L12.93,7.096l0,0.004l-0.005,0.012l-0.026,0.04l-0.031,0.035l-0.031,0.036l-0.033,0.032l-0.033,0.03l0.139,0.109
		l0.046,0.041l0.046,0.045l0.043,0.049l0.046,0.055l-0.213,0.135l-0.105,0.069L12.67,7.863l-0.199,0.154l-0.098,0.081l-0.094,0.085
		l-0.108,0.101l-0.103,0.109L11.97,8.506l-0.048,0.057l-0.043,0.062l-0.13,0.176l-0.117,0.184l-0.11,0.188l-0.098,0.198l0.115,0.021
		l0.12,0.018l0.116,0.014l0.12,0.012l0.115,0.006l0.12,0.004l0.115,0l0.12-0.002l0.116-0.01l0.057-0.006l0.06-0.004l0.116-0.014
		l0.12-0.018l0.115-0.022l0.115-0.026l0.115-0.03l0.12-0.032l0.067-0.028l0.031-0.016l0.034-0.016l0.029-0.02l0.031-0.02
		l0.058-0.044l0.024-0.026l0.005-0.008L13.58,9.1l0.005-0.002l0.014-0.012l0.024-0.028l0.005-0.008l0.003-0.004l0.005-0.002
		l0.014-0.012l0.021-0.032l0.024-0.03l0.019-0.034l0.021-0.032l0.048-0.109l0.046-0.107l0.036-0.107l0.033-0.103l0.021-0.105
		l0.019-0.103l0.009-0.103l0.005-0.099l-0.005-0.103l-0.01-0.101L13.918,7.77l-0.022-0.099l-0.034-0.099l-0.036-0.097l-0.046-0.095
		l-0.048-0.095l-0.098,0.028l-0.096,0.034l-0.093,0.038l-0.089,0.044L13.31,7.344l-0.048-0.077l-0.053-0.073L13.156,7.127
		L13.156,7.127z M13.29,7.939l0.065,0.014l0.063,0.018l0.055,0.02l0.055,0.026l0.046,0.026l0.041,0.033l0.036,0.033l0.034,0.041
		l0.022,0.041l0.022,0.045l0.014,0.047l0.012,0.053l0.003,0.053l0,0.061l-0.007,0.061l-0.007,0.069l-0.014,0.04l-0.041-0.053
		l-0.038-0.045l-0.043-0.045l-0.041-0.039l-0.046-0.039l-0.046-0.033l-0.05-0.034l-0.048-0.025l-0.055-0.026l-0.053-0.022
		l-0.057-0.02l-0.058-0.014l-0.063-0.014l-0.06-0.008l-0.065-0.006l-0.062-0.002l0.031-0.055l0.036-0.047l0.041-0.042l0.046-0.034
		l0.05-0.03l0.055-0.022l0.06-0.018L13.29,7.939L13.29,7.939z M13.69,8.705l-0.086,0.111l-0.038,0.028l-0.033,0.026l-0.034,0.022
		l-0.033,0.018l-0.019,0.006l-0.017,0.008l-0.033,0.012l-0.034,0.006l-0.033,0.006l-0.039-0.002l-0.033-0.002l-0.033-0.008
		l-0.033-0.01l-0.019-0.008l-0.01-0.004l-0.005-0.002l-0.002,0l-0.034-0.018l-0.033-0.022l-0.034-0.024l-0.063-0.051L12.96,8.769
		l-0.022-0.026l-0.025-0.03l-0.019-0.028l-0.017-0.03l-0.012-0.028l-0.022-0.063l-0.009-0.063l0-0.067l0.009-0.067l0.048-0.006
		L12.94,8.36l0.099,0.006l0.098,0.018l0.103,0.033l0.06,0.022l0.062,0.029l0.058,0.03l0.06,0.036l0.053,0.037l0.055,0.042
		l0.051,0.043L13.69,8.705L13.69,8.705z"/>
	<polygon fill-rule="evenodd" clip-rule="evenodd" fill="#FFFFFF" points="13.742,8.582 13.749,8.513 13.757,8.452 13.756,8.391 
		13.754,8.337 13.742,8.284 13.727,8.236 13.705,8.191 13.684,8.149 13.65,8.108 13.614,8.075 13.573,8.041 13.527,8.015 
		13.472,7.99 13.417,7.97 13.354,7.953 13.29,7.939 13.22,7.949 13.16,7.967 13.105,7.988 13.055,8.018 13.009,8.052 12.968,8.093 
		12.932,8.141 12.901,8.196 12.963,8.198 13.028,8.204 13.088,8.212 13.151,8.226 13.209,8.239 13.266,8.259 13.319,8.281 
		13.374,8.306 13.422,8.332 13.473,8.365 13.519,8.399 13.564,8.438 13.605,8.478 13.648,8.523 13.687,8.569 13.728,8.622 
		13.742,8.582 	"/>
	<polygon fill-rule="evenodd" clip-rule="evenodd" fill="#FFFFFF" points="13.603,8.816 13.69,8.705 13.639,8.656 13.589,8.612 
		13.533,8.571 13.48,8.533 13.42,8.498 13.363,8.468 13.3,8.439 13.24,8.417 13.137,8.384 13.039,8.366 12.94,8.36 12.892,8.362 
		12.844,8.368 12.834,8.436 12.834,8.503 12.844,8.566 12.866,8.629 12.878,8.657 12.895,8.686 12.914,8.714 12.938,8.744 
		12.96,8.769 12.989,8.797 13.051,8.848 13.085,8.872 13.118,8.893 13.152,8.911 13.154,8.911 13.159,8.913 13.169,8.917 
		13.188,8.925 13.222,8.935 13.255,8.943 13.289,8.945 13.327,8.947 13.361,8.941 13.395,8.934 13.428,8.923 13.445,8.915 
		13.464,8.909 13.498,8.891 13.531,8.869 13.565,8.843 13.603,8.816 	"/>
	<path fill-rule="evenodd" clip-rule="evenodd" fill="#CC3300" d="M15.562,7.336l-0.041,0.079L15.481,7.49l-0.036,0.077
		l-0.031,0.075l-0.023,0.079l-0.022,0.075l-0.012,0.077l-0.009,0.075l-0.002,0.079l0,0.075l0.007,0.075l0.012,0.075l0.007,0.038
		l0.012,0.04l0.022,0.075l0.029,0.075l0.031,0.075l0.041,0.077l0.044,0.081l0.048,0.077l0.048,0.073l0.05,0.069l0.051,0.065
		l0.053,0.061l0.053,0.057l0.058,0.057l0.055,0.049l0.058,0.045l0.06,0.041l0.063,0.042l0.062,0.033l0.065,0.033l0.065,0.026
		l0.067,0.025l0.067,0.018l0.069,0.018l0.07,0.01l0.072,0.01l0.072,0.002l0.074,0.002l0.077-0.002l0.079-0.006l0.077-0.014
		l0.079-0.014l0.082-0.018l0.084-0.022l0.084-0.026l0.086-0.03l0.087-0.034l0.091-0.038l0.096-0.05l0.094-0.048l-0.066-0.112
		l-0.067-0.109l-0.14-0.211l-0.077-0.105L17.421,8.59l-0.08-0.099l-0.082-0.097l-0.094-0.101l-0.094-0.097l-0.099-0.093l-0.05-0.045
		l-0.048-0.041l-0.106-0.085l-0.106-0.077l-0.11-0.073L16.44,7.714l-0.144-0.081l0.041-0.079l0.151-0.217l-0.031-0.01l-0.05-0.022
		l-0.048-0.024l-0.048-0.025l-0.043-0.03l-0.092-0.099l-0.079,0.158l-0.027,0.053l-0.017,0.055L16.041,7.45l-0.007,0.055
		l-0.118-0.049L15.8,7.413l-0.12-0.041L15.562,7.336L15.562,7.336z M16.659,8.382l0.01,0.126L16.667,8.54l-0.002,0.016l0,0.018
		l-0.005,0.014l-0.002,0.016l-0.005,0.032l-0.009,0.028l-0.009,0.03L16.619,8.72l-0.005,0.006l-0.003,0.008l-0.005,0.016
		l-0.019,0.024l-0.009,0.012l-0.005,0.006l-0.003,0.008l-0.007,0.004l-0.005,0.006l-0.009,0.012L16.53,8.844l-0.027,0.02
		L16.48,8.886l-0.029,0.02l-0.029,0.022l-0.045,0.022l-0.043,0.018L16.29,8.981l-0.041,0.014l-0.041,0.006L16.17,9.007l-0.036-0.002
		l-0.034-0.002l-0.036-0.01l-0.033-0.01L16,8.968L15.971,8.95L15.94,8.926l-0.029-0.026l-0.026-0.03l-0.024-0.034l0.024-0.063
		l0.031-0.057l0.036-0.051l0.038-0.049l0.041-0.042l0.041-0.042l0.043-0.034l0.045-0.032l0.05-0.026l0.048-0.024l0.05-0.018
		l0.053-0.014l0.058-0.01l0.055-0.006l0.06,0l0.06,0.002L16.659,8.382L16.659,8.382z M16.486,8.22l0,0.002l-0.103,0.01l-0.094,0.02
		l-0.091,0.03l-0.084,0.042L16.03,8.371L15.956,8.43L15.886,8.5l-0.065,0.079l-0.009,0.04L15.776,8.68l-0.022-0.052L15.74,8.581
		l-0.012-0.047l-0.003-0.046l0.002-0.089l0.007-0.041l0.017-0.04l0.017-0.042l0.021-0.037l0.027-0.038l0.031-0.036l0.074-0.069
		l0.046-0.032l0.05-0.03l0.108-0.05l0.038,0l0.041,0.004l0.036,0.004l0.039,0.008l0.033,0.006l0.034,0.01l0.065,0.025l0.053,0.03
		l0.05,0.038l0.041,0.041l0.019,0.024l0.019,0.028L16.486,8.22L16.486,8.22z"/>
	<polygon fill-rule="evenodd" clip-rule="evenodd" fill="#FFFFFF" points="16.669,8.508 16.659,8.382 16.594,8.372 16.534,8.37 
		16.474,8.37 16.419,8.376 16.361,8.386 16.309,8.4 16.258,8.418 16.21,8.442 16.16,8.468 16.114,8.499 16.071,8.533 16.03,8.574 
		15.99,8.616 15.951,8.665 15.915,8.717 15.884,8.774 15.861,8.838 15.885,8.871 15.911,8.901 15.94,8.926 15.971,8.95 16,8.968 
		16.031,8.984 16.065,8.993 16.101,9.003 16.134,9.005 16.17,9.007 16.209,9.001 16.249,8.995 16.29,8.981 16.333,8.967 
		16.377,8.949 16.422,8.927 16.451,8.906 16.48,8.886 16.504,8.864 16.53,8.844 16.549,8.821 16.559,8.809 16.564,8.803 
		16.571,8.799 16.574,8.791 16.578,8.785 16.588,8.773 16.607,8.749 16.612,8.734 16.614,8.726 16.619,8.72 16.633,8.692 
		16.643,8.662 16.652,8.635 16.657,8.603 16.659,8.587 16.664,8.573 16.664,8.555 16.667,8.54 16.669,8.508 	"/>
	<polygon fill-rule="evenodd" clip-rule="evenodd" fill="#FFFFFF" points="16.486,8.222 16.486,8.22 16.594,8.202 16.575,8.174 
		16.556,8.151 16.515,8.109 16.464,8.072 16.411,8.042 16.347,8.017 16.313,8.007 16.279,8.001 16.24,7.993 16.204,7.989 
		16.164,7.985 16.126,7.985 16.018,8.035 15.967,8.065 15.921,8.097 15.847,8.166 15.816,8.201 15.789,8.239 15.768,8.276 
		15.751,8.318 15.735,8.358 15.728,8.399 15.725,8.488 15.728,8.533 15.74,8.581 15.754,8.628 15.776,8.68 15.812,8.618 
		15.821,8.579 15.886,8.5 15.956,8.43 16.03,8.371 16.114,8.323 16.198,8.282 16.289,8.252 16.383,8.232 16.486,8.222 	"/>
	<polygon fill-rule="evenodd" clip-rule="evenodd" fill="#66CC99" points="12.767,6.821 12.76,6.821 12.501,7.156 12.57,7.179 
		12.621,7.201 12.671,7.226 12.72,7.252 12.77,7.284 12.804,7.254 12.837,7.222 12.868,7.186 12.899,7.151 12.926,7.111 
		12.93,7.099 12.93,7.096 12.933,7.094 12.938,7.09 12.952,7.07 12.976,7.026 13,6.981 12.942,6.933 12.885,6.892 12.824,6.855 
		12.767,6.821 	"/>
	<polygon fill-rule="evenodd" clip-rule="evenodd" fill="#FF6699" points="12.76,6.821 12.74,6.809 12.685,6.784 12.632,6.762 
		12.524,6.725 12.464,6.707 12.406,6.693 12.289,6.672 12.255,6.676 12.188,6.688 12.126,6.71 12.066,6.737 12.013,6.777 
		11.986,6.795 11.97,6.816 11.953,6.84 11.946,6.866 11.938,6.919 11.941,6.949 11.948,6.983 11.977,7.002 12.006,7.02 
		12.071,7.052 12.104,7.063 12.14,7.073 12.215,7.089 12.494,7.152 12.501,7.156 12.76,6.821 	"/>
	<polygon fill-rule="evenodd" clip-rule="evenodd" fill="#FF9900" points="10.305,9.143 10.269,9.177 10.202,9.234 10.134,9.29 
		10.099,9.314 10.065,9.339 9.998,9.389 9.926,9.432 9.89,9.452 9.856,9.474 9.784,9.512 9.715,9.547 9.799,9.729 9.883,9.915 
		9.961,10.1 10.035,10.29 10.103,10.479 10.168,10.673 10.228,10.869 10.286,11.066 10.47,11.858 10.404,12.267 10.327,12.68 
		10.284,12.896 10.251,13.113 10.226,13.331 10.209,13.552 10.173,13.692 10.152,13.872 10.131,14.117 10.121,14.367 10.119,14.613 
		10.127,14.862 10.134,14.997 10.149,15.133 10.166,15.267 10.193,15.404 10.27,15.447 10.349,15.488 10.431,15.526 10.514,15.561 
		10.596,15.593 10.683,15.622 10.77,15.648 10.858,15.673 10.945,15.691 11.034,15.709 11.125,15.722 11.216,15.734 11.307,15.742 
		11.401,15.748 11.497,15.749 11.593,15.749 11.795,15.735 11.969,15.346 12.151,14.964 12.336,14.584 12.525,14.21 12.57,14.119 
		12.623,14.034 12.678,13.953 12.743,13.876 12.807,13.799 12.877,13.73 12.951,13.66 13.033,13.599 13.162,13.498 13.299,13.405 
		13.435,13.316 13.579,13.236 13.723,13.159 13.872,13.092 14.023,13.028 14.179,12.974 14.287,12.947 15.067,12.833 15.173,12.825 
		15.281,12.822 15.384,12.824 15.49,12.832 15.591,12.844 15.692,12.861 15.74,12.871 15.79,12.885 15.889,12.914 15.934,12.928 
		15.982,12.946 16.076,12.983 16.167,13.024 16.259,13.074 16.345,13.125 16.434,13.182 16.475,13.212 16.518,13.245 16.605,13.314 
		16.648,13.354 16.691,13.397 16.732,13.44 16.771,13.49 16.805,13.537 16.838,13.59 16.867,13.644 16.896,13.701 16.937,13.802 
		16.975,13.906 17.007,14.011 17.036,14.118 17.055,14.224 17.072,14.333 17.085,14.442 17.092,14.555 17.13,15.612 18.998,15.786 
		19.048,15.664 19.096,15.543 19.141,15.42 19.185,15.298 19.187,15.27 19.211,15.084 19.232,14.899 19.251,14.713 19.267,14.531 
		19.225,13.673 19.223,13.664 19.116,12.931 19.084,12.731 19.048,12.538 19.005,12.346 18.956,12.158 18.944,12.123 19.001,12.008 
		19.135,11.725 19.207,11.587 19.284,11.452 19.36,11.316 19.442,11.183 19.526,11.053 19.617,10.926 19.691,10.817 19.77,10.712 
		19.849,10.61 19.933,10.511 20.103,10.316 20.283,10.131 19.692,9.726 19.622,9.804 19.524,9.91 19.433,10.023 19.344,10.138 
		19.26,10.257 19.172,10.381 19.09,10.51 19.013,10.64 18.947,10.775 18.884,10.909 18.83,11.05 18.782,11.192 18.741,11.338 
		18.69,11.183 18.64,11.139 18.594,11.1 18.553,11.058 18.52,11.019 18.521,11.886 17.871,11.022 17.792,10.915 17.72,10.813 
		17.652,10.712 17.592,10.615 17.287,11.916 16.95,11.624 16.732,11.429 16.522,11.23 16.419,11.127 16.32,11.026 16.13,10.819 
		15.628,11.836 15.515,11.761 15.409,11.684 15.303,11.601 15.205,11.514 15.106,11.418 15.012,11.327 14.923,11.238 14.839,11.155 
		14.76,11.072 14.687,10.995 14.618,10.921 14.558,10.851 14.213,11.309 14.179,11.348 14.162,11.368 14.148,11.39 14.114,11.427 
		14.083,11.467 14.016,11.54 13.949,11.613 13.877,11.679 13.805,11.744 13.767,11.774 13.731,11.805 13.659,11.863 12.759,11.001 
		12.687,11.1 12.613,11.199 12.534,11.298 12.45,11.4 12.379,11.48 12.307,11.557 12.235,11.626 12.165,11.691 12.093,11.749 
		12.026,11.804 11.956,11.852 11.889,11.897 11.839,11.842 11.796,11.789 11.752,11.733 11.716,11.678 11.617,11.536 11.521,11.398 
		11.423,11.262 11.326,11.13 11.225,10.997 11.124,10.871 11.021,10.747 10.919,10.626 10.919,10.634 10.831,10.877 10.79,10.674 
		10.744,10.472 10.693,10.273 10.638,10.075 10.56,9.836 10.481,9.603 10.394,9.37 10.305,9.143 	"/>
	<path fill-rule="evenodd" clip-rule="evenodd" fill="#66CC99" d="M16.174,7.128l0.092,0.099l0.043,0.03l0.048,0.025l0.048,0.024
		l0.05,0.022l0.031,0.01l0.163-0.164l-0.031-0.045l-0.031-0.039l-0.036-0.039l-0.039-0.033l-0.046-0.034l-0.048-0.027l-0.05-0.026
		l-0.055-0.02L16.174,7.128L16.174,7.128z M16.438,7.068l0.007,0.008l-0.017,0.01L16.438,7.068L16.438,7.068z"/>
	<path fill-rule="evenodd" clip-rule="evenodd" fill="#FF6699" d="M16.65,7.172l0.07-0.065l0.074-0.059l0.079-0.053l0.084-0.048
		l0.024-0.018l0.024-0.018l0.009-0.012l0.005-0.006l0.007-0.004l0.021-0.02l0.017-0.024l0.019-0.024l0.014-0.028l0.014-0.026
		l0.012-0.043l0.01-0.038l0.007-0.036l0.002-0.032l-0.003-0.031l-0.005-0.026l-0.01-0.026l-0.012-0.02l-0.019-0.022L17.074,6.48
		l-0.027-0.014l-0.026-0.008l-0.034-0.01l-0.036-0.004L16.91,6.443l-0.043,0.002l-0.084,0.042l-0.077,0.05L16.63,6.587l-0.07,0.057
		l-0.069,0.057l-0.063,0.065l-0.06,0.067l-0.055,0.073l0.055,0.02l0.05,0.026l0.048,0.027l0.046,0.034l0.039,0.033l0.036,0.039
		l0.031,0.039L16.65,7.172L16.65,7.172z M16.963,6.642l-0.009,0.012l-0.012-0.012l0.012-0.004L16.963,6.642L16.963,6.642z"/>
	<polygon fill-rule="evenodd" clip-rule="evenodd" fill="#FF6699" points="20.819,8.985 20.715,9.019 20.617,9.061 20.519,9.105 
		20.426,9.154 20.332,9.204 20.243,9.261 20.154,9.319 20.07,9.384 20.203,9.498 20.272,9.551 20.347,9.603 20.419,9.65 
		20.496,9.697 20.657,9.784 20.712,9.735 20.755,9.693 20.799,9.651 20.837,9.608 20.878,9.564 20.911,9.517 20.928,9.493 
		20.947,9.471 20.961,9.446 20.978,9.422 20.992,9.396 21.009,9.372 21.031,9.327 21.048,9.287 21.06,9.248 21.069,9.214 
		21.071,9.179 21.071,9.149 21.064,9.121 21.057,9.098 21.04,9.072 21.023,9.052 20.999,9.035 20.973,9.021 20.941,9.007 
		20.905,8.997 20.864,8.989 20.819,8.985 	"/>
	<polygon fill-rule="evenodd" clip-rule="evenodd" fill="#66CC99" points="19.79,9.625 19.692,9.726 20.283,10.131 20.657,9.784 
		20.496,9.697 20.419,9.65 20.347,9.603 20.272,9.551 20.203,9.498 20.07,9.384 19.79,9.625 	"/>
	<polygon fill-rule="evenodd" clip-rule="evenodd" fill="#FF6699" points="17.724,16.195 17.239,16.102 17.275,16.2 17.316,16.299 
		17.362,16.396 17.412,16.493 17.487,16.643 17.816,16.774 17.972,16.794 18.174,16.756 18.354,16.673 18.356,16.679 18.385,16.661 
		18.483,16.554 18.531,16.499 18.555,16.471 18.56,16.463 18.562,16.459 18.567,16.457 18.582,16.445 18.624,16.388 18.67,16.332 
		18.713,16.273 18.756,16.215 18.691,16.224 18.629,16.232 18.504,16.244 18.47,16.244 18.454,16.244 18.44,16.246 18.377,16.25 
		18.312,16.25 18.249,16.252 18.183,16.248 18.118,16.244 17.988,16.235 17.921,16.225 17.856,16.217 17.789,16.205 17.755,16.199 
		17.724,16.195 	"/>
	<polygon fill-rule="evenodd" clip-rule="evenodd" fill="#66CC99" points="17.239,16.102 17.724,16.195 17.755,16.199 
		17.789,16.205 17.856,16.217 17.921,16.225 17.988,16.235 18.118,16.244 18.183,16.248 18.249,16.252 18.312,16.25 18.377,16.25 
		18.44,16.246 18.454,16.244 18.47,16.244 18.504,16.244 18.629,16.232 18.691,16.224 18.756,16.215 18.819,16.113 18.879,16.01 
		18.936,15.903 18.991,15.796 18.998,15.786 17.13,15.612 17.147,15.736 17.156,15.797 17.171,15.861 17.203,15.981 17.239,16.102 	
		"/>
	<polygon fill-rule="evenodd" clip-rule="evenodd" fill="#FF6699" points="11.577,16.168 11.5,16.174 11.426,16.178 11.349,16.18 
		11.277,16.179 11.203,16.173 11.13,16.163 11.058,16.151 10.986,16.138 10.914,16.118 10.842,16.096 10.77,16.071 10.7,16.045 
		10.628,16.014 10.561,15.98 10.492,15.943 10.424,15.905 10.325,15.892 10.362,15.998 10.412,16.127 10.473,16.255 10.54,16.377 
		10.615,16.498 10.634,16.512 10.67,16.519 10.708,16.529 10.716,16.529 10.725,16.531 10.744,16.535 10.783,16.543 10.816,16.547 
		10.853,16.551 10.925,16.555 10.939,16.553 10.956,16.553 10.989,16.55 11.021,16.547 11.054,16.545 11.116,16.531 11.179,16.515 
		11.191,16.507 11.206,16.501 11.234,16.489 11.261,16.473 11.289,16.459 11.342,16.424 11.395,16.384 11.443,16.336 11.491,16.287 
		11.534,16.229 11.577,16.168 	"/>
	<polygon fill-rule="evenodd" clip-rule="evenodd" fill="#66CC99" points="10.424,15.905 10.492,15.943 10.561,15.98 10.628,16.014 
		10.7,16.045 10.77,16.071 10.842,16.096 10.914,16.118 10.986,16.138 11.058,16.151 11.13,16.163 11.203,16.173 11.277,16.179 
		11.349,16.18 11.426,16.178 11.5,16.174 11.577,16.168 11.795,15.735 11.593,15.749 11.497,15.749 11.401,15.748 11.307,15.742 
		11.216,15.734 11.125,15.722 11.034,15.709 10.945,15.691 10.858,15.673 10.77,15.648 10.683,15.622 10.596,15.593 10.514,15.561 
		10.431,15.526 10.349,15.488 10.27,15.447 10.193,15.404 10.301,15.828 10.325,15.892 10.424,15.905 	"/>
</g>
<text transform="matrix(1 0 0 1 1.1832 19.057)"><tspan x="0" y="0" font-family="'IrishGrover'" font-size="4.8489">P</tspan><tspan x="2.827" y="0" font-family="'IrishGrover'" font-size="3.2326">aper</tspan><tspan x="9.999" y="0" font-family="'IrishGrover'" font-size="4.8489"> M</tspan><tspan x="15.374" y="0" font-family="'IrishGrover'" font-size="3.2326">onsters</tspan></text>
</svg>
