<svg xmlns="http://www.w3.org/2000/svg" viewBox="0 0 720 480" enable-background="new 0 0 720 480"><path fill="#9F703E" d="M582.9 307.5l-.1-1-.1-1-.3-1-.3-1-.3-.7-.3-.7-.3-.7-.3-.7-.8-1.3-.5-.5-.5-.5-.5-.5-.5-.4-.1-.5-.5-.4h-.5l-.5.2-.5.2-.5.2-.5.2-.4.2-.8.3-.7.5-.4.4-.2.4-.5.6-.2.4-.2.4-.4.8-.3 1-.6 2.2-.5 2.2-.3 2.2-.2 2.5-.1 1-.1 1.2v2.2l.2 2.3.4 2.3.1 1 .1 1-.1 1-.1 1.2v.9l-.2.5v.6000000000000001l-.2.4-.2.2-.2.2-.4.4h-.2l-.2.2-.9.8-.7.8-.7.8-.7.8-.7.8-.7.8-.7.8-.5 1 .6.5.6.5.6.4.8.4.8.2.8.2.8.2.8.1.8.1-.5-1.1-.3-.9 1.8.3 1.9.1 1.9.1 1.9.1v-.8999999999999999l.2-.2v-.6000000000000001h-.4l-.4-.4-.8-.5-.8-.5-.8-.4-.8-.4-.8-.4-.8-.2-.8-.2-.8-.2.4-.6.5-.5.4-.5.5-.3.5-.3.5-.2.4-.2h2.7l.5.2.2.2.4.2.5.4.5-4.1.5-4.1 1.2-9 .3-1.5.5-1.5.5-1.4.4-.6.4-.6 2.3.9zm-9.7 27l-1.4.1h-1l-.5-.2h-1l-.4.2v-.6l.2-.6 4.1 1.1"/><path fill="#fff" d="M571.8 334.6l1.4-.1-4-1.5-.2.6-.1.7h1.1l.5.1h.9l.4.2"/><path fill="#CC8D4B" d="M582.9 307.5l-1.5.5-.4.6-.4.6-.6 1.4-.4 1.5-.2 1.5-1.1 9-.8 4-.5 4.1.3.4.2.4.2.9.2.4-.1.4.2.9v.4l-.3.5v.3l-.2.5v.3l-.1.6-.7.8-.5.5v.1h-.1l-.3.3-.4.4-.2.1h-.2l-.2.2h-.2l-.3.1-.6.1h-.8l-.4-.1-.4-.1-.4-.2h-.4l-.4-.4-.4-.2-.2-.3-.4-.2-.3-.4-.9-.1-.8-.2h-.8l-.8-.4-.9-.2-.7-.4-.8-.4-.6-.6-.7-.5-2.3 5.2-1.4.3-.1.6v1.2l-.1.5 1.1-.3-.4 2-.4 2.2-.3 2.2.1 2.1-.1 1.4.1 1.5.1 1.4.3 1.3h-.2l-.4.1-.5.2-1 .1h-.6l-.4-.1-1.1.2-1-.1-1-.2-1-.3h-.5l-.5-.2-8.5-2-.7 2.2-.6 2.1-.5 1.2-.2 1.2-.8 2.2 2.1 1 1 .2.9.1.8.3h.9l1 .1.9.1h.8l1-.1h.9l.4-.1h.4l1.7-.3 1-.2 1-.1.8-.1.9-.3.2-.2h.3l.7-.2h.1v-.2h.4l.7-.3.6-.2.4-.2 1.3-.7.5.9.2.8.5.4.4.7.4.8.5.7.4.5.7.6.5.6-.1-1-.3-1.2-.1-1v-4.1l.3-1v-1.2l.5-1.1.2-1.2.4-1 .4-1 .6-1.2.6-1 .5-.8.7-1 .8-.8.7-.8.7-.7.9-.6.7-.6 1-.5 1-.5 1-.4 1-.3 1-.3h1.2l1.1-.3 1.2-.1 1 .1h1.2l1.1.1 1 .1h.4l.6.1 1 .3 1 .4 1 .3 1 .5 1 .4 1 .5.8.6.4.2.4.4.8.5.8.8.9.7.8.7.6.9.6.8.8 1 .4.9.7 1.1.2 1 .5 1 .3 1.2.2 1.2.1 1.1.2.8.1 1-.1 1v1.1l-.1 1-.1 1-.1 1 2.3-2.4.6-.7.5-.4.4-.7.5-.6.7-1.2.6-.6.4-.7.4-.8h.1l.9.4.8.2 1 .2.8.2 1.9.5 1.1.1h.8l1 .2h3.7l.9-.1h1l1-.1 3.8-.5h.6000000000000001l.4-.2.6-.1h.5l-.4-2.3-.4-2.3-.4-2.1-.3-2.2-7.5 1.9-1.3.3-.8.2-.3.1h-.2l-.5.2h-.2l-.7.1-1.3.2-1.2.1-1.2-.1-1.2.1-1.4-.1.4-1.4.3-1.4.1-.8v-.7l.2-.9v-.7l1.6.3.3-2.2-1-.2-.9-.4-.1-.8-.2-1.8-.5-1.5-.3-1.6-.7-1.4-.7.5-.7.5-.4.3-.2.1h-.1l-.3.3-.4.2-.5.3-.8.3-.4.1-.6.4-.5.1-.6.2-.4-.1-.7.1h-.2l-.4.1h-1l-.6-.1-.4-.1h-.6000000000000001l-.7-.2-.5-.3-.4.2-.3.2-.8.1h-.8l-.2-.3h-.4l-.4-.2h-.2l-.2-.2-.4-.2-.3-.3-.3-.2-.2-.4-.3-.1-.3-.6-.3-.5-.2-.5-.1-.4-.2-.5v-.5l.1-.5v-.5l.2-.9.3-.6v-.7l.1-.8.1-1.4.3-1.4.2-.6.3-.7.2-.5.1-.6.8-.8.4-1 .2-.2v-.2l.2-.2.2-.3.1-.5.2-.4v-.1h.2l.2-.5.2-.5.2-.5.2-.5.4-1 .3-1 .1-1 .3-1.1.1-1.3v-1l-.1-1.2-.3-1-.2-1.3-.3-1-.5-1.1-1 1.7-.9 1.9-.7 1.6-.6 1.8-.8 1.9-.7 1.8-.2.2v.1l-.3.2-.5.3-.2.2-.3.1-.4.1h-.5v.2l-.4-.1h-.1l-.5-.1h-.7l-.2-.2h-.3l-.4-.3-.3-.3-.3-.2-.3-.2-.4-.4-.1-.2-.3-.3-.2-.3-.1-.4-.2-.3-.1-.4v-.4l-.1-.3v-.8l.1-.4v-1.2l-.1-1.2.1-1.2-.1-1.1-.1-1-.1-1.3-.3-2.2"/><path fill="#fff" d="M577 330.7l-.5-.4-.3-.2-.2-.1-.6-.5h-.6000000000000001l-.4-.2h-.8l-.4.1h-.4l-.3.2-.6.1-.5.3-.4.3-.4.5-.4.5-.5.7.9.1.9.3.8.2.8.4.8.4.7.4.9.5.8.6.1.2h.1l.2.1.2.2v.2l-.2.2v.2l-.2.1-1.9-.1-1.9-.1-1.8-.3-1.9-.1.4.8.2 1.1.3.4.4.2.2.3.4.2.4.4h.4l.4.2.4.1.4.1h.8l.6-.1.3-.1h.2l.2-.2h.2l.2-.1.4-.4.3-.3h.1v-.1l.5-.5.7-.8.1-.6v-.3l.2-.5v-.3l.3-.5v-.4l-.2-.9.1-.4-.2-.4-.2-.9-.2-.4-.3-.4"/><path fill="#9F703E" d="M593.4 327.1l-.5 1-.2.5-.2.5-.2.6-.2.6-.3 1.4-.1 1.4v1.2l.4-.8.2-.4.2-.4.2-.4.4-.2.5-.3.7-.3.4-.2h1.2000000000000002l.8.1h1.2000000000000002l.4.2.5.4.2.2.4.2.5.5.3.5.3.5.1.7-1.9.1-1.7.3-1.7.5-1.7.5-.2.2v.4l.6.4.8.4.8.4.8.2.8.2.8.2.8.2.8.2-.6.2-.2.4-.2.4-.2.4-.2.2-.2.4-.4.2-.4.4.5.2.5.2h3.5999999999999996l.5-.2.5-.2.5-.2.5-.2.5-.2.5-.2.5-.3.5-.3.4-.2.4-.2.2-.2.2-.2.4-.2.7-.5.7-.6-.5-.9-.5-.9-.5-.9-.6-.9-.5-.7-.6-.9-.6-.7-.6-.7-.6-.7-.3-1.4v-2.4l.2-.6.2-.5 1-2.5 1-2.4.4-1 .4-1 .8-2 .8-2.2.3-1 .3-1 .3-1.5.3-1.5.1-1.5-.1-1.4-.2-.5-.2-.4-.1-.7-.2-.4-.2-.4-.3-.5-.5-.5-.4-.2-.4-.2-.4-.2-.4-.2-.4-.2-.4-.2-.6-.2h-1l-.5.2-.5.5-.5.2-.5.3-.5.3-.9.6-.9.8-.9.8-.7.8-.7.8-.7 1-.5 1-.5 1 .5 1.1.5 1.1.3 1 .1 1 .1 1-.1 1.2-.1 1.2-.3 1.2-.3 1-.3 1-.4 1-.2.5-.2.5-.2.5-.2.5v.2l-.2.2-.1 1.2-.2.5v.2l-.2.2-.6.6zm6.1 11.1l-4.2-1.1 2.3-.4 2.3-.2v1.3l-.4.4"/><path fill="#fff" d="M595.4 337.1l4.1 1.1v-.4l.1-.2.1-.2.1-.4v-.6000000000000001l-2.2.4-2.2.3"/><path fill="#CA3178" d="M548.5 321.3l-.5.2-.5.3-.5.3-.4.3h.2v.2h.1l.2.2.2.2v.1l.2.2v.2l.4.9.4-.3.5-.5.5-.4.5-.2.6-.2.5-.3.5-.2.7.1.4-.6.1-.6.4-.4.3-.7-1.3.1-1.2.3-1.2.2-1.1.6"/><path fill="#CC8D4B" d="M547.5 323.5v-.2l-.2-.2v-.1l-.2-.2-.2-.2h-.1v-.2h-.2l-.7.7-.7.6-.6.6-.5.8.4.6.4.5.3.8.3.7.3-.9.5-.7.5-.6.6-.6.5-.5-.4-.9"/><path fill="#CA3178" d="M544.1 325.1l-.6.9-.1.5-.3.6-.2.6-.2.4-.2 1.4-.2.8-.1.9v.9l.1 1h.4l.1-.1h.1l.2-.2.2-.2.2.1.1-.2h.2v-.2l.2-.2h.2v-.1l.3-.1v-.2l.1-1.2v-.5l.1-.5.4-1 .4-.8-.3-.7-.3-.8-.4-.5-.4-.6"/><path fill="#CC8D4B" d="M554.1 320.1h-.8l-.3.7-.4.4-.1.6-.4.6.6-.2.9.1.9.1.8.2 1.2.4.1-.3.2-.4.6-.6.1-.6-.4-.2-.5-.3-.3-.2h-.6l-.8-.2-.3-.1h-.5"/><path fill="#CA3178" d="M557.5 321.1l-.1.6-.6.6-.2.4-.1.3.3.3.5.3.3.2.3.3.4.4.2.3.2.3.2.4.3.7.2.4.1.5 2.3.5v-.4l-.1-.8-.2-.3v-.6l-.2-.4-.1-.3-.4-.7-.4-.5-.3-.5-.4-.4-.4-.6-.6-.3-.2-.4-.6-.2-.4-.1"/><path fill="#CC8D4B" d="M552.5 325.3l-.4.2-.4-.1-.3.2-.4.2.2.2.3.1.2.2.3.2.2.2.2.4.4.6.4-.1h.3l.3.2.5.2.8 1.9.3.3.3.2.2.1h.3l.2-.2h.1l.4-.2.1-.8-.2-.6-.1-.6-.2-.3-.1-.2-.3-.5-.2-.4-.4-.2-.2-.4-.4-.1-.1-.2-.5-.2-.7-.2-.5-.1h-.6000000000000001"/><path fill="#CA3178" d="M551.4 329.5v-.4l.1-.4v-.2l.4-.3.2-.1.4-.2.3-.2-.4-.6-.2-.4-.2-.2-.3-.2-.2-.2-.3-.1-.2-.2-.4.3-.3.3-.6.7-.3.6-.4.8-.2.7-.1.9.1.8.4.7.4.9.1.4.2.4.6.8.6-.3.2-.2.3-.3v-.2l.2-.1.2-.2.2-.3-.2-.4-.1-.3-.4-.7v-1l-.1-.6"/><path fill="#CC8D4B" d="M559.5 327.1v.3l.1.6-.1.5v.6l-.1.4v.2l-.1.1v.2l-.2.3v.5l2 1.2.4-1 .1-.5.1-.7.2-.5v-.5l-.1-1.2-2.3-.5"/><path fill="#CA3178" d="M559.2 334.6l.3-.4.2-.2.2-.2v-.2l.4-.3.4-.7v-.2h.2v-.1l.2-.3-2-1.2-.2.3-.4.6-.1.3-.4.3-.4.3-.3.4-.2.1-.2.1-.4.4h-.1l-.2.1h-.2l-.2.2h-.4l-.2.1h-.4l.9 2.2h.2l.3.1.3-.2.2-.1h.4l.4-.1.5-.4.2-.2.1.1.1-.2.4-.3.4-.3"/><path fill="#CC8D4B" d="M554.8 334h.2-.5l-.3-.2h-.6l-.3-.2-.3-.3-.4-.2-.1-.2-.3-.4-.2.3-.2.2-.2.1v.2l-.3.3-.2.2-.6.3.4.1.1.4.4.2.2.3.8.4.4.3.4.2h.6l.7.1.5.1h.7l-.9-2.2"/><path fill="#CA3178" d="M553.5 340.6l-.1.3-.2.3v.4l-.2.3-.4.3-.1.1-.2.4v.2h-.2v.2h3.5l.8-.1.1-.2.2.2.5-.2.5-.1 1-.3.1-.5v-1.2l.1-.6h-.7l-.7.1-.7.2-.5.1h-1.4l-.6.1h-.8"/><path fill="#CC8D4B" d="M552.1 343.1v-.2h.2v-.2l.2-.4.1-.1.4-.3.2-.3v-.4l.2-.3.1-.3-.8-.1-.6-.2-.9-.1-.7-.1-1.3-.5-.8 2.2 1.1.6h.6l.6.2 1.4.5M556.4 343h.3l-.2-.2-.1.2"/><path fill="#CA3178" d="M548.1 339.1l-.6-.4-.6-.6-.4-.5-.2-.4-.4-.1-.4.1-.6.1-.7.1h-.5l.3.9.4.4.4.5.3.4.5.5.3.3.6.5.4.2.5.3 1 .4.8-2.2-1.1-.5"/><path fill="#CC8D4B" d="M545.9 337.1l-.3-.6-.2-.7-.4-.5-.1-.7-.3-.7v-.7l-.1-.7v-.6l-.3.1v.1h-.2l-.2.2v.2h-.2l-.1.2-.2-.1-.2.2-.2.2h-.1l-.1.1h-.4v.5l.1.5.2 1.2.5 1.1.3.5.3.5h.5l.7-.1.6-.1.4-.1"/><path fill="#CA3178" d="M542.5 353.9l-3.4-.8-.6.2h-.3l-.6.1-.2.2-.4.2-.4.3-.5.4-.2.4-.2.2-.3.6-.3.8v.4l-.2.3v.3l-.1.4.2.3v.6000000000000001l.1.3.2.3.2.2.1.4.1.1.2.4.4.2.2.2.4.2 1.3.9.8.4.7.4.8-2.2.2-1.2.5-1.2.6-2.1.7-2.2"/><path fill="#fff" d="M592.6 337.2l-.1-.3.1-.2 1.8-.6 1.7-.4 1.7-.3h1.9l-.2-.7-.2-.6-.3-.6-.5-.4-.1-.3-.4-.2-.5-.4-.3-.1-.2-.1-.3-.2h-1.2l-.3-.1-.4.2h-.5l-.4.1-.4.3-.8.3-.2.4-.3.2-.2.2-.2.4-.5.8-.3.6-.2.9v.5l-.1.5v.5l.2.5.1.4.2.5.3.5.3.6.3.1.2.4.3.2.3.3.4.2.2.2h.2l.4.2h.4l.2.3h.8l.8-.1.3-.2.4-.2.4-.1.3-.3.2-.2v-.1h.2l.1-.2.3-.4.1-.1.2-.3.2-.4-.9-.2-.8-.2-.8-.2-.7-.2-.9-.3-.8-.3-.8-.4-.7-.3v-.1"/><path fill="#9F703E" d="M591.3 346l-1-.5-1-.4-1-.4-1-.3-1-.3h-1l-1-.1-1-.1-1.2-.1-1.2.1-1.2.1-1 .1-1 .3-1 .3-1.2.4-1.1.5-1.1.5-.9.5-.9.6-.9.6-.7.6-.7.8-.7.8-.5 1-.5 1-.5 1-.5 1-.4 1-.4 1-.4 1.2-.3 1.2-.3 1.2-.3 1-.1 1-.1 1-.1 1 .1 1 .1 1 .1 1 .3 1 1.9 1.8-1.1.8-.9.6-.9.8-.9.8-.7.8-.7.5-.7.8-.7.8-.7 1 1.4.1 5.7 4.3 4-6.5.3.5.3.5.5.5.5.5.6.5.6.5.6.5.6.5.6.4.6.4.6.4.6.4.6.2.6.2.6.2.8.2.8.1.8.1.8.1.8.1.8-.1.4-.2h.5l.9-.3.9-.3.7-.3.7-.5.7-.5.7-.5.5-.5.5-.5.2-.4.2-.4.2-.4.2-.4.2-.4.2-.4.2-.4.2-.4.2-.4.2-.4.2-.4.2-.4.5 1.7.3 1 .3 1.2.3 1 .3 1 .3 1 .5 1.1.5 1.1.5 1.1 6.8-3.7-.3-.9-.3-.9-.7-1.5-.7-1.5-.5-.7-.5-.7-.8-1.1-.3-.5-.3-.5-.8-.9-.5-.4-.5-.4 4.3-3.2.3-1 .1-1 .1-1 .1-1 .1-1-.1-1-.1-1-.1-1-.3-1.2-.3-1-.5-1.1-.5-1.1-.5-1.1-.6-1.1-.6-.9-.6-.9-.6-.9-.8-.7-.8-.7-.8-.7-.8-.7-.5-.4-.5-.2-.8-.5-.3 1.4zm-13.6 13.9l.7-.5.7-.3.7-.3.7-.3.7-.3.8-.1.8-.1.8-.1.5.2.5.2.5.2.5.2.5.2.5.4.5.4.5.4.4.4.4.4.4.4.4.4.4.4.3.5.3.5.3.5.5.9.3 1 .3 1 .1 1v3.1l-.3 1.2-.4 1-.2.5-.2.5-.4.5-.4.5-.7 1-.2.2-.2.2v.2l-.4.4h-.2l-.2.2-.2.2-.2.2-.2.2-.2.2-.2.2-.5.3-.5.3-.5.5-.5.2-.5.2-.5.2-.5.2-1.2.1h-2l-1.2-.3-1.2-.4-.5-.2-.5-.2-.5-.4-.5-.4-.5-.4-.5-.4-.8-.7-.4-.4-.4-.4-.3-.5-.3-.5-.3-.5-.2-.5-.2-.5-.2-.5-.2-.5-.2-.5-.2-.5v-.5l.1-1v-.5l.2-.5.4-1 .2-.5.2-.5.2-.5.4-.5.5-1 .4-.5.4-.4.4-.5.4-.4.9-.8.4-.4.5-.3.5-.3.5-1.3"/><path fill="#CC8D4B" d="M583.7 358l-.8.1-.8.1-.8.1-.7.3-.7.3-.7.3-.7.3-.7.5-.5.3-.5.3-.5.3-.4.4-.9.8-.4.4-.4.5-.4.4-.4.5-.5 1-.4.5-.2.5-.2.5-.2.5-.4 1-.2.5v.5l-.1 1v.5l.2.5.2.5.2.5.2.5.2.5.2.5.3.5.3.5.3.5.4.4.4.4.8.7.5.4.5.4.5.4.5.4.5.2.5.2 1.2.4 1.2.3h2l1.2-.1.5-.2.5-.2.5-.2.5-.2.5-.2.5-.3.5-.3.2-.2.2-.2.2-.2.2-.2.2-.2.2-.2h.2l.4-.4v-.2l.2-.2.2-.2.7-1 .4-.5.4-.5.2-.5.2-.5.4-1 .3-1.2v-3.1l-.1-1-.3-1-.3-1-.5-.9-.3-.5-.3-.5-.3-.5-.4-.4-.4-.4-.4-.4-.4-.4-.4-.4-.5-.4-.5-.4-.5-.4-.5-.2-.5-.2-.5-.2-.5-.2-.5.5zm-5.1 3.6l.4-.4.5-.3.5-.2.5-.2 1-.3.5-.2.5-.2h.5l.5.2.5.2.5.2.5.2.5.2.5.2.5.4.4.2.4.4.4.4.4.4.4.4.4.4.2.5.2.5.3.7.3.9.2.4.2.5v.5l.2.5v2.6l-.2.5-.2.5-.2.5-.2.4v.4l-.2.5-.2.2v.4l-.2.2v.2l-.2.2-.4.5-.4.5-.5.5-.5.3-.5.3-.4.2-.2.2-.2.2-.7.3-.4.2h-.4l-.4.2h-4l-.5-.2-.5-.2-.5-.2-.5-.2-.5-.4-.5-.4-.4-.4-.4-.4-.4-.4-.4-.4-.4-.4-.3-.5-.3-.5-.2-.5-.2-.5-.2-.5-.1-.7-.1-.7v-1.7999999999999998l.2-.6.2-.6.2-.5.4-.8.5-.8.5-.6.5-.6.5-.6.5-.5.7-.5.9-1.1"/><path fill="#fff" d="M582.6 360.1l-.7.1-.5.2-1 .3-.6.1-.3.2-.5.3-.4.3-.7.3-.7.5-.6.7-.7.4-.5.6-.4.7-.5.8-.4.7-.2.7-.3.4-.1.7v.7l-.1.5.1.7v.7l.1.6.1.6.4.5.1.6.2.3.2.5.4.3.3.6.3.4.3.3.6.4.2.2.6.3.4.2.6.3.4.3.6.2h.8l.3.3h1.3l.4-.1h.8999999999999999l.3-.1.2-.2h.3l.4-.1.7-.3.2-.2.4-.1.2-.2.6-.4.3-.4.6-.4.3-.4.4-.5.2-.3.2.1v-.2l.2-.2v-.2l.1-.2.3-.4.2-.4.2-.2v-.6l.2-.5.2-.7v-1.5l.1-.3v-.5l-.2-.6.1-.4-.2-.4v-.6l-.4-.7-.3-.6-.2-.6-.1-.5-.3-.4-.3-.3-.4-.4v-.3l-.6-.4-.3-.3-.5-.3-.3-.3-.5-.2-.5-.2-.5-.2-.5-.1-.7-.2h-.5"/><path fill="#CC8D4B" d="M646.6 305.4l1.2-.4.9-.3.8-.2 1-.1 1 .1h.6l.7.2.7.1.6.2.2-1.9-.9-.2-.9-.2-1.6-.3-1.1-.1-1.2.1-1 .2-1.1.3.1 2.5"/><path fill="#CA3178" d="M646.6 305.4l-.1-2.5-.8.1-.9.2-.6.3-.7.6-1 .4-.5.5-.7.6-.7.5-.5.6-.6.6-.5.8-.5.6 2.7 1.5.5-.7.7-.8.5-.6.6-.5.8-.6.7-.5.9-.6.7-.5"/><path fill="#CC8D4B" d="M641.2 310.2l-2.7-1.5-.7.8-.3.8-.6.7-.4 1-.4.8-.2.8-.2.9-.2 1 .5.2 2.6.2.3-.8.2-.6.4-1.2.4-1.2.6-1 .7-.9M643.8 312.7l-.7 1-.4.5-.2.6-.2.5-.2.6-.2.6v.6l-.1 1v.5l.2.5.1 1 .2.5.2.5.5.9.4.4.4.4.4.4.4.4.4.4.5.4-1.2 3.5-1.4 3.6v.4l1.4.5.6.2.6.2.4-.8 1.5.5 1 .3.3-1v-1.8l.2-.5-2-.6 1.2-3 2.2.6h2l.5-.2.5-.2.5-.2h.6000000000000001l.2-.2.2-.2.5-.3.4-.4.4-.4.4-.4.4-.4.4-.4.4-.4.2-.4.4-.4.2-.5.2-.2.2-.2v-.2l.2-.2.2-.5.2-.5.2-.5.5-1.8v-1.2l-.2-.5-.2-.5-.3-.7-.3-.7-.3-.7-.3-.7-.5-.5-.5-.5-.5-.5-.5-.5-.6-.4-.5-.4-.4-.2-.4-.2-.6-.2-.6-.2-.6-.2-.6-.2h-1.2l-.7.1-.8.1-.9.3-.7.3-1 .8-.7.5-.7.5-.5.6-1.3 1.1zm4.6 3l.4-.6.2-.5.4-.5.4-.5.4-.4.4-.4.5-.3.5-.3.5-.3.8-.1h1l.6.5.4.2.4.4.5.7.5.7.3.7.2.4.2.5.2.4.2.5.1 1v1.6l-.2.5-.2.5-.2.5-.2.5-.4.5-.2.4-.2.2-.2.2-.2.2-.2.2-.5.5-.4.2-.2.2-.4.2-.4.2-.7.3h-.4l-.4.2h-.4l-.4.2h-1.7000000000000002l-.6-.2-.6-.2-.4-.2-.2-.2-.5-.4-.2-.2-.2-.2-.5-.5-.5-.5-.3-.5-.3-.5-.3-.5-.2-.5-.2-.5v-2l.2-.5.2-.6.2-.5.4-.6.4-.5.2-.4.4-.4.4-.4.4-.2.5-.3.5-.3.5-.3.5-.2.5-.2.5-.2h1l.5.2-.5.2-.5.2-.5.2-.5.3h-.7l-.4.4-.4.4-.4.5-.5.6-.5.8-.4.8-.2.8-.2.8-.1.8-.1 1 .1 1 .2.4.4.4.4.4.4.4.4.2.4.2.4.2.4.2.4.2.4.2h1.8l.8-.1.4-.2.4-.2.4-.2h.4l.4-.2.2-.2.2-.2.2-.2.2-.4.2-.4.2-.4.2-.4v-.4l.1-1.5v-1.7999999999999998l-.2-.5-.3-.5-.2-.2-.2-.2-.6-.5-.6-.4-.4-.2-.4-.2-.6-.2h-.6l-.7.1-.4.2-.4.2-1.8.7zm-.8 3.9v-.6l.2-.5.2-.5.4-.4.4-.4.4-.4.5-.3.5-.2.5-.2h1.5l.2.2.4.4.2.4.2.4.2.4.2.4v1.6l-.2.2v.2l-.2.2-.2.2-.2.2h-.2l-.2.2-.2.2-.7.1h-1.7l-.2-.2-.5-.2-.5-.4-1-1"/><path fill="#fff" d="M648.8 315.1l-.4.6.7-.5.2-.1.5-.1h.5l.9.1h.4l.4.1.4.2.6.4.6.5.4.2.1.2.4.5.2.8v.8l.1.2v.3l-.2.2v.8l-.1.4-.3.3-.2.3-.2.2v.2h-.2l-.2.1-.2.3h-.2l-.2.1-.3.2h-.4l-.4.2-1 .1-.5-.1h-.7l-.5-.2h-.3l-.3-.2-.4-.2-.3-.2-.3-.4-.3-.2-.4-.3-.2-.3-.2-.3-.2-.4-.1-.9-.1-1 .2-.9.3-.9.1-.8.4-.8.6-.8.5-.7.4-.4.3-.4.6-.2.3-.4.6-.3.3-.2.6-.1.4-.1-.4-.2-.7-.1h-.5l-.5.2-.6.1-.5.3-.5.1-.5.3-.6.4-.3.2-.4.4-.2.4-.3.2-.4.5-.4.7-.2.5-.2.7-.2.4v.8l-.1.4v.8l.2.4.1.6.2.5v.6l.4.6.3.5.4.6.5.7.2.2.3.2.5.5.4.2v.2l.8.2.4.1.8.1h.6l.9.1.2-.2h.3l.3-.1.2-.1h.2l.7-.3h.2l.3-.2.3-.4h.2l.6-.4.1-.3.4-.2.2-.1v-.2l.3-.1.2-.6.4-.4.2-.6.2-.2.2-.6v-1l.1-.5-.2-1-.1-.6v-.8l-.2-.4-.3-.7-.5-.6-.5-.7-.3-.2-.2-.4-.6-.4-.5-.1-.5-.1-.9.2-.5.2-.5.3-.5.4-.4.2-.4.4-.3.5-.4.5-.2.5M647.6 319.6l.4.5.5.4.3.2.3.2h.2l.5.2h.5l.7-.1.6.1.2-.2.4-.2.2-.2.1.1.2-.2.2-.2v-.1l.2-.2.2-.3v-.4l.1-.3v-.2l-.2-.3-.2-.2v-.3l-.3-.4-.2-.4-.2-.3h-.2l-.2-.2h-.2l-.1-.2h-.3l-.6-.1-.5.2-.5.2-.3.3-.6.2-.3.4-.2.4-.4.4-.2.5-.1.7"/><path fill="#CA3178" d="M635.5 315.5l-.3 1.2-.2.6v.6l-.1.6.2.6.1 1.1.1.8.2.4.1.6.3.7.3.5.3.5 2.7-1.4-.2-.3-.2-.2-.1-.5-.2-.3-.1-.4.1-.4-.2-.6.1-1.1v-.8l.1-.8.1-1-2.6-.2-.5-.2"/><path fill="#CC8D4B" d="M624.7 327.3l-.2.3-.1.4v.3l-.1.3-.8.8.9 1.1.4.7.5.9.2.9.2.9.7-.4.5-.3.6-.3.5-.1-.3-1.1-.3-.6-.3-.8-.3-.5-.3-.7-.5-.5-.3-.4-.5-.5-.5-.4"/><path fill="#CA3178" d="M624.3 328.6l.1-.3v-.3l.1-.4.2-.3-.3-.3-.5-.4-.4-.3-.4-.2-.6-.3-.6-.2-.4-.2h-.6l-.4-.3h-1.6l.5 1.2.2.7.3.7h.6l.4.1h.2l.2.2.5.1.5.2.4.4.4.4.4.3.8-.8M628 332.8l-.5.1-.6.3-.5.3-.7.4.1.8v.8l-.1.9-.2.8h.5l1.1-.1 1.2.3v-1.2l-.1-1.2v-.5l-.1-.7-.1-.6v-.4"/><path fill="#CC8D4B" d="M639.8 326.1l.2-.1.2-.2.2-.3.1-.4v-1l-.2-.3-.4-.4-.4-.5-.3-.6-2.7 1.4.5.7.3.4.3.5.3.2.2.2h.4l.1.2.5.2h.7"/><path fill="#CA3178" d="M648 332.1l-.3.8.8.1h1.1l.7-.1h.7l.6-.1.8-.1.7-.2.4-.1.6-.2 1.2-.4 1.1-.5.5-.2.6-.4-.9-.8-.3-.6-.3-.3-.2-.2-.5.1-.4.3-.4.1h-.2l-.2.2h-.4l-.2.2-.4-.1-.6.2-.3.1-1 .2-.9-.1-1-.1h-.8l-.2.4-.1.6-.2.5v.7M644.8 333.1l-.6-.2-.6-.2-1.2-.5-2 5.2 1.9.9 2.5-5.2"/><path fill="#CC8D4B" d="M618.9 325.1h-1.2l-.7.2-.5.1-.7.4-.5.3-.6.4-.5.6h-.2l.2.2.3.4.3.2.5.2v.2h.2l.5.4.3-.4.5-.1.6-.3.5-.1.5-.2h.5l.6-.1.4.2-.3-.7-.2-.7-.5-1.2"/><path fill="#CA3178" d="M615.3 328.1l-.5-.2-.3-.2-.3-.4-.2-.2-.5.4-.4.5-.4.5-.3.5-.6 1.1-.4 1.2 3-1.1.3-.4.4-.5.4-.3.5-.3-.5-.4h-.2v-.2"/><path fill="#CC8D4B" d="M614.2 330.6l.2-.4-3 1.1v.7l-.3.7.2.8-.1.8.2.8.1.8 1.5-.4h.7l-.2-.5v-.7l-.2-.7v-.5l.1-.7.1-.6.4-.6.3-.6M617 333.5l.4-.4.1-2.3-.5.2-.5.1-.5.5-.5.3-.2.3-.4.3-.2.4-.2.4v.4l-.2.4.2.4-.1.4.1.3.4.4.6.2h.2l.4.1.2-.2.7-2.2"/><path fill="#CA3178" d="M618.1 330.7l-.6.1-.1 2.3h.3l.8-.2.4.1h.7l.2.1h.2l.1.4.2.2.2 1v.7l.3.2.4-.5.3-.3.6-.7.4-.6-.1-.5-.2-.4-.1-.4-.4-.3-.2-.4-.4-.2-.2-.2-.2-.1h-.2l-1-.4-.8-.1-.6.2"/><path fill="#CC8D4B" d="M620.8 335.6l-.3-.2v.8l-.2.6v.3l.8.6-.2 2.2.6-.7v-.1l.1-.2.2-.2.3-.6.4-.7v-.5l.1-.5.1-.3v-1.4l-.2-1.2-.4.6-.6.7-.3.3-.4.5"/><path fill="#CA3178" d="M621.1 337.7l-.8-.6-.5.7-.3.4v.2l-.2.2-.4.3-.4.3-.2.1h-.2l-.1.9.5.9-.2.7.5-.4.6-.3 1.5-1.2.2-2.2"/><path fill="#CC8D4B" d="M615.5 338.5l-.2-.4-.7 1.4-.5.8.4.2.4.4.5.2.5.3h.4l.1.2.3.1h1.2000000000000002l.4.1.2-.7-.5-.9.1-.9h-.8999999999999999l-.5-.2-.6-.4-.6-.2"/><path fill="#CA3178" d="M614 336.2l-.3-.7h-.7l-1.5.4.4 1.2.1.4.2.5.3.3.1.4.7.7.3.4.3.3.2.2.5-.8.7-1.4-.4-.3-.4-.6-.4-.4-.1-.6M612.4 346.5l-.3 2.2 1 .3h1l1-.1 1.1-.1 1-.1-.3-.6-.4-.3-.2-.6-.2-.4-.5-.1-.5.2-1-.1h-.9l-.5-.1-.3-.2M621.4 344l-1.1 1 1.4 1.7.9-.5v-.1h.2l.2-.1.4-.4.4-.5.4-.3.3-.3.4-.4-.3-.1-1.8-1.1-.7.6-.7.5"/><path fill="#CC8D4B" d="M617.4 346.3l-.8.1-.5.4.2.4.2.6.4.3.3.6.5-.4.7-.1h.3l.2-.1.4-.1h.3l.6-.3.4-.4.6-.2.2-.2h.1l.2-.2-1.4-1.7-.4.1h-.1l-.1.1-.2.2-.2.2-.4.1-.7.3-.8.3M642.3 338.3l-1.9-.9-.7 1.2-.2.6-.3.7.3.2h.30000000000000004l.2.1.2.1h.2l.4.2.6.2.9-2.4"/><path fill="#CA3178" d="M639.5 340.1l-.3-.2-.4.6-1.1.2-.3.1-.3.2-.6.1-.3.3-.7.7.8.3.8.5.9.2.8.3.8.3.9.2.8.2 1 .2-.1-.5-.2-.3-.1-.5v-.4l-.4-.4v-.3l-.2-.2-.4-.4.5-.6-.6-.2-.4-.2h-.2l-.2-.1-.2-.1h-.30000000000000004"/><path fill="#CC8D4B" d="M640.5 353.6l.1-.8.2-.2v-.2l.2-.4.3-.9.2-.5.1-.4v-.8l.3-.8.2-1 .1-.9v-.6l.1-.6v-1.2l-1-.2-.8-.2-.9-.2-.8-.3-.8-.3-.9-.2-.8-.5-.8-.3-.2.1-.6.5-.5.6-.6.7-.3.7-.4.6-.5.7-.7 1.3-.3 1-.4.8-.3.5v.4l-.2 1h.1l.6-.1h.9l.4.2h.6l.3.2.3.2.5.2.2.4.3.1.3.4.2.4.1.3.3.6v.2l.1.8v.2l-.2.2v.4l-.5.6-.5.6-.2.1v.1l-.4.4-.2.1-.3.4-.6.4-.7.4-.2.1h-.2l-.3.3h-.2l-.1.1-.2.2.3.2.3.2h.2l.3.2h.5l.6-.1.6.1.6-.2.6-.1.4-.4.5-.3.4-.1.2-.2.1-.1h.2l.2-.4.6-.4.3-.6.4-.2.2-.4.1-.3.2-.3.6-.5.3-.7.4-.7.5-.6M625.5 337.2v.6000000000000001l-.2.1v.3l-.2.7-.4.7-.2.6-.4.7-.6.6-.3.7-.4.7 1.8 1.1.3.1.5-.8.5-.6.4-.6.3-.6v-.1l.2-.2.4-1 .4-1 .4-1 .3-.8-1.2-.3-1.1.1h-.5"/><path fill="#CA3178" d="M630.6 351h-1l-.6.1h-.9l-.8.2.3 2.2.4 2.1.4 2.3.4 2.3 1-.4h.2l.4-.1.5-.2.2-.2.1-.1h.2l.3-.3h.2l.2-.1.7-.4.6-.4.3-.4.2-.1.4-.4v-.1l.2-.1.5-.6.5-.6v-.4l.2-.2v-.2l-.1-.8v-.2l-.3-.6-.1-.3-.2-.4-.3-.4-.3-.1-.2-.4-.5-.2-.3-.2-.3-.2h-.6l-.4-.2h-.9l-.6.1M661.9 308.3l.6-.4-.9-.8-.6-.5-.6-.5-.5-.4-.4-.3-.4-.3-.6-.4-.4-.2-.7-.2-1.5-.8-.8-.2-.8-.2-.2 1.9h.5l.7.4.7.2.5.2.5.3.6.4.5.4.6.4.6.6.6.3.5.6.4.6.4-.3.2-.1.3-.3.2-.4"/><path fill="#CC8D4B" d="M662.5 307.9l-.6.4-.2.4-.3.3-.2.1-.4.3.4.4.3.3.6 1 .4.9.4.5.1.5.4.7.1.7.1.7.1.7.2.2h1.2000000000000002l.4.1h.6000000000000001l-.1-.9-.2-.9-.3-.8-.2-.7-.3-.9-.5-.8-.3-.8-.5-.7-.2-.5-.4-.4-.6-.8"/><path fill="#CA3178" d="M666.2 317.1l-.1-1h-.6000000000000001l-.4-.1h-1.2000000000000002l-.2-.2v.6l-.2.8v.9000000000000001l-.3.7-.2.8-.2.9-.4.8-.4.7-.4.8.9 1.1 1.2 1.1.8-1 .5-1.2.4-.7.2-.2v-.4l.2-.8.2-.7.3-.7v-.7l.1-.8-.2-.7"/><path fill="#CC8D4B" d="M663.7 325l-1.2-1.1-.9-1.1-.3.6-.8 1.2-.8 1-.3.5-.6.4-.3.6-.6.4-1 .6-.2.2-.3.1-.6.4.2.2.3.3.3.6.9.8.2-.1.2-.2.2-.2.7-.2.6-.5.3-.4.4-.1.5-.5.2-.3.2-.1.5-.5.6-.5.4-.5.5-.5.4-.5.3-.6"/><path fill="#CA3178" d="M603.4 380.8l-6.9 3.6.7 1.5.3.5.4.7.6 1.2.5.8.5.5.5.5.5.5.6.6.6.4h.9l.2-.2.1.1.4-.2.2-.2.1-.2.4-.4.2-.4.1-.2.2-.2v-.2l.1-.2v-.4l.2-.4v-.5l.1-1-.1-.9-.2-1-.1-.9v-.8l-.3-.9-.5-.9-.3-.8M556.1 382l-.2.4-.2.6v.4l-.2.7v.5l.1.5.1 1 .1.6.2.4.2.3.3.2h.3l.4.2h.4l.6-.1h.2l.1-.2.4-.1.8-.3.6-.3.5-.3.6-.4v-.1h.1l.2-.1.6-.6.3-.2.5-.4.4-.5.3-.2.2-.2v-.2l.2-.2.2-.2.1-.1v-.1l.4-.4.5-.5.3-.5v-.1l.2-.2.2-.2.2-.4-5.6-4.3-1.3-.1-.6.7-.5.6-.4.7-.4.7-.8 1.4-.3.7-.3.9"/><path fill="#0070B5" d="M199.1 278.9l-1 1.1-.8 1.2-.4.6-.4.6-.4.6-.3.7-.3.6-.3.7-.3.7-.1.7-.1.7v3l.1.8.4 1.6.5 1.6.4.7.5.7.5.7.6.6.6.6.7.5.7.5.7.5.7.5.9.5 1.3.4h2.8l1.4-.2 1.4-.2 1.2-.4 1.3-.5.5-.3.6-.4 1.2-.7.5-.5.5-.5.1-.1.1-.1.3-.3.5-.5.4-.5.4-.5.2-.3.2-.3.4-.5.3-.6.4-.6.3-.6.4-.6.3-.6.3-.7.3-.7.1-.7.1-.7.1-.7v-.7l.1-.7v-1.4l-.1-1.4-.2-1.4-.2-1.4-.5-1.3-.2-.6-.2-.6-.5-.5-.5-.5-.6-.5-.5-.4-.6-.4-.6-.4-.6-.3-.6-.3-.7-.3-.6-.2-.7-.1-.6-.2-.7-.1h-2.5l-1.5.2-1.4.3-1.3.6-1.2.5-1.3.6-1.2.7-1 .8-.3 1.9zm-1.7 10.1v-1.5l.2-1.4.3-1.4.5-1.4.5-1.2.4-.6.4-.6.4-.6.5-.5 1-1.1 1.1-.6 1.2-.5.5-.2.5-.2 1.3-.2 1.1-.1 1.3.1.6.2.6.2.6.2.7.3.7.3.7.4.6.4.6.5.3.2.3.2.5.5.5.5.5.5.3.5.3.5.3.5.2.6.1.5.1.6v.2l.1.4.1.6v1.4l-.1.4-.1.4-.1.7-.2.4-.1.1v.2l-.2.4-.1.1v.2l-.3.6-.3.6-.4.6h-.1v.1l-.1.1-.2.3-.4.5-.2.3-.2.3-.5.5-.3.3-.1.1-.1.1-.5.5-.5.5-.6.5-.6.4-.6.4-.6.4-1 .3-1 .3h-1l-.9-.1-1.3-.4-1-.4-1-.5-.9-.5-1-.6-.8-.7-.7-.8-.5-.8-.5-1-.4-1-.2-.5-.1-.5-.1-1"/><path fill="#0098D8" d="M201.4 278.8l-1 1.1-.5.5-.4.6-.4.6-.4.6-.5 1.2-.5 1.4-.3 1.4-.2 1.4v2l.1.5.1.5.2.5.4 1 .5 1 .5.8.7.8.8.7 1 .6.9.5 1 .5 1 .4 1.1.2.9.1h1l1-.3 1-.3.6-.4.6-.4.6-.4.6-.5.5-.5.5-.5.1-.1.1-.1.3-.3.5-.5.2-.3.2-.3.4-.5.2-.3.1-.1v-.1h.1l.4-.6.3-.6.3-.6v-.2l.1-.1.2-.4v-.2l.1-.1.2-.4.1-.7.1-.4.1-.4v-.7999999999999999l-.1-.6-.1-.4v-.2l-.1-.6-.1-.5-.2-.6-.3-.5-.3-.5-.3-.5-.5-.5-.5-.5-.5-.5-.3-.2-.3-.2-.6-.5-.6-.4-.7-.4-.7-.3-.7-.3-.6-.2-.6-.2-.6-.2-1.3-.1-1.1.1-1.3.4-.5.1-.5.2-1.2.5-.9.1zm-2 9.9l-.3-1.1v-2l.2-.9.2-.9.5-.9.5-.9.7-.8v.1l.5-.5.6-.5.7-.5.7-.5 1-.4.5-.2.5-.2.9-.3.5-.1.5-.1.4-.1.5.1.8.1.8.1.7.3.7.4.6.4.6.5.6.5.3.3.3.3.3.3.3.5.5.8.5 1 .2.4.2.4v.30000000000000004l.2.4.1.6.1.6-.1.7-.1.7-.3.7-.3.7-.4.6-.4.6h-.1v.1l-.1.1-.2.3-.4.5-.4.5-.4.4-.4.4-.4.4-.5.3-.5.3-.5.2-.5.2-.5.1-.5.1-.5.1h-.5l-.5.1-.5.1-1.1.1-1.1-.3-.5-.3-.5-.3-.9-.5-.7-.5-.5-.6-.3-.3-.5-.7-.3-.5-.4.1-.5-1-.6-.9"/><path fill="#fff" d="M200.9 281.2l-.6.9-.6.7-.3.9-.3.9-.1.9-.1 1.1.2 1 .3 1.1.2 1 .5 1 .2.4.2.4.6.7.4.4.3.4.7.6 1 .5.4.2.6.3 1.1.3h1.1l.5-.1h.6l.6-.1.6-.1h.5l.5-.3.5-.2.6-.1.4-.3.5-.3.5-.4.3-.4.5-.5.4-.4.3-.6.2-.3.1-.1.1-.2.3-.6.4-.6.3-.7.1-.7.2-.8v-.8l-.1-.6-.1-.7v-.3l-.1-.3-.1-.1-.2-.4v-.3l-.6-.8-.5-.9-.4-.4-.2-.4-.3-.3-.3-.3-.6-.6-.7-.5-.6-.3-.7-.4-.7-.3-.9-.1-.8-.1h-.3l-.5.1h-.9l-.9.3-.4.2-.4.1-.9.4-.9.5-.6.4-.5.7-.7.5.1-.2"/><path fill="#0098D8" d="M221.5 282.1l-.4-.6-2.3-3.4.2.6.2.6.5 1.3.2 1.4.2 1.4.1 1.4v1.4l-.1.8v.7l-.1.7-.1.7-.1.7-.3.7-.3.7-.3.6-.4.6-.3.6-.4.6-.3.6-.4.5-.2.3-.2.3-.4.5-.4.5-.5.5-.3.3-.1.1-.1.1-.5.5-.5.5-1.2.7-.6.4-.6.2-1.3.5-1.2.4-1.4.2-1.4.2h-2.8l-1.3-.4-.9-.5-.7-.5-.7-.5-.7-.5-.7-.5-.6-.6-.6-.6-.5-.7.4.6.5.6.5.5.5.6.5.5.5.5.5.5.5.5 1.2.7.6.4.6.4 1.4.5.7.3.7.3.7.1.8.1h1.7000000000000002l2 1.5.2.6-.5 1.8-1.1 1.1-1.1 1.1-2.1 2.3-1 1.2-1 1.3-1.7 2.5-.9 1.5-.5.7-.4.8-.8 1.6-.6 1.7-.6 1.7-.5 1.6-.5 1.8-.3 1.7-.4 2.4-.3 2.4-.1 2.3.1 2.4-1.2-.3-1.1-.3-1.1-.3-2.1-.7-1.1-.5-1-.5-1-.5-.9-.5-2.4-1.5-2.3-1.5-2.3-1.5-2.2-1.5-2.6 2.1-.9 1-.7 1-.7 1.2-.6 1.1-.5 1.2-.5 1.2-.4 1.3-.3 1.3 2.5 1.3 1.3.6 1.4.6 2.6 1.1 2.6 1.1 2.1.7 2.2.7 2.2.6 2.2.6 10.5 2.5 1.6 3.2-.2-.2.8 1.6.8 1.5.9 1.5.5.7.5.7 1 1.5 2.1 2.5.9 1 1.1 1 1 .9 1 .9 20.5-10.5 8.5-5.1-.6-.3-1.4-.5-1.3-.6-1.3-.6-1.1-.6-1.2-.7-1-.9-1-.9-.9-.9-1.1-1.2-1-1.4-.8-1.1-1-1.6-.6-1.3-.5-1.3-.4-.8-.3-.9-.3-.9-.1-.8-.1-.8v-.8l.1-.8.1-.7.1-.7.4-.7.4-.7.5-.6.5-.6.6-.6.6-.6.7-.5h1.6l.8.1.8.1.8.2.8.2.8.4.9.5 1 .5 1 .6.9.6.9.6.8.8.8.8.8.8.8.8.7.8.7.9.6.9.6.9.5 1 .5 1.1.5 1.1.5 1.1.2.5.1.4.1.4.1.6.1.4.1.4.1.6v.30000000000000004l.1.4v.7l-.1.4v.30000000000000004l-.1.7 9.5-6.7 15.6-13-2.4-6.7-1.5-2.5-1.6-2.4-1.7-2.4-1.7-2.3.9-1.6.9-1.6.5-.9.5-.9.5-.9.5-.9.1-.3.1-.1.2-.4.3-.7.1-.3.1-.1.2-.4.3-.7.5-1.5.5-1.5.5-1.5.3-.7.1-.3.1-.1.2-.4.1-.4.1-.3.1-.1.3-.7.5-1.5.1-.8.1-.5.2-.4.1-.8.1-.5.2-.4.3-1.7.1-.5.1-.5.1-.8.1-.9.1-.5.1-.5.2-1.7.1-1.7.1-1.7v-3.1l-.7-.1-.7-.1-1.4-.2h-1.4l-1.4.1-1.4.1-1.4.2-.6.1-.6.2-.6.2-.6.2-4.9 2.3 1.1 9.2v1.5000000000000002l.1.5v2l.1 2.1v2.0000000000000004l-.6 4.8-.5 1.5-1.1-.5-1.1-.5-1.1-.5-1.1-.3-.3-.2-1.5-.5-1.3-.4-1.2-.3-1.3-.3-1.3-.3-2.5-.5-1.3-.2-1.3-.1-1.4-.2-1.3-.1h-2.6l-1.4.1-1.3.1-1.4.1-1.3.2-1.3.2-1.3.2-2.4.5-1.2.3-1.1.3-2.3.6-1.8.6-1.9-.5-.2-.5.4-1.3.3-.6.3-.6.3-.6.4-.5.7-1 .1-.3v-.1l.1-.1.1-.3v-.1h.1l.1-.1.3-.5.3-.5 1.1-2.9v-.2l.1-.3.1-.5v-.2l.1-.3.1-.5v-.7999999999999999l.1-.3.1-1-.1-.4v-.2l-.1-.5-.1-.4-.1-.4-.1-.5-.4-1.2-1.9-.3zm4.4 22.3l.5-.5 4.9-2.5h.1l2-.5 1.4-.1h.7l.7.1h.7l.7.1.7.1.7.1 1.3.4.6.3.7.3.6.3.6.3 1.4.6 1.2.7.5.4.5.4.5.5.5.5.7 1 .3.5.3.5.2.6.2.6.1.6.1.6.1 1.5v1l-.1.5-.1.3v.30000000000000004l-.2.5h-.1v.2l.1.4-.2.5-.2.5-.3.4-.3.4-.2.2-.1.3-.3.4-.5.3-.4.4-.5.3-.5.3-.2.4-.6.4-1.3.6-1.3.5-.6.2-.9.7-.6.1-.6.1-.6.1-.6.1h-1.2l-1.4-.2h-1.5l-.8-.1-.4-.1-.4-.1-.4-.1-.3-.1-.6-.3-.5-.4-.5-.4-.5-.5-.4-.6-.6-.5.2-1.1.3-1.1.3-1.1.5-1 .8-1.9.5-1 .5-.9.5-.9.7-.8 1.4-1.5 1.5-1.5.8-.7.9-.7v-.2l-.1-.4-.1-.1-.3-.1-2.9 1.5-1.2 1.2-1 1.1-1 1.2-.8 1.3-1 1.7-.9 1.8-.7 1.8-.5 1.9-.5-.5-.5-.5-.7-1.2-.7-1.4-.5-1.3-.3-1.4-.1-1.4.1-1.3.1-.7.3-.7.5-1.4 1.1-1.1zm-23.3 19.7l.4-.1.2-1.2.3-1.1.2-.5.3-.5.5-1 .6-.9.8-.8.4-.4.5-.3 1.1-.6.5-.3.5-.2 1-.3.9-.1.5-.1.5.1.5.1.5.1.9.2.5.2.5.2 1 .5.7.5.7.5.6.6.6.6.5.6.5.6.5.7.5.7-1.7.1-.8.1-.8.1-1.6.4-1.5.5-1.6.5-1.5.5-1.5.6-1.5.8-.3.3-.8.5-.4.5-.4.5-.2.6.3.1.3.1 1.9-1.1.7-.5.7-.4 1.5-.6 1.5-.5 1.6-.5.7-.2.8-.1.8-.1.8-.1 1.5-.1h1.7l.3 1.8.4 1.8.1.4.1.5.1.8.1.4.1.4v1.4l-.1.7-.1.7-.1.7-.3.6-.3.6-.4.6-.4.6-.5.5-.5.5-.5.5-.5.5-.6.5-.5.5-.6.4-.5.3-.6.2-.6.2-.6.1-.6.1-1.3.1-1.2-.1-.6-.2-.5-.2-1-.5-1-.5-.4-.3-.4-.4-.4-.4-.4-.4-.7-.9-.9-1.5-.8-1.5-.5-1.5-.5-1.5-.4-1.5-.1-1.5v-1.6l.3-1.7"/><path fill="#fff" d="M226.3 304.1l-.4.3-.9 1.4-.5 1.3-.2.6-.1.7-.1 1.3v1.4l.3 1.3.5 1.4.8 1.3.7 1.1.3.6.6.4.5-1.9.7-1.8 1-1.7 1-1.7.8-1.4 1-1.2 1-1.1 1.1-.9 2.9-1.4h.2l.1.1v.3l.1.3-.9.7-.8.6-1.5 1.5-1.4 1.6-.6.8-.6.9-.5.9-.5.8-.8 2-.5.9-.2 1.1-.2 1.1-.2 1 .6.5 1.2.6.7.3.7.2.6.3.6.1 1.3.2h1.3l.7-.1.7-.1.8-.1.6-.2.7-.3.8-.1.3-.3.6-.4.4-.2.3-.2.2-.1.3-.2.1-.1.4-.4.5-.4.3-.5.3-.3.3-.5.2-.5.3-.5.2-.5.2-.6.1-.6.2-.6v-3.0999999999999996l-.2-.4-.3-.7-.2-.7-.3-.3v-.2l-.1-.1-1-1.6-.6-.5-.5-.4-.5-.6-.5-.4-.6-.5-.4-.3-.7-.3-.6-.4-.6-.2-.6-.3-.7-.2-.6-.1-1.3-.3-.7-.1h-.7l-2.4.2h-.2l-4.9 2.5"/><path fill="#0070B5" d="M231.4 301.6l2.4-.2h.7l.7.1 1.3.3.6.1.7.2.6.3.6.2.6.4.7.3.4.3.6.5.5.4.5.6.5.4.6.5 1.3 1.4-.3.2.1.1v.2l.3.3.2.7.3.7.2.4v3.0999999999999996l-.2.6-.1.6-.2.6-.2.5-.3.5-.2.5-.3.5-.3.3-.3.5-.5.4-.4.4-.1.1-.3.2-.2.1-.3.2-.4.2-.6.4-.3.3-.8.1-.7.3-.6.2-.8.1-.7.1-.7.1h-1.3l-1.3-.2-.6-.1-.6-.3-.7-.2-.7-.3-1.2-.6.3.5.5.5.4.5.6.4.5.3h.3l.4.2.2.1.4.1h2.2l1.5.2h1.4l.6-.1.6-.1.8-.1.6-.3.6-.1.7-.2 1.3-.5 1.3-.6.7-.5.5-.3.4-.3.4-.4.4-.4.3-.2.2-.4.3-.3.1-.1.3-.4.2-.5.2-.3.1-.6.1-.2v-.2h.1l.2-.5v-.30000000000000004l.1-.1v-1.1l.1-.6-.1-1.4-.1-.8-.3-.6-.2-.6-.2-.6-.1-.6-.4-.6-.8-1-.5-.5-.3-.4-.6-.5-.4-.4-1.3-.7-1.4-.7-.6-.3-.7-.2-.6-.3-.6-.2-1.3-.3-.7-.3h-.8l-.7-.1-.6-.1h-2.8l-2 .5"/><path fill="#0098D8" d="M243.4 306l1 1.6.3-.2-1.3-1.4"/><path fill="#0070B5" d="M203 323.9l-.4.2-.1 1.6v3.2l.2 1.5.5 1.6.5 1.3.8 1.6 1 1.4.7.9.3.4.4.5.5.3.3.3 1 .5 1 .5.5.2.6.1 1.1.1 1.2-.1.6.1.8-.3.6-.1.6-.3.6-.3.6-.3.6-.4.7-.4.4-.5.5-.6.5-.6.4-.5.4-.7.2-.5.4-.6.3-.8.1-.6.1-.6v-.8l.1-.7-.1-.7v-1.6l-.1-.4v-.3l-.5-1.8-.1.7v1.4l-.1.3-.1.3-.1.7v.2l-.1.4-.3.6-.1.5-.2.3-.2.3-.2.5-.5.5-.4.5-.3.4-.6.6-.1.1-.1.1-.1.1-.6.5-.4.3-.6.2-.5.3-.6.3-.5.2-.5.1-.5.1-.6.1-1-.1-1.1-.1h-.5l-.6-.1-1.1-.4.4.5-.8-.7-.7-.6-.7-.6-.9-1.1-.8-1.2-.8-1.2-.4-1.2-.4-1.4-.2-1.4-.1-1.4.2-1.4"/><path fill="#fff" d="M206.9 325.9l.4-.4 1.4-.7 1.6-.8 1.5-.6 1.7-.5 1.5-.5 1.6-.3.9-.1.9-.1 1.5-.1-.4-.8-.4-.8-.6-.5-.3-.8-.7-.6-.7-.6-.7-.5-.8-.4-.9-.6-.6-.1-.4-.1-.9-.3h-.4l-.5-.1h-.4l-.5.1-.9.2-1 .2-.4.2-.6.3-.9.6-.5.3-.4.5-.8.7-.7.9-.5.9-.3.5-.2.6-.4 1.1-.1 1.2-.2 1.4.1 1.4.2 1.4.4 1.4.4 1.2.8 1.2.8 1.2.9 1.1.7.6.7.6.4.2 1.1.4.6.1h.5l1.1.1 1 .1.6-.1.5-.1.5-.1.5-.2.6-.3.5-.3.6-.2.4-.3.6-.5.1-.1.1-.1.1-.1.6-.6.3-.4.4-.5.5-.5.2-.5.2-.3.2-.3.1-.5.3-.6.1-.4v-.2l.1-.7.1-.3.1-.3v-1.4l.1-.7-.3-1.6-1.6-.1-1.7.1h-.8l-.8.2-.9.1-.6.2-1.7.5-1.5.4-1.6.7-.8.4-.7.5-1.9 1-.2-.2-.3-.1.2-.6.4-.5.3-.4.5-.4"/><path fill="#0098D8" d="M208.6 336.1l-.4-.5-.4-.2.8.7"/><path fill="#006194" d="M221.3 281.4l.2.7.5 1.1.4 1.1.1.8v.5l.1.5.1.2v.5h.4l.2-.1.2-.1h.1l.2-.2h.1l.3-.2.1-.1.1-.2.1-.1v-.2l.1-.2v-.2l.1-.1h-.1l.1-.3v-.2l.7-.4.2-.1.3-.1.2-.2.4-.1.2-.3.7-.4.5-.6.1-.2.3-.1.2-.3.5-.7.5-.8v-.2l.2-.1.2-.5.2-.5.1-.1v-.1l.2-.3.3-.8-.1-.3.1-.1v-.2l.2-.4.2-.9v-.30000000000000004l.1-.1-.1-.3.2-.4.1-1v-.9l-2-1.5-.1.5-.1.4v.7l.1.4-.2.5v.4l-.1.9-.3 1-.2 1-.3 1-.3.9-.1.1-.1.1-.2.4-.3.6-.6.6-.1.2-.3.2-2.2 1.3-.2-.3-.3-.3-.3-.2-.3-.2-.4-.2h-.9l-.3.1M240.2 263.6l.7-.1.2-2.5-1.4.1h-.7l-.5.1-1.3.3-.7.2-.5.4-.8.1.7 3 .9-.7 1.1-.4 1.1-.3 1.2-.2"/><path fill="#0098D8" d="M241.9 261h-.8l-.2 2.5h.5l.4.1.9.1.8.2 1 .3.3.2.5.3.7.4.9.5.3.3.5.3.7.8 2.1-1.7-.5-.5-.5-.4-.4-.5-.5-.4-.4-.3-.7-.3-.5-.3-.5-.3-.6-.2-.4-.3-1.1-.4-.8-.2-.4-.1-.7-.1h-.6M235.3 265.6l.6-.4-.7-3-1 .8-.9.8-.9.8-.7 1-.7 1-.5 1.1-.5 1.2-.3 1.2-.3 1.2 2 1.5.1-1.2.2-1 .3-1 .5-.9.5-.9.7-.7.8-.9.8-.6M236 271.6l1-1 .6-.4 2.3-.5 1.6-2.8-1-.3-1 .1-1 .1-.9.3-.4.1-.5.2-.7.6-.4.2-.4.3-.6.9-.4.7 1.8 1.5"/><path fill="#006194" d="M237 270.6l-1 1-1.8-1.5-.5.6-.3.6-.3.7-.3.5-.3.6v.6l-.1.6v.8l.1.5v.6l.1.6.2.6.2.7.4.7.9 1.2.3.6.5-.7 1.7-.8-.4-.7-.3-.6-.4-1.2-.2-.7v-2.5l.2-.4.2-.7.3-.4.2-.6.4-.3.3-.3.5-.5-.6.4M238.5 272.5l-.5.2-.4.5-.2.5-.2.6.1.5.1.5.1.6.3.5.5.5.3.2.4.2.4.4.4.1.7.2.7.2.7.1h1.4l-1.7-3.2.6-.5-.2-.4-.2-.3-.2-.4v-.2l-.4-.5-.3-.2-.1-.1h-.3l-.3-.1-.5-.2h-.3l-.3.1-.4.1-.2.1"/><path fill="#0098D8" d="M235.1 279.9l-.5.7.6.6.5.7.8.5.6.5.6.5.8.5.7.3.8.3.6.3 1.1-2.8-.7-.1-.5-.2-.7-.2-.4-.2-.6-.3-.5-.5-.5-.4-.3-.3-.7-.7-1.7.8"/><path fill="#006194" d="M241.5 266.9l-1.6 2.8.7.1.4.1.4.1.6.2.5.4.3.2.2.3.5.5.2.6.4.8v.3l2.7.6v-1.7000000000000002l-.1-.4-.2-.5v-.4l-.3-.8-.3-.5-.3-.3-.5-.7-.8-.5-1-.6-1.8-.6"/><path fill="#0098D8" d="M244.1 273.3l-1 2.2h-.9v-.9l-.6.5 1.7 3.2h.2l.3-.2h.1l.6-.1.1-.2.1-.1.4-.2.4-.4.5-.4.1-.4.2-.2.2-.8v-.4l.1-.2.2-.8-2.7-.6"/><path fill="#0070B5" d="M261.1 252.9l-.2-.3-.2-.2-.1-.3-.1-.1-.2-.1-.3-.2-.3-.1h-.2l-.8.4.4 5.5-.5.5-.3-.8-.5-.7-.5-.6-.5-.7-.3-.1-.1-.1-.3-.1-.1-.1-.4.1h-.1l-.4.2-.5.6.6 1.3.2.6.1.4.1.2.5 1.4.2.6.1.5.1.4v3.1l-.1 1.9v2l.1 2 1.4-.4 1.3-.3 1.3-.2 1.4-.1h2.6999999999999997l1.5.1.6.1.8.2h.5l.7.1 1.2.3 1.2.4 1.4.5-.5-1.4-.4-1.4-.5-1.3-.6-1.3-.7-1.3-.8-1.2-.8-1.2-.8-1.1-.8-.9.1-.8.2-.9v-.8l.1-.3.1-.5-.2-.8v-.8l-.2-.5v-.3l-.2-.5v-.4l-.1-.2-.2-.1-.3-.3h-.8l-.2.2-.2.2-.9 5-2.3-.8.1-.5-.1-.2v-1.2000000000000002l-.1-.1h.1l-.3-1.2-.1-.6v-.4"/><path fill="#006194" d="M250.5 265.3l-2.1 1.7.4.6.4.6.4.6.3.7.2.6.2.9.1.6v.8l.1 1 2.7.3v-.5l.1-.1-.1-.5v-.9l-.1-.4v-.2l-.1-.4-.3-1-.2-1-.4-.9-.5-.9-.1-.3-.1.1v-.30000000000000004l-.3-.3-.6-.8"/><path fill="#0098D8" d="M253.2 273.7l-2.7-.3v.7l-.1.4-.1.2v.3l-.1.1.1.2-.1.3-.3.7-.4.7v.2l-.1.1v.4l-.4.3-.1.2-.1.1-.4.7-.3.2 1.3 2.9.2-.6.5-.4.4-.3.2-.5.3-.4.5-.5.5-1v-.2l.1-.2.3-.5.3-1.1.1-.4.2-.7v-.5l.2-.5v-.6"/><path fill="#EE82A2" d="M272.7 272.1l-.2-1.3-1.4-.5-1.2-.4-1.2-.3-.7-.1h-.5l-.8-.2-.6-.1-1.5-.1h-2.6999999999999997l-1.4.1-1.3.2-1.3.3-1.4.4.9 5.2 4.5-2.2 1.4-.4 1.2-.4.6-.1.8-.1 1.4-.2h4.1l1.3.2"/><path fill="#0070B5" d="M273.4 276.1l-.2-.9-1.3-.3-1.2-.2-1.2-.1-1.2-.2-1.5-.1h-1.3l-1.4.1-1.4.2-1.4.4-.7.1-.5.1-1.5.5-1.1.4.2 3 5-2.3.6-.2.7-.2.5-.3h.7l1.3-.3 1.4-.1 1.3-.1 1.3.1 1.4.1.6.2.9.1"/><path fill="#F7CD83" d="M273.2 275.2l-.5-3.1-1.3-.2h-4.1l-1.4.2-.8.1-.6.1-1.2.4-1.4.4-4.5 2.2.1.8 1.1-.4 1.5-.5.5-.1.7-.1 1.4-.4 1.4-.2 1.4-.1h1.3l1.5.1 1.2.2 1.2.1 1.2.2 1.3.3"/><path fill="#006194" d="M241.7 282l-1.1 2.8 1.1.2.6.1.4-.1 1.1-.1.5-.2.5-.1 1-.4.6-.1.4-.3.9-.6.6-.3.4-.4.7-.4-1.3-2.9-.2.2-.2.1-.2.3-.8.5-.6.5-.7.3-.3.2-.5.2-.6.2-.8.2-.7.2-.8-.1"/><path fill="#0098D8" d="M273.3 340.4l.1-1.1-10.7 9.7-16.8 13.1-9 6.1-9.4 5.7 6.8.3-1.4 1.2-1.3 1.3-1.2 1.4-1.1 1.4 5.1 4.6 1.1-2.3 1.4-2.4.5-.8.6-.8.5-.7.8-.9 2.4-2.2 1.1-.7-.1-.4.2.1 1.6-.5 1.7-.6 1.5-.7 1.7-.7 1.1-.4 1.2-.7 1.2-.7.6-.4.6-.2 1.1-1 1.1-.7 1.1-.8.5-.5h.3l.1-.2.2-.1.1-.2.1-.1h.1l.3-.3.8-.7.6-.6.9-.8.5-.6.3-.4.4-.2 1.3-1.5 3.3-4.3 4.2-2.7 1.1-.5 1-.5 1-.4 1.3-.3 1.1-.3 1.2-.2 1.2-.1 1.2-.2-2-6.1-1 .2-.9.1-.8.2-.9.4-.9.2-.7.3-.8.5-.8.4.5-1.4.3-1.4.4-1.4.4-1.5"/><path fill="#EE82A2" d="M247.8 347l.3-.7-.1-.2h.1l.1-.4v-.7l.1-.4v-1l-.1-.4v-.2l-.3-.8v-.2l-.1-.4-.2-.5-.6-.4-.5-.3-1-.6-.6-.4-.5-.2-1.1-.4-1-.2-.7-.1-.4.1h-1l-1 .2-.6.2-.4.1-.6.2-.3.3-.6.3-.5.3-.4.3-.5.4-.6.4-.3.6-.9 1-.5.5-.5.7-.9 1.2 1 1 .9.9 1.2.8 1 .7 1.1.8 1.3.6 1.2.6 1.2.5.8.3-8.6 5.1-20.4 10.5 5.3 3.5 9.8-5.1 9.3-5.6 9-6.2 8.5-6.6 8.3-7 10.8-10.9-.4-1.9-15.6 13-9.5 6.7"/><path fill="#0070B5" d="M245.9 362.1l16.8-13.1 10.7-9.7.3-3.2-12.7 10.7-13.3 9.3-6.8 4.3-21.4 11.1 8 2.4 9.4-5.7 9-6.1"/><path fill="#F7CD83" d="M262.5 340.1l-8.3 7-8.5 6.6-9 6.2-9.3 5.6-9.8 5.1 1.9.9 21.4-11.1 6.8-4.3 13.3-9.3 12.7-10.7-.4-6.9-10.8 10.9"/><path fill="#5DA2D8" d="M279.5 343.8h-1l2 6.1h2l-3-6.1"/><path fill="#F7CD83" d="M282.5 349.9l1 .1-2-6-2-.2 3 6.1"/><path fill="#0070B5" d="M287.5 348.4l-.1-.5-.1-.6-.2-.4-.2-.5-.3-.3-.3-.4-.4-.4-.4-.2-1-.6-1-.3-.4-.1-.5-.1h-1.1l2 6 .5-.1 3.5-1.5M247.6 341.1l-.4-1-.5-1-.4-1.1-.7-1.1-.5-.9-.6-1-.6-.9-.7-.9-.8-.9-.9-.7-.7-.7-.9-.8-.9-.7-.9-.7-1-.6-1-.7-.8-.4-.8-.4-.9-.2-.7-.3-.9-.1-.8-.1h-.8l-.9.1-.7.5-.6.6-.7.6-.4.8-.6.6-.2.8-.3.6-.3.8-.1.7-.1.8v.7l.1.9.1.8.3.9.3.9.4.8.6 1.3.6 1.3.7 1.2.9 1.2 1 1.3 1.1 1.2.9-1.2.5-.7.5-.5.9-1 .3-.6.6-.4.5-.4.4-.3.5-.3.6-.3.3-.3.6-.2.4-.1.6-.2 1-.2h1l.4-.1.7.1 1 .2 1.1.4.5.2.6.4 1 .6.5.3.6.4"/><path fill="#F7CD83" d="M176 327.1l-1-.8-2.7 2.1-1 .9-.9.9-.9 1.2-.9 1.1-.7 1.1-.7 1.3-.7 1.2-.4 1.3 4 2.6v-.9l.1-1 .1-1 .2-.9.2-1.4.5-1.2.5-1.4.3-.5.4-.6.7-1.1.4-.5.5-.5.8-1 1.2-.9"/><path fill="#EE82A2" d="M172.3 328.4l2.7-2.1-3.9-3-.9 1-.7 1.2-.7 1-.6 1.3-1.3 2.3-.4 1.2-.6 1.2-1.2 3.7 1.4 1.2.4-1.3.7-1.2.7-1.3.7-1.1.9-1.1.9-1.2.9-.9 1-.9"/><path fill="#0070B5" d="M159.3 317.6l-.9.5 2.6 4-1.1 1.5-3.9-2.5-1 .7.5.9.5.4.4.4.9.8.5.4.5.4 1.2.6v1l-3.7-1.6-.6.3-.6.4-.1.8 1 .8 1 .6.6.2.4.1.7.3.5.2 1.5.3.3 1 .4 1 .5.9.6.9.5.9.8.8.6.8.8.8 1.2-3.7.6-1.2.4-1.2 1.3-2.3.6-1.3.7-1 .7-1.2.9-1-.9-.5-.8-.5-.9-.3-.9-.4-.9-.3-1-.1-.9-.1h-.9l-.4-.1-4.2-3.4M170.1 340l1 .3.2-1.2.4-1.3.4-1.3.6-1.2.7-1.1.6-1.1.9-1 .8-1.1 2.8-2.1-2.5-1.8-1.2.9-.8 1-.5.5-.4.5-.7 1.1-.4.6-.3.5-.5 1.4-.5 1.2-.2 1.4-.2.9-.1 1-.1 1v.9"/><path fill="#5DA2D8" d="M229.3 379.5l-1.4 2.2 5.6 3.7.9-1.3-5.1-4.6"/><path fill="#F7CD83" d="M227.9 381.7l-.3 1 5.1 4.6.8-1.9-5.6-3.7"/><path fill="#0070B5" d="M228.1 388.6l.4.3.4.2.5.2h.4l.5.1.3-.1.5-.1.4-.1.4-.2.8-1.6-5.1-4.6-.2.7-.1.7-.2.9.1.6v.8l.3.8.1.7.5.7"/><path d="M80 356.2c2.6.6 4.9 1.1 6.9 1.4 2.1.3 3.8.5 5.2.7 1.7.2 3.2.3 4.5.2 1.6-.1 3.6-.3 6.1-.7 2.4-.4 5-.8 7.7-1.2 2.7-.4 5.4-.7 8-1 2.6-.3 4.9-.3 6.9-.1 2 .2 4 .7 6.2 1.4s4.2 1.7 6.1 2.8c1.9 1.2 3.5 2.6 4.9 4.3 1.4 1.7 2.2 3.6 2.6 5.9.3 2.2.1 4.5-.6 6.9-.7 2.5-1.9 4.9-3.5 7.2s-3.6 4.5-6.1 6.4c-2.4 2-5.1 3.5-8.1 4.8-2.4.9-4.9 1.6-7.7 2-2.4.4-5.1.7-8.3.8-3.1.1-6.5-.2-10-1-.5 2-.7 3.8-.8 5.4 0 1.7 0 3.1.2 4.4.2 1.5.5 2.8.8 4.1.4 1.2.9 2.6 1.5 4.3l1.9 4.9c.7 1.9 1.6 4.1 2.6 6.4h-3.5c-1.1 0-2.2.1-3.1.2-1.1.1-2.1.1-3 .2-1.1.1-2.3.2-3.6.4-1.1.1-2.6.3-4.3.6-1.7.3-3.7.6-5.8 1 1.4-2 2.5-3.9 3.4-5.6.8-1.7 1.5-3.2 1.9-4.5.5-1.5.8-2.8.9-4.1.1-1 .1-2.8.1-5.4 0-2.6-.1-5.5-.2-8.9-.1-3.4-.2-6.9-.3-10.6-.1-3.7-.3-7.2-.5-10.5s-.4-6.1-.7-8.5c-.2-2.4-.5-3.9-.7-4.7-.3-.9-.7-1.8-1.4-2.8-.5-.9-1.3-1.9-2.3-3.1-1.2-1.1-2.4-2.5-3.9-4zm20.9 20c-.1.7-.1 1.4-.1 2.1 0 1.4.1 3.2.3 5.5.5 1.1 1.1 2.1 1.8 2.8.7.7 1.5 1.3 2.3 1.7.8.4 1.7.7 2.6.8.9.1 1.8.2 2.6.2 2-.1 4.2-.5 6.4-1.4 3-1.3 5.1-3.1 6.3-5.5 1.2-2.4 1.9-4.8 1.9-7.3.1-2.5-.4-4.8-1.3-6.9-.9-2.1-2-3.5-3.3-4.3-1.1-.5-2.5-.7-4.2-.6-1.5.1-3.3.4-5.6 1.1-2.2.7-5 1.9-8.2 3.6-.3 1.2-.6 2.3-.8 3.2-.2.9-.4 1.8-.5 2.5 0 1.1-.1 1.8-.2 2.5z" enable-background="new"/><g enable-background="new"><path d="M146.5 401.4c.2-.3.4-.8.4-1.5.1-.7.2-1.6.5-2.5.3-.9.8-1.9 1.5-3 .7-1 1.9-2 3.5-2.9 1.6-.9 3.1-1.4 4.6-1.6 1.5-.2 2.9-.1 4.3.2 1.4.3 2.6.8 3.8 1.5 1.2.7 2.3 1.4 3.3 2.2.7.5 1.2 1.3 1.6 2.3.4 1 .7 2.2.9 3.4.2 1.3.4 2.6.5 4 .1 1.4.2 2.7.2 4 0 1.3.1 2.5.1 3.5 0 1.1.1 1.9.2 2.6.2 1 .5 1.8.9 2.5s.9 1.3 1.5 1.8c.5.5 1.1.8 1.6 1.1.5.3 1 .5 1.4.6.3.1.5.2.7.3.4.2.8.2.9 0-.3.6-.5 1.2-.7 1.6l-.5 1.1c-.2.4-.3.7-.5.9-.1.3-.3.5-.5.7-.1.2-.3.5-.5.7l-.7.9c-.6-.2-1.1-.5-1.7-.8-.5-.3-1-.6-1.4-.9l-1.4-.9c-.4-.3-.8-.7-1.1-1.1-.3-.4-.6-.7-1-1.1-.3-.4-.6-.9-.8-1.3-.3.6-.9 1.4-1.9 2.5-1 1.1-2.3 2.1-3.9 2.9s-3.5 1.5-5.6 1.9c-2.1.4-4.5.1-7.1-.7-1.1-.4-2.2-.9-3.2-1.6-1-.7-1.8-1.5-2.5-2.5s-1.2-2.1-1.5-3.4c-.3-1.3-.3-2.7 0-4.3.3-1.6.9-2.9 1.7-4 .8-1.1 1.8-2 2.9-2.6 1.1-.7 2.4-1.2 3.8-1.6 1.4-.4 2.8-.6 4.3-.7 1.2 0 2.3 0 3.5.2 1 .2 2 .5 3.1 1s2 1.2 2.8 2.1c0-2.4-.1-4.3-.2-5.7-.1-1.4-.2-2.5-.3-3.3-.2-.9-.3-1.5-.5-1.9-.2-.3-.5-.7-.7-1.1-.2-.4-.6-.8-.9-1.1-.4-.3-.8-.6-1.4-.8s-1.2-.3-1.9-.3c-.8 0-1.4.2-1.8.6-.5.4-.8.8-1 1.2-.2.5-.4 1-.4 1.5s0 1 .1 1.4c.1.3.2.6.4.9.2.3.4.6.7.9.3.3.7.6 1.3.8-1 .1-2 .2-2.8.3-.8.1-1.5.1-2.1.2-.7.1-1.3.2-1.8.2s-1.1.1-1.8.3c-.6.1-1.3.2-2.2.3-.9.1-1.8.3-3 .5.3-.3.5-.6.7-.9.2-.3.4-.6.6-.8.7-.2.8-.5 1-.7zm10.1 8.1c-.8 0-1.6.2-2.4.6-.8.3-1.5.8-2.2 1.4-.6.6-1.2 1.3-1.6 2.1-.4.8-.6 1.7-.6 2.6s.2 1.8.7 2.5c.5.7 1.1 1.3 1.9 1.7.8.5 1.6.7 2.6.8.9.1 1.8 0 2.7-.3.9-.3 1.7-.8 2.4-1.5.8-.7 1.4-1.5 2-2.3.5-.8.9-1.7 1.1-2.5.2-.8.2-1.5.1-2.1-.4-1.2-1.2-2-2.4-2.5-1.3-.4-2.7-.6-4.3-.5zM176.6 397.3c1.4-.2 2.6-.4 3.5-.6.9-.2 1.7-.3 2.3-.4.7-.1 1.2-.2 1.6-.3.4-.1.9-.2 1.6-.4.6-.2 1.4-.4 2.3-.6.9-.2 2.1-.6 3.6-1-.4.5-.6.8-.8 1.2-.2.3-.4.6-.6.8-.2.3-.3.5-.5.7-.1.2-.3.6-.4 1-.1.4-.2.9-.3 1.5-.1.7-.2 1.5-.3 2.5 2.4-1.5 4.7-2.7 6.7-3.4 2-.8 3.8-1.3 5.4-1.6 1.8-.4 3.4-.5 4.9-.4 1.8.1 3.5.5 5 1.2s3 1.4 4.2 2.3c1.3.9 2.4 1.9 3.3 3 .9 1.1 1.7 2.2 2.2 3.2.4.7.6 1.8.7 3.1.1 1.4 0 2.8-.4 4.3s-1.1 3-2.1 4.5-2.4 2.6-4.3 3.5c-3.2 1.4-6.4 2.3-9.5 2.4-1.4.1-2.7 0-4.2-.1-1.4-.2-2.8-.6-4.3-1.1s-2.8-1.4-4.1-2.5c-1.3-1.1-2.5-2.5-3.6-4.3-.4 2.3-.6 4.3-.8 6-.2 1.7-.3 3.1-.3 4.2v3.3c.1.9.3 1.9.5 2.9.2.9.6 1.9 1 3.1.4 1.2 1 2.4 1.7 3.7-.3-.1-.6-.1-1.1-.2-.5 0-1 0-1.5.1s-1.1.2-1.8.3c-.6.1-1.3.3-2.1.5-.6.1-1.4.3-2.2.5-.8.2-1.7.4-2.5.7.5-.6.9-1.2 1.2-2 .3-.7.5-1.4.7-2.1l.5-2.3c0-.7.1-1.9.2-3.8s.2-4 .3-6.5c.1-2.5.2-5 .2-7.7.1-2.7.1-5.2.1-7.5v-5.9c0-1.6-.1-2.6-.3-2.8-.2-.3-.5-.7-1-1-.4-.3-1-.6-1.7-.9-.8-.4-1.8-.7-3-1.1zm16 12.3c-.3 1-.4 2-.2 3s.6 1.9 1.4 2.8c.7.9 1.8 1.6 3.2 2.3 1.4.7 3.1 1.1 5.2 1.5 2.1.3 3.6.3 4.7-.1s1.9-1 2.4-1.9c.5-.9.9-1.9 1-3.1.2-1.2.4-2.4.7-3.7.3-1.3.2-2.6-.1-3.9-.4-1.3-.9-2.5-1.5-3.6-.7-1.1-1.4-2-2.2-2.7-.8-.7-1.5-1-2.1-1-1.4 0-2.8.4-4.1 1.1-1.4.7-2.6 1.6-3.7 2.7s-2.1 2.2-2.9 3.5c-.9 1-1.4 2.1-1.8 3.1zM241.1 417.9c1.3 0 2.4-.1 3.5-.4.9-.2 1.8-.6 2.6-1.1.8-.5 1.4-1.3 1.7-2.3.9.2 1.7.3 2.3.4.6.1 1.2.2 1.6.3.5.1.9.2 1.3.3.4.1.8.2 1.3.3.4.1 1 .2 1.7.3.7.1 1.4.3 2.3.4-.7-.1-1.4 0-2.1.2-.7.2-1.4.5-2 .7-.7.3-1.4.7-2 1.1-.4.3-.9.7-1.4 1.2-.5.5-1.2 1.1-2.2 1.6-.9.5-2.2.9-3.7 1.2-1.6.3-3.5.5-6 .4-2.9-.1-5.4-.6-7.4-1.6s-3.6-2.2-4.8-3.6c-1.2-1.4-2.1-3-2.6-4.6-.5-1.7-.8-3.2-.9-4.7 0-1.4.4-2.9 1.3-4.5s2.2-3 3.8-4.3c1.6-1.3 3.6-2.4 6-3.2 2.3-.8 4.9-1.2 7.7-1.2 1.6 0 3.1.2 4.5.6 1.4.4 2.6.9 3.8 1.5 1.1.6 2.1 1.3 3 2.1.9.8 1.6 1.6 2.2 2.4.6.9 1.1 1.8 1.5 2.7.4.8.7 1.7.9 2.8.2 1 .3 2.1.2 3.2-3.4.1-6.2.2-8.3.2-2.1 0-3.7.1-4.9.1h-5.3c-.8 0-1.9 0-3.2.1-1.3 0-2.9.1-4.8.2.2 1.8.8 3.2 1.7 4.2.9 1 1.9 1.7 2.9 2.2 1.1.4 2.4.7 3.8.8zm-6.1-12.2c1.4.1 2.6.2 3.6.2s1.8.1 2.4.1c.7 0 1.2.1 1.6.1h1.7c1.1 0 3.2-.1 6.3-.2-.1-2-.6-3.5-1.2-4.5-.7-1-1.4-1.8-2.2-2.3-.9-.5-1.9-.9-3-.9-2.9 0-5.1.7-6.5 1.8s-2.3 3.1-2.7 5.7zM261.1 396.4c.9 0 1.6.1 2.3 0 .7 0 1.3-.1 1.8-.1.6 0 1.1-.1 1.6-.1l2.1-.3c.6-.1 1.3-.2 2-.4s1.4-.3 2.1-.6c-.3.7-.5 1.3-.7 1.8-.2.5-.3.9-.4 1.3-.1.4-.2.7-.2 1 0 .3-.1.7-.1 1.1v3.7c2.3-2 4.3-3.6 5.9-4.7 1.6-1.1 2.9-2 3.8-2.6 1.1-.7 2-1.2 2.6-1.4 1.7-.3 3.1.1 4.4 1.1.5.5 1.1 1 1.6 1.8.5.7.9 1.7 1.3 2.9s.6 2.7.8 4.4c.2 1.7.2 3.7.1 6-.9.1-1.8.2-2.5.3-.7.1-1.4.2-1.9.2-.6.1-1.1.1-1.6.1l-1.8.2c-.6.1-1.4.2-2.3.2-.9.1-2 .2-3.3.3 1.9-1.5 3.1-2.9 3.7-4 .6-1.1.8-2.1.7-2.9-.1-.9-.5-1.6-1.2-2.2-.9-.5-1.8-.7-2.8-.5-.9.1-1.8.5-3 1.1-1.1.7-2.3 1.9-3.6 3.8.1 2.9.2 5.3.3 7.2.1 1.9.2 3.4.3 4.6.1 1.4.2 2.4.3 3.2.1.7.4 1.4.8 2.2.3.6.8 1.3 1.4 2.1.6.8 1.4 1.5 2.3 2.3-2-.1-3.6-.1-4.9 0-.8 0-1.4.1-2 .1-.6.1-1.3.2-2 .3-.6.1-1.4.2-2.2.3-.8.1-1.7.2-2.7.4.4-.5.7-1.1.9-1.7.2-.7.4-1.3.5-1.9.2-.7.3-1.4.4-2.1 0-.6.1-1.6.1-2.8 0-1.3 0-2.7-.1-4.3-.1-1.6-.1-3.3-.2-5-.1-1.7-.2-3.4-.3-4.9-.1-1.5-.3-2.9-.4-4-.2-1.1-.3-1.9-.5-2.4s-.5-1.1-.8-1.6c-.3-.5-.6-1-1-1.6-.6-.7-1.1-1.3-1.6-1.9z"/></g><path d="M324.8 356.1c2.2.1 4.1.1 5.7.1 1.6 0 2.9-.1 4-.1h2.9c.7-.1 1.7-.1 2.7-.1h3.4c1.4 0 2.9 0 4.7.1.5 1.9 1.2 3.7 1.9 5.5.7 1.8 1.3 3.4 1.9 4.8.7 1.7 1.3 3.3 2 4.8s1.5 3.3 2.4 5.4c.8 1.8 1.8 3.9 2.9 6.4 1.1 2.5 2.5 5.4 4.1 8.7.7-2.1 1.4-4 2.1-5.8.6-1.8 1.2-3.3 1.7-4.6.5-1.5 1-2.8 1.3-4.1.3-1.2.7-2.7 1.1-4.5.3-1.5.7-3.3 1.2-5.4.4-2.1.9-4.5 1.4-7.3h5.3c1.6 0 2.9 0 4.1-.1 1.3 0 2.4 0 3.4-.1 1.1 0 2.5-.1 4.4-.2 1.6-.1 3.6-.3 6.2-.4 2.6-.1 5.8-.3 9.7-.5-1.4 1-2.5 2-3.4 3-.8 1-1.5 1.8-2 2.6-.5.9-.9 1.7-1 2.5-.1.7-.3 2.2-.4 4.7-.1 2.4-.2 5.3-.3 8.7-.1 3.3-.2 6.9-.2 10.7 0 3.8 0 7.4.1 10.7.1 3.4.2 6.3.4 8.8.2 2.5.4 4 .8 4.7.5.8 1.1 1.8 1.9 2.8.7.9 1.7 2 2.9 3.2 1.2 1.2 2.8 2.6 4.7 4.1-3.1.1-5.7.2-7.7.3-2.1.1-3.8.1-5.1.2-1.6.1-2.8.1-3.7.1-1 0-2.4 0-4.2.1-1.6.1-3.6.2-6.2.3-2.6.1-5.9.3-9.9.5.9-1.1 1.8-2.2 2.6-3.2.8-1.1 1.5-2.1 2-2.9.7-1 1.2-2 1.7-2.9.5-1.3.8-3.6 1.1-7 .3-2.9.5-7.1.6-12.5.1-5.4.1-12.7 0-21.9-1.3 2.1-2.4 4.2-3.4 6.2-1 2.1-1.8 3.9-2.6 5.6-.8 2-1.6 3.8-2.2 5.7-.7 1.9-1.4 4-2.1 6.3-.7 2-1.5 4.3-2.4 7-.9 2.7-1.9 5.7-3.1 8.9l-3.8.2c-.5-2.7-1.1-5.1-1.6-7.3s-1.1-4.1-1.6-5.6c-.6-1.8-1.2-3.4-1.8-4.9-.7-1.4-1.4-3-2.2-4.8-.7-1.5-1.6-3.2-2.7-5.3-1-2-2.2-4.3-3.6-6.8-.7 6.9-1.1 12.5-1.2 16.8-.1 4.3-.1 7.6 0 10 .1 2.8.3 4.9.6 6.2.4 1.1 1 2.4 1.9 3.8.7 1.2 1.8 2.7 3.1 4.3 1.3 1.7 3 3.5 5.1 5.5h-4.7c-1.6 0-3.1 0-4.5.1-1.6.1-3.2.1-4.8.1-1.6.1-3.5.2-5.7.3-1.9.1-4.2.3-6.8.4-2.6.1-5.7.4-9.1.7 1.5-.9 2.7-1.9 3.6-2.8.9-.9 1.7-1.7 2.2-2.5.7-.9 1.2-1.8 1.5-2.6.2-.5.4-1.7.6-3.5.2-1.8.3-4.1.5-6.7.2-2.6.3-5.6.4-8.8.1-3.2.2-6.5.3-9.9.1-3.3.2-6.6.3-9.8.1-3.2.1-6.1.2-8.7 0-2.6.1-4.8.1-6.5v-3.3c-.2-1-.5-2-.9-3-.3-.9-.9-1.8-1.6-2.7-1-1.1-1.9-1.9-3.2-2.8z" enable-background="new"/><g enable-background="new"><path d="M426.2 398.5c1.2 0 2.4.2 3.6.6 1.3.4 2.5 1 3.6 1.6s2.2 1.4 3.2 2.1c1 .7 1.8 1.5 2.4 2.1 1.1 1.2 1.9 2.8 2.3 4.9.4 2 .5 4.1.2 6.3-.3 2.1-.9 4.2-1.9 6-1 1.9-2.4 3.3-4.1 4.2-1.3.6-2.5 1.1-3.7 1.5-1.2.4-2.4.6-3.5.8-1.1.2-2.2.3-3.2.3s-1.8 0-2.6-.1c-1.4-.1-2.8-.6-4.2-1.4-1.5-.9-2.8-1.9-4.1-3.2-1.3-1.3-2.4-2.6-3.3-4.2-.9-1.5-1.4-2.9-1.6-4.3-.3-1.8-.3-3.8-.1-5.8.2-2 .8-3.9 2-5.6 1.1-1.7 2.9-3.1 5.3-4.3 2.5-.9 5.7-1.5 9.7-1.5zm-2.2 26.2c.5.1 1.2 0 2-.4.9-.3 1.7-.9 2.5-1.7.8-.8 1.6-1.7 2.2-2.9.7-1.2 1-2.6 1.2-4.4.1-1.7.1-3.2 0-4.6-.1-1.4-.3-2.6-.6-3.7s-.7-1.9-1.1-2.6c-.4-.7-.8-1.1-1.3-1.4-.8-.4-1.7-.7-2.8-1-1.1-.2-2-.2-2.8.2-.4.2-.8.6-1.4 1.1-.5.6-1.1 1.3-1.6 2.2-.5.9-1 1.9-1.5 3-.4 1.1-.7 2.3-.9 3.5-.2 1.2-.2 2.5-.1 3.9s.4 2.7.8 4c.4 1.2 1.1 2.3 1.9 3.2 1.1 1 2.2 1.5 3.5 1.6zM447 421.3c.3-1.5.6-2.8.7-4 .2-1.1.3-2.1.4-2.9.1-.9.1-1.7.1-2.3 0-.8-.1-1.7-.1-2.7l-.1-3.2s-.1-2-.2-2.8c-.1-.8-.2-1.4-.3-1.8-.2-.4-.4-.7-.7-1.1-.6-.8-1.6-1.5-2.8-2.2 1-.2 1.9-.4 2.7-.6.7-.2 1.4-.3 1.9-.4.5-.2 1-.3 1.4-.5.4-.1.8-.3 1.3-.4.4-.1.9-.2 1.5-.3.6-.1 1.3-.3 2-.5l-.2 6.1c1.4-1.7 2.9-3 4.4-3.8 1.5-.9 2.9-1.5 4.2-1.8 1.5-.4 2.9-.7 4.4-.7 1.8.1 3.5.4 5 .9 1.6.5 2.9 1.1 4.1 1.7 1.1.7 2.1 1.3 2.8 2.1.7.7 1.1 1.4 1.3 1.9.5 1.8.7 3.4.4 4.8-.3 1.5-.6 2.9-1 4.3s-.8 2.7-1.1 4.1c-.3 1.4-.2 2.8.3 4.4.2.4.4.8.5 1.2.2.4.4.7.7 1.1.3.4.6.7.9.9l-1.5-.1-1.4-.1-1.4-.1c-.5 0-1.1-.1-1.8-.1-1.3 0-3.3.1-6.1.2.4-.9.7-1.7 1-2.4.2-.7.5-1.2.6-1.6l.4-1.1c.5-1.3.9-2.8 1-4.5.1-1.7 0-3.4-.4-5.1-.1-.6-.4-1.3-.7-2.1-.3-.8-.7-1.6-1.2-2.4-.5-.8-1.1-1.4-1.8-2-.7-.5-1.5-.9-2.4-.9-.9-.1-1.9.1-3 .7-1.1.5-2.3 1.5-3.5 3-.9 1.2-1.7 2.7-2.2 4.5-.5 1.5-.8 3.3-1 5.6-.2 2.2.1 4.8.8 7.8l-1.8-.2c-.5 0-1-.1-1.4-.1-.5 0-.9-.1-1.2-.1-.4 0-.9 0-1.4-.1h-1.7c-.7-.2-1.5-.2-2.4-.3zM515.2 390.2c-.4 1-.8 1.9-1 2.7-.3.8-.6 1.5-.8 2.2-.2.7-.4 1.4-.6 1.9-.2.6-.4 1.4-.6 2.2-.2.7-.5 1.6-.8 2.7-.3 1.1-.7 2.3-1.2 3.7-.4-2.2-1-3.9-2-5.2s-1.9-2.3-2.9-3c-1.2-.8-2.4-1.4-3.8-1.8-2.4-.4-4.2-.4-5.3.1-1.1.5-1.8 1.1-2.2 1.9-.2.3-.4.7-.6 1.2-.2.5-.4 1-.5 1.5-.1.5-.1 1-.1 1.5s.2.9.6 1.2c.2.2.8.5 1.8.9.9.4 2.1.8 3.4 1.3 1.3.5 2.7 1 4.3 1.5 1.5.5 2.9 1.1 4.3 1.6s2.5 1.1 3.5 1.6 1.6 1 2 1.5c.3.5.6 1 .9 1.8.3.7.6 1.6.7 2.4.2.9.2 1.8.1 2.7-.1.9-.3 1.8-.8 2.7-.5.9-1.2 1.7-2.1 2.5-1 .8-2.3 1.4-3.9 1.9-1.9.6-3.7.7-5.5.5s-3.4-.7-4.8-1.2c-1.5-.5-2.7-1.1-3.8-1.6-1.1-.5-1.8-.7-2.3-.6-.5.1-1.1.3-1.7.7l-1.8 1.2c-.6.4-1 .8-1.5 1.1s-.6.5-.6.4c0-.1.1-.4.2-.8.2-.4.3-1 .5-1.7s.4-1.4.6-2.2c.2-.8.3-1.5.4-2.3.1-.6.2-1.3.3-2.2.1-.8.2-1.7.4-2.8.2-1.1.3-2.4.6-4 .2 1.2.5 2.2 1 3 .4.9.8 1.6 1.2 2.2.5.7 1 1.3 1.4 1.8.7.6 1.5 1.2 2.4 1.8.9.5 1.9 1 2.8 1.4s1.8.6 2.7.7c.9.1 1.6 0 2.2-.3.6-.3 1.1-.8 1.5-1.5.4-.7.7-1.5.9-2.4.2-.9.2-1.7.2-2.5s-.2-1.4-.6-1.9c-.3-.3-.9-.7-1.9-1.2-1-.5-2.1-1-3.4-1.6-1.3-.6-2.7-1.2-4.2-1.8-1.5-.6-2.8-1.3-4.1-1.9-1.3-.7-2.3-1.3-3.2-1.9-.8-.6-1.3-1.2-1.4-1.7-.1-.7-.2-1.5-.2-2.4 0-.9 0-1.8.2-2.6.2-.9.5-1.7.9-2.5.5-.8 1.2-1.5 2.1-2 .6-.4 1.5-.6 2.5-.8 1-.2 2.2-.3 3.4-.3 1.3 0 2.6 0 3.9.1s2.6.2 3.9.4c1.2.2 2.4.3 3.4.6 1 .2 1.8.4 2.3.6.6.2 1.3.2 2 .1.6-.1 1.3-.4 2-.9 1.2-.2 1.9-1 2.7-2.2zM516.8 386.2c1.4.1 2.5.2 3.4.3.9.1 1.7.2 2.3.2.7 0 1.2.1 1.6.1h1.6c.6 0 1.4-.1 2.3-.2.9-.1 2.1-.2 3.6-.4-.3.5-.6.8-.7 1.2l-.5.9-.4.8-.3.8c-.1.2-.2.5-.2.8l-.2 1h10.4l-.9 5.5-9.5-.5c-.2 2.3-.4 4.1-.5 5.3-.1 1.3-.2 2.2-.3 2.8l-.1 1.2c-.1 1.7-.3 3.6-.4 5.6-.1 2-.2 3.9-.1 5.6 0 1.7.2 3.1.5 4.3s.7 1.7 1.4 1.7 1.3-.2 1.9-.5c.6-.4 1.1-.8 1.5-1.3.4-.5.8-1 1-1.5.2-.5.3-.9.3-1.2 0-.3-.1-.6-.2-.9-.2-.7-.6-1.5-1.2-2.6 1.3.3 2.5.6 3.4.9.5.2.9.4 1.4.5.5.2 1 .4 1.6.6.5.2 1.1.5 1.9.8.8.3 1.7.7 2.7 1.1-1 .2-1.7.5-2.2.9-.3.2-.5.4-.6.6-.3.5-.7 1.2-1.1 2s-1 1.7-1.8 2.5-1.9 1.5-3.3 2.2c-1.4.6-3.2 1-5.5 1.1-2.4.1-4.2-.3-5.4-1.2s-2.1-1.9-2.7-3.1c-.6-1.2-.9-2.4-1-3.5-.1-1.2-.2-2-.2-2.4v-3c0-1.6.1-3.4.2-5.4.1-2 .2-3.8.3-5.7.1-1.8.1-3.2.1-4 0-.5 0-.9.1-1.4v-2.7l-9.8-.1-.4-3.8 9.9.3c-.1-.5-.2-1-.3-1.4s-.2-.8-.3-1c-.1-.3-.3-.6-.4-.8l-.6-.7-.9-.9-1.4-1.4zM558.8 417.9c1.3 0 2.4-.1 3.5-.4.9-.2 1.8-.6 2.6-1.1.8-.5 1.4-1.3 1.7-2.3.9.2 1.7.3 2.3.4.6.1 1.2.2 1.6.3.5.1.9.2 1.3.3.4.1.8.2 1.3.3.4.1 1 .2 1.7.3.7.1 1.4.3 2.3.4-.7-.1-1.4 0-2.1.2-.7.2-1.4.5-2 .7-.7.3-1.4.7-2 1.1-.4.3-.9.7-1.4 1.2s-1.2 1.1-2.2 1.6c-.9.5-2.2.9-3.7 1.2-1.6.3-3.5.5-6 .4-2.9-.1-5.4-.6-7.4-1.6s-3.6-2.2-4.8-3.6c-1.2-1.4-2.1-3-2.6-4.6-.5-1.7-.8-3.2-.9-4.7 0-1.4.4-2.9 1.3-4.5s2.2-3 3.8-4.3c1.6-1.3 3.6-2.4 6-3.2s4.9-1.2 7.7-1.2c1.6 0 3.1.2 4.5.6 1.4.4 2.6.9 3.8 1.5 1.1.6 2.1 1.3 3 2.1.9.8 1.6 1.6 2.2 2.4.6.9 1.1 1.8 1.5 2.7.4.8.7 1.7.9 2.8.2 1 .3 2.1.2 3.2-3.4.1-6.2.2-8.3.2-2.1 0-3.7.1-4.9.1h-5.3c-.8 0-1.9 0-3.2.1-1.3 0-2.9.1-4.8.2.2 1.8.8 3.2 1.7 4.2.9 1 1.9 1.7 2.9 2.2 1.1.4 2.4.7 3.8.8zm-6.1-12.2c1.4.1 2.6.2 3.6.2s1.8.1 2.4.1c.7 0 1.2.1 1.6.1h1.7c1.1 0 3.2-.1 6.3-.2-.1-2-.6-3.5-1.2-4.5-.7-1-1.4-1.8-2.2-2.3-.9-.5-1.9-.9-3-.9-2.9 0-5.1.7-6.5 1.8s-2.4 3.1-2.7 5.7zM578.7 396.4c.9 0 1.6.1 2.3 0 .7 0 1.3-.1 1.8-.1.6 0 1.1-.1 1.6-.1l2.1-.3c.6-.1 1.3-.2 2-.4s1.4-.3 2.1-.6c-.3.7-.5 1.3-.7 1.8-.2.5-.3.9-.4 1.3-.1.4-.2.7-.2 1 0 .3-.1.7-.1 1.1v3.7c2.3-2 4.3-3.6 5.9-4.7 1.6-1.1 2.9-2 3.8-2.6 1.1-.7 2-1.2 2.6-1.4 1.7-.3 3.1.1 4.4 1.1.5.5 1.1 1 1.6 1.8.5.7.9 1.7 1.3 2.9s.6 2.7.8 4.4c.2 1.7.2 3.7.1 6-.9.1-1.8.2-2.5.3-.7.1-1.4.2-1.9.2-.6.1-1.1.1-1.6.1l-1.8.2c-.6.1-1.4.2-2.3.2-.9.1-2 .2-3.3.3 1.9-1.5 3.1-2.9 3.7-4 .6-1.1.8-2.1.7-2.9-.1-.9-.5-1.6-1.2-2.2-.9-.5-1.8-.7-2.8-.5-.9.1-1.8.5-3 1.1-1.1.7-2.3 1.9-3.6 3.8.1 2.9.2 5.3.3 7.2.1 1.9.2 3.4.3 4.6.1 1.4.2 2.4.3 3.2.1.7.4 1.4.8 2.2.3.6.8 1.3 1.3 2.1s1.4 1.5 2.3 2.3c-2-.1-3.6-.1-4.9 0-.8 0-1.4.1-2 .1-.6.1-1.3.2-2 .3-.6.1-1.4.2-2.2.3s-1.7.2-2.7.4c.4-.5.7-1.1.9-1.7.2-.7.4-1.3.5-1.9.2-.7.3-1.4.4-2.1 0-.6.1-1.6.1-2.8 0-1.3 0-2.7-.1-4.3-.1-1.6-.1-3.3-.2-5-.1-1.7-.2-3.4-.3-4.9-.1-1.5-.3-2.9-.4-4-.2-1.1-.3-1.9-.5-2.4s-.5-1.1-.8-1.6c-.3-.5-.6-1-1-1.6-.5-.7-1-1.3-1.5-1.9zM642.3 390.2c-.4 1-.8 1.9-1 2.7-.3.8-.6 1.5-.8 2.2-.2.7-.4 1.4-.6 1.9-.2.6-.4 1.4-.6 2.2-.2.7-.5 1.6-.8 2.7-.3 1.1-.7 2.3-1.2 3.7-.4-2.2-1-3.9-2-5.2s-1.9-2.3-2.9-3c-1.2-.8-2.4-1.4-3.8-1.8-2.4-.4-4.2-.4-5.3.1-1.1.5-1.8 1.1-2.2 1.9-.2.3-.4.7-.6 1.2-.2.5-.4 1-.5 1.5-.1.5-.1 1-.1 1.5s.2.9.6 1.2c.2.2.8.5 1.8.9.9.4 2.1.8 3.4 1.3 1.3.5 2.7 1 4.3 1.5 1.5.5 2.9 1.1 4.3 1.6s2.5 1.1 3.5 1.6 1.6 1 2 1.5c.3.5.6 1 .9 1.8.3.7.6 1.6.7 2.4.2.9.2 1.8.1 2.7-.1.9-.3 1.8-.8 2.7-.5.9-1.2 1.7-2.1 2.5-1 .8-2.3 1.4-3.9 1.9-1.9.6-3.7.7-5.5.5s-3.4-.7-4.8-1.2c-1.5-.5-2.7-1.1-3.8-1.6-1.1-.5-1.8-.7-2.3-.6-.5.1-1.1.3-1.7.7l-1.8 1.2c-.6.4-1 .8-1.5 1.1s-.6.5-.6.4c0-.1.1-.4.2-.8.2-.4.3-1 .5-1.7s.4-1.4.6-2.2c.2-.8.3-1.5.4-2.3.1-.6.2-1.3.3-2.2.1-.8.2-1.7.4-2.8.2-1.1.3-2.4.6-4 .2 1.2.5 2.2 1 3 .4.9.8 1.6 1.2 2.2.5.7 1 1.3 1.4 1.8.7.6 1.5 1.2 2.4 1.8.9.5 1.9 1 2.8 1.4s1.8.6 2.7.7c.9.1 1.6 0 2.2-.3.6-.3 1.1-.8 1.5-1.5.4-.7.7-1.5.9-2.4.2-.9.2-1.7.2-2.5s-.2-1.4-.6-1.9c-.3-.3-.9-.7-1.9-1.2-1-.5-2.1-1-3.4-1.6-1.3-.6-2.7-1.2-4.2-1.8-1.5-.6-2.8-1.3-4.1-1.9-1.3-.7-2.3-1.3-3.2-1.9-.8-.6-1.3-1.2-1.4-1.7-.1-.7-.2-1.5-.2-2.4 0-.9 0-1.8.2-2.6.2-.9.5-1.7.9-2.5.5-.8 1.2-1.5 2.1-2 .6-.4 1.5-.6 2.5-.8 1-.2 2.2-.3 3.4-.3 1.3 0 2.6 0 3.9.1s2.6.2 3.9.4c1.2.2 2.4.3 3.4.6 1 .2 1.8.4 2.3.6.6.2 1.3.2 2 .1.6-.1 1.3-.4 2-.9 1.2-.2 1.9-1 2.7-2.2z"/></g><path fill="#962D69" d="M541.8 244l1.2-1.9-3.6-2.9-.7.9-.4 1.1 1 .6 1 .6.8.7.7.9"/><path fill="#E9058A" d="M543 242.1l-1.2 1.9 1.9 3.1.4.9 1.7-.8-.6-1.4-.7-1.4-.7-1.3-.8-1M538.7 240.1l.7-.9-2.5-.8-.9-.3h-2.8l-1.9.4 1.7 1.7 2.7.3 2.6.7.4-1.1"/><path fill="#962D69" d="M544.1 253.9l2.3-.5.1-.8v-2.3l-.1-.7-.2-.7-.1-.9-.3-.8-1.7.8.3.7.1.8v2.8000000000000003l-.3.8-.1.8"/><path fill="#E9058A" d="M546.4 253.4l-2.3.5-1.4 2.5-2 2 .3.3 1.5 1.1.3-.2.7-.8.6-.7.4-.8.6-.7.4-.9.3-.7.3-.8.3-.8"/><path fill="#962D69" d="M541 258.7l-.3-.3-.6.3-.4.3-.3.1-.8.2h-.3l-.4.1h-1.8l-.8-.3h-.9l-1.7-.4 1.6 2.8 1 .2h.8l.9-.2h.4l.2-.1h.5l.3-.1h.3l.9-.2.9-.3.9-.4 1.1-.6-1.5-1.1M537.1 255l.8-.6.4-.2.2-.2.6-.6.4-.7.3-.7.2-.4.3-.4.2-.6.1-.6v-.4l.1-.4v-1.1l-.1-.6-.1-.6-.2-.7-.5-.4-.1-.4-.1-.3-.5-.5-.5-.5-.2-.3-.3-.2-.6-.5-.5-.3-.5-.3-.5-.3h-.5l-.5-.1-.5.1h-.5l-.5.3-.6.3-.6.3-.7.4-.4.5-.4.2-.4.4-.2.4-.3.4-.3.2-.1.4-.1.3v.8l.1.4v.3l.1.3.3.4.1.4.4.3.2.4v.5l.2.2.1.4.3.3.1.2.2.1.2.3.2.1.3.2.2.1h.8v-.1h.2l.2-.2.3-.1.2-.3.3-.2.1-.1h.1l.3-.3.1-.2.1-.3.2-.2v-.8999999999999999l-.2-.4-.1-.4-.1-.3-.4-.7-.4-.4-.5-.3-.2-.1h-.5l-.3.1-.3.2-.3.1-.7.3.1-.1.1-.6.2-.4.5-.5.3-.4.9-.4.9-.3h.8l.8.1.6.4.6.4.5.4.4.5.4.7.2.8.1.4v.5l.1.4v.5l-.1.4-.1.5-.1.2-.1.5-.3.3-.2.4-.4.2-.4.2-.4.3-.3.3-1.1.4-.3.1h-.4l-.3.2h-.30000000000000004l-.6.1-.8.2-.4-.2h-.7l-.6-.3-.3-.1h-.2l-1.2 1.6.3.2.5.2.5.3.4.1.5.1h.30000000000000004l.2.2h1.5000000000000002l.5-.2h.5l.5-.1.4-.1h.2l.5-.3.5-.1.6-.2"/><path fill="#E9058A" d="M529.4 263.1l.2-.6.3-.4.1-.3.4-.3.2-.1.4-.1.4-.2h.5l.4.2 2 .2-1.6-2.8h-.7l-.7.1-.8.3-.6.3-.6.3-.7.4-.6.3-.4.7 1.8 2"/><path fill="#962D69" d="M528.5 264.4l.9-1.4-1.7-2-1.1 1.9h-.1v.1l-.7.3-2.3-.7-1.1-.4-1.1-.3-1.1-.3-1.1-.1-1.1-.1h-2.1l-1.1.1-2.6.4-1.6.4-1.5.5-1.5.6-1.5.7-1 .5-1 .6-.9.6-.9.7-.9.7-.7.7-.7 1.1-.7 1-.7 1.1-.3.6-.3.6 2 .7 2 .9 4 1.5 1 .4-.3.6-.3.6-.1.6-.1.7-.1.6v2.0999999999999996l-.1 1.1.4 1.1.4 1 .5 1 .3.5.1.3.1.1.1.1.6.9.6.9.7.7.7.7.7.6.9.6.9.5 1 .5 1 .4h.1l.1.1.3.1.5.3 1.1.4 1.1.4.9.1h.4l.4.1h2.8l.7-.1.7-.1.7-.3.1-.1h.1l.4-.1.7-.3.7-.3.1-.1.1-.1.4-.1.1-.1.1-.1.4-.1.7-.4.7-.4 1.1-1 1-1 .9-1 .9-1.1 4 1.6 4.1 1.6.4-.7.4-.7.3-.7.3-.7.1-.7.1-.7v-2.7l-.1-1.1-.1-.6-.1-.5-.3-1.1-.4-1.1-.4-1.1-.5-1-.5-1-1.7-2.7-4-3.8-1.5-1.1-1.6-1-1.6-.9-1.7-1.6zm-8.6 3.4l1.1-.3 1.1-.1h1l1.1.3.6.1.7.3.7.3.6.4.6.4.6.4.5.5.5.5.5.5.9 1.1.4.5.4.6.3.6.3.7.3.7.1.9v.1l.1 1v2.1l-.1 1.1-.3 1-.4 1-.4 1-.5 1-.6 1-.7.9-.7.7h-.1l-.1.1-.3.1-.4.4-.9.6-.4.1-.1.1-.1.1-.7.4-.7.3-.7.3-.7.3-.7.1-.7.1-.9.1h-2l-.5-.1-.3-.1h-.30000000000000004l-.4-.1-.3-.1h-.2l-.4-.3-.4-.1-.9-.4-.4-.3-.3-.1-.3-.1-.4-.3-.4-.3-.9-.7-.7-.7-.7-.7-.6-.9-.5-1-.4-1-.4-1-.3-1-.1-.5v-1.8l.1-.4.3-.9v-.1l.5-1.4.6-1.3.7-1.1.7-1 .7-.7.7-.6.9-.6.9-.6 1-.5 1-.5 1-.4 1.8-.7"/><path fill="#EC509D" d="M524.5 267.5l-1.1-.3h-1l-1.1.1-1.1.3-1.1.3-1 .4-1 .5-1 .5-.9.6-.9.6-.7.6-.7.7-.7 1-.7 1.1-.6 1.3-.5 1.4v.1l-.3.9-.1.4v1.7999999999999998l.1.5.3 1 .4 1 .4 1 .5 1 .6.9.7.7.7.7.9.7.4.3.4.3.3.1.3.1.4.3.9.4.4.1.4.3h.2l.3.1.4.1h.2l.3.1.5.1h2.1l.9-.1.7-.1.7-.1.7-.3.7-.3.7-.3.7-.4.1-.1.1-.1.4-.1.9-.6.4-.4.3-.1.1-.1h.1l.7-.7.7-.9.6-1 .5-1 .4-1 .4-1 .3-1 .1-1.1v-2.3l-.1-1v-.1l-.1-.9-.3-.7-.3-.7-.5-.1-.4-.6-.4-.5-.9-1.1-.5-.5-.5-.5-.5-.5-.6-.4-.6-.4-.6-.4-.7-.3-.7-.3h-1.1zm5 7.5l.3.5.1.7v1.4l-.1.7-.1.7-.1.7-.3.7-.3.7-1.4 2.5-.5.5-.1.1-.1.1-.3.3-.6.4-.1.1-.1.1-.4.3-.4.1-.4.1-.7.3h-.4l-.4.1-.7.1.4-.3h-1l-.9.1h-1.5.2l-.4-.1h-.2l-.6-.1-.3-.1-.1-.1-.5-.3.1.3-.7-.4-.7-.5-.6-.5-.5-.5-.5-.6-.4-.7-.4-.7-.3-.7-.3-3 .1-.9.1-.9.3-.9.4-.9.5-1 .3-.5.4-.4.5-.7.6-.6.7-.6.4-.3.5-.3.6-.4.7-.4.7-.3.7-.1.7-.3h1.4l.7.1.6.1.6.3.5.3.5.3.5.3.5.4.9.7.4.4.4.5.3.4.3.5.3.5.3.6.1.6v.5"/><path fill="#fff" d="M529.8 275.6l-.3-.6-.1-.7-.1-.5-.3-.6-.2-.4-.3-.7-.3-.3-.3-.6-.4-.3-.9-.8-.4-.3-.6-.3-.4-.3-.6-.1-.5-.2-.6-.1-.8-.2h-.8l-.7.2-.7.1-.7.2-.7.3-.6.2-.8.5-.3.1-.6.3-.7.6-.6.7-.5.8-.4.4-.3.5-.5 1-.3.8-.4.9-.1.9-.2 1 .3 2.9.3.7.2.7.4.8.5.6.6.6.6.6.8.4.9.4-.3-.2.4.4h.3l.2.1h.2l.8.2h.2v.1l.3.1h2.4000000000000004l.4-.1h.5l-.3.3.7-.3h.3l.6-.1.5-.2.5-.1.4-.2.1-.2h.2v-.2h.3l.4-.3.3-.4.2-.1h.2l.3-.5 1.5-2.5.3-.7.2-.8.1-.8.2-.7.1-.7v-.8l-.1-.8v-.7"/><path fill="#E9058A" d="M529.2 254.9l1.2-1.6-2.1-1.8-.7.1-.1.1-.3.2-.7.6 2.7 2.4"/><path fill="#962D69" d="M533 240.2l-1.7-1.7-.9.3-.8.3-.7.4-.6.6-.7.4-.6.6-.5.8-.4.9-.3.3h.3l1.5.8.7-.8.5-.7.6-.6.6-.6.8-.3.7-.4.8-.1.7-.2"/><path fill="#E9058A" d="M527.6 243.9l-1.5-.8h-.3l-.3.5-.3.6-.3.6-.1.6-.2.5-.1.6v1.1l.7-.3.3-.1.1-.1.6-.3.3-.2v-.3h.3l.1-.5.1-.7.3-.6.3-.6"/><path fill="#962D69" d="M527.2 251.9l.3-.2.1-.1.7-.1-.3-.3-.4-.6-.3-.6-.3-.7-.1-.6-.1-.6-.2-.6v-.6l.2-.6h-.3v.3l-.3.2-.6.3-.1.1-.3.1-.7.3.1.6.2.7.1.4.3.7.3.6.3.6.3.7.4.6.7-.6"/><path fill="#E9058A" d="M539.8 292.1l1.9-2.5-4.1-1.6-4-1.6-.9 1.1-.9 1-1 1-1.1 1-.7.4-.7.4-.4.1-.1.1-.1.1-.4.1-.1.1-.1.1-.7.3-.7.3-.4.1h-.1l-.1.1-.7.3-.7.1-.7.1h-2.8l-.4-.1h-.4l-.9-.1-1.1-.4-1.1-.4-.5-.3-.3-.1-.1-.1h-.1l-1-.4-1-.5-.9-.5-.9-.6-.7-.6-.7-.7-.7-.7-.6-.9-.6-.9-.1-.1-.1-.1-.1-.3-.3-.5-.5-1-.4-1-.4-1.1.1-1.1v-2.0999999999999996l.1-.6.1-.7.1-.6.3-.6.3-.6-1-.4-4.5-1.5-2-.9-2-.7-.3.5-.3.6-.3.6-.1.6-.1.6-.1.6-.1.6v1.6l.1.9 1.6 8.7.1 3.8-.1.6-.1.6-.4 1.3-.5 1.3-.4.6-.4.6-.7 1.1-.7 1.1-.9 1-.3.3-.1.1v.1l-.5.5-.7.7-2.1 1.7-5.2 3.3-2.5 1.1-2 .7-2 .9-2 1-2 1.1-.6.4-1.5.9-1.5.9-1.5 1-1.4 1-.9-.7-1.1-1-1.1-.9-2.3-1.5-2.4-1.5-1.3-.6-1.3-.6-1.3 1.3-1.3 1.4-1.1 1.4-.6.7-.5.7 1.9 1.6 7.2 5-1.5 1.7-1.9 3.5-.3.5 1.3.7 1.4.7.6.4h.2l.1.1.4.3 1.4.7 1.4.6.7.3.7.4 1.5.5.7.3.7.3 2.4.7 2.4.7 4.7 1.5 4.7 1.4 4.7 1.3 18.5 4.5 27.4 5.2.5-1.9.7-6 1.9.1 1.9.1 1.9.1 1.7.1 4-.1 1.1-7.8-2.7-.4-1.3-.3-1.4-.1-1.3-.1h-2.6l-1.3.1-1.3.1-1.3.3-.3-.9-.3-.7-.5-1.5-.3-.7-.4-.7-.7-1.5-.3-.4-5.1-8-.1-.1-1.3-2-3-4.8-.4-.7-.4-.7-.3-.9-.1-.7v-1.4l.1-.7.1-.6.3-.7.3-.6.4-.6.4-.5.5-.5.5-.4.5-.4.6-.3 6.6-3.1.3-.1.1-.1h.1l.5-.3 1.1-.5 1-.6 1-.6 1-.7.9-.7.5-.4.5-.4 1.2-.2zm-16.6 24.7l.5.5v.1l-.5.5-.5.5-.6.4-.6.4.3.4.1.5.1.5v1.6l-.3 1.3-.3.7-.3.7-.3.6-.1.3-.1.1-.1.1-.3.3-.3.3-.5.5-.5.4-.3.1-.3.3-.7.1-.7.1h-.4l-.4.1-.9.1-.7-.1-.7-.1-.6-.3-.3-.1-.1-.1h-.1l-.3-.3-.3-.1-.1-.1-.1-.1h-.1l-.3-.3-.3-.3-.3-.3-.3-.4-.1-.1-.1-.1-.5-.9-.3-.4-.1-.4-.1-.5-.1-.4-.1-.4v-1.1l.1-.5.1-.5.3-.5.3-.5.4-.5.4-.5.5-.4.4-.3-.4-1.7.1-.3.4-.3h.4l1.1 1.5.7-.3 2.4-.3-.3-1 .4-1.1.4-.4.5.1.4.4.1.3-.1.3-.1.4.1.3.1.4v.6h.5l2.1 1.4.5-.4.5-.3.5-.3.6-.1.3-.1h.3zm-24.9-5.2l-1.4.7.1.5v1l-.1.6-.1.5-.1.6-.3.6-.3.6-.6 1-1.4 1.5-.5.3-.4.3-.3.1-.3.1-.4.3-.4.1-.4.1h-.4l-.4.1h-.9l-.5-.1h-.4l-.4-.1-.5-.1-.5-.3-.1-.1h-.1l-.3-.1-2.4-2.7-.3-.6-.1-.6v-1.2l.1-.6.1-.6.3-.6.3-.5.3-.6.4-.5.4-.5.5-.4.5-.5.6-.4.6-.4.6-.3v-1.3l.1-.4-.1-.5v-.3l.1-.1.3-.1h.4l.3.1.4 2.1.7-.1h.7l.7.1.7.3 1.1-1.9.3-.3h.5v-.1l.4.5v.3l-1.1 2.4 1.5 1.6 1.5-1.1.1-.1h.3l.3.1.4.5.1.3-.2.8zm-5.3 12.5l.6-.3.6-.1h.6l.6.1.6.1.5.3.6.4.6.5.4.3.4.3.4.3h.1l.1.1.3.1.5.1.3.1h.1l.1.1.5.1h.3l.3.1h2.1l.5-.1h.5l.5-.1.3-.1h.3l2.3-.5.4.1.4.1.3.1.3.1.3.1.1.3.1.1.1.3v1.2999999999999998l-.1.3-.1.4-.3.4-.3.4-.9.6-.3.3-.4.4-.7.5-.1.1-.1.1-.4.3-.4.1h-.2l-.3.1-.9.3h-.4l-.5.1h-.9l-.6-.1h-1.1l-.6-.1-.6-.1-1.3-.4-.6-.3-.3-.1-.3-.1-.5-.4-.5-.4-.3-.3v-.5h-.2l-.5-.4-.5-.4-.5-.4-.9-1-.4-.5-.3-.4-.1-.5-.1-.5v-1l.1-.5.4-.3"/><path fill="#fff" d="M523.7 317.2l-.5-.5h-.5l-.3.1-.6.1-.5.3-.5.3-.5.4-2.1-1.4h-.5v-.6l-.1-.4-.1-.3.1-.4.1-.3-.1-.3-.4-.4-.5-.1-.4.4-.4 1.1.3 1-2.4.3-.7.3-1.1-1.5h-.3.3l-.4.3-.1.3.4 1.7-.4.3-.5.4-.4.5-.4.5-.3.5-.3.5-.1.5-.1.5v1l.1.4.1.4.1.5.1.4.3.4.5.9.1.1.1.1.3.4.3.3.3.3.3.3h.1l.1.1.1.1.3.1.3.3h.1l.1.1.3.1.6.3.7.1.7.1.9-.1.4-.1h.4l.7-.1.7-.1.3-.3.3-.1.5-.4.5-.5.3-.3.3-.3.1-.1.1-.1.1-.3.3-.6.3-.7.3-.7.3-1.3v-2l-.1-.5-.1-.5-.3-.4.6-.4.6-.4.5-.5.5-.5-.2.4zm-11.1 5.9l.1-.7.3-.6.3-.6.4-.5.4-.5.5-.4.5-.4.6-.3.4-.3.4-.1h.6l.4.1.4.3.4.3.4.3.3.3.3.4.1.3.1.4.1.3v1.2000000000000002l-.1.4-.1.5-.1.4-.1.5-.1.3-.1.1-.1.3-.1.3h-.1l-.1.1-.3.1-.4.3-.5.1h-1.6l-.3-.1h-.4l-.1-.1-.3-.1-.5-.3-.3-.3-.3-.1-.4-.4-.6-1.5"/><path fill="#E9058A" d="M515.7 319.1l-.6.3-.6.4-.4.3-.5.5-.2.5-.4.7-.2.6-.2.7.9 1.1.3.4.2.3.3.1.4.3.3.2h.1l.1.1h.3l.3.2h1l.6-.2.3-.3.3-.2.1-.1.3-.2.1-.2v-.4l.2-.2.3-.5.1-.4.1-.5v-.4l.2-.3v-.4l-.2-.4v-.2l-.1-.4-.3-.3-.3-.3-.1-.3-.3-.2-.4-.3-.3-.2-.4-.1h-.6000000000000001l-.4.1-.3.2"/><path fill="#fff" d="M496.9 312.4l1.4-.7.6-1.1-.1-.3-.4-.5-.3-.1h-.3l-.1.1-1.5 1.1-1.5-1.6 1.1-2.4v-.3l-.4-.5v.1h-.5l-.3.3-1.1 1.9-.7-.3-.7-.1h-.7l-.7.1-.4-2.1-.3-.1h-.4l-.3.1-.1.1v.3l.1.5-.1.4v1.3l-.6.3-.6.4-.6.4-.5.5-.5.4-.4.5-.4.5-.3.6-.3.5-.3.6-.1.6-.1.6v1.2l.1.6.3.6 2.4 2.7.3.1h.1l.1.1.5.3.5.1.4.1h.4l.5.1h.9l.4-.1h.4l.4-.1.4-.1.4-.3.3-.1.3-.1.4-.3.5-.3 1.4-1.5.6-1 .3-.6.3-.6.1-.6.1-.5.1-.6v-1l-.5-.2zm-3.2 3.5l-.4.6-.3.5-.4.4-.5.4-.6.1h-.3l-.3.1h-1.5l-.3-.3-.3-.1-.5-.3-.3-.3-.1-.1-.1-.3-.1-.3-.3-.5-.1-.4-.1-.4v-.8l.1-.4.1-.5.3-.4.3-.4.3-.4.4-.4.4-.3.5-.4.5-.3.5-.1h.6l.5.1.4.1.4.1.4.3.3.3.3.3.3.3.3.4.1.3.1.4v1.2000000000000002l-.1.4-.5 1.1"/><path fill="#E9058A" d="M489.5 317.9h.30000000000000004l.4.2h.6l.4-.2h.3l.6-.1.4-.4.5-.3.4-.7.3-.5.2-1v-.4l.2-.4v-.3l-.2-.4v-.3l-.2-.3-.2-.3-.1-.2-.3-.3-.3-.2-.3-.2-.4-.3-.6-.2h-1.4l-.6.5-.4.4-.4.1-.3.4-.4.3-.2.5-.2.4-.1.4-.1.4v1.3l.2.3.1.6.1.1.3.3h.2l.2.3.3.3.4.1.3.1"/><path fill="#962D69" d="M497.7 325l-.6-.5-.6-.4-.5-.3-.6-.1-.6-.1h-.6l-.6.1-.6.3-.1.5-.1.5v1l.1.5.1.5.3.4.4.5.9 1 .5.4.5.4.5.4h.2l.1.1.3.3.5.4.5.4.3.1.3.1.6.3 1.3.4.6.1.6.1h.7l.6.1h.9l.5-.1h.6l.9-.3.3-.1h.2l.4-.1.4-.3.1-.1.1-.1.7-.5.4-.4.3-.3.6-.7.3-.4.3-.4.1-.4.1-.3v-1 .1l-.1-.3-.1-.1-.1-.3-.3-.1-.3-.1-1-.2-.4-.1-.4-.1-2.3.5h-.3l-.3.1-.5.1h-.4l-.5.1h-1.8.1l-.3-.1h-.3l-.5-.1-.1-.1h-.1l-.3-.1-.5-.1-.3-.1-.1-.1h-.1l-.4-.3-.4-.3-.1-.3zm-3 .3l.6-.1.3.4.3.4.1.1.1.1.1.1.3.4.3.3.1.1.1.1.7.5.7.4.7.3.5.1.5.1 1 .1h2.9000000000000004l.7-.1.4-.1h.4l1.4-.3.3.3v.3l-.7.5-.7.4-.7.3-.7.3-.9.1h-2.8l-.9-.3-.4-.1-.4-.1-.7-.3-.1-.1h-.2l-.4-.1-.6-.4-.4-.3-.1-.1-.1-.1-.6-.5-.6-.5-.4-.5-.1-.4-.1-.5.1-.8"/><path fill="#E9058A" d="M495.4 325.2l-.7.1v.9l.2.4.3.5.6.5.7.5v.1l.2.1.4.3.6.4.4.1h.1v.1l.3.1.7.3.3.1.4.2.7.1h.8999999999999999l.1.1h.9l.4-.1h.5l.8-.1.7-.3.7-.4.8-.3.8-.6v-.1l-.5-.2-1.3.2h-.4l-.2.1-.8.2h-.7l-.8.1h-1.3l-1-.1-.6-.2-.3-.1-.8-.2-.8-.4-.8-.5-.1-.1-.1-.1-.2-.3-.4-.4v-.1h-.2l-.1-.1-.3-.4-.1-.4"/><path fill="#5DC1AF" d="M545.8 308.2l-.4-1.2-.7-1-.7-1-.9-.8-1-.7-1-.6-1.1-.4-1.3-.4-1.4-.1-1.4-.1-1.5-.2h-1.4l-1.5.2-1.3.1-1.6.2-1.3.3-1.2.4-1.2.3-1.1.5-1.1.6-.4.2-.2.7v.7l-.2.7.2.7v.8l.2.9.4.7.4.9 3 4.8.4-.3.7-.2.4-.2.6-.4.4-.3.4-.6.5-.4.4-.7.3.5.3.6.3.6.4.4.2.4.5.5.7.8h.30000000000000004l.4.3h.2l.2.1h.8999999999999999l.4-.1.6-.3.7-.3.3-.4.4-.5.3-.6.2-.6v-.6l.1-.8 3.4 2.8h.1l.3.2.2.1h.1l.1.1h.7l.2.2.1-.2h.3l.3-.1h.1v-.1h.2l.3-.2.2-.2.2-.1.3-.4.4-.3.3-.4.1-.4.6-.8.3-.7v-.5l.1-.3v-.6l-.1-.3-.2-.9-.4-1"/><path fill="#5CA3D2" d="M556.3 337.1l.1-.5.1-.3v-.3l-.1-.3-.1-.4-.3-.2-.2-.3-.4-.1-.9-.6-.7-.4-1.7-.7-.9-.4-1-.2-.9-.2-1-.1-.4-.1-1 7.8 6.9-.8.5-.2.5-.1.4-.3.3-.1.3-.3.2-.3.2-.4.1-.2"/><path fill="#EC509D" d="M531.7 353.1l.9-1.8-21.2-3.7-18.4-3.8-4.4-1-1.1-.3-.2-.1h-.3l-.6-.1-2.1-.5-4.4-1.1-4.4-1.3-1-.3-1-.3-2.2-.7-2.1-.7-2.1-.6-2.3-.7-.4-.3-.6-.1-1.1-.4-2.1-.7-2-.7-1.5-.6.2 3.5 2 1 1.8.9 2 .7 1 .6 1 .3 2.1.7 2 .7 1 .2.6.2h.5l1 .3.5.1.7.2 8.6 2 8.9 2.4 4.4 1 4.4.8 2.2.3 2.3.6 1.1.1.5.1.6.1 2.2.4 1.4.3h.6l.4.1h.4l2.6.3 2.7.4 2.7.4 5.4.5 2.7.3 2.8.2 1.3.1"/><path fill="#962D69" d="M529.9 355.6l1.8-2.5-1.3-.1-2.8-.2-2.7-.3-5.4-.5-2.7-.4-2.7-.4-2.6-.3h-.4l-.4-.1h-.6l-1.4-.3-2.2-.4-.6-.1-.5-.1-1.1-.1-2.3-.6-2.2-.3-4.4-.8-4.4-1-8.9-2.4-8.6-2-.7-.2-.5-.1-1-.3h-.5l-.6-.2-1-.2-2-.7-2.1-.7-1-.3-1-.6-2-.7-1.8-.9-2-1 .8 3.9 9.1 3 9.1 2.9 9.1 3 9.1 3 3.4 1 3.4.9 3.3.8 1.7.3.9.3h.2l.2.1.4.1 1.7.2 1.7.4 1.7.3 1.7.3 1.7.3.9.1.8.2 3.5.4h2.0999999999999996l.7.1.7-.1h2.0999999999999996l2.6-2.7M532.6 351.3l1.9-4.2-27.3-5.2-18.5-4.6-4.8-1.2-4.6-1.3-4.8-1.5-2.3-.7-2.3-.6-.8-.4-.7-.3-1.6-.4-.7-.3-.7-.4-1.4-.6-1.5-.6-.2-.3-.3-.1h-.2l-.7-.4-1.2-.7-1.3-.9-.3.9-.4.8-.2.9-.2 1-.1.8-.3 2.3 1.5.6 2 .7 2.1.7 1.1.4.6.1.4.3 2.3.7 2.1.6 2.1.7 2.2.7 1 .3 1 .3 4.4 1.3 4.4 1.1 2.1.5.6.1h.3l.2.1 1.1.3 4.4 1 18.4 3.8 21.2 3.7"/><path fill="#EC509D" d="M460.3 345.5l3.2 1.3 3.2 1.3 1.7.5 1.7.6 1.6.7 1.8.5 5 1.4 5 1.4 5.1 1.7 4.9 1.6 2.6.7 2.4.7 2.3.5 1.2.3 1.2.3 1.2.1.6.1.6.1 1.3.3h.6l.5.3h1.3l1.2.2 1.2.1 1.3.1 2.4.3 2.1.4 2.3.3 2.1.5 5.4-3.5h-2.0999999999999996l-.7.1-.7-.1h-2.0999999999999996l-3.5-.4-.8-.2-.9-.1-1.7-.3-1.7-.3-1.7-.3-1.7-.4-1.7-.2-.4-.1-.2-.1h-.2l-.9-.3-1.7-.3-3.3-.8-3.4-.9-3.4-1-9.1-3-9.1-3-9.1-2.9-9.1-3 1.5 3.7.7 1.1"/><path fill="#962D69" d="M473.5 350.4l-1.7-.5-1.6-.5-1.7-.6-1.6-.6-3.3-1.3-3.1-1.4 1.3 2.3v.3h.3l.5 1.1-2.3 1.5-1.1.9-1 1-1 .9-1 1-1.7 2.1.6 1 .7 1 .7.9.7 1 .9.9.9.9.5.4.1.1.1.1.3.3 1 .7 9.8-7.4 1.6 1 1.7 1 1.7.9.9.4.9.5.9.4.9.4.5.1.5.3.9.4 1.9.7 1.9.7 2.7.7.6.1h.30000000000000004l.4.1 1.4.4 2.8.6 1.4.3.7.1h.4l.4.1h.6l.6.1h.6l.6.1 1.1.1 1.1.1h4.300000000000001l2.7-.4.5 2.6.6 2.7.9 2.7h2.8l1.4-.1.4-.1h1.1l.6-.1.6-.1 1.4-.3.6-.3.6-.1 1.4-.4-.3-1.1-.3-1-.4-1-.4-1-.4-1-.5-1-.7-1.1-.5-.9 4.7-2.3-2.1-.5-2.3-.4-2.3-.4-2.4-.3-1.3-.1-1.3-.1-1.3-.1-1.3-.1-.6-.1-.6-.1-1.3-.1-.6-.1-.6-.1-1.3-.1-1.3-.3-1.3-.3-2.4-.6-2.4-.6-2.4-.6-5-1.7-5.1-1.6-5.1-1.5-4.1-1.6zm38.9 12.7l.1-.3h.5l-.6.3"/><path fill="#5CA3D2" d="M518 382.2l.2-.1h.30000000000000004l.6-.2.4-.3.3-.3.3-.4.3-.6.1-.2v-.8999999999999999l.3-2.7-.4-4.4-1.4.5-.6.2-.9.1-1.3.3-.6.2-.8.1h-1l-.3.1-1.4.2h-2.7l.5 1.2.6 1.2.6 1.3.8 1.3.8 1.1.7.6.2.2.4.3.7.5.9.4.5.1.6.1.7.1h.6"/><path fill="#5DC1AF" d="M496.5 296.4l.3-.6.4-.7.5-1.2.4-1.2.1-.6.1-.6-.5-1.1-.5-.9-.4-.4-.4-.4-.6-.7-.8-.7-.9-.6-1.1-.6-1-.4-2.1-.1-1-.2-1 .2-2 .2-1 .2-1 .3-.9.2-.8.5-1.9.8-.9.5-.9.5-.7.6-.9.7-.5.4-.3.6-.4.6-.3.4v.7l-.2.6v.7l.2.5v.5l.1.5.2.3.4.3.3.3h.1l.2.1h.1l.4.2.6.1h1.1l1-.1h1.2l1.1-.2 1-.2 1.1-.3 1.1-.2.5-.1.5-.2-.2.6-.3.3-.1.4-.2.5v1.1l.2.6.4.7.3.5.7.4h1v-.1h.8l.4-.1h.2l.7-.3.6-.2.5-.2.6-.3-.1.6.1.4v.2l.3.6.7-.7.4-.5v-.1l.2-.1h.1l.3-.3.8-1 .8-1.1.8-1.1"/><path fill="#5CA3D2" d="M451.8 306.6l-.5-.2h-.5l-.5.2-.3.3-.4.2-.1.3v.4l-.2.6v1l.2.4v.3l.3.5.5.7.6.8.7.7.8.7.8.8.4-.8.6-.7 1.2-1.5 1.1-1.3 1.4-1.3-4.7-2-1.4-.1M450.5 364.4v.7l.1.3.3.3.1.1.4.2h.2l.6.1h2.6999999999999997l.1-.1h.2v.1l.4-.1h.1l.2-.2h.2l.5-.1.5-.2.2-.1h.1l.2-.1.3-.2h.2l.3-.1h.2l.5-.4.3-.2h.1l.1-.1 1.1-.7-.8-.9-.3-.3-.1-.1h-.1l-.5-.3-.9-.9-.7-.9-.8-.9-.9-1-.7-1-.6-.8-1.9 2.4-.4.5-.4.7-.3.7-.3.8-.2.6-.2.8-.1.7v.7"/><path fill="#f69" d="M257.6 194.1l-.8.1-.8.5-.7.4-.7.6-.8.7-.4.9-.4.9-.1.6v4.1l.2 1.2.5 2.4.7 2.4 3.4 8.3.8-.5.9-.4 1.6-1 3.3-1.9.1-.2.2-.1.5-.2.7-.7 1.7-1 1.6-1 1.6-1.1-2.4-5-1.1-1.8-.6-.8-.4-.7-1.2-1.5-1.3-1.3-1.4-1.2-.8-.7-.7-.4-1.6-.9z"/><path fill="#6c9" d="M257.7 217.2l3.9 8.1 1.5-.7 1.4-.8.8-.5.8-.4 1.5-.9 1.5-1 .7-.6.7-.6 1.5-1.1 1.4-1.3.8-.7-3.5-7.6-1.6 1.1-1.6 1-1.7 1-.7.7-.5.2-.2.1-.1.2-3.3 1.9-1.6 1-.9.4z"/><path fill="#F46E1D" d="M385 63.3l-1-1.7-1-1.5-1.1-1.4-1.1-1.3-.8-.5-.6-.5-.7-.5-.6-.5-1.4-.9-.7-.4-.6-.4-1.5-.7-1.5-.5-1.7-.5-1.7-.4-1.7-.3-.9-.1h-2.4l-1 .1-.9.2-2.4.2-2.2.4-2.1.5-2 .9-2 1-1.7 1.2-1.7 1.5-1.6 1.7-1.9 2.2-.9 1.1-.8 1.2-1.5 2.4-.6 1.2-.5 1.4-1 2.5-.4 1.3-.4 1.4-.7 2.6-.3 2.9-.1 2.4.2 2.4 2.5 6.5 1 1 1 .9 1 .9 1.1.8 1 .8 1 .7 2.2 1.4 1 .5 1.1.5 2.3.9 2.3.6 2.4.5 2.4.3 2.4.1 2.4-.2 1.2-.2 1.2-.2 1.2-.3 1.2-.4 1.2-.4 1.3-.4 1.2-.5 1.3-.5 1.3-.5 1.4-.5 5.7-3 1.7-2.3 1.7-2.2 1.5-2.2 1.4-2.1.4-2.7.2-2.6v-2.5999999999999996l-.4-2.6-.6-2.7-.8-2.6-.5-1.4-.4-.7-.2-.4-.1-.4-.5-1.4-1.2-1zm-23.4-10l1.7-.1h.8l.8.1 1.5.3 1.6.4 1.4.4 1.4.5 1.2.6 1.2.7 1.1.8.5.4.5.5 1 1 1 1.1.8 1.2.8 1.4.7 1.5.4.8.4.9.3.7.1.4.2.4.3.8.1.4.2.4.3 1.5.3 1.5.1 1.5-.1 1.5-.1.7-.1.4-.3 1.5-.1.2-.1.2-.1.4-.2.7-.1.2-.1.2-.1.4-.3.7-.6 1.3-.6 1.3-.9 1.2-.5.5-.2.2-.1.2-.2.4-.4.3-.2.2-.2.1-.5.5-1.2 1.2-.4.2-.2.1-.1.2-.5.4-1 .8-.4.2-.3.2-.5.4-1 .6-1.1.5-.4.1-.2.1-.1.1-.5.3-1.1.4-.4.1-.3.1-.5.2-1.2.2-1.1.2-1.2.1-1.1-.1-1.2-.2-1.2-.3-1.2-.4-1.2-.4-1.5-.5-1.4-.6-1.4-.7-1.2-.8-1.2-1-1-1-1-1.2-.8-1.3-.7-1.2-.5-1.2-.9-2.4-.4-1.2-.3-1.1-.2-1.2v-1.1l-.1-1.2.2-1.2.2-1.2.4-1.2.4-1.2.5-1.2.5-1.2.6-1.2.8-1.4.9-1.3.3-.7.4-.5.7-1.3.9-1.1.9-1 1-.9 1.1-.8 1.2-.6 1.3-.5 1.4-.4 1.7-.8 2.2-1.3z"/><path fill="#fff" d="M380.3 65.7l-.4-.8-.4-.8-.7-1.5-.8-1.4-.8-1.1-1-1.2-1-1.1-.6-.5-.4-.3-1.1-.9-1.3-.8-1.2-.6-1.3-.5-1.4-.4-1.5-.2-1.4-.3-.9-.1h-.8l-1.7.1-2 .5-1.7.8-1.4.4-1.3.5-1.2.6-1.1.8-1.1.8-.9 1-.8 1.1-.7 1.3-.5.6-.2.6-.9 1.4-.8 1.4-.6 1.1-.6 1.2-.4 1.2-.5 1.2-.3 1.3-.1 1.1-.2 1.2.1 1.2v1.2l.1 1.2.2 1.1.4 1.1.9 2.3.5 1.1.8 1.3.8 1.2.9 1.2 1.1 1 1.2 1.1 1.2.9 1.2.8 1.5.6 1.5.5 1.2.3 1.3.4 1.2.2h4.699999999999999l1.3-.2.4-.2.2-.1.4-.1 1.1-.3.6-.2v-.1l.2-.1h.3l1.1-.6 1-.6.6-.3.2-.2h.3l1-.9.7-.3v-.2l.1-.1.3-.2 1.2-1.2.5-.5.1-.2.2-.2.3-.2.2-.3.1-.1.1-.2.6-.5.9-1.3.6-1.3.7-1.3.1-.6.1-.3.1-.1.1-.2.3-.8.1-.2v-.2l.1-.2.2-1.4v-.7l.2-.7.1-1.5-.1-1.3-.2-1.6-.3-1.5-.2-.4-.1-.4-.2-.8-.2-.3v-.5z"/><path fill="#c30" d="M337.2 83.6l.2 1.7.1 1 .4.9.6 1.8.7 1.7.8 1.5 1 1.7 1.1 1.5.6.7.8.7 1.8 1.8 2 1.5.9.8 1.1.7 2.2 1.3 2.1.8 2.4.7 1.1.4 1.3.2 1.2.2 1.3.2.4 1.8.4 1.9.6 2 .7 2 .6 1.2.5.8.5.6 1.1.9.7.5.6.4 4.9 3.2h1.5l.4.1h2l1.8-.1 1.9-.2-4-3.1-1.2-1-1.2-.9-1.2-1.1-1.1-.9-1.1-1.2-1-1.1-1-1.1-.8-1.1-.7-3.6 1.5-.2.7-.1.7-.1.7-.1.7-.2 1.5-.4.5-.2.4-.1.4-.1 1.2-.6 1.3-.5 1.2-.7.5-.5.1-.1h.2l.3-.3 1.1-.7 1.1-1 1-.9.9-1.1 1-1.2.7-1.2.8-1.2 1.2-2.5 1.1-2.2.8-2.4.7-2.2-1.2 2.1-1.5 2.1-1.7 2.3-1.6 2.2-5.8 2.8-1.3.7-1.3.6-1.3.5-1.2.4-1.3.4-1.2.4-1.3.2-1.2.3-1.1.2-1.3.1-2.4.2h-2.3l-2.4-.4-2.2-.5-2.4-.6-2.2-1-1.1-.5-1-.5-2.2-1.4-1.1-.7-1-.7-1.2-.9-1-.8-1-1-.9-1z"/><path fill="#F46E1D" d="M379.5 120.5l-1.8.1-1.8.1h-1.9l-.5-.1h-1.4l.4.5 1.7 1.5 1.7 1.7 1.5 1.7 1.5 1.8 1.2 1.7 1.1 1.9 1 1.9.9 2 .6 2 .5 2.1.4 2.2.4 2.3.1 2.3v2.4l-.3 2.4-.4 2.4-.7 1.4-.4.7-.4.7-.8 1.4-.7 1.4-.9 1.3-.8 1.3-.9 1.3-1 1.3-1 1.1-.5.5-.5.5-.6.4-.4.3-.3.3-.6.4-.4.2-.2.1-.1.2-.2.1-.2.1-.4.2-.6.4-1.3.5-1.5.4-.8.1-.7.2-1.8.1h-1.7l-1.7-.2-1.5-.3-1.5-.4-1.5-.5-1.4-.6-1.2-.7-1.2-.9-1.1-.9-1-1.1-.9-1.2-1-1.4-.8-1.4-.7-1.5-.5-1.7-.8-2.5-.3-1.3-.1-1.2-.1-1.2.1-1.1.4-2.3.6-2.2 1.1-2.1.6-1 .8-1 1.7-1.8 1.2-1 1.4-.9 1.1-.6 1.2-.5 1.1-.4 1.1-.3.5-.2.5-.1h1.5l.5.1.5.1.5.2.9.4.4.2.5.3.8.5.8.7.7.8.7.9.4.5.4.5.6 1.1.4.9.4.9.4.9.3.9.1.9.1.9v.8l-.1.9-.3.7-.1.2-.1.1v.2l-.1.4-.3.4-.1.2-.1.1v.2l.5.3-.5.6-.4.4-.2.2-.1.3-.6.7-.4.4-.4.4-.5.3-.4.3-.4.2-.4.2-1-.1-.8-.1-.8-.2-.6-.2-.6-.3-.5-.3-.5-.4-.4-.4-.4-.5-.4-.6-.3-.5-.1-.5-.1-.7v-.7l.1-.7.2-.8.4-.2.5-.1.4-.2.4-.2.4-.3.4-.2.3-.3.4-.3.1-.2.1-.2.1-.2.1-.2.1-.4.1-.2.1-.2v-.7l.1-.2-.1-.4v-.4l-.3-.7-.3-.5-.4-.5-.4-.4-.4-.3-.5-.3-.5-.2-.6.1h-.9l-.8.1-.7.2-.6.3-.6.3-.5.4-.5.4-.4.4-.5.4-.4.5-.5 1.2-.3.6-.2.7-.1.8v.9l-.3.7.1 1.1.1 1 .3 1 .3 1 .4.9.4.9.5.9.5.7.6.7.7.7.9.6.9.5 1 .5 1 .5 1.2.4.9.3.5.1.5.2.9.2h.5l.5.1.4-.1h.5l.9-.1.8-.3.4-.2.5-.1.7-.4.1-.1.1-.1.2-.1.4-.2.7-.5.2-.2.3-.2.4-.3.4-.4.2-.2.2-.2.7-.7.6-.8.4-.4.1-.2.1-.1.2-.2.8-1.4.6-1.3.5-1.4.5-1.3.4-1.4.3-1.3.1-1.4.1-1.3-.2-1.4-.3-1.3-.4-1.4-.4-1.3-.6-1.4-.7-1.3-.8-1.4-.9-1.3-.8-1.1-.8-.9-.9-.8-.9-.7-1-.6-1-.5-.5-.3-.5-.2-1.1-.4-1.7-.4-1.7-.3-1.7-.1-1.5.1-1.5.1-1.5.3-2.1 1.2-1.4.5-1.4.5-1.3.7-1.2.9-1.2 1-1.2 1-1 1.2-1 1.4-1 1.5-.6 1-.5 1-.9 2.2-.5 2.3-.2 2.4-.1 2.2v1.1l.1 1.1.3 2.2.5 2.2.3 1 .4 1 .7 2.1.9 2 1 2 .5.8.5.9 1.2 1.6 1.3 1.5.6.7.8.7 1.5 1.2 1.7 1.1 1.7.9.9.4 1 .4.8.4-2.8.2-2.6.4-2.6.5-2.5.7 1 2 1 2 .8 2.1.7 2.1.5 2.1.4 2.1.3 2.2.1 2.2-.1 2.1-.2 2.2-.4 2.2-.5 2.3-.7 2.2-.8 2.4-1 2.4-1 2.4-.5.7-.4.7-.5.6-.5.7-.2 1.3-.2-.1-.1.1-.1.2-.5.6-.4.3h-.1l-.1.1-.1.2-.5.5-1.2 1-.6.4-.6.4-.7.4-.6.4-1.5.5-2.5.7-2.5.6-2.5.5-2.5.4-2.5.4-2.5.4-1.3.1-1.2.2-2.5.3-2.5.1h-2.5l-2.5-.1-2.5-.2-2.5-.3-2.5-.3-2.5-.4-2.5-.5-11.6 27 2.2 2.5 2.3 2.6 2.2 2.7 2.2 2.8 2.1 2.8 2.1 2.9 2.1 3 2.1 3 .8 1.2.9 1.2.9 1.1 1 1.2 1.5-1 1.5-1 1.5-1.2 1.5-1.2 1.5-1.4 1.5-1.5 1.5-1.7 1.5-1.7 1.7-2.2 1.7-2.1 1.6-2.1 1.5-2.1 19.3 18.5 1.5-1.2.8-.7.8-.6 1.5-1.4 1.5-1.4 1.5-1.5 1.5-1.5.6-.9.7-.8.4-.5.4-.4.7-.8 7.4-9.8 1.3 1.5 1.5 1.6 1.5 1.7 1.7 1.7 1.7 1.7 1.9 1.9 2 1.9 2.1 2.1 2.1 1.8 2.3 1.7 2.3 1.7 2.4 1.6 10.7-21.8 4.1 4.4 2.1 2.2 2.3 2.2 4.5 4.3 4.6 4.2 7.2 6.3 6.5-27.8 1.3 2.1 1.5 2.2 1.5 2.2 1.7 2.3 13.9 18.5v-18.5l.7.8.9.9 1 .8 1 .9-6.7-18-2.4-5.5-2.4-5.3-2.5-5.3-2.6-5.2-1.5-2.5-2 1-2.1 1-1.9.8-1.8.7-1.8.6-2.5.5-1.7.5-1.7.4-1.7.4-1.7.4-1.1-.2-1.7.1-1.6-.1-1.5-.1-1.5-.3-1.5-.3-1.5-.4-1.5-.4-1.5-.5-1.4-.5-1.4-.7-1.4-.7-1.4-.9-1.3-.9-1.2-1-1.2-1-1.2-1.2-1.1-1.2-1.1-1.3-1.1-1.4-1-1.5-1-1.5-1-1.7-1-1.7-.9-1.7-.6-1.6-.6-1.6-.5-1.6-.3-.9-.2-.8-.3-1.6-.2-1.6v-1.6l.1-1.7.2-1.6.3-1.7.5-1.6.5-1.7.6-1.6.8-1.7.9-1.6.9-1.7-14-2.6 1.1-.5 1.2-.5 1.1-.6 1.2-.7 1.1-.8 1.1-.9 1.1-1 1.1-1 .5-.6.5-.5 1-1.2.9-1.3.9-1.2.8-1.3.4-.7.4-.6.6-1.4.6-1.4.5-1.5.5-1.5.2-.8.3-.7.2-.8.2-.7.1-.8.2-.8.2-1.5.1-1.5.1-1.5-.1-2.1-.2-1.9-.3-1.9-.4-1.7-.5-1.8-.5-1.7-.5-1.7-.6-1.7-.8-1.7-.9-1.5-1-1.5-1-1.5-1.2-1.5-1.2-1.4-1.3-1.4-.3-1.5zm-12.5 80.2l1.3.3 1.3.4 1.2.4 1.1.5 1 .5 1 .7.9.7.9.9.8.9.7 1 .6 1 .6 1.1.5 1.1.5 1.3.4 1.3.4 1.5.3 1.9.3 1.9.1 1.9.1 2-.1 2-.2 2-.3 1.9-.4 2-.4 1.1-.2.5-.2.5-.4 1.1-.4 1.1-.5 1-.4.5-.2.3-.1.4-.2.3-.2.3-.4.5-.6 1-1.4 1.5-.7.6-.6.5-.7.5-.7.5-.4.2-.3.1-.1.1-.1.1-.7.4-.8.3-.8.3h-.4l-.2.1-.4.1-.8.1h-.9l-.2-.1h-.4.1l-.9-.1-.5-.1-.4-.1-.9-.3-.8-.3-1.6-.6-1.5-.7-1.4-1-1.3-1.1-.6-.6-.5-.6-1-1.4-.9-1.5-1.1-2.4-.5-1.2-.5-.9-.6-2.4-.4-2.4-.2-2.5.1-2.5.1-1.3.3-1.2.3-1.3.4-1.2.4-1.5.5-1.5.5-1.4.7-1.3.7-1.3.8-1.1.9-1.1 1-1 1-1 1.1-.9 1.2-.8 1.4-.6 1.3-.6 1.5-.5 1.5-.5 1.6-.3z"/><path fill="#c30" d="M380.2 214.4l-.4-1.5-.4-1.3-.5-1.3-.5-1.1-.6-1.1-.6-1-.7-1-.8-.9-.8-1-.9-.7-1-.7-1.2-.5-1.1-.5-1.2-.4-1.3-.4-1.3-.3-1.7.4-1.5.5-1.5.5-1.3.6-1.4.6-1.2.8-1.1.9-1 1-1 1-.9 1.1-.8 1.1-.7 1.3-.7 1.3-.5 1.4-.5 1.5-.4 1.5-.4 1.2-.3 1.3-.3 1.2-.1 1.3-.1 2.5.2 2.5.4 2.4.6 2.4.4 1.1.5 1.2 1.1 2.4.9 1.5 1 1.4.5.6.6.6 1.3 1.1 1.4 1 1.5.7 1.6.6.8.3.9.3.4.1.5.1.9.1h.7999999999999999l.2.1h.9l.8-.1.4-.1.2-.1h.3l.8-.3.8-.3.7-.4.1-.1.1-.1.3-.1.4-.2.7-.5.7-.5.6-.5.7-.6 1.4-1.5.6-1 .4-.5.2-.3.2-.3.1-.4.2-.3.4-.5.5-1 .4-1.1.4-1.1.2-.5.2-.5.4-1.1.4-2 .3-1.9.2-2 .1-1.9.1-2-.1-1.9-.3-1.9-.6-2.2zm-14.8-7.3l2.3-.5.9.4.9.4.9.4.9.5.8.5.7.5.6.7.6.7.5.7.5.9.5.9.5 1 .4 1 .4 1 .3 1.1.3 1.2.2 1.7v.7l.1.3.1.9-.1 1.7-.1.9-.1 1-.2.8-.1.4-.1.1v.5l-.5 1.7-.6 1.7-.4.9-.4.9-.5.9-.4.4-.1.1-.1.2-.1.3-.6.8-.4.4-.2.2-.1.3-.3.2-.2.2-.4.4-.6.5-.7.5-.2.1-.1.1-.1.1-.4.3-.8.4-.4.2-.4.2-.8.2-.8.2h-.9l-.9-.1-.5-.1-.2-.1h-.30000000000000004l-1 .1-1-.4-1-.5-.9-.7-.8-.8-1-1.4-.9-1.3-.8-1.4-.5-1.3-.5-1.4-.4-1.4-.4-1.4-.2-1.4-.2-1.5-.1-1.5.1-1.5.3-1.5.3-1.5.5-1.5.5-1.5.6-1.5.6-1.4.8-1.2.9-1 1-.8.5-.4.6-.4 1.3-.5.6-.3.8-.2 2-1z"/><path fill="#fff" d="M367.6 206.5l-2.2.6-1.7.2-.7.2-.7.2-1.3.5-.6.4-.5.4-1.1.9-.9 1.1-.7 1.1-.7 1.4-.6 1.5-.4 1.5-.6 1.6-.2 1.4-.2 1.5-.1 1.4.1 1.5.1 1.4.2 1.4.4 1.4.3 1.3.6 1.4.5 1.3.9 1.4.8 1.2 1 1.4.8.9.9.7.9.6 1.1.4.9.2h.4l.1.1.6.1h1.7000000000000002l.9-.2.8-.2.4-.1.4-.1.8-.4.4-.1v-.1l.1-.1.1-.1.8-.5.6-.6.4-.4.1-.1.2-.1.1-.2.2-.2.3-.4.5-.7.2-.3.1-.1.1-.1.3-.4.6-1 .3-.8.3-.9.7-1.8.3-1.7v-.3l.1-.1.1-.5.3-.7v-1l.1-.9.1-1.8-.1-1v-.8l-.1-1.8-.4-1.2-.3-1.1-.2-1.1-.3-.9-.5-1-.4-.9-.6-.8-.5-.6-.7-.8-.7-.7-.7-.6-.7-.6-.8-.5-.9-.5-1-.3z"/><path fill="#c30" d="M335.2 173.6l-3.4-3.1-.5 1-.5 1-.4.4-.1.1-.1.1v.1l-.1.3-.5.9-.6.7-.6.8-.7.7-.7.6 3 2.4 1 .9 1 1 .9 1 1 1.2-4.5 2.9-2.3 1.5-2.2 1.6-4.3 3.3-2.1 1.7-2 1.8-2.4 2.2-2.2 2.4-2.1 2.4-1 1.2-.8 1.3-2.8 3.7-2.5 3.9-2.4 4-2.1 4.3 2.5.5 2.5.4 2.5.4 2.5.3 2.5.2 2.5.1h2.5l2.5-.1 2.5-.3 1.2-.2 1.3-.1 2.5-.4 2.5-.4 2.5-.5 2.5-.5 2.5-.6 2.5-.7 1.5-.5.6-.4.7-.4.6-.4.6-.4 1.2-1 .5-.5.1-.2.1-.1.1-.1.4-.3.5-.5.1-.2.1-.1.1-.1.4-.3.5-.7.5-.6.4-.7.5-.7 1-2.4 1-2.4.8-2.4.7-2.2.5-2.3.4-2.2.2-2.2.1-2.1-.1-2.2-.3-2.2-.4-2-.5-2.1-.7-2.1-.8-2.1-1-2-1-2-2.1.5-2.1.7-2 .8-1.9 1-1-1.8-1-1.7-1.1-1.5-1.2-1.3zm2.8 17.4l1.4.4 1.4.4 1.2.4 1.2.5 1 .5.9.7.8.7.7.9.5.9.5 1 .4 1 .3 1.1.1 1.1v1.3l-.2 1.3-.2 1.5-.4.9-.9-1.1-.8-1-.9-1-.9-.8-1-.8-1-.7-1-.7-1-.5-1.2-.5-1.1-.5-1.2-.4-1.2-.4-1.4-.4-1.3-.2-1.4-.2-1.4-.1.6-1.2.8-1 .9-.9 1-.7 1-.6 1.2-.5 1.3-.4h1.3zm8.6 16.3l-1.8 2.4-.8.5-.7.5-.7.5-.7.4-.4.2-.4.2-.7.3-.7.2-.7.2-.8-.1-.7-.1-.7-.2-.7-.3-.4-.2-.3-.1-.1-.1h-.1l-.7-.4-.7-.5-.7-.5-1.4-1.1-.7-.5-.5-.5-.5-.6-.4-.5-.4-.6-.3-.5-.5-1.4-.2-1.4v-1.5l.2-1.5 1-.2h1l2.1.2 2.1.4 2.2.7 1.3.5 1.4.6 1.2.6 1.3.8 1.1.8 1.2.9 1.1.9 1.2 1z"/><path fill="#fff" d="M347.7 204.7l.1-1.5.3-1.2-.1-1.4v-1.2l-.3-1.1-.2-1-.6-1-.4-.9-.8-.8-.8-.7-.8-.8-1-.5-1.1-.5-1.3-.5-1.3-.3-1.4-.3-1.5.1-1.2.4-1.2.6-1.1.6-1 .7-.8.8-.8 1.1-.7 1.1 1.4.1 1.4.2 1.2.1 1.4.3 1.2.3 1.2.4 1.2.4 1.1.6 1 .6 1.2.7.9.7 1 .8.8.9 1 1 .8.9 1 1.1zM344.7 209.7l1.9-2.4-1.1-1.1-1-.9-1.2-.8-1.2-.9-1.3-.7-1.3-.7-1.2-.6-1.3-.5-2.3-.6-2.1-.4-2.1-.1-1 .1h-1l-.2 1.4v1.5l.2 1.3.5 1.4.3.5.2.7.5.6.5.7.5.5.6.6 1.3 1 .7.7.8.3.7.4h.1l.1.1.2.1.4.2.7.1.8.2h.6l.8.1.7-.2.8-.1.7-.2.4-.2.3-.1.8-.4.7-.4.7-.7z"/><path fill="#c30" d="M386.6 178.1l-.9 1.7-.9 1.6-.8 1.7-.6 1.6-.5 1.7-.5 1.6-.3 1.7-.2 1.6-.1 1.7v1.6l.2 1.6.3 1.6.2.8.3.9.5 1.6.6 1.6.6 1.6.9 1.7 1 1.7 1 1.7 1 1.5 1 1.5 1.1 1.4 1.1 1.3 1.1 1.2 1.2 1.2 1.2 1 1.2 1 1.3.9 1.4.9 1.4.7 1.4.7 1.4.5 1.5.5 1.5.4 1.5.4 1.5.3 1.5.3 1.5.1 1.6.1 1.7-.1 1.7-.2 1.7-.4 1.7-.4 1.7-.4 1.7-.5 1.7-.5 1.8-.6 1.8-.7 1.9-.8 2.1-1 2-1-1.5-2.4-1.5-2.4-3-4.5-1.7-2.3-1.6-2.1-1.7-2.1-1.7-2.1-2-2.2-2-2.1-2.1-2-1-1-1-.9-2.3-1.8-2.3-1.7-2.4-1.5-2.4-1.5-3-1.7.9-1.7 3.2-4.6-.6-.3-1-.5-1-.5-1-.5-.9-.6-2-2.1-1.7 3.4-.5 1.1-.4 1.2-.3 1.2-.2 1.2-2.5-1-2.5-.9-2.5-.9-2.5-.8zm23.5 22.3l.3 2.7-.1.7-.1.4v.4l-.1.4-.1.4-.1.7-.2.5-.2.6-.4.5-.1.2-.1.2-.1.4-.4.5-.2.3-.1.2-.1.2-.2.1-.1.2-.2.3-.4.5-.5.4-.5.5-.6.4-.6.5-1 .5-.9.4-1 .3-.9.4-.9.2-.8.2-.8-.1-.7-.1-.8-.3-.7-.3-.6-.4-.6-.4-.6-.5-.6-.5-.5-.6-.5-.7.5-1.4.6-1.2.8-1.1.8-1 .9-.9.9-.9.9-.7 1-.7 1-.5 1-.5 1-.4 1.1-.4 1.2-.3 1.2-.2h1.3l1.3.1 1.6-.2zm-3.7-3.4l-2.2.3-2 .4-1.9.6-1.7.9-1.7 1-1.6 1.3-1.5 1.5-1.4 1.7-.2.9-.8 1.3-.5-1.1-.4-1-.3-1-.1-1 .1-1.9.2-.9.4-.9.4-.9.5-.8.5-.8.6-.8 1.6-1.5 1-.7 1-.6 2.4-1h.8l.9.1.8.1.8.2.7.2.7.3 1.4.5 1.1.6 1 .8.9.9.4.5.4.5-2.3.3z"/><path fill="#fff" d="M410.3 203.1l-.2-2.7-1.4-.3h-2.5l-1.3.1-1.2.3-1.1.3-1.1.4-1 .5-1 .5-1 .7-1 .7-.9.9-.8 1-.9 1-.7 1-.7 1.4-.5 1.3.5.8.6.6.6.5.7.5.6.4.7.3.8.2.6.2h.7l.8.1.9-.2h.9l.8-.4.9-.2 1-.5.9-.4.6-.5.7-.4.5-.4.6-.6.3-.4.3-.2.1-.2.2-.1v-.2h.1l.1-.3.4-.6.2-.2v-.2l.2-.2.2-.5.2-.7.2-.5.2-.8v-.2l.2-.4v-.7zM406.4 197l2.3-.4-.4-.5-.4-.7-.9-.8-1.1-.8-1.1-.7-1.3-.4-.8-.3-.7-.2-.9-.1h-.7l-.9-.1h-.8l-2.3 1-1 .6-1.1.7-1.6 1.5-.7.8-.5.8-.5.7-.4 1-.2.9-.2.8-.1 1.9.1.9.3 1.1.2 1 .6 1.2.7-1.4.2-.8 1.3-1.7 1.6-1.5 1.5-1.4 1.9-1 1.7-.9 2-.6 2-.4z"/><path fill="#6c9" d="M326.8 167.1h-.2l-5.5 7.1 1.5.5 1.1.4 1.1.6 1 .5 1.1.8.7-.7.8-.7.6-.7.7-.8.6-.9.1-.1v-.1l.1-.1v-.1l.3-.4.5-1 .6-1-1.4-1-1.1-.9-1.3-.8z"/><path fill="#f69" d="M326.6 167.1l-.3-.3-1.2-.6-1.2-.4-2.3-.7-1.2-.5-1.3-.3-2.5-.4-.7.1-1.4.2-1.4.5-1.3.5-1.1.9-.5.3-.4.6-.3.4-.2.6-.2 1.1.1.7.2.7.5.5.6.2 1.5.8.6.2.9.2 1.6.4 5.9 1.3.1.1z"/><path fill="#f90" d="M274.2 216.7l-.8.7-1.4 1.3-1.5 1.1-.7.6-.7.6-1.5 1-1.5.9-.8.4-.8.5-1.4.8-1.5.7 1.8 3.9 1.7 4 1.7 4 1.7 4 1.3 4.1 1.4 4.1 1.3 4.2 1.3 4.3 3.9 16.9-1.4 8.7-1.7 8.8-.9 4.7-.6 4.6-.6 4.6-.4 4.8-.7 3.1-.5 3.8-.4 5.2-.2 5.3-.1 5.4.3 5.3v2.9l.3 2.8.4 2.9.6 3 1.7.8 1.7.9 1.7.8 1.7.9 1.9.6 1.8.6 1.8.6 1.9.4 1.9.5 1.9.3 1.9.3 1.9.3 2 .2 2 .2h4.1l4.4-.4 3.6-8.4 4-8.1 3.9-8.1 4.1-8 .9-2 1.2-1.8 1.2-1.7 1.4-1.6 1.3-1.8 1.6-1.3 1.4-1.6 1.8-1.2 2.8-2.2 2.9-2 3-1.9 3-1.8 3.2-1.6 3.1-1.5 3.2-1.3 3.3-1.1 2.4-.6 16.6-2.5 2.4-.2 2.1-.1 2.3.1 2.3.2 2.2.3 2.1.3 1.1.2 1 .3 2.1.6 1 .4 1 .4 2 .7 1.9.9 2 1.1 2 1.1 1.8 1.2.9.6.9.7 1.8 1.6.9.8 1 .9.8.9.9 1.1.7 1 .7 1.1.6 1.2.7 1.2.9 2.1.8 2.3.6 2.3.7 2.2.3 2.3.5 2.4.2 2.3.2 2.4.8 22.6 40 3.7 1-2.7 1.1-2.5.9-2.6 1-2.7v-.5l.5-4 .4-3.9.4-4 .4-3.9-1-18.4v-.2l-2.3-15.7-.6-4.3-.8-4.1-.9-4.1-1-4.1-.4-.6 1.3-2.5 2.8-6 1.6-3 1.7-2.9 1.5-3 1.8-2.8 1.9-2.8 1.9-2.7 1.6-2.3 1.6-2.3 1.8-2.1 1.7-2.1 3.7-4.2 3.8-3.9-12.6-8.8-1.5 1.8-2.1 2.2-1.9 2.4-2 2.5-1.8 2.6-1.9 2.6-1.7 2.8-1.6 2.8-1.5 2.8-1.4 2.9-1.1 3-1 3-.9 3.1-1.1-3.3-1-.9-1-.8-.9-1-.7-.7v18.4l-13.9-18.4-1.6-2.3-1.6-2.2-1.5-2.2-1.3-2.1-6.5 28-7.1-6.3-4.8-4.2-4.4-4.3-2.3-2.2-2.1-2.1-4-4.4-10.8 21.7-2.4-1.6-2.2-1.6-2.3-1.9-2.1-1.8-2.1-2-2-2-1.9-1.8-1.9-1.9-1.6-1.7-1.6-1.7-1.5-1.5-1.3-1.6-7.4 9.8-.7.9-.3.3-.3.6-.8.8-.6.8-1.5 1.6-1.3 1.6-1.6 1.4-1.6 1.4-.8.7-.7.6-1.6 1.2-19.3-18.5-1.4 2.2-1.7 2.1-1.7 2.2-1.7 2.1-1.6 1.7-1.4 1.6-1.6 1.5-1.5 1.3-1.6 1.3-1.4 1.3-1.5.9-1.4 1-1.1-1.2-.9-1.1-1-1.2-.7-1.1-2.2-3.1-2-2.9-2-2.9-2.1-2.9-2.2-2.9-2.2-2.6-2.2-2.7-2.1-2.6v.2l-2 5.2-.8-4.4-1.1-4.3-1-4.2-1.2-4.3-1.7-5.1-1.7-5-1.8-4.9z"/><path fill="#6c9" d="M399.7 173.6l2 2.1.9.6 1 .5 1 .5 1 .5.6.3 3.5-3.5-.6-1-.6-.8-.8-.8-.8-.7-1-.7-1-.5-1-.5-1.2-.4-3 4.4zm5.7-1.3l.2.2-.4.3.2-.5z"/><path fill="#f69" d="M409.9 174.5l1.5-1.4 1.6-1.3 1.7-1.1 1.7-1 .5-.4.5-.4.2-.3.1-.2.2-.1.5-.4.4-.5.4-.5.4-.5.4-.5.3-.9.3-.8.2-.8.1-.7-.1-.6-.1-.5-.3-.5-.3-.4-.4-.5-.4-.3-.5-.4-.5-.2-.7-.3-.8-.1h-.9l-.9.1-1.7.9-1.7 1-1.6 1-1.5 1.2-1.5 1.2-1.4 1.4-1.3 1.5-1.2 1.5 1.2.4 1 .5 1 .5 1 .7.8.7.8.8.6.8.4 1.4zm6.6-11.3l-.2.3-.3-.3.3-.1.2.1zM499.1 213.3l-2.3.8-2.1.9-2.1.9-2 1.1-2 1.1-1.9 1.1-1.9 1.2-1.7 1.5 2.8 2.4 1.5 1.1 1.6 1.1 1.5 1.1 1.7.9 3.4 1.9 1.1-1.1 1-.8 1-.9.8-1 .9-.8.6-1.1.5-.5.3-.4.3-.7.4-.4.2-.6.5-.5.4-1 .4-.8.2-.8.3-.8v-1.2999999999999998l-.2-.7-.2-.5-.3-.6-.3-.3-.6-.5-.5-.2-.8-.3-.7-.2-.8-.2z"/><path fill="#6c9" d="M477.1 227.1l-2.1 2 12.6 8.8 8-7.5-3.4-1.9-1.7-.9-1.5-1.1-1.6-1.1-1.5-1.1-2.8-2.4z"/><path fill="#f69" d="M432.9 367.6l-10.4-2 .8 2 .9 2.2.9 2.1 1.1 2 1.6 3.2 7 2.8 3.4.5 4.3-.8 3.9-1.9v.2l.6-.4 2.1-2.3 1-1.1.6-.6.1-.3v-.1h.1l.4-.1.8-1.4 1-1.2 1-1.2.8-1.2-1.4.2-1.3.1-2.7.3h-1.3l-1.4.2h-2.7l-1.5-.1-1.2-.1-2.9-.2-1.4-.2-1.4-.1-1.4-.3-.8-.2z"/><path fill="#6c9" d="M422.5 365.6l10.4 2h.6l.8.2 1.4.3 1.4.1 1.4.2 2.9.2 1.2.1 1.5.1h2.7l1.4-.2h1.2999999999999998l2.7-.3 1.3-.1 1.4-.2 1.4-2.2 1.2-2.3 1.3-2.2 1.2-2.3.2-.2-40-3.7.3 2.6.2 1.4.4 1.3.6 2.6z"/><path fill="#f69" d="M301.5 367l-1.8.1h-1.5l-1.7.1h-1.5l-1.5-.1-1.7-.2-1.5-.3-1.6-.3-1.4-.4-1.7-.5-1.5-.5-1.5-.6-1.5-.6-1.5-.8-1.4-.8-1.5-.8-2.2-.2.9 2.2 1.1 2.8 1.3 2.8 1.5 2.5 1.5 2.7.5.2.7.1.8.3h.2l.2.1.3.1 1 .2h1.4l1.6.1.2-.1h2.5l1.3-.3 1.3-.5.4-.1.3-.1.6-.3.5-.3.7-.4 1.1-.7 1.1-.8 1-1.1 1-1 1-1.3z"/><path fill="#6c9" d="M276.7 361.3l1.5.8 1.4.8 1.5.8 1.5.6 1.5.6 1.5.5 1.7.5 1.4.4 1.6.3 1.5.3 1.7.2 1.5.1h1.5l1.7-.1h1.5l1.8-.1 4.6-9.3-4.4.4h-4.1l-2-.2-2-.2-1.9-.3-1.9-.3-1.9-.3-1.9-.5-1.9-.4-1.8-.6-1.8-.6-1.9-.6-1.7-.9-1.7-.8-1.7-.9-1.7-.8 2.3 9 .4 1.4z"/><path fill="#F1A42B" d="M164.3 317.4l-.9.1-1.1.4-1 .5 1.7 1.6.5-.3.8-.1.7-.1h1l.3.1.7.1.6.3.7.1.5.4 1.4-1.5-.7-.5-.7-.4-.7-.2-.8-.3-.8-.2h-.8l-.7-.1h-.4l-.3.1"/><path fill="#434C20" d="M85.7 274.1l-.4.1-.4.4-.6.5-.5.5-.5.5-.4.5-.2.5-.1.6v.6l.1.7.1.6.2.5.2.5.1.2.2.2.4.5.5.4.5.4.4.1.4.2 3.2-.1.6-.5.4-.2.1-.1.2-.1.2-.2.2-.2.5-.5.2-.4.2-.4.4-.6.2-.6.1-.4.1-.4 2.4-.1-1.7-1.8-1.5-.1-.4-.5-.4-.4-.6-.5-.6-.5-.4-.2-.4-.1-.5-.1-.4-.1-.7-.1h.1l-.5.1-1 .6zm.5 1.3l.5-.4.5-.1h.5l.5.1.5.2.5.4.4.4.4.5.2.5.1.5v1.1l-.1.4-.1.4-.1.1v.1l-.1.2-.1.1v.1l-.1.2-.2.2-.2.2-.2.2-.4.2-.2.1-.2.1h-.2l-.2.1h-.5l-.5-.1-.5-.1-.4-.1-.5-.2-.4-.2-.4-.4-.4-.4-.1-.2-.1-.2-.1-.2v-.7l.1-.5.1-.5.2-.5.2-.5.4-.4.4-.4.8-.3"/><path fill="#fff" d="M88.4 275.2l-.7-.1h-.5l-.6.1-.4.2-.5.4-.3.3-.3.3-.3.5-.2.4-.1.6v1.2l.1.1.1.3.1.2.3.4.3.2.4.4.4.2.3.1.4.2h1.2l.3-.1.1-.1.3-.1.3-.2.3-.3.1-.3.2-.2v-.2h.2v-.1l.1-.1v-.30000000000000004l.2-.2v-.4l.1-.6-.1-.6-.1-.4-.2-.5-.3-.4-.4-.3-.4-.4-.4-.2"/><path fill="#6E7831" d="M101 267.1v.6l.1.7.1.6.2.7.2.6.4.6.4.6.5.6.5.6.5.5.5.5.5.5.5.5.6.5.6.5.7.5.6.4.7.2.7.2.7.2.7.1.7.1h1.4l.7-.1.7-.2.2-.1.2-.1.5-.1.2-.1.2-.1.5-.1.4-.2.4-.2.4-.2.2-.1.1-.1h.1l.1-.1h.1l.2-.1.4-.2.4-.4.4-.2 1.6-1.8.6.5 1.2-1.7-.7-.5.4-.9.4-.7.2-.9.2-.7.1-.9v-.9l-.1-.9-.1-.5v-.5l-.2-.7-.2-.7-.2-.7-.2-.6-.4-.6-.4-.6-.5-.6-.5-.6-.5-.6-.6-.5-.6-.5-.6-.5-.7-.5-.7-.4-.7-.2-.5-.1h-.5l-.7-.1-.7-.1h-.7l-.7.1-.7.1-.7.1-.7.2-.7.4-.7.4-.7.5-.7.5-.6.5-.8.3-.5.5-.5.6-.5.6-.5.7-.5.7-.4.7-.4.7-.2.7-.1.9-.1.9-1.2 1.3zm7.7-8.7h.4l-.1.1-.3-.1zm-4.2 12.9l-.4-.6-.2-.5-.2-.6-.1-.5-.1-.6v-1.2l.1-.6.1-.9.2-.7.2-.7.4-.7.5-.7.5-.6.5-.6.6-.5.5-.5.6-.5.6-.5.6-.4.6-.4.7-.2.7-.1.9-.1h.7l.7.1.4.1.5.1.7.2.6.4.6.5.6.5.4.2.4.4.7 1 .5.6.5.6.4.6.2.7.1.7.1.7v.7l-.1.7v.7l-.2.7-.4.7-.2.4-.1.5-.2.4-.1.2-.1.1v.1l-.2.4-.1.2-.1.1v.1l-.5.6-.5.6-.9.7h-.1l-.1.1-.2.1-.6.5-.6.4-.4.1-.4.1-.4.1-.4.1-.5.1-.4.1-.7.1h-.5.1l-.7-.1-1.2-.4-1.1-.4-.9-.5-.6-.5-.5-.5-.5-.5-.5-.5-.5-1"/><path fill="#fff" d="M103.7 266.4l-.1.7v1.1l.1.7.2.5.1.7.3.5.2.7.9.8.4.6.6.4.5.5.6.5.9.3 1.1.4 1.2.2.7.1h1.5l.3-.1h.4l.4-.1.3-.1.3-.2.5-.2.6-.3.3-.2.2-.1h.2l.9-.8.5-.8.6-.6v-.1l.1-.1v-.1l.2-.3v-.2l.3-.3.2-.3.1-.3.2-.5.2-.6.3-.7.2-1 .1-.7v-.8l-.1-.7-.1-.8-.4-.7-.2-.7-.4-.6-.5-.8-.7-.9-.4-.3-.2-.2-.8-.5-.6-.4-.6-.3-.7-.3-.4-.1-.4-.1-.8-.1h-.8l-.7.1-1 .1-.7.2-.6.4-.7.2-.7.4-.6.6-.7.5-.6.5-.5.7-.5.6-.4.7-.3.8-.3.7-.2.9v.9"/><path fill="#6E7831" d="M98 279.5l-.8-2.7-4.2-.6 1.4 2 1.3.2.8 2.4 1.5-1.3"/><path fill="#434C20" d="M96.5 280.8l.3 1.7-1.3.6 1.6 3 .5.2.7.1h1.2l.3-.3.6-.5.3-.5.5-.6.3-.6.1-.8.1-.6v-1.5l-3 .8-.7-2.3-1.5 1.3"/><path fill="#6E7831" d="M104 280.7l-2.4.4.1.7v.7l-.1.6-.2.6-.4.6-.4.6-.5.5-.5.5-.4.2-.6.1h-.5l-.6-.1-.5-.2-1.6-2.9-.7.5-.6.5-1.3 1-1.2 1.1-.5.5-.5.6-1 1.2-.9 1.3-.7 1.3-.4.6-.4.7-2.8-.1-.6.1-.5.4-.7.5-.6.5-.5.5-.5.6-.5.6-.4.7-.2.7-.1.5-.1.5-.1.5-.1.5v1.8l.1.9.2.9.4.9.2.5.2.5.5.9.4.5.5.5.5.5.5.4.5.4.5.4.5.2.5.2 1.2.5.2.6.2.6.4.6.4.6.6 1.3.5.6.5.6.5.9.6.9.6.7.3.8.6.7.7.7.7.6.9.6 1.2.7 1.3.7-1.1 3.5 1.5.4 1.5.4 1.5.2 1.5.2 3.6.4 1.5-2.7 1-.1 1-.1 1-.1.5-.1.2-.1h.4l.2-.1.2-.1.5-.1 1-.4 1-.4 1-.4.2-.1.1-.1h.1l.5-.2.2-.1.1-.1h.1l.5-.2.7-.5.7-.5.6-.5.6-.5.6-.5.6-.5.9-.9.5-.5.5-.5.5-.5.5-.5.4-.5.5-.5.7-1.3.6-1.3.6-1.3.5-1.3.5-.1.5-.1.5-.1h.4l.7-.4.4-.2.2-.1.1-.1h.1l.6-.5.4-.4.4-.4.2-.4.4-.4.2-.4.2-.4.4-.6.4-.6.2-.6.2-.6.1-.6.1-.6v-1.2l-.1-.6-.1-.6-.2-.6-.2-.5-.4-.5-.4-.5-.4-.5-.4-.5-.5-.5-.5-.5-.5-.5-.5-.4-.6-.4-.5-.2-.6-.2-.6-.1-.4-.5-.4-.5-.6-1-.7-1-.7-.9-.5.1-.1.4-.1.2-.1.2-.2.4-.2.2-.2.1-.1.1-.2.1h-.1l-.1.1h-.2l-.2.1h-.8l-1.5.1h-.7l-.7-.1-.7-.2-.6-.2-.7-.4-.6-.4-.6-.5-.5-.5-.4-.4-.2-.4-.5-.6-.4-.6-.1-.5-.1-.4-.2-1-.1-1 .1-1 .4-1-1.5-.5-1.5-.5-1.5-.4-.7-.1-.6-.1-.6-.1h-1.9l-.6.8zm-1.5 17.4h.2l.2.1.2.1.2.2.1.2.1.2.1.2.1.4-.1.2-.1.2h-.1v.1l-.1.1-.1.2-.1.1v.1l-.2.1-.2.1h-.6000000000000001l-.2-.1-.2-.1-.2-.1-.2-.2-.1-.2-.1-.2v-.5l.1-.2.1-.2.2-.2.2-.2.2-.1.6-.3zm-21 1.8v-.5l.1-.5.1-.5.2-.5.2-.5.2-.5.4-.5.4-.4.4-.5.4-.4.5-.4.5-.2.5-.2.5-.1.5-.1h1l.5.1.5.1.5.2.5.2.5.4.5.4.5.5.4.4.4.5.2.5.2.5.1.5.1.5.1.5v1l-.1.5-.1.5-.1.5-.1.2-.1.2-.2.5-.4.5-.4.5-.5.4-.5.4-.2.1-.1.1h-.6v.1l-.5.2-.5.2-.5.1h-.4l-.2.1-.5.1-.5-.1-.5-.1-.5-.1-.5-.2-.5-.2-.5-.2-.4-.4-.4-.4-.4-.5-.4-.5-.2-.5-.2-.5-.2-.5-.1-.5-.1-.5.5-.5zm18 5l5.5 1.5-1.5 9.1-3.2-.6-1-.4-.9-.4-.9-.5-.7-.5 2.7-8.2zm-2.2-.5l.9.1-2.5 7.3-.5-.5-.4-.5-.2-.5-.2-.5-.1-.5-.1-.5v-1l.1-.5.1-.6.2-.5.1-.4.2-.2.4-.5.5-.4.2-.2.4-.1.5-.2.4.2zm23.2-5.5l.4-.7.5-.6.5-.5.5-.5.6-.5.6-.4.7-.2.5-.1h.5l.4-.1h.4l.6.1.6.1.6.2.5.4.5.4.2.2.2.2.5.5.2.4.2.5.2.5.2.5.1.5.1.5v1l-.1.5-.1.5-.1.4-.1.5-.2.4-.1.2-.1.2-.1.1-.1.2-.2.4-.2.4-.2.4-.4.2-.2.4-.4.2-.4.2h.2l-.1.1-.2.1-.4.2-.5.1-.2.1-.2.1-.5.1h.1-.1l-.2.1h-1.7000000000000002l-.5-.1-.5-.2-.6-.5-.6-.5-.4-.4-.2-.4-1.2-2-.4-.7-.1-.7v-.7l.1-.7.9-1.6zm-11.4 2.1h-.4l-.2-.1-.2-.1-.1-.1-.2-.2-.1-.2-.1-.5v-.4l.1-.2.1-.2.2-.1.1-.2.2-.1.2-.1h.6000000000000001l.2.1.2.1.2.2.1.1.1.2.1.2v.6000000000000001l-.1.2-.1.2-.1.2-.2.1h-.1l-.1.1-.2.1-.2.1zm6.7 5.1l.4.1.4.1.4.1.4.2.2.2.2.4.2.4.2.4.1.4.1.5.1.7v.9l-.1.5-.1.5-.2.5-.2.5-.2.4-.1.2-.1.2-.2.1-.1.2-.2.1-.1.2-.2.1-.2.1-.4.4-1 .5-1 .5v-8.4l1.7-1zm-5.1 9.2l-5.4.2 1-8.9 6.1-.4-.1 8.7-1.6.4"/><path fill="#434C20" d="M103.3 298.5l-.2-.2-.2-.1-.2-.1h-.2l-.5.1-.3.1-.2.2v.2l-.3.3v.9000000000000001l.3.2v.2l.2.1.3.1.2.1h.5l.2-.1.2-.1h.1v-.1h.1l.2-.2v-.2h.1l.1-.3v-.4l-.1-.2-.1-.3-.2-.2"/><path fill="#FDE92B" d="M83 296.1l-.4.4-.4.5-.2.5-.2.5-.2.5-.1.5-.1.5v1l.1.5.1.5.2.5.2.5.2.5.4.5.4.5.4.4.4.4.5.2.5.2.5.2.5.1.5.1.5.1.5-.1.2-.1h.1l.5-.1.5-.2.5-.2v-.1h.1l.1-.1.2-.4.5-.4.5-.4.4-.5.4-.5.2-.5.1-.2.1-.2.1-.5.1-.5.1-.5v-1l-.1-.5-.1-.5-.1-.5-.2-.5-.2-.5-.4-.5-.9-.2-.5-.5-.5-.4-.5-.4-.5-.2-.5-.2-.5-.1-.5-.1h-1l-.5.1-.5.1-.5.2-.5.2-.5.4-.4.4.4.6zm3.6.5l.5.2.5.4.5.4.4.5.2.5.2.5v.4l.1.4v.6l-.1.4-.1.5-.2.5-.2.5-.1.1-.1.1-.2.2-.1.1h-.1v.1l-.2.2-.5.2-.5.2h-.7.1l-.2-.1-.2-.1-.1-.1h-.1l-.2-.1-.5-.4-.4-.5-.2-.4-.2-.5-.1-.5-.1-.5v-1l.1-.5.1-.5.2-.5.2-.4.4-.4.4-.4.4-.2.5-.2.5-.1.1.4"/><path fill="#434C20" d="M89 300.1v-.6l-.1-.3v-.3l-.3-.6-.1-.4-.4-.5-.4-.3-.5-.3-.6-.2h-.5l-.5.1-.4.2-.4.2-.2.2-.3.4-.2.3-.2.4-.2.5-.1.4v.8l.1.5.2.5.2.4.2.3.3.4.5.4h.2l.1.1h.2l.2.1h1.1l.5-.1.3-.2.2-.3.1-.1h.1l.2-.1.1-.2.1-.1.1-.3.2-.4.1-.5.1-.4"/><path fill="#fff" d="M105 306.3l-5.5-1.4-2.6 8.2.8.5.8.5 1 .2 1 .4 3.2.6 1.3-9M98.2 304.5l-.9-.1-.7.1-.5.3-.4.1-.2.2-.4.3-.3.5-.3.2v.2l-.2.7-.2.6-.1.5v1l.1.5.2.4.2.4.3.5.3.4.5.6 2.6-7.4"/><path fill="#FDE92B" d="M125.3 295.3h-.5l-.5.1-.7.2-.6.4-.6.5-.5.5-.5.5-.5.6-.4.7-.1.5-.1.7v.7l.1.7.4.7 1.2 2 .2.4.4.4.6.5.6.5.5.2.5.1h1.9l.2-.1h.2l.5-.1.2-.1.2-.1.5-.1.4-.2.2-.1.1-.1h.1l.4-.2.4-.2.2-.4.4-.2.2-.4.2-.4.2-.4.1-.2.1-.1.1-.2.1-.2.2-.4.1-.5.1-.4.1-.5.1-.5v-1l-.1-.5-.1-.5-.2-.5-.2-.5-.2-.5-.2-.4-.5-.5-.2-.2-.2-.2-.5-.4-.5-.4-1.4.5-.6-.1-.6-.1h-.4l-1.1.5zm1.2 2.4l.5.1.4.2.4.2.4.4.2.4.2.4.2.5.1.5v.9999999999999999l-.1.2v.2l-.1.5-.2.5-.2.5-.3-.3-.2.2-.2.2-.2.2-.5.2-.5.2-.5.1-.4.1-.5-.1-.4-.1-.5-.2-.4-.2-.2-.2-.2-.2-.1-.2-.1-.2-.4-.6-.1-.6-.1-.6.1-.5.1-.5.4-.5.4-.5.5-.5.5-.2.5-.1h.5l1-.5"/><path fill="#434C20" d="M128.5 300.1v-.6l-.1-.3-.2-.3-.3-.4-.3-.3-.3-.2-.5-.2-.3-.1-.5-.1h-.5l-.5.2-.5.2-.5.4-.4.6-.1.5-.2.6-.2.5.2.6.1.6.2.7v.2l.3.2.1.2.2.2.4.3.4.1.3.1.4.1h.4l.4-.1.4-.2.4-.3.2-.1.2-.1.1-.3.2-.1.3-.5.2-.4v-.7h.2v-.6000000000000001h-.2v-.4M108.2 300.6l.2.1.1.2.2.1h.6l.2-.1h.1l.1-.2.1-.1.2-.2.2-.1.1-.2v-.6000000000000001l-.1-.2-.2-.1-.2-.2-.1-.1-.2-.2-.2-.2h-.6000000000000001l-.2.2-.1.2-.2.1-.1.2-.1.1-.2.2v.4l.2.4.1.1.1.2"/><path fill="#fff" d="M118 308l-.2-.4-.3-.4-.1-.1-.3-.2-.3-.3-.3-.2-.3-.1-.4-.2h-2v8.4l1-.4 1.1-.5.4-.2.2-.3.3-.1.1-.3.2-.1.2-.1.1-.2.1-.2.3-.3.2-.4.2-.4.2-.5v-.3l.1-.4v-.4l-.1-.7-.2-.5-.2-.2M105.4 315.6l5.3-.3 1.7-.2.1-8.8-6.1.3-1 9"/><path fill="#434C20" d="M115.2 282.5l-.3.6-2.5-1-.4 1-.1 1 .1 1 .2 1 .2.3.1.5.4.6.3.7.3.3.3.4.6.2.7.5.6.4.8.2.6.3.8.1.7.1h.9l1.3-.1h.7v-.1h.30000000000000004l.1-.1.3-.2.1-.1.2-.1.2-.4.1-.1v-.2l.1-.3.6-.1-1.2-1.1-1.4-1.1-.6-.6-.7-.4-1.2-.9-.9-.4 1.7-2.6 2.3-.3-3-1.9-.6.1-.5.4-.6.1-.4.4-.4.3-.3.5-.3.5-.2.6"/><path fill="#6E7831" d="M125.8 274.6l-2.3.7.6.5.3.2.2.3.3.2.2.4.1.2.3.4.1.4h2.1l-.1-.5-.1-.4-.3-.8-.5-.7-.2-.3-.3-.2-.4-.4"/><path fill="#434C20" d="M123.5 275.3l2.3-.7-3.4-2.5-1.1 1.7 2.2 1.5M125.6 277.9l-.1.2v.9l-.3.3-.1.4-1.5-.2.6 2h.3l.1.2h.5l.1-.2h.30000000000000004l.3-.1.2-.1.1-.1.3-.2.3-.3.1-.1.3-.2.1-.3.1-.2v-.1l.2-.7.1-.6.1-.6h-2.1"/><path fill="#6E7831" d="M124.2 281.5l-.6-2-5.1.1 3 1.9h2.7"/><path fill="#F1A42B" d="M158.1 322.2l-.4-.3-.4 1-.4 1-.2 1-.1 1.2v.2l2.2-.8v-.6l.2-.8.1-.5.4-.6.1-.3-.7-.5h-.8"/><path fill="#9EA4AB" d="M157.7 321.9l.4.3h.8l.7.5.6-.9.3-.4.5-.3.3-.4.4-.2.5-.3.5-.1.3-.1-1.7-1.6-1 .6-.8.7-.7.8-.7.8-.4.6M158.8 325.5l-2.2.8 1.1 3 1.8-1-.7-2.8M153.7 332l-.7.1-.6.1-3.8 1.8-.1-.2-.2-.3-.3-.4-.5-.4-.4-.3-.6-.2-.5-.1h-2.7l-1.7.3-.7.4-.8.3-.7.3-.8.5 1.8 2.3 1.1 2.2.7 1 .8 1.1.4.6.5.6.6.5.5.6.7.4.7.6.6.4.6.4.5-.7.4-.7.2-.7.1-.1.2-.3.1-.2.1-.5.1-.1.1-.2.2-.8v-.3l.1-.5.2-.6v-1.7000000000000002l-.1-.7-.2-.8 3.6-1.5 1.6 1.9 1.6-1.2-1.1-1.5-.6-.6-.5-.6-.2-.1-.1-.1h-.2"/><path fill="#F1A42B" d="M159.7 328.8l-.2-.5-1.8 1 1.8 2.2 1-.3.9-.9-.6-.3-.3-.5-.4-.3-.4-.4"/><path fill="#9EA4AB" d="M160.5 331.2l-1 .3.6.5.7.3.7.4.8.2.7.2.8.1h1.7000000000000002l.2-.1h.4l.5-.2.1-.1h.3l.2-.1.5-.4.5-.2.4-.4.4-.5.4-.3-1.8-1.5-.2.4-.2.2-.4.4-.3.3-.5.3-.5.1h-.4l-.2.1h-.5l-.7-.1h-.7l-.5-.2-.6-.3-.5-.3-.9.9"/><path fill="#6E7831" d="M143 340.5l-.8-1.1-.7-1-1.1-2.2-1.8-2.3-.8.3-.3.1-.4.2-.8.3-.3.1-.5.1h-1.1v.1h-2.1l-.5-.1-.1 1.5v1.6l.1 1.4.2 1.6v2.1l-.2.7-.1.8-.1.7-.1.3v.5l-.2.7-.3.7-.1.4-.2.2-.2.9-.1.2-.2.3-.1.1v.1l-.2.3-.1.1-.2.1v.1l-.3.7-.5.7 6.4.2.7-.1.7-.2.7-.3.8-.2.6-.2.3-.1.4-.1 1.4-.7 1.3-.8.6-.3.7-.4 1.2-.9 1.2-.8.6-.6.4-.5.4-.6.4-.6-.6-.4-.6-.4-.7-.6-.7-.4-.5-.6-.6-.5-.5-.6-.4-.6"/><path fill="#F1A42B" d="M158.9 339l.6-2.2-3.1-1.9-1.6 1.2.4.4.4.3.9.7.9.6 1 .6.5.3"/><path fill="#9EA4AB" d="M159.5 336.8l-.6 2.2.7.2.9.2.6.1.8.3h1.6l.8-.1.7-.3 1.5-.4-.4-1.9-.9.1-.7.3-.7.1-.8.1-.7-.1-.8-.1-.7-.3-.7-.1-.6-.3"/><path fill="#6E7831" d="M125.8 332.4l-1.2-.7-.6-.3-.5-.3-1.3-.7-.6-.3-.7-.1-.6-.2-.6.5-.4.7-.4.6-.4.6-.5 1.5-.4.7-.1.9-.4 2.4-.1 1.2-.1 1.2-.1 1-.3 1.3-.2.9-.5 1.1.4.2.3.2.4.1.4.3 5.1 3.6v-1.7l.1-1.4.2-1.5.3-1.5.5-1.6.4-1.7.5-1.6.6-1.6.1-.3.1-.4v-.2l.3-.9.1-.5v-.5l.2-1"/><path fill="#9EA4AB" d="M126.6 332.8l-.8-.4-.2 1v.5l-.1.5-.3.9v.2l-.1.4-.1.3-.6 1.6-.5 1.6-.4 1.7-.5 1.6-.3 1.5-.2 1.5-.1 1.4v1.7l1.1.9.7.4.8.3.7.4.7.3.8.2.8.2.8.3.5-.7.3-.7v-.1l.2-.1.1-.1.2-.3v-.1l.1-.1.2-.3.1-.2.2-.9.2-.2.1-.4.3-.7.2-.7v-.5l.1-.3.1-.7.1-.8.2-.7v-2.1l-.2-1.6-.1-1.4v-1.6l.1-1.5-1.3-.5-1.4-.4-1.3-.6-1.2-.7"/><path fill="#6E7831" d="M111.4 330.1l-4.7 2.2-1.7 2.2-1.6 2.3-3.5 5.2-.6.7-.8.9-.7.7-.7.9-.4.2-.2.3-.6.5-.8.4-.6.5-.7.3-.8.3-.7.3-.5.1h-.30000000000000004l-.8.3.6.6.5.3.7.5.7.3.6.3.7.4.7.2.9.2.7.2h.8l.8.1.4-.1h.5l.7-.1.7-.1.8-.2.5-.2.4-.1.2-.1.2-.3.7-.2.4-.3.3-.2.3-.1.2-.3.2-.1.6-.4.1-.2.2-.1h.1v-.2l.6-.2.5-.6.3-.3.3-.2.7-.5.8-.4.6-.3.8-.4-.1-1.6.1-1.6v-1.6l.3-1.6.7-4.7v-3.1l-.1-1"/><path fill="#9EA4AB" d="M114.7 329.4l-.9.1-.8.3-1.6.3.1 1v3.1l-.7 4.7-.3 1.6v1.6l-.1 1.6.1 1.6 1.1-.4 1.1-.3 1.3-.2h1.8l.5-1.1.2-.9.3-1.3.1-1 .1-1.2.1-1.2.4-2.4.1-.9.4-.7.5-1.5.4-.6.4-.6.4-.7.6-.5-1.4-.4-1.4-.1h-1.3l-1.5.1M105.1 326l-3.6-.3-1.5-.2-1.5-.4-1.4-.2-1.6-.4-.1.5-.4.5-.2.5-.3.3-.7.9-.1.1-.2.1v.3l-.5.4-.5.8.8.2.7.3.9.2.8.3 6.3.2 3.1-4.1"/><path fill="#6E7831" d="M95.7 329.9l-.8-.3-.9-.2-.7-.3-.8-.2-1 1.1-.8 1.1-.6 1.2-.6 1.4-.5 1.1-.5 1.2-.2 1.1-.3 1.2 1.5-.8 1.3-.8 1.6-.6 1.5-.6 1.3-.5 1.4-.5 1.4-.4 1.5-.3 1-.3v-.8l.4-.9.3-.7.5-.7.3-.3-6.3-.2"/><path fill="#9EA4AB" d="M102.2 334.6l-.7.2-.3-.2h-.3l-.4-.1v-1l-1 .3-1.5.3-1.4.4-1.4.5-1.3.5-1.5.6-1.6.6-1.3.8-1.5.8-.1.8-.1.8-.1.7.1.9.1.7.1.9.3.8.2.9v.4l.3.6.3.4.3.4.2.5.4.4.3.5.4.4.8-.3h.30000000000000004l.5-.1.7-.3.8-.3.7-.3.6-.5.8-.4.6-.5.2-.3.4-.2.7-.9.7-.7.8-.9.6-.7 3.5-5.2 1.6-2.3 1.7-2.2-.5.4-.6.3-1.1.7-.3.1-.3.1-.5.3-.3.1-.4.1-.5.2M170.6 319.2l-.4-.2-1.4 1.5.6.4.5.4.6.5.4.5.4.6.3.6.4.8.3.7.2.6 1.2-2.6-.3-.6-.3-.5-.7-1-.9-.8-.4-.5-.5-.4"/><path fill="#F1A42B" d="M169.9 326.5l-.1-.5-.3-.5-.1-.5-.2-.5-1.7 1.2.2.4.1.5.1.5.2.3v.5l-.2.4v.5l-.2.4-.1.2 1.8 1.5.1-.8.3-.3.1-.6.2-.5v-1.1l-.1-.5-.1-.6M173.7 323l-1.2 2.6v2.8l2 .8.2-.8v-1.9l-.2-.8-.1-.6-.2-.7-.2-.6-.3-.8"/><path fill="#9EA4AB" d="M163.8 322.2h-.5l-.5.2-.5.2-.5.4-.5.4-.4.4-.2.5-.2.5-.1.5v.5l.1.5.2.5.1.4.2.4.2.2.2.2.2.2.4.2.4.1.4.1h.9l.4-.1.2-.1h.2l.1-.1.2-.1.4-.2.4-.2.1-.2.2-.1.2-.5v-.1l.1-.1.1-.2.1-.5.1-.4v-.8999999999999999l-.1-.5-.2-.4.5.1.5.2.5.4.5.4.5.5 1.6-1.2-.5-.6-.4-.4-.2-.2-.4-.2-.1-.5-.4-.2-.4-.1-.4-.2-.4-.1-.7-.1h-1.2l-1.4.5zm-1.9 2.8l.1-.4.1-.2.4-.4.2-.1h.2l.5.1h.2l.2.1.2.1.2.2.1.2.1.2.1.2.1.4v.8l-.1.1v.2l-.1.1v.2l-.1.2h-.3l-.2.1-.2.1-.5-.1-.4-.1-.2-.1-.2-.1-.2-.2-.2-.2-.1-.2-.1-.5v-.6000000000000001l.2-.1"/><path fill="#F0A9C4" d="M163.4 324.1l-.6-.1h-.2l-.1.1-.3.3-.1.2-.2.4-.1.1v.6000000000000001l.1.4.2.2.2.3.1.2.3.1.2.2h1l.2-.2.3-.2.1-.1v-.5h.1v-.6000000000000001l-.1-.4v-.1l-.1-.4-.1-.1-.3-.2-.1-.2h-.5"/><path fill="#9EA4AB" d="M174.5 329.2l-2-.8-.1.3v.5l-.2.8-.2.7-.2.2-.1.2-.1.4-.3.6-.1.3-.2.4-.5.6-.4.8-.3.3 2.4.5.2-.4.2-.3.3-.5.4-.6.1-.2v-.1l.2-.3.1-.4v-.1h.1v-.1l.2-.6.3-.8.1-.3.1-.2v-.9"/><path fill="#F1A42B" d="M172 335.3l.2-.3-2.4-.5-.3.4-.5.4-.3.2-.1.1h-.1l-.2.3-.2.1h-.2v.1h-.3l-.1.1-.4.4-.5.2-.5.3.4 1.9.8-.3.2-.1h.1l.1-.2.4-.1.7-.4.4-.2.2-.1.1-.1.6-.4.6-.6.3-.4.3-.2.7-.6"/></svg>