<?xml version="1.0" encoding="utf-8"?>
<!-- Generator: Adobe Illustrator 17.1.0, SVG Export Plug-In . SVG Version: 6.00 Build 0)  -->
<!DOCTYPE svg PUBLIC "-//W3C//DTD SVG 1.1//EN" "http://www.w3.org/Graphics/SVG/1.1/DTD/svg11.dtd">
<svg version="1.1" xmlns="http://www.w3.org/2000/svg" xmlns:xlink="http://www.w3.org/1999/xlink" x="0px" y="0px"
	 viewBox="0 0 176.991 134.993" enable-background="new 0 0 176.991 134.993" xml:space="preserve">
<g>
	<polygon fill-rule="evenodd" clip-rule="evenodd" fill="#FF6699" points="58.945,55.009 58.707,55.059 58.484,55.157 
		58.277,55.292 58.086,55.463 57.863,55.672 57.715,55.928 57.625,56.21 57.597,56.357 57.597,56.528 57.582,57.213 57.599,57.554 
		57.645,57.909 57.778,58.594 57.987,59.278 58.986,61.697 59.208,61.55 59.447,61.416 59.922,61.145 60.872,60.581 60.917,60.532 
		60.975,60.496 61.094,60.423 61.333,60.275 61.808,59.969 62.267,59.65 62.741,59.343 62.027,57.914 61.727,57.389 61.564,57.145 
		61.415,56.925 61.072,56.498 60.699,56.119 60.298,55.766 60.075,55.607 59.868,55.472 59.406,55.217 58.945,55.009 	"/>
	<polygon fill-rule="evenodd" clip-rule="evenodd" fill="#66CC99" points="58.986,61.697 60.089,64.043 60.522,63.822 
		60.967,63.589 61.173,63.455 61.397,63.332 61.843,63.061 62.256,62.755 62.465,62.597 62.685,62.449 63.102,62.106 63.518,61.751 
		63.74,61.543 62.741,59.343 62.267,59.65 61.808,59.969 61.333,60.275 61.094,60.423 60.975,60.496 60.917,60.532 60.872,60.581 
		59.922,61.145 59.447,61.416 59.208,61.55 58.986,61.697 	"/>
	<path fill-rule="evenodd" clip-rule="evenodd" fill="#F46E1D" d="M95.784,17.169l-0.298-0.477l-0.299-0.439l-0.327-0.402
		l-0.328-0.367l-0.194-0.183l-0.178-0.159l-0.195-0.158l-0.178-0.135l-0.385-0.268l-0.21-0.122l-0.191-0.098l-0.447-0.207
		l-0.447-0.171l-0.475-0.134l-0.476-0.096l-0.505-0.073l-0.268-0.024l-0.252,0l-0.537,0.001l-0.281,0.013l-0.268,0.038l-0.683,0.037
		l-0.639,0.111l-0.608,0.172l-0.581,0.246l-0.579,0.283l-0.517,0.354l-0.506,0.417l-0.458,0.478l-0.564,0.625l-0.268,0.318
		l-0.222,0.342L83.01,17.79l-0.194,0.354l-0.148,0.379l-0.296,0.746l-0.12,0.379l-0.086,0.404l-0.148,0.819l-0.073,0.844l-0.03,0.66
		l0.049,0.661l0.743,1.893l0.282,0.281l0.298,0.268l0.297,0.256l0.314,0.244l0.297,0.22l0.311,0.207l0.625,0.391l0.298,0.158
		l0.326,0.147l0.657,0.268l0.653,0.194l0.669,0.145l0.667,0.073l0.685,0.023l0.683-0.05l0.358-0.037l0.355-0.05l0.343-0.073
		l0.355-0.087l0.355-0.098l0.372-0.111l0.355-0.135l0.372-0.148l0.371-0.159l0.387-0.173l1.647-0.846l0.504-0.648l0.474-0.636
		l0.416-0.625l0.384-0.612l0.119-0.783l0.057-0.758l-0.001-0.391l-0.014-0.391l-0.091-0.759l-0.18-0.781l-0.24-0.758l-0.147-0.391
		l-0.09-0.195l-0.045-0.098l-0.029-0.085l-0.178-0.39L95.784,17.169L95.784,17.169z M89.049,14.271l0.475-0.013l0.224,0l0.238,0.024
		l0.431,0.06l0.43,0.086l0.402,0.108l0.388,0.147l0.356,0.183l0.356,0.219l0.314,0.232l0.149,0.122l0.162,0.146l0.285,0.306
		l0.282,0.329l0.24,0.355l0.237,0.39l0.21,0.428l0.088,0.221l0.104,0.245l0.062,0.219l0.028,0.11l0.046,0.122l0.059,0.221
		l0.028,0.109l0.046,0.123l0.075,0.441l0.075,0.44l0.016,0.415l-0.015,0.416l-0.029,0.196l-0.015,0.098l0,0.11l-0.074,0.415
		l-0.029,0.037l-0.017,0.049l-0.029,0.098l-0.057,0.195l-0.029,0.038l-0.017,0.049l-0.029,0.097l-0.06,0.196l-0.191,0.367
		l-0.193,0.368l-0.251,0.343l-0.149,0.171l-0.045,0.038l-0.029,0.049l-0.058,0.097l-0.09,0.075l-0.045,0.036l-0.029,0.049
		l-0.148,0.172l-0.342,0.342l-0.088,0.049l-0.045,0.024l-0.029,0.037l-0.148,0.123l-0.298,0.221l-0.09,0.036l-0.074,0.049
		l-0.148,0.097l-0.297,0.185l-0.326,0.135l-0.088,0.024l-0.045,0.012l-0.029,0.025l-0.148,0.073l-0.327,0.098l-0.09,0.013
		l-0.074,0.024l-0.148,0.05l-0.343,0.05l-0.326,0.037l-0.356,0.013l-0.326-0.012l-0.355-0.036l-0.358-0.06l-0.357-0.086
		l-0.356-0.085l-0.447-0.171l-0.401-0.183l-0.388-0.22l-0.34-0.243l-0.343-0.293l-0.297-0.305l-0.282-0.355l-0.24-0.366
		l-0.208-0.341l-0.166-0.33l-0.253-0.66l-0.104-0.343l-0.059-0.329l-0.045-0.342l-0.001-0.331l-0.016-0.355l0.044-0.341l0.044-0.342
		l0.103-0.343l0.103-0.355l0.132-0.342l0.164-0.356l0.193-0.342l0.223-0.404l0.264-0.38l0.075-0.195l0.105-0.172l0.206-0.368
		l0.252-0.318l0.267-0.282l0.31-0.245l0.313-0.22l0.355-0.184l0.372-0.147l0.4-0.099l0.52-0.234L89.049,14.271L89.049,14.271z"/>
	<polygon fill-rule="evenodd" clip-rule="evenodd" fill="#FFFFFF" points="94.418,17.856 94.314,17.612 94.226,17.391 
		94.016,16.963 93.779,16.573 93.539,16.219 93.257,15.89 92.973,15.584 92.81,15.438 92.662,15.316 92.348,15.084 91.992,14.865 
		91.636,14.682 91.248,14.535 90.847,14.427 90.417,14.342 89.986,14.281 89.748,14.257 89.524,14.258 89.049,14.271 88.471,14.417 
		87.95,14.651 87.55,14.75 87.178,14.897 86.823,15.081 86.51,15.301 86.2,15.546 85.933,15.828 85.681,16.146 85.474,16.514 
		85.369,16.685 85.294,16.881 85.03,17.261 84.807,17.664 84.614,18.006 84.45,18.362 84.318,18.704 84.215,19.059 84.112,19.402 
		84.067,19.744 84.023,20.086 84.039,20.44 84.04,20.772 84.085,21.113 84.144,21.443 84.249,21.785 84.502,22.446 84.667,22.775 
		84.875,23.117 85.115,23.483 85.396,23.838 85.694,24.143 86.037,24.436 86.377,24.679 86.765,24.898 87.166,25.081 87.613,25.252 
		87.968,25.337 88.325,25.423 88.683,25.483 89.039,25.519 89.365,25.53 89.722,25.517 90.048,25.481 90.39,25.431 90.539,25.381 
		90.613,25.357 90.703,25.344 91.03,25.246 91.178,25.173 91.207,25.148 91.252,25.136 91.34,25.112 91.666,24.977 91.963,24.792 
		92.112,24.695 92.186,24.645 92.276,24.609 92.573,24.388 92.721,24.265 92.751,24.228 92.795,24.204 92.883,24.155 93.226,23.812 
		93.374,23.641 93.403,23.592 93.448,23.556 93.537,23.481 93.596,23.384 93.625,23.335 93.67,23.297 93.819,23.126 94.071,22.784 
		94.263,22.416 94.454,22.049 94.514,21.853 94.543,21.756 94.56,21.707 94.589,21.669 94.646,21.475 94.676,21.377 94.692,21.328 
		94.721,21.291 94.795,20.876 94.795,20.765 94.81,20.667 94.839,20.471 94.854,20.056 94.838,19.641 94.763,19.201 94.688,18.76 
		94.642,18.637 94.613,18.528 94.554,18.308 94.508,18.186 94.48,18.075 94.418,17.856 	"/>
	<polygon fill-rule="evenodd" clip-rule="evenodd" fill="#CC3300" points="81.965,23.036 82.038,23.561 82.083,23.819 
		82.158,24.088 82.323,24.588 82.531,25.077 82.77,25.541 83.066,26.006 83.396,26.445 83.575,26.652 83.782,26.873 84.303,27.385 
		84.869,27.849 85.151,28.056 85.449,28.251 86.086,28.592 86.727,28.86 87.396,29.079 87.738,29.164 88.095,29.237 88.45,29.297 
		88.822,29.346 88.926,29.883 89.063,30.445 89.226,30.995 89.437,31.558 89.628,31.949 89.748,32.132 89.897,32.302 90.208,32.596 
		90.389,32.729 90.596,32.851 92.023,33.778 92.291,33.778 92.424,33.778 92.573,33.79 93.122,33.789 93.658,33.763 94.192,33.739 
		93.062,32.823 92.69,32.542 92.347,32.262 92.007,31.969 91.693,31.677 91.382,31.358 91.098,31.041 90.815,30.7 90.563,30.369 
		90.338,29.344 90.354,29.344 90.783,29.294 90.99,29.256 91.214,29.231 91.407,29.182 91.614,29.146 92.031,29.035 92.209,28.962 
		92.297,28.924 92.403,28.9 92.774,28.752 93.13,28.568 93.485,28.384 93.633,28.261 93.663,28.225 93.707,28.201 93.798,28.152 
		94.124,27.919 94.42,27.65 94.718,27.368 94.983,27.061 95.25,26.731 95.489,26.376 95.724,26.008 96.079,25.323 96.375,24.662 
		96.613,23.978 96.818,23.317 96.435,23.929 96.019,24.554 95.545,25.19 95.041,25.838 93.394,26.685 93.007,26.857 92.636,27.016 
		92.264,27.164 91.909,27.299 91.537,27.41 91.182,27.508 90.827,27.595 90.484,27.668 90.129,27.718 89.77,27.755 89.088,27.805 
		88.403,27.782 87.736,27.709 87.067,27.563 86.414,27.369 85.757,27.102 85.431,26.955 85.133,26.797 84.508,26.406 84.197,26.199 
		83.9,25.979 83.586,25.735 83.289,25.479 82.991,25.211 82.709,24.93 81.965,23.036 	"/>
	<path fill-rule="evenodd" clip-rule="evenodd" fill="#F46E1D" d="M94.192,33.739l-0.534,0.025l-0.536,0.025l-0.549,0.001
		l-0.149-0.012l-0.133,0l-0.268,0l0.119,0.134l0.506,0.452l0.492,0.488l0.431,0.488l0.418,0.525l0.356,0.512l0.327,0.55l0.269,0.562
		l0.253,0.586l0.179,0.586l0.166,0.611l0.105,0.624l0.091,0.648l0.03,0.647l0.001,0.673l-0.059,0.685l-0.073,0.709l-0.206,0.405
		l-0.103,0.195l-0.09,0.208l-0.222,0.391l-0.206,0.392l-0.252,0.367l-0.238,0.38l-0.265,0.367l-0.268,0.368l-0.296,0.33
		l-0.165,0.147l-0.145,0.148l-0.18,0.122l-0.088,0.061l-0.074,0.073l-0.178,0.111l-0.09,0.048l-0.046,0.025l-0.028,0.036
		l-0.059,0.013l-0.045,0.024l-0.091,0.049l-0.178,0.085l-0.385,0.135l-0.417,0.099l-0.223,0.024l-0.207,0.037l-0.537,0.013
		l-0.488,0.001l-0.491-0.048l-0.445-0.073l-0.447-0.121l-0.402-0.133l-0.385-0.183l-0.342-0.195l-0.357-0.256l-0.313-0.269
		l-0.298-0.317l-0.253-0.342l-0.269-0.39l-0.223-0.403l-0.208-0.452l-0.163-0.477l-0.224-0.746l-0.078-0.367l-0.03-0.342
		l-0.014-0.354l0.013-0.331l0.105-0.648l0.189-0.624l0.312-0.6l0.177-0.293l0.223-0.27l0.519-0.526l0.339-0.294l0.404-0.245
		l0.326-0.184l0.34-0.135l0.313-0.111l0.326-0.062l0.133-0.036l0.148-0.013l0.298,0l0.135,0l0.147,0.025l0.136,0.024l0.149,0.049
		l0.252,0.085l0.119,0.049l0.133,0.073l0.239,0.159l0.237,0.195l0.21,0.22l0.207,0.268l0.087,0.135l0.107,0.159l0.192,0.329
		l0.12,0.256l0.104,0.269l0.091,0.257l0.075,0.268l0.03,0.245l0.016,0.245l0,0.233l-0.015,0.245l-0.058,0.22l-0.029,0.049
		l-0.016,0.024l0,0.037l-0.029,0.122l-0.061,0.097l-0.029,0.049l-0.016,0.025l0,0.036l-0.103,0.221l-0.148,0.196l-0.088,0.097
		l-0.045,0.049l-0.029,0.061l-0.194,0.196l-0.103,0.098l-0.09,0.111l-0.148,0.073l-0.117,0.062l-0.119,0.049l-0.119,0.036
		l-0.282-0.012l-0.238-0.024l-0.236-0.037l-0.194-0.048l-0.194-0.073l-0.162-0.073l-0.149-0.098l-0.104-0.109l-0.12-0.135
		l-0.074-0.146l-0.075-0.159l-0.03-0.17l-0.032-0.196l0-0.208l0.015-0.219l0.045-0.233l0.12-0.037l0.132-0.025l0.12-0.037
		l0.119-0.036l0.088-0.061l0.09-0.049l0.074-0.073l0.088-0.062l0.016-0.049l0.029-0.037l0.014-0.048l0.032-0.038l0.028-0.098
		l0.017-0.048l0.029-0.037l0-0.123l0-0.061l0.013-0.049l-0.013-0.122l0-0.122l-0.062-0.196l-0.059-0.158l-0.09-0.134l-0.104-0.11
		l-0.133-0.086l-0.136-0.061l-0.162-0.036l-0.178,0.012l-0.252,0l-0.223,0.024l-0.21,0.038l-0.178,0.061l-0.194,0.061l-0.161,0.085
		l-0.149,0.099l-0.119,0.122l-0.133,0.123l-0.103,0.146l-0.164,0.343l-0.075,0.183l-0.045,0.22l-0.029,0.22l0,0.257l-0.029,0.33
		l0.017,0.331l0.03,0.305l0.075,0.305l0.059,0.27l0.104,0.268l0.12,0.257l0.163,0.244l0.152,0.207l0.191,0.208l0.21,0.195
		l0.252,0.183l0.253,0.159l0.282,0.146l0.297,0.134l0.343,0.122l0.269,0.073l0.132,0.025l0.149,0.035l0.268,0.037l0.133,0
		l0.149,0.012l0.12-0.012l0.133,0l0.252-0.025l0.239-0.06l0.116-0.037l0.136-0.025l0.207-0.11l0.016-0.025l0.029-0.012l0.059-0.024
		l0.119-0.049l0.21-0.147l0.042-0.049l0.061-0.038l0.117-0.073l0.09-0.098l0.045-0.048l0.059-0.037l0.207-0.208l0.18-0.233
		l0.088-0.122l0.016-0.038l0.029-0.024l0.059-0.049l0.222-0.391l0.193-0.368l0.164-0.391l0.148-0.367l0.087-0.392l0.074-0.366
		l0.029-0.392l0.015-0.367l-0.046-0.392l-0.059-0.366l-0.104-0.391l-0.12-0.367l-0.178-0.39l-0.195-0.366l-0.223-0.392l-0.253-0.367
		l-0.24-0.304l-0.237-0.257l-0.252-0.23l-0.269-0.209l-0.297-0.183l-0.298-0.158l-0.164-0.073l-0.147-0.049l-0.329-0.085
		l-0.504-0.121l-0.476-0.073l-0.476-0.035l-0.445,0.013l-0.446,0.025l-0.43,0.075l-0.417,0.11l-0.384,0.148l-0.401,0.171
		l-0.371,0.209l-0.356,0.246l-0.341,0.293l-0.342,0.306l-0.31,0.356l-0.297,0.392l-0.282,0.441l-0.191,0.281l-0.148,0.306
		l-0.252,0.624l-0.163,0.648l-0.044,0.673l-0.013,0.635L83.2,42.56l0.03,0.33l0.075,0.623l0.134,0.623L83.5,44.43l0.088,0.306
		l0.208,0.61l0.256,0.587l0.299,0.587l0.133,0.243l0.162,0.257l0.344,0.465l0.373,0.427l0.194,0.195l0.223,0.195l0.431,0.343
		l0.492,0.317l0.521,0.268l0.265,0.11l0.298,0.122l0.223,0.085l-0.802,0.051l-0.772,0.112l-0.759,0.147l-0.727,0.197l0.298,0.587
		l0.285,0.586l0.225,0.599l0.208,0.611l0.134,0.61l0.12,0.613l0.06,0.622l0.032,0.637l-0.03,0.611l-0.058,0.635l-0.118,0.635
		l-0.132,0.648l-0.206,0.637l-0.223,0.661l-0.283,0.66l-0.296,0.673l-0.132,0.196l-0.119,0.208l-0.149,0.183l-0.132,0.197
		l-0.09,0.073l-0.029,0.012l-0.016,0.024l-0.029,0.049l-0.146,0.172l-0.09,0.073l-0.029,0.012l-0.016,0.025l-0.029,0.048
		l-0.148,0.159l-0.356,0.27l-0.193,0.122l-0.177,0.122l-0.21,0.098l-0.193,0.098l-0.415,0.172l-0.743,0.197l-0.714,0.184
		l-0.712,0.161l-0.714,0.135l-0.74,0.112l-0.715,0.086l-0.371,0.025l-0.355,0.038l-0.715,0.062l-0.743,0.013l-0.711,0.001
		l-0.744-0.022l-0.714-0.036l-0.74-0.072l-0.715-0.084l-0.743-0.109l-0.711-0.133l-3.123,7.769l0.625,0.745l0.641,0.769l0.622,0.782
		l0.628,0.818l0.596,0.818l0.609,0.843l0.596,0.855l0.61,0.879l0.223,0.341l0.269,0.342l0.268,0.33l0.311,0.342L73.96,78.3
		l0.43-0.295l0.414-0.342l0.445-0.356l0.432-0.404l0.446-0.429l0.446-0.478l0.442-0.49l0.519-0.636l0.49-0.613l0.458-0.612
		l0.445-0.613l5.565,5.335l0.446-0.356l0.222-0.196l0.236-0.184l0.446-0.405l0.446-0.404l0.416-0.454l0.413-0.453l0.193-0.245
		l0.21-0.233l0.088-0.134l0.103-0.122l0.209-0.244l2.135-2.828l0.373,0.427l0.43,0.464l0.447,0.476l0.489,0.512l0.521,0.513
		l0.551,0.548l0.582,0.563l0.609,0.598l0.608,0.537l0.657,0.512l0.653,0.476l0.699,0.463l3.11-6.289l1.175,1.282l0.609,0.622
		l0.641,0.634l1.295,1.233l1.354,1.208l2.084,1.806l1.887-8.048l0.373,0.598l0.415,0.624l0.447,0.634l0.492,0.659l4.02,5.349
		l-0.009-5.368l0.207,0.244l0.252,0.256l0.285,0.244l0.311,0.269l-1.938-5.218l-0.672-1.575l-0.687-1.54l-0.744-1.526l-0.761-1.504
		l-0.415-0.733l-0.582,0.295l-0.594,0.307l-0.562,0.233l-0.536,0.208l-0.534,0.184l-0.519,0.161l-0.52,0.135l-0.505,0.111
		l-0.491,0.086l-0.474,0.086l-0.488,0.038l-0.478,0.013l-0.459-0.011l-0.446-0.011l-0.445-0.061l-0.431-0.06l-0.43-0.11l-0.417-0.11
		l-0.417-0.157l-0.401-0.159l-0.402-0.207l-0.385-0.207l-0.388-0.257l-0.372-0.256l-0.357-0.28l-0.342-0.305l-0.357-0.355
		l-0.327-0.354l-0.327-0.379l-0.314-0.402l-0.311-0.427l-0.299-0.452l-0.298-0.477l-0.269-0.501l-0.253-0.476l-0.194-0.464
		L95.3,56.978l-0.134-0.464l-0.075-0.244l-0.045-0.232l-0.075-0.465l-0.046-0.464l-0.001-0.464l0.015-0.489l0.058-0.465l0.074-0.476
		l0.135-0.466l0.145-0.49l0.194-0.465l0.222-0.477l0.251-0.464l0.251-0.49l-4.055-0.752l0.327-0.147l0.355-0.159l0.326-0.185
		l0.342-0.196l0.326-0.232l0.327-0.245l0.326-0.282l0.327-0.281l0.148-0.184l0.164-0.171l0.297-0.356l0.267-0.367l0.265-0.354
		l0.239-0.38l0.103-0.195l0.119-0.184l0.194-0.391l0.19-0.391l0.149-0.416l0.134-0.416l0.043-0.22l0.06-0.207l0.046-0.221
		l0.057-0.208l0.029-0.232l0.045-0.221l0.058-0.441l0.029-0.452l0.031-0.452l-0.033-0.6l-0.043-0.562L97.383,39.7l-0.076-0.538
		l-0.136-0.538l-0.134-0.513l-0.163-0.501l-0.194-0.477l-0.224-0.487l-0.253-0.453l-0.285-0.452l-0.282-0.428l-0.344-0.427
		l-0.34-0.391l-0.372-0.39L94.192,33.739L94.192,33.739z M90.607,56.901l0.372,0.072l0.371,0.11l0.34,0.122l0.327,0.158l0.297,0.159
		l0.298,0.208l0.268,0.207l0.252,0.257l0.224,0.257l0.207,0.281l0.178,0.305l0.181,0.33l0.133,0.329l0.134,0.379l0.106,0.379
		l0.104,0.428l0.075,0.562l0.076,0.562l0.029,0.562l0.018,0.587l-0.016,0.563l-0.044,0.586l-0.073,0.562l-0.087,0.588l-0.089,0.318
		l-0.058,0.159l-0.045,0.171l-0.119,0.318l-0.12,0.318l-0.161,0.294l-0.091,0.146l-0.045,0.074l-0.029,0.085l-0.059,0.061
		l-0.045,0.073l-0.088,0.147l-0.193,0.294l-0.387,0.417l-0.207,0.183l-0.194,0.172l-0.207,0.147l-0.209,0.135l-0.117,0.049
		l-0.061,0.024l-0.028,0.014l-0.014,0.024l-0.21,0.099l-0.236,0.073l-0.238,0.062l-0.075,0L91,69.322l-0.12,0.024l-0.238,0.026
		l-0.266,0l-0.045-0.012l-0.029,0l-0.062,0l-0.119,0l-0.266-0.025l-0.133-0.024L89.603,69.3l-0.269-0.074l-0.238-0.072l-0.46-0.183
		l-0.43-0.218l-0.402-0.269l-0.372-0.317l-0.178-0.183L87.102,67.8l-0.311-0.403l-0.254-0.44l-0.327-0.684l-0.149-0.343
		l-0.104-0.329l-0.179-0.685l-0.108-0.684l-0.044-0.709l0.028-0.709l0.029-0.367l0.074-0.355l0.074-0.366l0.103-0.355l0.119-0.453
		l0.163-0.428l0.161-0.403l0.206-0.368l0.209-0.367l0.236-0.33l0.251-0.318l0.297-0.283l0.283-0.281l0.327-0.245l0.339-0.233
		l0.387-0.184l0.371-0.184l0.417-0.159l0.429-0.136L90.607,56.901L90.607,56.901z"/>
	<path fill-rule="evenodd" clip-rule="evenodd" fill="#CC3300" d="M94.401,60.88l-0.104-0.428l-0.106-0.379l-0.134-0.379
		l-0.133-0.329l-0.181-0.33l-0.178-0.305l-0.207-0.281l-0.224-0.257l-0.252-0.257l-0.268-0.207l-0.298-0.208l-0.297-0.159
		l-0.327-0.158l-0.34-0.122l-0.371-0.11l-0.372-0.072l-0.475,0.098l-0.429,0.136l-0.417,0.159l-0.371,0.184l-0.387,0.184
		l-0.339,0.233l-0.327,0.245l-0.283,0.281l-0.297,0.283l-0.251,0.318l-0.236,0.33l-0.209,0.367l-0.206,0.368l-0.161,0.403
		l-0.163,0.428l-0.119,0.453l-0.103,0.355l-0.074,0.366l-0.074,0.355l-0.029,0.367l-0.028,0.709l0.044,0.709l0.108,0.684
		l0.179,0.685l0.104,0.329l0.149,0.343l0.327,0.684l0.254,0.44l0.311,0.403l0.152,0.183l0.178,0.183l0.372,0.317l0.402,0.269
		l0.43,0.218l0.46,0.183l0.238,0.072l0.269,0.074l0.119,0.012l0.133,0.024l0.266,0.025l0.119,0l0.062,0l0.029,0l0.045,0.012l0.266,0
		l0.238-0.026L91,69.322l0.058-0.012l0.075,0l0.238-0.062l0.236-0.073l0.21-0.099l0.014-0.024l0.028-0.014l0.061-0.024l0.117-0.049
		l0.209-0.135l0.207-0.147l0.194-0.172l0.207-0.183l0.387-0.417l0.193-0.294l0.088-0.147l0.045-0.073l0.059-0.061l0.029-0.085
		l0.045-0.074l0.091-0.146l0.161-0.294l0.12-0.318l0.119-0.318l0.045-0.171l0.058-0.159l0.089-0.318l0.087-0.588l0.073-0.562
		l0.044-0.586l0.016-0.563l-0.018-0.587l-0.029-0.562l-0.076-0.562L94.401,60.88L94.401,60.88z M90.103,58.761l0.655-0.161
		l0.266,0.086l0.269,0.121l0.252,0.123l0.255,0.158l0.221,0.147l0.209,0.182l0.192,0.196l0.195,0.219l0.149,0.207l0.149,0.244
		l0.133,0.258l0.136,0.28l0.087,0.282l0.091,0.305l0.075,0.319l0.075,0.342l0.046,0.513l0,0.123l0,0.061l0.014,0.074l0.016,0.269
		l-0.028,0.513l-0.029,0.257l-0.015,0.27l-0.058,0.243l-0.029,0.124l-0.016,0.024l0,0.036l0,0.074l-0.135,0.514l-0.177,0.489
		l-0.103,0.245l-0.087,0.256l-0.164,0.269l-0.091,0.123l-0.028,0.025l-0.014,0.036l-0.032,0.073l-0.177,0.233l-0.088,0.098
		l-0.045,0.049l-0.029,0.06l-0.06,0.037l-0.043,0.049l-0.09,0.098l-0.194,0.171l-0.207,0.135l-0.058,0.025l-0.032,0.012
		l-0.014,0.024l-0.09,0.074L91.22,67.83l-0.119,0.036l-0.103,0.049l-0.239,0.049l-0.236,0.038l-0.268,0l-0.268-0.012l-0.148-0.025
		l-0.045-0.012l-0.029,0l-0.059,0l-0.269-0.049l-0.311-0.122l-0.284-0.171l-0.266-0.219l-0.223-0.244l-0.285-0.391l-0.253-0.366
		l-0.223-0.392l-0.163-0.379l-0.166-0.403l-0.104-0.392l-0.104-0.403l-0.046-0.391l-0.046-0.416l-0.014-0.416l0.013-0.428
		l0.074-0.415l0.073-0.441l0.135-0.428l0.132-0.441l0.193-0.44l0.177-0.404l0.223-0.342l0.251-0.308l0.31-0.244l0.148-0.123
		l0.178-0.098l0.372-0.147l0.193-0.075l0.224-0.049L90.103,58.761L90.103,58.761z"/>
	<polygon fill-rule="evenodd" clip-rule="evenodd" fill="#FFFFFF" points="90.758,58.6 90.103,58.761 89.644,58.822 89.421,58.871 
		89.227,58.946 88.856,59.092 88.678,59.191 88.53,59.313 88.22,59.557 87.968,59.865 87.745,60.207 87.568,60.611 87.375,61.051 
		87.243,61.492 87.108,61.92 87.035,62.36 86.961,62.775 86.948,63.203 86.963,63.619 87.008,64.035 87.054,64.426 87.158,64.828 
		87.262,65.22 87.428,65.623 87.591,66.002 87.814,66.394 88.067,66.76 88.351,67.151 88.575,67.394 88.84,67.614 89.125,67.785 
		89.436,67.906 89.704,67.955 89.763,67.955 89.792,67.955 89.837,67.967 89.986,67.992 90.253,68.003 90.522,68.003 90.758,67.965 
		90.997,67.916 91.101,67.867 91.22,67.83 91.456,67.745 91.546,67.67 91.559,67.646 91.591,67.634 91.649,67.609 91.856,67.474 
		92.05,67.304 92.14,67.205 92.183,67.156 92.243,67.119 92.272,67.059 92.317,67.009 92.405,66.911 92.582,66.678 92.614,66.605 
		92.628,66.569 92.656,66.544 92.747,66.421 92.91,66.152 92.998,65.896 93.101,65.651 93.278,65.162 93.413,64.648 93.413,64.574 
		93.412,64.538 93.428,64.514 93.457,64.39 93.515,64.147 93.531,63.877 93.559,63.62 93.588,63.107 93.572,62.838 93.558,62.764 
		93.558,62.703 93.558,62.58 93.512,62.068 93.437,61.726 93.362,61.407 93.271,61.103 93.184,60.821 93.047,60.541 92.914,60.283 
		92.765,60.039 92.617,59.832 92.422,59.613 92.23,59.417 92.021,59.234 91.8,59.087 91.545,58.929 91.293,58.806 91.024,58.686 
		90.758,58.6 	"/>
	<path fill-rule="evenodd" clip-rule="evenodd" fill="#CC3300" d="M81.382,49.068l-0.965-0.904l-0.148,0.281l-0.148,0.27
		l-0.091,0.122l-0.029,0.024l-0.016,0.012l0,0.024l-0.029,0.074l-0.162,0.245l-0.193,0.22l-0.194,0.221L79.2,49.853l-0.207,0.184
		l0.861,0.671l0.282,0.256l0.285,0.28l0.266,0.305l0.285,0.343l-1.321,0.833l-0.653,0.429l-0.625,0.466l-1.231,0.955l-0.607,0.502
		l-0.58,0.526L75.29,56.23l-0.638,0.673l-0.609,0.698l-0.294,0.354l-0.268,0.381l-0.802,1.089l-0.726,1.138l-0.681,1.163
		l-0.605,1.224l0.711,0.133l0.743,0.109l0.715,0.084l0.74,0.072l0.714,0.036l0.744,0.022l0.711-0.001l0.743-0.013l0.715-0.062
		l0.355-0.038l0.371-0.025l0.715-0.086l0.74-0.112l0.714-0.135l0.712-0.161l0.714-0.184l0.743-0.197l0.415-0.172l0.193-0.098
		l0.21-0.098l0.177-0.122l0.193-0.122l0.356-0.27l0.148-0.159l0.029-0.048l0.016-0.025l0.029-0.012l0.09-0.073l0.146-0.172
		l0.029-0.049l0.016-0.024l0.029-0.012l0.09-0.073l0.132-0.197l0.149-0.183l0.119-0.208l0.132-0.196l0.296-0.673l0.283-0.66
		l0.223-0.661l0.206-0.637l0.132-0.648l0.118-0.635l0.058-0.635l0.03-0.611l-0.032-0.637l-0.06-0.622l-0.12-0.613l-0.134-0.61
		l-0.208-0.611l-0.225-0.599l-0.285-0.586l-0.298-0.587l-0.608,0.172l-0.594,0.209l-0.578,0.233l-0.549,0.27l-0.285-0.526
		l-0.296-0.477l-0.33-0.452L81.382,49.068L81.382,49.068z M82.208,54.09l0.402,0.086l0.388,0.109l0.34,0.122l0.342,0.159
		l0.282,0.159l0.255,0.207l0.221,0.207l0.21,0.256l0.133,0.257l0.135,0.281l0.088,0.294l0.075,0.329l0.017,0.331l0.001,0.378
		l-0.045,0.38l-0.044,0.428l-0.087,0.245l-0.255-0.33l-0.237-0.28l-0.268-0.281l-0.252-0.244l-0.282-0.244l-0.285-0.207
		l-0.311-0.208l-0.298-0.158l-0.343-0.159l-0.326-0.134l-0.356-0.122l-0.357-0.084l-0.387-0.084l-0.372-0.049l-0.401-0.036
		l-0.385-0.012l0.191-0.343l0.222-0.293l0.252-0.257l0.284-0.209l0.31-0.184l0.342-0.135l0.372-0.11L82.208,54.09L82.208,54.09z
		 M84.682,58.831l-0.533,0.686l-0.238,0.171l-0.207,0.159l-0.21,0.135l-0.207,0.111l-0.12,0.037l-0.103,0.048l-0.207,0.074
		l-0.209,0.037l-0.207,0.037l-0.239-0.011l-0.207-0.013l-0.207-0.049l-0.207-0.06l-0.12-0.049L81.4,60.12l-0.029-0.013l-0.014,0
		l-0.209-0.11l-0.207-0.134l-0.207-0.146L80.345,59.4l-0.178-0.172l-0.133-0.159l-0.152-0.183l-0.117-0.17l-0.104-0.183
		l-0.074-0.171l-0.136-0.391l-0.058-0.391l-0.001-0.416l0.057-0.417l0.298-0.036l0.297-0.014l0.611,0.036l0.608,0.109l0.64,0.206
		l0.372,0.134l0.385,0.182l0.356,0.183l0.372,0.22L83.714,58l0.343,0.257l0.314,0.268L84.682,58.831L84.682,58.831z"/>
	<polygon fill-rule="evenodd" clip-rule="evenodd" fill="#FFFFFF" points="85.007,58.072 85.051,57.644 85.097,57.264 
		85.096,56.886 85.079,56.555 85.004,56.226 84.916,55.932 84.78,55.651 84.647,55.394 84.437,55.138 84.216,54.931 83.961,54.724 
		83.679,54.565 83.337,54.406 82.997,54.285 82.609,54.176 82.208,54.09 81.778,54.152 81.406,54.263 81.065,54.398 80.754,54.582 
		80.47,54.791 80.218,55.048 79.996,55.341 79.805,55.684 80.19,55.696 80.591,55.732 80.963,55.781 81.35,55.865 81.707,55.949 
		82.062,56.071 82.389,56.205 82.732,56.364 83.03,56.522 83.341,56.73 83.625,56.937 83.907,57.181 84.159,57.425 84.427,57.706 
		84.664,57.987 84.92,58.317 85.007,58.072 	"/>
	<polygon fill-rule="evenodd" clip-rule="evenodd" fill="#FFFFFF" points="84.149,59.517 84.682,58.831 84.371,58.525 
		84.057,58.257 83.714,58 83.388,57.769 83.015,57.549 82.659,57.366 82.274,57.184 81.902,57.05 81.262,56.844 80.654,56.734 
		80.043,56.698 79.746,56.712 79.448,56.748 79.391,57.165 79.392,57.581 79.45,57.971 79.587,58.362 79.661,58.533 79.765,58.717 
		79.883,58.887 80.034,59.07 80.167,59.229 80.345,59.4 80.733,59.717 80.941,59.863 81.148,59.997 81.357,60.107 81.371,60.107 
		81.4,60.12 81.461,60.144 81.581,60.193 81.788,60.253 81.995,60.301 82.202,60.314 82.442,60.326 82.649,60.289 82.857,60.251 
		83.064,60.178 83.168,60.129 83.288,60.092 83.495,59.982 83.704,59.846 83.911,59.688 84.149,59.517 	"/>
	<path fill-rule="evenodd" clip-rule="evenodd" fill="#CC3300" d="M96.269,50.363l-0.251,0.49l-0.251,0.464l-0.222,0.477
		l-0.194,0.465l-0.145,0.49l-0.135,0.466l-0.074,0.476l-0.058,0.465l-0.015,0.489l0.001,0.464l0.046,0.464l0.075,0.465l0.045,0.232
		l0.075,0.244l0.134,0.464l0.179,0.465l0.194,0.464l0.253,0.476l0.269,0.501l0.298,0.477l0.299,0.452l0.311,0.427l0.314,0.402
		l0.327,0.379l0.327,0.354l0.357,0.355l0.342,0.305l0.357,0.28l0.372,0.256l0.388,0.257l0.385,0.207l0.402,0.207l0.401,0.159
		l0.417,0.157l0.417,0.11l0.43,0.11l0.431,0.06l0.445,0.061l0.446,0.011l0.459,0.011l0.478-0.013l0.488-0.038l0.474-0.086
		l0.491-0.086l0.505-0.111l0.52-0.135l0.519-0.161l0.534-0.184l0.536-0.208l0.562-0.233l0.594-0.307l0.582-0.295l-0.405-0.696
		l-0.415-0.672l-0.864-1.307l-0.477-0.647l-0.476-0.623l-0.492-0.61l-0.506-0.598l-0.579-0.623l-0.58-0.597l-0.611-0.575
		l-0.311-0.28l-0.298-0.255l-0.656-0.526l-0.654-0.475l-0.683-0.452l-0.699-0.426l-0.892-0.501l0.251-0.49l0.935-1.345l-0.194-0.061
		l-0.311-0.133l-0.297-0.147l-0.298-0.158l-0.268-0.183l-0.566-0.611l-0.487,0.979l-0.164,0.33l-0.103,0.342l-0.074,0.343
		l-0.044,0.342l-0.728-0.304l-0.714-0.268L97,50.582L96.269,50.363L96.269,50.363z M103.055,56.831l0.063,0.783l-0.016,0.195
		l-0.015,0.097l0,0.111l-0.029,0.085l-0.015,0.099l-0.029,0.195l-0.058,0.172l-0.058,0.183l-0.09,0.172l-0.029,0.036l-0.016,0.049
		l-0.029,0.098l-0.12,0.146l-0.057,0.074l-0.029,0.037l-0.017,0.049l-0.045,0.024l-0.029,0.038l-0.058,0.073l-0.119,0.147
		l-0.165,0.122l-0.148,0.135l-0.178,0.122l-0.177,0.134l-0.281,0.136l-0.268,0.11l-0.267,0.087l-0.253,0.086l-0.252,0.037
		l-0.236,0.036l-0.223-0.012l-0.21-0.011l-0.223-0.061l-0.207-0.061l-0.194-0.098l-0.178-0.109L98.604,60.2l-0.178-0.158
		l-0.162-0.183l-0.149-0.208l0.148-0.392l0.19-0.355l0.223-0.318l0.238-0.306l0.252-0.257l0.252-0.257l0.268-0.208l0.281-0.196
		l0.312-0.16l0.298-0.146l0.31-0.111l0.326-0.086l0.358-0.063l0.34-0.036l0.372-0.001l0.372,0.011L103.055,56.831L103.055,56.831z
		 M101.983,55.831l0,0.012l-0.637,0.062l-0.581,0.124l-0.563,0.184l-0.519,0.257l-0.52,0.295l-0.459,0.367l-0.432,0.428l-0.4,0.49
		l-0.058,0.245l-0.222,0.379l-0.136-0.319l-0.088-0.293l-0.075-0.293l-0.016-0.282l0.015-0.549l0.045-0.256l0.103-0.245l0.103-0.257
		l0.132-0.232l0.165-0.233l0.193-0.22l0.459-0.429l0.284-0.197l0.31-0.184l0.668-0.307l0.236,0l0.252,0.025l0.223,0.024l0.239,0.048
		l0.207,0.037l0.21,0.061l0.401,0.158l0.328,0.183l0.311,0.232l0.255,0.256l0.116,0.146l0.12,0.172L101.983,55.831L101.983,55.831z"
		/>
	<polygon fill-rule="evenodd" clip-rule="evenodd" fill="#FFFFFF" points="103.118,57.614 103.055,56.831 102.654,56.77 
		102.282,56.76 101.91,56.76 101.57,56.797 101.212,56.859 100.886,56.945 100.576,57.056 100.278,57.203 99.966,57.363 
		99.685,57.559 99.417,57.767 99.165,58.024 98.913,58.281 98.675,58.587 98.452,58.905 98.262,59.26 98.114,59.651 98.263,59.859 
		98.425,60.043 98.604,60.2 98.797,60.348 98.975,60.457 99.17,60.555 99.377,60.616 99.599,60.676 99.809,60.688 100.032,60.7 
		100.268,60.663 100.52,60.626 100.773,60.54 101.04,60.453 101.309,60.343 101.59,60.208 101.767,60.073 101.945,59.951 
		102.093,59.816 102.258,59.693 102.377,59.547 102.435,59.474 102.465,59.436 102.509,59.412 102.526,59.363 102.555,59.326 
		102.613,59.252 102.733,59.106 102.762,59.008 102.777,58.959 102.806,58.923 102.896,58.751 102.954,58.568 103.013,58.396 
		103.042,58.201 103.057,58.102 103.086,58.017 103.086,57.906 103.101,57.809 103.118,57.614 	"/>
	<polygon fill-rule="evenodd" clip-rule="evenodd" fill="#FFFFFF" points="101.983,55.843 101.983,55.831 102.653,55.72 
		102.532,55.548 102.416,55.402 102.161,55.146 101.85,54.913 101.522,54.731 101.121,54.573 100.911,54.513 100.704,54.475 
		100.465,54.427 100.242,54.403 99.99,54.378 99.754,54.379 99.086,54.686 98.775,54.87 98.491,55.067 98.032,55.495 97.839,55.715 
		97.675,55.948 97.542,56.18 97.439,56.437 97.336,56.683 97.291,56.939 97.277,57.488 97.293,57.77 97.367,58.063 97.456,58.356 
		97.592,58.675 97.814,58.296 97.872,58.051 98.272,57.561 98.704,57.132 99.163,56.765 99.683,56.47 100.202,56.212 
		100.765,56.028 101.346,55.905 101.983,55.843 	"/>
	<polygon fill-rule="evenodd" clip-rule="evenodd" fill="#66CC99" points="78.973,47.176 78.928,47.176 77.328,49.245 77.758,49.39 
		78.072,49.525 78.383,49.683 78.681,49.842 78.994,50.037 79.2,49.853 79.407,49.657 79.601,49.436 79.794,49.217 79.956,48.972 
		79.985,48.897 79.985,48.874 80.001,48.861 80.03,48.837 80.12,48.715 80.268,48.445 80.416,48.164 80.058,47.871 79.702,47.615 
		79.329,47.383 78.973,47.176 	"/>
	<polygon fill-rule="evenodd" clip-rule="evenodd" fill="#FF6699" points="78.928,47.176 78.808,47.103 78.466,46.944 
		78.139,46.811 77.472,46.579 77.1,46.469 76.743,46.385 76.015,46.252 75.808,46.277 75.391,46.35 75.006,46.486 74.635,46.657 
		74.309,46.902 74.144,47.013 74.041,47.147 73.937,47.294 73.893,47.453 73.848,47.783 73.864,47.966 73.91,48.175 74.088,48.297 
		74.265,48.407 74.667,48.602 74.874,48.675 75.097,48.735 75.559,48.833 77.283,49.221 77.328,49.245 78.928,47.176 	"/>
	<polygon fill-rule="evenodd" clip-rule="evenodd" fill="#FF9900" points="63.74,61.543 63.518,61.751 63.102,62.106 62.685,62.449 
		62.465,62.597 62.256,62.755 61.843,63.061 61.397,63.332 61.173,63.455 60.967,63.589 60.522,63.822 60.089,64.043 60.611,65.167 
		61.133,66.316 61.611,67.463 62.075,68.637 62.491,69.81 62.893,71.007 63.267,72.217 63.625,73.438 64.764,78.339 64.352,80.871 
		63.88,83.427 63.614,84.761 63.409,86.106 63.25,87.451 63.146,88.82 62.924,89.689 62.793,90.802 62.664,92.318 62.605,93.86 
		62.594,95.387 62.639,96.927 62.686,97.758 62.778,98.602 62.883,99.433 63.048,100.277 63.524,100.545 64.013,100.801 
		64.52,101.032 65.038,101.252 65.543,101.446 66.08,101.629 66.616,101.788 67.163,101.945 67.699,102.054 68.249,102.163 
		68.815,102.248 69.378,102.32 69.943,102.368 70.522,102.404 71.117,102.416 71.712,102.415 72.96,102.326 74.039,99.917 
		75.166,97.554 76.305,95.205 77.475,92.892 77.756,92.329 78.082,91.804 78.423,91.302 78.823,90.824 79.223,90.346 79.653,89.919 
		80.114,89.49 80.617,89.109 81.418,88.484 82.264,87.908 83.11,87.357 84.001,86.866 84.892,86.388 85.813,85.971 86.747,85.578 
		87.713,85.246 88.381,85.075 93.206,84.37 93.859,84.32 94.528,84.305 95.168,84.318 95.821,84.365 96.446,84.437 97.07,84.546 
		97.367,84.607 97.68,84.692 98.288,84.875 98.571,84.959 98.868,85.069 99.449,85.301 100.013,85.556 100.579,85.861 
		101.113,86.178 101.663,86.531 101.915,86.715 102.184,86.922 102.721,87.349 102.987,87.593 103.255,87.861 103.508,88.129 
		103.747,88.435 103.955,88.728 104.162,89.058 104.344,89.388 104.522,89.741 104.776,90.365 105.012,91.013 105.208,91.66 
		105.387,92.321 105.507,92.981 105.611,93.652 105.688,94.325 105.734,95.023 105.967,101.563 117.526,102.644 117.837,101.885 
		118.134,101.139 118.414,100.38 118.681,99.622 118.693,99.45 118.843,98.3 118.974,97.152 119.091,96.001 119.193,94.877 
		118.932,89.571 118.916,89.51 118.255,84.975 118.06,83.741 117.834,82.543 117.566,81.358 117.265,80.197 117.193,79.976 
		117.547,79.267 118.375,77.518 118.82,76.661 119.294,75.829 119.768,74.984 120.271,74.164 120.792,73.356 121.354,72.572 
		121.814,71.899 122.303,71.251 122.792,70.615 123.311,70.002 124.364,68.801 125.476,67.651 121.817,65.151 121.388,65.628 
		120.781,66.29 120.216,66.987 119.668,67.698 119.148,68.431 118.601,69.203 118.097,69.999 117.621,70.806 117.208,71.638 
		116.822,72.47 116.484,73.339 116.187,74.22 115.937,75.125 115.622,74.16 115.311,73.891 115.026,73.647 114.774,73.39 
		114.567,73.146 114.575,78.514 110.556,73.165 110.063,72.506 109.616,71.872 109.201,71.247 108.828,70.65 106.941,78.697 
		104.857,76.891 103.503,75.684 102.208,74.451 101.568,73.817 100.958,73.194 99.783,71.912 96.674,78.201 95.975,77.738 
		95.321,77.262 94.664,76.75 94.056,76.213 93.447,75.615 92.865,75.053 92.314,74.504 91.792,73.991 91.303,73.479 90.856,73.002 
		90.426,72.539 90.053,72.112 87.918,74.94 87.709,75.184 87.606,75.306 87.518,75.441 87.309,75.673 87.116,75.918 86.703,76.371 
		86.286,76.825 85.841,77.229 85.395,77.634 85.159,77.818 84.937,78.013 84.491,78.369 78.927,73.034 78.481,73.647 78.023,74.259 
		77.533,74.871 77.014,75.507 76.571,75.997 76.126,76.475 75.68,76.904 75.248,77.307 74.803,77.663 74.39,78.006 73.96,78.3 
		73.543,78.582 73.232,78.24 72.964,77.911 72.695,77.568 72.472,77.227 71.862,76.348 71.266,75.493 70.657,74.65 70.061,73.832 
		69.432,73.014 68.81,72.232 68.169,71.463 67.544,70.718 67.544,70.768 66.997,72.272 66.743,71.014 66.459,69.766 66.144,68.533 
		65.8,67.31 65.322,65.831 64.831,64.39 64.293,62.948 63.74,61.543 	"/>
	<path fill-rule="evenodd" clip-rule="evenodd" fill="#66CC99" d="M100.056,49.073l0.566,0.611l0.268,0.183l0.298,0.158l0.297,0.147
		l0.311,0.133l0.194,0.061l1.007-1.017l-0.192-0.28l-0.194-0.244l-0.224-0.244l-0.239-0.207l-0.283-0.208l-0.297-0.17l-0.311-0.159
		l-0.343-0.122L100.056,49.073L100.056,49.073z M101.69,48.703l0.046,0.049l-0.106,0.061L101.69,48.703L101.69,48.703z"/>
	<path fill-rule="evenodd" clip-rule="evenodd" fill="#FF6699" d="M102.998,49.348l0.432-0.403l0.458-0.368l0.491-0.33l0.52-0.295
		l0.148-0.11l0.148-0.111l0.058-0.073l0.029-0.036l0.045-0.025l0.133-0.123l0.103-0.146l0.12-0.147l0.09-0.172l0.088-0.16
		l0.074-0.269l0.06-0.233l0.043-0.22l0.015-0.197l-0.016-0.195l-0.03-0.158l-0.059-0.16l-0.074-0.122l-0.119-0.134l-0.133-0.097
		l-0.165-0.086l-0.162-0.049l-0.209-0.061l-0.224-0.024l-0.252-0.012l-0.266,0.013l-0.52,0.257l-0.474,0.306l-0.475,0.319
		l-0.432,0.355l-0.429,0.356l-0.387,0.404l-0.368,0.417l-0.342,0.452l0.343,0.122l0.311,0.159l0.297,0.17l0.283,0.208l0.239,0.207
		l0.224,0.244l0.194,0.244L102.998,49.348L102.998,49.348z M104.937,46.069l-0.057,0.073l-0.074-0.073l0.074-0.025L104.937,46.069
		L104.937,46.069z"/>
	<polygon fill-rule="evenodd" clip-rule="evenodd" fill="#FF6699" points="128.792,60.567 128.151,60.775 127.544,61.033 
		126.936,61.303 126.359,61.61 125.777,61.917 125.229,62.271 124.68,62.627 124.16,63.032 124.979,63.74 125.41,64.068 
		125.872,64.386 126.316,64.678 126.794,64.971 127.79,65.507 128.129,65.202 128.398,64.945 128.666,64.687 128.902,64.418 
		129.156,64.149 129.363,63.854 129.466,63.708 129.585,63.572 129.672,63.414 129.776,63.267 129.865,63.108 129.968,62.96 
		130.104,62.679 130.207,62.434 130.281,62.19 130.339,61.983 130.354,61.762 130.354,61.578 130.309,61.408 130.264,61.261 
		130.16,61.102 130.056,60.98 129.906,60.871 129.742,60.785 129.548,60.7 129.325,60.639 129.073,60.59 128.792,60.567 	"/>
	<polygon fill-rule="evenodd" clip-rule="evenodd" fill="#66CC99" points="122.426,64.526 121.817,65.151 125.476,67.651 
		127.79,65.507 126.794,64.971 126.316,64.678 125.872,64.386 125.41,64.068 124.979,63.74 124.16,63.032 122.426,64.526 	"/>
	<polygon fill-rule="evenodd" clip-rule="evenodd" fill="#FF6699" points="109.642,105.175 106.641,104.594 106.866,105.205 
		107.119,105.815 107.401,106.414 107.716,107.013 108.176,107.941 110.214,108.757 111.181,108.878 112.425,108.643 
		113.539,108.128 113.555,108.164 113.733,108.054 114.342,107.393 114.637,107.05 114.785,106.879 114.817,106.83 114.83,106.805 
		114.859,106.793 114.95,106.719 115.214,106.364 115.497,106.021 115.765,105.654 116.03,105.299 115.629,105.349 115.244,105.398 
		114.472,105.473 114.262,105.473 114.158,105.474 114.071,105.486 113.684,105.511 113.283,105.512 112.895,105.524 112.481,105.5 
		112.08,105.477 111.278,105.417 110.861,105.357 110.46,105.308 110.044,105.236 109.837,105.2 109.642,105.175 	"/>
	<polygon fill-rule="evenodd" clip-rule="evenodd" fill="#66CC99" points="106.641,104.594 109.642,105.175 109.837,105.2 
		110.044,105.236 110.46,105.308 110.861,105.357 111.278,105.417 112.08,105.477 112.481,105.5 112.895,105.524 113.283,105.512 
		113.684,105.511 114.071,105.486 114.158,105.474 114.262,105.473 114.472,105.473 115.244,105.398 115.629,105.349 
		116.03,105.299 116.417,104.663 116.787,104.027 117.141,103.365 117.483,102.704 117.526,102.644 105.967,101.563 
		106.072,102.332 106.131,102.711 106.222,103.103 106.417,103.848 106.641,104.594 	"/>
	<polygon fill-rule="evenodd" clip-rule="evenodd" fill="#FF6699" points="71.613,105.007 71.137,105.044 70.675,105.069 
		70.201,105.082 69.754,105.07 69.295,105.035 68.849,104.975 68.403,104.902 67.956,104.817 67.511,104.695 67.064,104.562 
		66.62,104.403 66.188,104.245 65.741,104.051 65.327,103.844 64.896,103.612 64.479,103.38 63.869,103.296 64.092,103.955 
		64.407,104.749 64.78,105.543 65.196,106.301 65.659,107.045 65.775,107.132 65.999,107.18 66.237,107.24 66.282,107.24 
		66.341,107.252 66.461,107.277 66.697,107.326 66.907,107.35 67.13,107.373 67.576,107.398 67.663,107.385 67.767,107.385 
		67.977,107.372 68.17,107.347 68.377,107.335 68.762,107.248 69.149,107.15 69.224,107.101 69.314,107.065 69.489,106.99 
		69.654,106.893 69.831,106.806 70.157,106.586 70.486,106.341 70.78,106.047 71.078,105.741 71.345,105.386 71.613,105.007 	"/>
	<polygon fill-rule="evenodd" clip-rule="evenodd" fill="#66CC99" points="64.479,103.38 64.896,103.612 65.327,103.844 
		65.741,104.051 66.188,104.245 66.62,104.403 67.064,104.562 67.511,104.695 67.956,104.817 68.403,104.902 68.849,104.975 
		69.295,105.035 69.754,105.07 70.201,105.082 70.675,105.069 71.137,105.044 71.613,105.007 72.96,102.326 71.712,102.415 
		71.117,102.416 70.522,102.404 69.943,102.368 69.378,102.32 68.815,102.248 68.249,102.163 67.699,102.054 67.163,101.945 
		66.616,101.788 66.08,101.629 65.543,101.446 65.038,101.252 64.52,101.032 64.013,100.801 63.524,100.545 63.048,100.277 
		63.719,102.904 63.869,103.296 64.479,103.38 	"/>
</g>
<text transform="matrix(1 0 0 1 7.3037 122.8779)"><tspan x="0" y="0" font-family="'IrishGrover'" font-size="30">P</tspan><tspan x="17.49" y="0" font-family="'IrishGrover'" font-size="20">aper</tspan><tspan x="61.865" y="0" font-family="'IrishGrover'" font-size="30"> M</tspan><tspan x="95.117" y="0" font-family="'IrishGrover'" font-size="20">onsters</tspan></text>
</svg>
