<svg xmlns="http://www.w3.org/2000/svg" viewBox="0 0 720 480" enable-background="new 0 0 720 480"><path fill="#0070B5" d="M165 267.2l-1.1 1.2-1 1.3-.5.7-.5.7-.5.7-.3.8-.3.7-.3.8-.3.8-.2.8-.2.8v3.4l.1.9.4 1.9.6 1.8.4.8.5.8.6.8.7.6.7.6.9.6.8.5.8.5.8.5 1 .5 1.4.5h3.1l1.5-.2 1.5-.2 1.4-.5 1.4-.6.6-.4.7-.4 1.3-.8.5-.5.5-.5.1-.2.1-.2.4-.3.5-.5.5-.5.5-.5.2-.3.2-.3.5-.5.3-.7.5-.7.3-.7.5-.7.3-.7.3-.8.3-.8.2-.8.2-.8.2-.8v-.3l.2-.8v-1.5l-.1-1.5-.2-1.5-.2-1.5-.5-1.4-.3-.7-.3-.7-.6-.5-.6-.5-.7-.5-.5-.5-.7-.5-.7-.5-.7-.3-.7-.3-.8-.3-.6-.2-.8-.2-.6-.2-.5-.2h-2.4000000000000004l-1.6.3-1.5.4-1.4.7-1.4.5-1.4.7-1.3.8-1.2.9-1 1.2zm-2 11.3v-1.7000000000000002l.2-1.5.3-1.6.5-1.5.5-1.4.5-.7.5-.7.5-.7.5-.6 1.1-1.2 1.2-.7 1.4-.5.6-.2.6-.2 1.4-.2 1.3-.1 1.4.1.6.2.6.2.6.2.8.3.8.3.8.4.7.5.7.5.3.2.3.2.6.5.5.5.5.5.4.6.4.6.4.6.3.7.1.6.1.7v.2l.1.4.1.7v1.6l-.1.4-.1.4-.2.8-.2.5-.1.2v.3l-.2.5-.1.2v.3l-.3.7-.3.7-.5.7h-.1v.1l-.1.2-.2.3-.5.5-.2.3-.2.3-.5.6-.4.3-.1.2-.1.2-.5.5-.5.5-.7.5-.7.4-.7.4-.7.4-1.1.3-1.1.3h-1.2l-1.1-.1-1.2-.2-1.1-.4-1.1-.5-1-.5-1.2-.7-.9-.8-.8-.9-.6-.9-.5-1.1-.5-1.1-.2-.6-.1-.6-.1-.6-.1-.8"/><path fill="#0098D8" d="M167.6 267l-1.1 1.2-.5.6-.5.7-.5.7-.5.7-.5 1.4-.5 1.5-.3 1.6-.2 1.5v2.3000000000000003l.1.6.1.6.2.6.5 1.1.5 1.1.6.9.8.9.9.8 1.2.7 1 .5 1.1.5 1.1.4 1.2.2 1.1.1h1.2l1.1-.3 1.1-.3.7-.4.7-.4.7-.4.7-.5.5-.5.5-.5.1-.2.1-.2.4-.3.5-.6.2-.3.2-.3.5-.5.2-.3.1-.2v-.1h.1l.5-.7.3-.7.3-.7v-.3l.1-.2.2-.5v-.3l.1-.2.2-.5.2-.8.1-.4.1-.4v-1.6l-.1-.7-.1-.4v-.2l-.1-.7-.1-.6-.3-.7-.4-.6-.4-.6-.4-.6-.5-.5-.5-.5-.6-.5-.3-.2-.3-.2-.7-.5-.7-.5-.8-.4-.8-.3-.8-.3-.6-.2-.6-.2-.6-.2-1.4-.1-1.3.1-1.4.2-.6.2-.6.2-1.4.5-1.1.9zm-2.3 11.2l-.3-1.2v-2.4l.3-1.1.3-1.1.5-1 .5-1 .8-.9v.1l.5-.6.7-.6.8-.6.8-.5 1.1-.5.5-.2.5-.2 1-.3.5-.1.5-.1.4-.1.5.1.9.1.9.1.8.3.8.4.7.5.7.5.7.6.3.4.3.4.3.4.4.5.6.9.5 1.1.2.4.2.4v.4l.2.4.1.7.1.7-.2.8-.2.8-.3.8-.3.8-.5.7-.5.7h-.1v.1l-.1.2-.2.3-.5.5-.5.5-.5.5-.5.5-.5.5-.6.4-.5.4-.6.2-.5.2-.6.1-.6.1-.6.1h-.6l-.6.1-.6.1-1.3.1-1.2-.4-.5-.3-.5-.3-1-.6-.9-.6-.5-.4-.3-.4-.6-.8-.4-.5-.4.1-.5-1.1.2-1.1"/><path fill="#fff" d="M167.1 269.8l-.8.9-.5.8-.5 1-.3 1.1-.1 1-.1 1.2.2 1.2.3 1.2.3 1.1.5 1.1.3.6.3.4.6.8.4.5.4.2.8.9 1 .6.6.2.6.2 1.3.4 1.3-.1h1.1l.6-.1.9-.1.4-.1.6-.2.7-.2.6-.2.5-.4.5-.3.5-.5.4-.4.5-.5.6-.5.3-.6.1-.4.1-.2.2-.1.4-.7.4-.7.3-.8.3-.9.1-.8v-.9l-.1-.7-.1-.7-.1-.5-.2-.2v-.1l-.2-.5-.1-.4-.6-1-.5-.9-.5-.4-.3-.5-.3-.3-.3-.4-.7-.6-.7-.6-.8-.4-.8-.4-.8-.2-.9-.2-1-.1-.4.1h-1l-.5.1-1 .2-.4.2-.6.1-.9.5-1 .5-.7.5-.6.8-.8.6.2-.2"/><path fill="#0098D8" d="M190.3 270.7l-.4-.7-2.6-3.7.3.7.3.7.5 1.4.2 1.5.2 1.5.1 1.5v1.5l-.2.8v.8l-.2.8-.2.8-.2.8-.3.8-.3.8-.3.7-.5.7-.3.7-.5.7-.3.7-.5.5-.2.3-.2.3-.5.5-.5.5-.5.5-.4.3-.1.2-.1.2-.5.5-.5.5-1.3.8-.7.4-.7.3-1.4.6-1.4.5-1.5.2-1.5.2h-3.0999999999999996l-1.4-.5-1-.5-.8-.5-.8-.5-.8-.5-.9-.6-.7-.6-.7-.6-.6-.8.4.7.5.7.5.5.5.7.5.5.6.5.6.5.6.5 1.3.8.7.5.7.5 1.5.5.8.3.8.3.8.2.9.1h1.9l2.3 1.6.3.7-.5 2-1.3 1.2-1.3 1.2-2.4 2.5-1.1 1.4-1.1 1.4-1.9 2.9-1.1 1.7-.5.8-.4 1-.9 1.8-.7 1.9-.7 1.9-.5 1.9-.5 2-.4 2-.4 2.6-.3 2.6-.2 2.6.1 2.7-1.4-.4-1.2-.4-1.2-.4-2.4-.8-1.3-.5-1.1-.5-1.1-.5-1-.6-2.7-1.7-2.5-1.7-2.5-1.7-2.4-1.7-3 2.4-1 1.2-.9 1.2-.8 1.3-.7 1.3-.5 1.4-.5 1.4-.5 1.4-.3 1.4 2.8 1.4 1.4.7 1.5.7 3 1.3 3 1.3 2.4.8 2.4.8 2.4.7 2.4.7 11.9 2.8 1.8 3.6-.2-.3.9 1.8.9 1.7 1 1.6.5.8.5.8 1.2 1.6 2.4 2.9 1.1 1.2 1.2 1.1 1.2 1 1.2 1 23.1-11.9 9.6-5.8-.7-.3-1.5-.5-1.4-.7-1.4-.7-1.3-.7-1.3-.8-1.2-1-1.2-1-1.1-1-1.3-1.4-1.1-1.5-1-1.3-1.2-1.9-.7-1.4-.6-1.4-.4-1-.3-1-.3-1-.1-.9-.1-.9v-.9l.1-.9.2-.8.2-.8.4-.8.4-.8.5-.7.5-.7.6-.7.6-.7.8-.6h1.8l.9.1.9.1.9.3.9.3 1 .4 1 .5 1.1.6 1.2.7 1 .7 1 .7.9.9.9.9.9.9.9.9.8.9.8 1.1.6 1.1.6 1.1.5 1.1.5 1.2.5 1.2.5 1.2.2.5.1.4.1.4.1.7.1.4.1.4.1.7v.4l.1.4v.8l-.1.4v.4l-.2.8 10.7-7.6 17.6-14.7-2.6-7.6-1.7-2.9-1.8-2.7-1.9-2.7-1.9-2.5 1-1.8 1-1.8.5-1 .5-1 .5-1 .5-1 .1-.3.1-.2.2-.5.3-.8.1-.3.1-.2.2-.5.3-.8.5-1.6.5-1.6.5-1.6.3-.8.1-.3.1-.2.2-.5.1-.4.1-.3.1-.2.3-.8.5-1.6.1-.9.1-.5.2-.5.1-.9.1-.5.2-.5.4-2 .1-.5.1-.5.1-.9.1-1.1.1-.5.1-.5.3-2 .1-2 .1-2v-3.5l-.8-.2-.8-.2-1.5-.2h-1.5l-1.5.1-1.5.1-1.5.2-.7.1-.7.3-.7.3-.7.3-5.5 2.6 1.3 10.4v1.8000000000000003l.1.6v2.4l.1 2.4v2.4l-.7 5.4-.5 1.6-1.3-.6-1.3-.6-1.3-.5-1.2-.4-.3-.2-1.7-.5-1.4-.5-1.4-.4-1.4-.3-1.4-.3-2.9-.5-1.4-.2-1.4-.1-1.5-.2-1.4-.1h-3l-1.5.1-1.4.1-1.5.1-1.4.2-1.4.2-1.4.2-2.6.5-1.4.4-1.3.3-2.6.7-2.1.7-2.2-.6-.2-.6.5-1.4.3-.7.3-.7.3-.7.5-.5.9-1.2.1-.3v-.1l.1-.2.1-.3v-.1h.1l.1-.2.3-.5.3-.5 1.2-3.3v-.5l.1-.3.1-.5v-.30000000000000004l.1-.3.1-.5v-.8999999999999999l.1-.3.1-1.2-.1-.4v-.1l-.1-.6-.1-.4-.1-.4-.1-.6-.5-1.4-1.2.1zm5 25.3l.5-.5 5.5-2.7h.1l2.3-.5 1.5-.1h.8l.8.2h.8l.8.2.8.2.8.2 1.4.5.7.3.8.3.7.3.7.3 1.5.7 1.3.8.5.5.5.5.5.5.5.5.8 1.2.4.6.4.6.3.7.3.7.1.7.1.7.1 1.6v1.2l-.1.5-.1.3v.30000000000000004l-.2.5h-.1v.2l-.1.3-.2.5-.2.5-.4.5-.4.5-.2.2-.1.3-.4.5-.5.4-.5.5-.5.3-.5.4-.2.5-.7.4-1.4.7-1.4.6-.7.3-.7.3-.7.1-.7.1-.7.1-.7.1h-1.5l-1.5-.2h-1.7l-.9-.1-.4-.1-.4-.1-.4-.1-.3-.1-.7-.3-.5-.5-.5-.5-.5-.5-.4-.7-.7-.5.2-1.2.4-1.2.4-1.2.5-1.1 1-2.2.5-1.1.6-1 .6-1 .8-.9 1.5-1.8 1.7-1.6.9-.8 1.1-.8v-.5l-.1-.4-.2-.1-.3-.1-3.3 1.6-1.4 1.4-1.1 1.2-1.1 1.4-1 1.4-1.2 2-1 2.1-.9 2.1-.6 2.2-.5-.5-.5-.5-.8-1.3-.9-1.5-.9-1.8-.4-1.5-.1-1.5.1-1.4.2-.8.3-.8.5-1.5 1.5-1.7zm-26.3 22.1l.4-.1.2-1.4.4-1.2.2-.5.3-.5.6-1.1.7-1 .9-.9.5-.5.6-.4 1.2-.7.5-.4.5-.2 1.1-.3 1-.2.5-.1.5.1.5.1.5.1 1.1.3.5.2.5.2 1.1.6.8.5.9.6.7.6.7.6.6.7.6.7.5.8.5.8-1.9.2-.9.1-.9.1-1.9.4-1.7.5-1.9.5-1.7.6-1.7.7-1.7.9-.4.3-1 .5-.3.5-.5.5-.2.6.3.1.3.1 2.2-1.2.8-.5.8-.4 1.7-.7 1.7-.6 1.9-.5.9-.3.9-.1.9-.1.9-.1 1.8-.1h1.9l.3 2 .5 2 .1.4.1.5.1.9.1.4.1.4v1.6l-.2.8-.2.8-.2.8-.3.7-.3.7-.5.7-.5.7-.5.6-.5.6-.5.6-.5.6-.7.5-.5.5-.7.4-.6.4-.7.3-.7.3-.7.1-.7.1-1.4.1-1.3-.1-.6-.2-.5-.2-1.1-.5-1.1-.6-.5-.4-.5-.5-.5-.5-.5-.5-.8-1.1-1-1.6-.9-1.7-.9-2.1-.5-1.7-.4-1.7-.1-1.8v-1.8l.9-.9"/><path fill="#fff" d="M195.7 295.6l-.4.4-.9 1.5-.6 1.5-.4.7v.8l-.1 1.4v1.6l.3 1.5.6 1.6.9 1.4.7 1.4.5.5.5.6.6-2.2.9-2 1-2 1.1-2 1-1.5 1.1-1.4 1.1-1.2 1.2-1.1 3.3-1.6.3.1.2.1v.4l.1.2-1.1.8-.9.9-1.8 1.6-1.5 1.8-.6.8-.7 1-.6 1-.5 1-.9 2.2-.6 1.2-.4 1.1-.1 1.2-.2 1.2.7.5 1.4.7.7.3.8.3.6.4h.8l1.5.2 1.5.1.7-.2.8-.1h.8l.8-.3.7-.2.9-.3.5-.3.5-.4.5-.3.4-.1.2-.2.2-.2.3-.2.4-.4.5-.5.4-.4.4-.4.3-.6.2-.6.4-.5.2-.6.2-.6.1-.7.3-.7v-2.5l-.1-.4v-.3l-.1-.4-.1-.3-.3-.9-.2-.8-.4-.3v-.30000000000000004l-.1-.1-1.2-1.7-.6-.6-.6-.6-.5-.5-.7-.5-.5-.5-.6-.3-.7-.5-.7-.3-.7-.3-.7-.4-.8-.2-.7-.1-1.4-.4h-1.6l-2.7.1-.3.1-5.5 2.8"/><path fill="#0070B5" d="M201.5 292.7l2.7-.1h1.6l1.4.4.7.1.8.2.7.4.7.3.7.3.7.5.6.3.5.5.7.5.5.5.6.6.6.6 1.5 1.5-.3.2.1.1v.30000000000000004l.4.3.2.8.3.9.1.3.1.4v.3l.1.4v2.5l-.3.7-.1.7-.2.6-.2.6-.4.5-.2.6-.3.6-.4.4-.4.4-.5.5-.4.4-.3.2-.2.2-.2.2-.4.1-.5.3-.5.4-.5.3-.9.3-.7.2-.8.3h-.8l-.8.1-.7.2-1.5-.1-1.5-.2h-.8l-.6-.4-.8-.3-.7-.3-1.4-.7.4.7.4.5.6.6.6.4.5.4h.4l.5.2.2.1.4.1.9-.1 1.5.1 1.8.1 1.5.1.8-.1.7-.2.8-.1.8-.2.7-.1.7-.4 1.6-.4 1.3-.8.7-.4.7-.4.4-.4.5-.4.4-.5.4-.2.3-.5.2-.2.1-.2.4-.5.3-.5.1-.4.2-.5.1-.3v-.30000000000000004h.1l.2-.5v-.30000000000000004l.1-.3v-.5l.1-.6.1-.7-.2-1.7-.1-.7-.3-.7-.3-.8-.1-.6-.3-.7-.3-.7-1-1.1-.4-.6-.5-.4-.6-.6-.6-.4-1.4-.8-1.5-.8-.7-.3-.7-.4-.8-.3-.7-.2-1.5-.3-.8-.3h-.7l-.8-.1-.9-.1-.7-.1h-2.3l-2.3.5"/><path fill="#0098D8" d="M215 297.8l1.2 1.7.3-.2-1.5-1.5"/><path fill="#0070B5" d="M169.4 318l-.4.1-.3 1.9v3.6l.5 1.7.4 1.7.7 1.6.9 1.8 1 1.6.8 1 .4.4.5.5.5.4.4.4 1.1.6 1.1.5.5.2.7.2h3.4000000000000004l.7-.2.7-.2.8-.4.6-.2.7-.4.7-.4.8-.5.5-.6.6-.7.5-.6.5-.6.3-.7.4-.7.3-.7.3-.8.2-.7.2-.8v-.7l.1-.8-.1-.9-.1-.4.1-.4-.1-.9-.1-.5-.1-.4-.4-2-.1.9v1.5l-.1.4-.1.2-.2.8-.1.3-.1.4-.3.7-.1.5-.2.3-.2.5-.4.5-.3.6-.5.6-.4.4-.6.6-.2.2-.1.1-.1.1-.7.5-.5.4-.6.3-.7.2-.5.4-.6.2-.6.1-.5.2-.7.1-1.1-.1-1.4-.1h-.5l-.7-.2-1.2-.4.5.5-.9-.8-.9-.6-.7-.7-1.1-1.2-.8-1.5-.9-1.2-.5-1.4-.4-1.5-.2-1.7-.2-1.5.2-1.6"/><path fill="#fff" d="M173.8 320.2l.5-.4 1.6-.8 1.8-.9 1.6-.7 1.9-.5 1.7-.6 1.9-.3 1-.2 1-.1 1.8-.2-.4-.8-.5-.8-.7-.7-.5-.8-.7-.7-.8-.7-.8-.5-.9-.5-1.1-.6-.5-.2-.6-.2-.9-.3-.5-.1h-1.5l-1 .3-1.2.3-.5.3-.6.2-1.1.8-.5.3-.5.5-.9.9-.7 1-.6 1-.4.5-.3.7-.3 1.2-.2 1.4-.2 1.6.2 1.5.2 1.7.4 1.5.5 1.4.9 1.2.8 1.5 1.1 1.2.7.7.9.6.4.3 1.2.4.7.2h.5l1.4.1 1.1.1.7-.1.5-.2.6-.1.6-.2.5-.4.7-.2.6-.3.5-.4.7-.5.1-.1.1-.1.2-.2.6-.6.4-.4.5-.6.3-.6.4-.5.2-.5.2-.3.1-.5.3-.7.1-.4.1-.3.2-.8.1-.2.1-.4v-1.5l.1-.9-.4-1.9h-3.7l-.9.2-.9.1-1 .2-.8.2-1.9.5-1.7.6-1.8.7-.8.4-.9.5-2.1 1.3-.2-.3-.2-.1.1-.6.4-.7.4-.4.5-.5"/><path fill="#0098D8" d="M175.8 331.7l-.5-.5-.4-.3.9.8"/><path fill="#006194" d="M190.1 270l.2.7.6 1.4.5 1.2.1.8v.6000000000000001l.1.6v.4l.1.4h.4l.3-.1.1-.1.1-.1h.1l.3-.2h.1l.3-.2v-.1l.1-.2.1-.2.1-.1.1-.3v-.2h.1v-.2l.1-.3v-.3l.7-.3.4-.2.2-.2.2-.1.4-.2.4-.3.6-.5.7-.6.1-.2.3-.1.2-.4.6-.8.5-.9v-.1h.1v-.1l.3-.1.2-.6.2-.5v-.30000000000000004l.2-.3.4-1v-.2l.1-.1v-.2l.2-.5.1-1.1v-.2l.1-.2v-.3l.2-.5.1-1.2-.1-1-2.3-1.6v1.1l-.1.6.1.5-.2.5v.6l-.1 1-.3 1.1-.3 1.1-.3 1-.4 1.1-.1.2-.1.2-.1.3-.5.7-.5.7-.2.2-.4.3-2.5 1.5-.2-.4-.4-.4-.3-.1-.3-.3-.5-.2-.4-.1-.5.1-.4.1M211.5 249.8l.7-.1.3-2.9-1.6.1h-.8l-.6.3-1.5.3-.7.2-.6.4-.9.3.8 3.3 1-.8 1.2-.5 1.3-.3 1.4-.3"/><path fill="#0098D8" d="M213.4 246.8h-.9l-.3 2.9.5.1h.6l1 .1 1 .3.9.3.4.3.6.3.9.5.9.5.3.3.6.5.8.8 2.4-1.9-.6-.6-.5-.5-.6-.5-.4-.5-.6-.2-.7-.5-.6-.3-.5-.2-.7-.4-.6-.3-1.1-.4-.9-.2-.5-.2-.8-.1-.6-.1M205.8 252.1l.8-.4-.8-3.3-1.1.8-1.1.9-1 .9-.7 1.2-.8 1.1-.6 1.2-.6 1.3-.3 1.4-.5 1.4 2.3 1.6.1-1.3.4-1.1.3-1.2.6-1 .6-1 .7-.9.8-.8.9-.8M206.7 259l1.1-1.3.8-.4 2.6-.6 1.7-3.2-1.2-.2h-1.1l-1 .2-1 .3-.6.2-.4.2-.8.6-.5.4-.5.2-.6 1-.5.7 2 1.9"/><path fill="#006194" d="M207.8 257.7l-1.1 1.3-2-1.9-.6.8-.4.7-.3.7-.3.7-.3.7v.6l-.2.6v.9l.1.6.1.7.1.7.2.7.3.8.4.7.9 1.4.5.7.6-.8 1.9-1-.6-.6-.3-.8-.5-1.3-.1-.8-.1-.7.1-1.4v-.7l.2-.6.2-.7.2-.6.4-.5.5-.5.2-.2.7-.6-.8.4M209.5 260l-.6.1-.4.7-.3.5-.2.6.1.6.1.6.2.7.3.5.5.6.4.3.5.2.5.3.5.2.6.2.8.3.9.1h.7l.8.1-1.8-3.7.5-.6-.2-.4-.1-.4-.2-.4-.1-.2-.5-.6-.2-.3h-.2l-.4-.1-.2-.1-.6-.2-.3.1h-.4l-.4.1-.3.2"/><path fill="#0098D8" d="M205.8 268.3l-.6.8.6.7.6.7.8.6.7.5.8.6.8.5.8.5 1 .3.6.3 1.3-3.2-.8-.1-.7-.1-.7-.3-.5-.2-.6-.4-.6-.5-.6-.4-.3-.5-.7-.8-1.9 1"/><path fill="#006194" d="M212.9 253.5l-1.7 3.2.7.2.5.1.3.1.7.2.8.4.2.3.2.3.5.6.3.7.4.8.1.5 3.1.5-.1-1.2.1-.6-.1-.5-.2-.5-.1-.5-.4-1-.3-.4-.4-.4-.6-.8-.8-.6-1.2-.6-2-.8"/><path fill="#0098D8" d="M215.9 260.9l-1.2 2.4h-1.1v-1l-.5.6 1.8 3.7.4-.1.2-.2h.1l.7-.3.2-.1.1-.2.4-.1.5-.5.5-.4.1-.4.1-.4.3-.8.1-.3v-.1l.1-.3.3-1-3.1-.5"/><path fill="#0070B5" d="M235 237.8l-.2-.4-.1-.3-.2-.1-.1-.3-.3-.1-.3-.2-.3-.1h-.2l-.8.5.3 6.2-.6.5-.4-.8-.4-.9-.7-.7-.5-.7-.3-.2-.3-.1-.2-.1h-.7l-.4.3-.6.7.6 1.4.3.7.1.4.2.3.5 1.5.2.7.1.6v.3l.1 1.5-.1 2.1-.1 2.3.1 2.2.2 2.2 1.6-.4 1.4-.4 1.5-.2h1.6l.7-.2.8.1h1.6l1.6.1.7.1.8.2h.7l.8.2 1.3.3 1.4.4 1.5.6-.5-1.6-.5-1.6-.6-1.5-.7-1.4-.8-1.4-.8-1.5-1-1.3-1-1.2-.7-1.1.1-.9.3-.9v-.9l.1-.5v-.5l-.1-.8v-.9l-.3-.6v-.4l-.3-.6v-.3l-.1-.4-.2-.1-.3-.2-.3-.1h-.2l-.4.1-.3.1-.2.2-.9 5.7-2.6-.8v-.8999999999999999l-.1-.1v-.3l-.1-.4v-.5l-.1-.1.2-.2-.3-1.1-.1-.7v-.2l-.1-.3"/><path fill="#006194" d="M223.1 251.8l-2.4 1.9.4.6.5.8.5.6.2.8.3.7.3.9v1.7000000000000002l.1 1.2 3.1.3v-.4l-.1-.1.2-.2-.1-.6-.1-1v-.4l-.1-.3v-.4l-.3-1.2-.3-1.1-.4-1-.5-1.1-.2-.2h-.1l-.1-.1v-.1l-.2-.5-.7-.8"/><path fill="#0098D8" d="M226.1 261.3l-3.1-.3-.1.8v.8999999999999999l-.1.2v.1l-.1.5-.3.8-.4.6v.3l-.1.2-.1.3-.4.4-.1.3-.1.1-.5.7-.4.4 1.6 3.1.2-.6.5-.5.4-.4.3-.4.4-.6.4-.5.7-1v-.3l.1-.3.3-.5.4-1.3.2-.5.1-.7v-.6l.2-.6v-.6"/><path fill="#EE82A2" d="M248.2 259.4l-.3-1.4-1.5-.6-1.4-.4-1.3-.3-.8-.2h-.7l-.8-.2-.7-.1-1.6-.1h-1.6l-.8-.1-.7.2h-1.6l-1.5.2-1.4.4-1.6.4.9 5.8 5.2-2.4 1.5-.5 1.5-.4.6-.1.9-.1 1.5-.3 1.4-.1 1.7.1h1.6l1.5.2"/><path fill="#0070B5" d="M248.8 263.9l-.1-.9-1.4-.4-1.4-.2-1.4-.2-1.4-.2h-3.1l-1.6.1-1.5.2-1.6.4-.8.1-.6.2-1.6.5-1.4.6.4 3.3 5.6-2.6.5-.2.9-.3.7-.2.7-.2 1.5-.2 1.6-.1 1.3-.1h1.6l1.6.2.6.1.9.1"/><path fill="#F7CD83" d="M248.7 263l-.5-3.6-1.5-.2h-1.6l-1.7-.1-1.4.1-1.5.3-.9.1-.6.1-1.5.4-1.5.5-5.2 2.4.1 1.1 1.4-.6 1.6-.5.6-.2.8-.1 1.6-.4 1.5-.2 1.6-.1h3.1l1.4.2 1.4.2 1.4.2 1.4.4"/><path fill="#006194" d="M213.2 270.6l-1.3 3.2 1.3.2.6.1.5-.1 1.3-.1.5-.2.6-.1 1.1-.4.6-.2.5-.4 1.1-.6.5-.4.6-.4.8-.5-1.6-3.1-.2.1-.1.1-.3.4-.8.6-.7.5-1 .3-.3.2-.5.3-.7.2-.9.2-.9.1h-.7"/><path fill="#0098D8" d="M248.8 336.7v-1.4l-11.9 11-19 14.8-10.2 6.9-10.5 6.4 7.6.4-1.6 1.4-1.4 1.3-1.5 1.6-1.2 1.7 5.7 5.2 1.4-2.6 1.5-2.7.6-1 .6-.8.7-.9.8-.9 2.8-2.7 1.2-.6v-.5l1.9-.4 1.9-.7 1.8-.8 1.9-.8 1.2-.5 1.4-.7 1.3-.8.6-.4.7-.4 1.3-1 1.2-.8 1.2-.9.6-.5.3-.2.2-.1.2-.2.1-.2.2-.1h.1l.3-.3.9-.7.7-.9.9-.7.7-.7.3-.5.5-.3 1.4-1.6 3.7-4.9 4.8-3 1.1-.7 1.2-.5 1.3-.4 1.3-.3 1.3-.4 1.4-.2 1.2-.1 1.5-.2-2.2-7-1.2.2-1 .3-1 .1-1 .4-1 .3-.8.3-1 .6-.8.3.6-1.4.4-1.6.4-1.7.4-1.5"/><path fill="#EE82A2" d="M220.1 344l.2-.6v-.3l-.1-.2h.2l.1-.3v-.8l.1-.4-.1-.2v-1.3l-.1-.4-.3-.8v-.7l-.2-.5-.8-.5-.5-.4-1.2-.7-.7-.4-.5-.2-1.2-.5-1.2-.2-.7-.2-.5.1h-1.1l-1.2.2-.7.3-.4.2-.6.1-.5.4-.6.4-.6.3-.4.3-.7.4-.5.6-.5.5-.9 1.2-.6.6-.5.8-1 1.3 1.1 1.2 1 1 1.3.8 1.2.9 1.3.8 1.3.8 1.5.7 1.3.5.8.3-9.6 5.8-23 11.8 5.9 3.9 11.1-5.7 10.6-6.3 10-7 9.7-7.5 9.3-7.9 12.1-12.2-.3-2.1-17.7 14.6-10.6 7.5"/><path fill="#0070B5" d="M217.9 361.1l19-14.8 11.9-11 .5-3.5-14.3 12-15 10.5-7.7 4.9-24.2 12.6 9.1 2.6 10.5-6.4 10.2-6.9"/><path fill="#F7CD83" d="M236.6 336.2l-9.3 7.9-9.7 7.5-10 7-10.6 6.3-11.1 5.7 2.2 1.2 24.2-12.6 7.7-4.9 15-10.5 14.3-12-.6-7.8-12.1 12.2"/><path fill="#5DA2D8" d="M255.8 340.4h-1l2.2 7 2.2-.1-3.4-6.9"/><path fill="#F7CD83" d="M259.2 347.3l1.1.1-2.1-6.8-2.4-.2 3.4 6.9"/><path fill="#0070B5" d="M264.8 345.7v-.7l-.1-.6-.2-.5-.3-.4-.3-.5-.4-.4-.5-.4-.4-.3-1.1-.6-1.1-.3-.5-.2-.6-.1-1.1-.1 2.1 6.8.7-.1 3.8-1.6M219.9 337.5l-.6-1.3-.4-1.1-.6-1.3-.7-1.2-.6-1.1-.7-1-.7-1-.8-.9-.9-1.1-.9-.8-.9-.9-1-.9-1-.7-1.1-.8-1.1-.7-1.1-.8-.9-.5-1-.4-.9-.2-.8-.3-1.1-.2-.9-.2h-.9l-.9.2-.8.7-.8.7-.6.6-.6.8-.5.7-.4 1-.4.6-.1 1-.2.7-.1.9-.1.8.2 1 .2.9.2 1 .3 1 .5 1 .6 1.5.7 1.4.8 1.4 1 1.3 1.1 1.5 1.4 1.3 1-1.3.5-.8.6-.6.9-1.2.5-.5.5-.6.7-.4.4-.3.6-.3.6-.4.5-.4.6-.1.4-.2.7-.3 1.2-.2h1.1l.5-.1.7.2 1.2.2 1.2.5.5.2.7.4 1.2.7.5.4.8.5"/><path fill="#F7CD83" d="M138.9 321.6l-1.1-.9-3.1 2.3-1.1 1.1-1 1.1-1.1 1.3-.9 1.1-.9 1.3-.8 1.5-.6 1.3-.6 1.6 4.6 2.8-.1-1 .2-1.1.1-1 .1-1.1.3-1.6.6-1.4.6-1.5.3-.7.4-.6.8-1.3.5-.5.5-.6 1-1.2 1.3-.9"/><path fill="#EE82A2" d="M134.7 323l3.1-2.3-4.4-3.4-1 1.2-.9 1.3-.7 1.2-.7 1.3-1.4 2.6-.6 1.5-.5 1.3-1.4 4.2 1.5 1.4.6-1.6.6-1.3.8-1.5.9-1.3.9-1.1 1.1-1.3 1-1.1 1.1-1.1"/><path fill="#0070B5" d="M120.1 310.8l-1.1.7 3 4.5-1.2 1.6-4.5-2.9-1.1.8.7 1.1.4.5.5.4 1 .9.5.5.7.4 1.3.7.1 1.1-4.2-1.7-.9.3-.5.4-.1.9 1 .9 1.2.7.6.3.6.1.7.3.6.2 1.6.3.4 1.2.5 1.1.5.9.6 1.1.8 1.1.7.9.8.9.9.9 1.4-4.2.5-1.3.6-1.5 1.4-2.6.7-1.3.7-1.2.9-1.3 1-1.2-1-.6-.9-.5-1-.4-1-.4-1.1-.3-1-.1-1.1-.3h-1.5l-4.7-3.9M132.3 336.1l1.1.5.2-1.5.5-1.5.4-1.3.8-1.4.7-1.3.7-1.2.9-1.2 1-1.2 3.1-2.4-2.8-2-1.3.9-1 1.2-.5.6-.5.5-.8 1.3-.4.6-.3.7-.6 1.5-.6 1.4-.3 1.6-.1 1.1-.1 1-.2 1.1.1 1"/><path fill="#5DA2D8" d="M199.1 380.8l-1.6 2.4 6.4 4.3.9-1.5-5.7-5.2"/><path fill="#F7CD83" d="M197.5 383.2l-.3 1.2 5.8 5.2.9-2.1-6.4-4.3"/><path fill="#0070B5" d="M197.8 391.1l.4.3.4.3.5.2h.6l.5.1.4-.1.5-.2.5-.2.4-.1 1-1.8-5.8-5.2-.2.8-.2.8-.1.9.1.8v.9l.3.9.1.7.6.9"/><path d="M34.4 354.5c2.9.7 5.5 1.2 7.8 1.5 2.3.3 4.3.6 5.9.7 1.9.2 3.6.3 5 .2 1.8-.1 4.1-.3 6.9-.8 2.7-.5 5.6-.9 8.7-1.4 3-.5 6.1-.8 9-1.1 3-.3 5.6-.3 7.8-.1 2.2.2 4.5.7 7 1.5 2.4.8 4.7 1.9 6.9 3.2 2.1 1.3 4 3 5.5 4.9 1.6 1.9 2.5 4.1 2.9 6.6.4 2.4.2 5.1-.7 7.8-.8 2.8-2.2 5.5-4 8.1-1.8 2.6-4.1 5.1-6.9 7.3-2.7 2.2-5.8 4-9.2 5.4-2.7 1-5.6 1.8-8.7 2.3-2.7.5-5.8.7-9.3.9-3.5.1-7.3-.2-11.3-1.1-.5 2.2-.8 4.3-.9 6.1 0 1.9 0 3.5.2 5 .2 1.7.5 3.2.9 4.6.5 1.4 1 3 1.7 4.8.6 1.5 1.3 3.4 2.1 5.5s1.8 4.6 2.9 7.3c-1.4 0-2.7 0-4 .1-1.3 0-2.5.1-3.5.2-1.2.1-2.4.2-3.4.2-1.2.1-2.6.2-4.1.5-1.3.2-2.9.4-4.9.7-1.9.3-4.1.7-6.6 1.1 1.6-2.3 2.9-4.4 3.8-6.3 1-1.9 1.7-3.6 2.1-5.1.5-1.7.9-3.2 1-4.6.1-1.1.1-3.2.1-6.1 0-2.9-.1-6.3-.2-10.1s-.2-7.8-.3-12c-.2-4.2-.3-8.1-.6-11.8-.2-3.7-.5-6.9-.7-9.6-.3-2.7-.5-4.4-.7-5.3-.3-1-.8-2.1-1.6-3.2-.6-1-1.5-2.2-2.6-3.5-.9-1.2-2.3-2.7-4-4.4zm23.7 22.5c-.1.8-.1 1.6-.1 2.4 0 1.6.1 3.7.3 6.2.5 1.3 1.2 2.4 2 3.2.8.8 1.7 1.5 2.6 1.9 1 .5 1.9.8 2.9.9 1 .2 2 .2 3 .2 2.3-.1 4.7-.6 7.2-1.6 3.4-1.4 5.7-3.5 7.1-6.2 1.4-2.7 2.1-5.4 2.2-8.2.1-2.8-.4-5.4-1.4-7.8-1-2.4-2.3-4-3.7-4.8-1.2-.5-2.8-.8-4.7-.7-1.7.1-3.8.5-6.3 1.3s-5.6 2.1-9.3 4.1c-.4 1.4-.7 2.6-.9 3.7-.2 1.1-.4 2-.6 2.9-.1.9-.3 1.8-.3 2.5z" enable-background="new"/><g enable-background="new"><path d="M103.7 405.5c.3-.3.4-.9.5-1.7s.3-1.8.6-2.9c.3-1.1.9-2.2 1.7-3.4.8-1.2 2.1-2.3 4-3.3 1.8-1 3.5-1.6 5.2-1.8 1.7-.2 3.3-.1 4.8.2 1.5.4 3 .9 4.3 1.7 1.3.8 2.6 1.6 3.7 2.5.8.6 1.4 1.5 1.8 2.6.5 1.1.8 2.4 1.1 3.9.3 1.4.4 2.9.6 4.5.1 1.6.2 3.1.3 4.5.1 1.4.1 2.8.1 4 0 1.2.1 2.2.3 2.9.2 1.1.6 2.1 1.1 2.9.5.8 1.1 1.4 1.7 2 .6.5 1.2 1 1.8 1.3.6.3 1.1.5 1.6.7.3.2.6.3.8.3.5.2.9.2 1.1 0-.3.7-.6 1.3-.8 1.8-.3.5-.5.9-.6 1.3-.2.4-.4.7-.5 1-.2.3-.3.6-.5.8l-.6.8c-.3.3-.5.6-.8 1-.7-.3-1.3-.6-1.9-.9-.6-.4-1.1-.7-1.6-1-.6-.4-1.1-.7-1.5-1.1-.5-.4-.9-.8-1.3-1.2-.4-.4-.7-.8-1.1-1.3-.4-.5-.7-1-1-1.5-.3.7-1 1.6-2.2 2.8-1.1 1.2-2.6 2.3-4.5 3.3-1.8 1-4 1.7-6.4 2.1-2.4.4-5.1.1-8-.8-1.3-.4-2.5-1-3.6-1.8s-2.1-1.7-2.9-2.9c-.8-1.1-1.3-2.4-1.7-3.9-.3-1.4-.3-3.1 0-4.8.4-1.8 1-3.3 1.9-4.5.9-1.2 2-2.2 3.3-3 1.3-.8 2.7-1.3 4.3-1.8 1.6-.4 3.2-.7 4.9-.8 1.3 0 2.6 0 4 .2 1.1.2 2.3.6 3.5 1.1s2.3 1.3 3.1 2.4c-.1-2.7-.1-4.8-.3-6.4-.1-1.6-.2-2.8-.3-3.7-.2-1-.4-1.7-.5-2.1l-.8-1.2c-.3-.5-.6-.9-1-1.3s-.9-.7-1.5-1c-.6-.3-1.3-.4-2.1-.3-.9.1-1.6.3-2.1.7-.5.4-.9.9-1.2 1.4-.3.5-.4 1.1-.5 1.7-.1.6 0 1.1.1 1.6.1.3.3.6.5 1 .2.3.5.6.8 1 .4.4.8.7 1.4.9-1.2.2-2.2.3-3.1.3-.9.1-1.7.2-2.4.3-.8.1-1.4.2-2 .2-.6.1-1.2.2-2 .3-.7.1-1.5.2-2.4.4-1 .2-2.1.4-3.4.6.3-.4.6-.7.8-1 .3-.3.5-.6.7-.9.3-.1.5-.4.7-.7zm11.4 9.1c-.9.1-1.8.3-2.7.6-.9.4-1.7.9-2.4 1.6-.7.7-1.3 1.5-1.8 2.4-.5.9-.7 1.9-.7 2.9 0 1.1.3 2 .8 2.8.5.8 1.2 1.4 2.1 1.9.9.5 1.9.8 2.9.9 1 .1 2.1 0 3.1-.3 1-.4 1.9-.9 2.7-1.7.9-.8 1.6-1.7 2.2-2.6.6-.9 1-1.9 1.3-2.8.3-.9.3-1.7.1-2.3-.4-1.3-1.3-2.2-2.7-2.8-1.5-.5-3.1-.7-4.9-.6zM137.6 400.9c1.6-.3 3-.5 4-.6 1-.2 1.9-.3 2.6-.4.8-.2 1.3-.3 1.8-.4.4-.1 1-.3 1.8-.5.7-.2 1.5-.4 2.6-.7 1.1-.3 2.4-.7 4-1.2-.4.5-.7 1-1 1.3-.2.4-.4.7-.6 1-.2.3-.4.6-.5.8-.2.3-.3.6-.5 1.1-.1.4-.2 1-.4 1.7s-.3 1.7-.4 2.9c2.7-1.7 5.3-3 7.6-3.9 2.3-.9 4.3-1.5 6.1-1.8 2-.4 3.9-.6 5.5-.5 2 .2 3.9.6 5.7 1.3 1.8.7 3.3 1.6 4.8 2.6 1.4 1 2.7 2.1 3.7 3.4 1.1 1.2 1.9 2.4 2.5 3.7.4.8.7 2 .8 3.5.1 1.5 0 3.2-.5 4.9-.5 1.7-1.3 3.4-2.4 5.1-1.1 1.7-2.8 3-4.8 3.9-3.6 1.6-7.2 2.5-10.8 2.7-1.5.1-3.1.1-4.7-.2s-3.2-.6-4.8-1.3c-1.6-.7-3.1-1.6-4.6-2.9-1.5-1.2-2.8-2.9-4-4.8-.4 2.6-.7 4.8-.9 6.8-.2 1.9-.3 3.5-.3 4.8-.1 1.5-.1 2.7 0 3.7s.3 2.1.6 3.3c.3 1 .6 2.2 1.1 3.5.5 1.3 1.1 2.8 1.9 4.2-.3-.1-.7-.2-1.3-.2-.5 0-1.1 0-1.6.1-.6.1-1.3.2-2.1.3-.7.2-1.5.3-2.4.5-.7.2-1.5.3-2.5.6-.9.2-1.9.5-2.9.8.6-.7 1-1.4 1.3-2.2.3-.8.6-1.6.8-2.3.2-.9.4-1.7.5-2.6 0-.8.1-2.2.3-4.3.1-2.1.2-4.5.3-7.3.1-2.8.2-5.7.3-8.7s.1-5.9.2-8.5v-6.7c-.1-1.8-.2-2.9-.3-3.2-.2-.4-.6-.7-1.1-1.1-.5-.4-1.1-.7-1.9-1.1-1-.3-2.1-.7-3.5-1.1zm18.2 13.9c-.4 1.2-.4 2.3-.2 3.4s.7 2.2 1.6 3.1 2 1.8 3.6 2.6c1.6.7 3.5 1.3 5.8 1.6 2.3.4 4.1.3 5.3-.2 1.2-.5 2.1-1.2 2.7-2.2.6-1 1-2.2 1.2-3.5.2-1.3.5-2.8.8-4.2.3-1.4.3-2.9-.2-4.4-.4-1.5-1-2.9-1.7-4.1-.7-1.2-1.6-2.2-2.4-3-.9-.8-1.7-1.2-2.3-1.2-1.6 0-3.1.4-4.7 1.2-1.5.8-2.9 1.8-4.2 3.1-1.3 1.2-2.4 2.5-3.3 3.9-1 1.5-1.7 2.7-2 3.9zM210.5 424.1c1.4 0 2.7-.2 4-.5 1-.3 2-.7 2.9-1.3.9-.6 1.6-1.5 1.9-2.6 1 .2 1.9.4 2.6.5.7.1 1.3.2 1.8.3.6.2 1 .3 1.4.3.4.1.9.2 1.4.3.5.1 1.1.2 1.9.3.7.1 1.6.3 2.6.5-.8-.1-1.5 0-2.3.2-.8.3-1.5.5-2.2.8-.8.4-1.6.8-2.3 1.3-.5.3-1 .8-1.6 1.4-.6.6-1.4 1.2-2.5 1.8s-2.5 1-4.2 1.4c-1.8.4-4 .5-6.7.4-3.3-.1-6.1-.7-8.3-1.8-2.2-1.1-4-2.4-5.4-4-1.4-1.6-2.4-3.3-3-5.2-.6-1.9-.9-3.6-1-5.3-.1-1.6.4-3.3 1.4-5.1 1-1.8 2.5-3.4 4.3-4.9 1.9-1.5 4.1-2.7 6.7-3.6 2.6-.9 5.5-1.4 8.7-1.4 1.8 0 3.5.2 5.1.6 1.6.4 3 1 4.3 1.7 1.3.7 2.4 1.5 3.4 2.4 1 .9 1.8 1.8 2.4 2.7.7 1 1.2 2 1.7 3.1.4.9.7 2 1 3.1.3 1.2.3 2.4.2 3.6-3.9.1-7 .2-9.3.2-2.4.1-4.2.1-5.5.1h-6c-.9 0-2.1 0-3.6.1s-3.3.1-5.4.2c.3 2 .9 3.6 1.9 4.7 1 1.1 2.1 1.9 3.3 2.5 1.4.8 2.9 1.1 4.4 1.2zm-6.8-13.7c1.6.1 3 .2 4.1.2 1.1.1 2 .1 2.7.2.8.1 1.4.1 1.8.1h1.9c1.3 0 3.6-.1 7.1-.2-.2-2.2-.6-3.9-1.4-5.1-.8-1.2-1.6-2-2.5-2.6-1-.6-2.1-1-3.4-1.1-3.3.1-5.8.7-7.4 2.1-1.5 1.2-2.5 3.4-2.9 6.4zM233.1 399.9c1 .1 1.8.1 2.6 0 .8 0 1.5-.1 2-.1.7 0 1.2-.1 1.8-.2.8-.1 1.6-.2 2.4-.4.7-.1 1.5-.2 2.2-.4.8-.2 1.6-.4 2.3-.6-.3.8-.6 1.4-.8 2-.2.6-.4 1-.5 1.4-.2.5-.2.8-.2 1.1-.1.4-.1.8-.1 1.3-.1.9-.1 2.3 0 4.2 2.6-2.3 4.9-4.1 6.7-5.3 1.8-1.3 3.2-2.3 4.3-3 1.3-.8 2.3-1.3 3-1.6 1.9-.3 3.5.1 5 1.3.6.5 1.2 1.2 1.8 2 .6.8 1 1.9 1.4 3.3.4 1.4.7 3 .9 4.9.2 1.9.2 4.2.1 6.8-1.1.1-2 .2-2.9.3-.8.1-1.5.2-2.1.2-.7.1-1.3.2-1.8.2l-2.1.2c-.7.1-1.6.2-2.6.3-1 .1-2.3.2-3.8.3 2.1-1.7 3.5-3.2 4.2-4.5.6-1.3.9-2.4.8-3.2-.1-1-.6-1.8-1.4-2.5-1-.6-2-.8-3.1-.6-1 .1-2.1.5-3.4 1.3-1.3.8-2.6 2.2-4 4.3.1 3.3.2 5.9.3 8.1.1 2.1.2 3.9.3 5.2.2 1.5.3 2.7.4 3.6.2.8.5 1.6.9 2.4.4.7.9 1.5 1.5 2.4.7.9 1.5 1.7 2.6 2.6-2.2-.1-4.1-.1-5.5 0-.9 0-1.6.1-2.3.2-.7.1-1.5.2-2.3.3-.7.1-1.5.2-2.5.3-.9.1-2 .3-3.1.4.4-.6.7-1.2 1-1.9.3-.7.5-1.4.6-2.1.2-.8.4-1.5.5-2.4 0-.7.1-1.8.1-3.2 0-1.4 0-3-.1-4.8-.1-1.8-.2-3.7-.3-5.6-.1-2-.2-3.8-.4-5.5s-.3-3.2-.5-4.5c-.2-1.3-.4-2.2-.6-2.7l-.9-1.8c-.3-.6-.7-1.2-1.1-1.8s-.7-1.5-1.3-2.2z"/></g><path d="M305 354.4c2.4.1 4.6.1 6.4.1 1.8 0 3.3-.1 4.5-.1h3.3c.8-.1 1.9-.1 3.1-.1h3.9c1.5 0 3.3 0 5.3.1.6 2.1 1.3 4.2 2.1 6.2s1.5 3.8 2.1 5.4c.8 1.9 1.5 3.7 2.3 5.4.8 1.7 1.7 3.7 2.7 6.1.9 2 2 4.4 3.3 7.3 1.3 2.9 2.8 6.1 4.6 9.8.8-2.4 1.6-4.5 2.3-6.5.7-2 1.4-3.7 1.9-5.1.6-1.7 1.1-3.2 1.5-4.6.4-1.4.8-3 1.3-5 .4-1.7.8-3.7 1.3-6.1.5-2.4 1-5.1 1.5-8.2h5.9c1.8 0 3.3 0 4.6-.1 1.4 0 2.7 0 3.9-.1 1.2 0 2.9-.1 4.9-.2 1.8-.2 4.1-.3 7-.4 2.9-.1 6.6-.3 10.9-.5-1.6 1.1-2.9 2.3-3.8 3.4-1 1.1-1.7 2.1-2.2 2.9-.6 1-1 1.9-1.1 2.9-.2.8-.3 2.5-.4 5.3-.1 2.7-.2 6-.3 9.8-.1 3.8-.2 7.8-.2 12.1s0 8.3.1 12.1c.1 3.8.2 7.1.4 9.9.2 2.8.5 4.6.9 5.3.5.9 1.3 2 2.2 3.2.8 1.1 1.9 2.3 3.3 3.7 1.3 1.4 3.1 2.9 5.3 4.6-3.5.2-6.4.3-8.8.3-2.3.1-4.3.2-5.8.2-1.8.1-3.2.1-4.2.1-1.1 0-2.7 0-4.7.1-1.8.1-4.1.2-7 .3-2.9.1-6.6.3-11.2.5 1.1-1.2 2.1-2.4 3-3.7.9-1.2 1.7-2.3 2.3-3.3.8-1.1 1.4-2.2 1.9-3.3.5-1.4 1-4.1 1.3-7.9.3-3.3.5-8 .7-14.1.2-6.1.2-14.4 0-24.8-1.4 2.4-2.7 4.7-3.8 7-1.1 2.3-2.1 4.4-2.9 6.3-.9 2.2-1.8 4.3-2.5 6.4-.8 2.1-1.6 4.5-2.4 7.1-.8 2.2-1.7 4.8-2.7 7.9-1 3.1-2.2 6.4-3.5 10.1l-4.3.2c-.6-3-1.2-5.8-1.8-8.3-.6-2.5-1.2-4.6-1.8-6.3-.7-2.1-1.4-3.9-2.1-5.5-.8-1.6-1.6-3.4-2.5-5.4-.8-1.7-1.9-3.7-3-5.9-1.2-2.3-2.5-4.8-4.1-7.7-.8 7.8-1.2 14.1-1.4 18.9-.2 4.8-.2 8.6 0 11.3.2 3.2.4 5.5.7 7 .5 1.3 1.2 2.7 2.2 4.3.8 1.4 2 3 3.5 4.9 1.5 1.9 3.4 3.9 5.8 6.2h-5.3s-3.5 0-5 .1c-1.8.1-3.6.1-5.4.1-1.8.1-4 .2-6.4.3-2.1.2-4.7.3-7.7.5s-6.4.4-10.3.8c1.7-1.1 3.1-2.1 4.1-3.1 1.1-1 1.9-2 2.5-2.8.8-1 1.3-2 1.7-3 .2-.6.4-1.9.6-4 .2-2.1.4-4.6.6-7.6.2-3 .3-6.3.5-10 .1-3.7.2-7.4.3-11.2.1-3.8.2-7.5.3-11.1.1-3.6.1-6.9.2-9.8 0-2.9.1-5.4.1-7.4v-3.8c-.2-1.1-.6-2.3-1-3.4-.4-1-1-2-1.8-3.1-1.2-1.1-2.4-2.1-3.7-3z" enable-background="new"/><g enable-background="new"><path d="M419.5 402.2c1.3 0 2.7.2 4.1.7 1.4.5 2.8 1.1 4.1 1.8 1.3.7 2.5 1.5 3.6 2.4 1.1.8 2 1.6 2.7 2.4 1.3 1.4 2.1 3.2 2.6 5.5s.6 4.7.3 7.1c-.3 2.4-1 4.7-2.1 6.8-1.1 2.1-2.7 3.7-4.7 4.7-1.4.7-2.8 1.3-4.2 1.7-1.4.4-2.7.7-4 .9-1.3.2-2.5.3-3.6.3s-2.1 0-2.9-.1c-1.5-.1-3.1-.6-4.8-1.6-1.7-1-3.2-2.2-4.7-3.6-1.4-1.4-2.7-3-3.7-4.7-1-1.7-1.6-3.3-1.8-4.8-.3-2.1-.4-4.3-.2-6.6s1-4.4 2.2-6.3c1.3-1.9 3.3-3.5 5.9-4.8 3-1.1 6.6-1.8 11.2-1.8zm-2.6 29.6c.6.1 1.3 0 2.3-.4 1-.4 1.9-1 2.9-1.9.9-.9 1.8-2 2.5-3.3.7-1.3 1.2-3 1.3-4.9.2-1.9.2-3.6 0-5.2-.1-1.6-.4-3-.7-4.2-.4-1.2-.8-2.2-1.2-2.9-.5-.8-.9-1.3-1.4-1.6-.9-.5-1.9-.8-3.1-1.1-1.2-.3-2.3-.2-3.1.2-.4.2-.9.6-1.5 1.3-.6.7-1.2 1.5-1.8 2.5-.6 1-1.2 2.1-1.6 3.4-.5 1.3-.8 2.6-1 4-.2 1.4-.2 2.8-.1 4.4.1 1.6.4 3.1 1 4.5.5 1.4 1.2 2.6 2.2 3.6.7.9 1.9 1.5 3.3 1.6zM443 428c.4-1.7.6-3.2.8-4.5.2-1.3.3-2.4.4-3.2.1-1 .2-1.9.2-2.6-.1-.9-.1-1.9-.1-3.1 0-1.2-.1-2.4-.2-3.6-.1-1.2-.2-2.3-.3-3.2-.1-.9-.2-1.6-.4-2-.2-.4-.5-.8-.8-1.3-.7-.9-1.8-1.7-3.1-2.5 1.2-.3 2.2-.5 3-.6.8-.2 1.5-.3 2.1-.5.6-.2 1.1-.4 1.6-.5.4-.2.9-.3 1.4-.5.5-.1 1-.2 1.7-.4s1.4-.3 2.3-.5l-.2 6.9c1.6-1.9 3.3-3.4 5-4.3 1.7-1 3.3-1.7 4.7-2.1 1.7-.5 3.3-.8 5-.8 2 .1 3.9.4 5.7 1 1.8.6 3.3 1.2 4.6 1.9 1.3.7 2.4 1.5 3.2 2.3.8.8 1.3 1.5 1.4 2.1.6 2 .8 3.8.5 5.5-.3 1.7-.7 3.3-1.2 4.8-.5 1.6-.9 3.1-1.2 4.6-.3 1.5-.2 3.2.3 5l.6 1.4c.2.4.5.8.8 1.2.3.4.7.7 1.1 1l-1.7-.1c-.6 0-1.1-.1-1.5-.1-.6 0-1.1-.1-1.5-.2-.5-.1-1.2-.1-2.1-.1-1.5 0-3.8.1-6.9.2.5-1.1.8-2 1.1-2.7.3-.7.5-1.3.7-1.8.2-.6.4-1 .5-1.3.6-1.5 1-3.2 1.1-5 .1-1.9 0-3.8-.4-5.7-.2-.7-.4-1.4-.8-2.4-.4-.9-.8-1.8-1.4-2.7-.6-.9-1.3-1.6-2.1-2.2-.8-.6-1.7-1-2.7-1.1-1-.1-2.1.2-3.4.8s-2.6 1.7-4 3.4c-1.1 1.4-1.9 3.1-2.5 5-.6 1.7-.9 3.8-1.1 6.3-.2 2.5.1 5.5.9 8.8-.7-.1-1.4-.2-2-.2-.6 0-1.1-.1-1.5-.1-.5-.1-1-.1-1.4-.2-.5 0-1 0-1.5-.1h-1.9c-.9.1-1.8.1-2.8 0zM520 392.9c-.5 1.1-.9 2.1-1.2 3.1-.3.9-.6 1.7-.9 2.4-.3.8-.5 1.5-.7 2.1-.2.7-.4 1.5-.7 2.4-.3.8-.6 1.8-1 3s-.8 2.6-1.3 4.2c-.4-2.4-1.1-4.4-2.2-5.8-1.1-1.4-2.2-2.6-3.3-3.4-1.3-.9-2.7-1.6-4.3-2-2.7-.5-4.7-.4-5.9.2-1.2.6-2 1.3-2.4 2.1-.2.4-.4.8-.6 1.3-.2.5-.4 1.1-.5 1.6-.1.6-.2 1.1-.1 1.7s.3 1 .7 1.4c.3.3.9.6 2 1s2.4.9 3.9 1.4c1.5.5 3.1 1.1 4.8 1.7 1.7.6 3.3 1.2 4.8 1.8s2.8 1.2 4 1.8c1.1.6 1.9 1.2 2.2 1.7.3.5.6 1.2 1 2s.7 1.8.8 2.7c.2 1 .2 2 .2 3.1-.1 1-.4 2.1-.9 3.1s-1.3 2-2.4 2.8c-1.1.9-2.6 1.6-4.4 2.1-2.1.7-4.2.8-6.2.5-2-.3-3.8-.8-5.5-1.4-1.7-.6-3.1-1.2-4.3-1.8-1.2-.6-2.1-.8-2.6-.7-.6.1-1.2.4-1.9.8-.7.5-1.4.9-2 1.4-.6.5-1.2.9-1.6 1.3-.5.4-.7.5-.7.4 0-.1.1-.4.3-.9.2-.5.4-1.1.6-1.9.2-.7.5-1.5.7-2.4.2-.9.4-1.7.5-2.6.1-.7.2-1.5.4-2.4.1-.9.2-1.9.4-3.2.2-1.2.4-2.8.6-4.5.3 1.3.6 2.5 1.1 3.4.5 1 1 1.8 1.4 2.5.6.8 1.1 1.5 1.6 2.1.8.7 1.7 1.4 2.7 2s2.1 1.1 3.2 1.6c1.1.4 2.1.7 3.1.8 1 .1 1.8 0 2.4-.3.7-.3 1.2-.9 1.7-1.7.5-.8.8-1.7 1-2.7.2-1 .3-1.9.2-2.8-.1-.9-.3-1.6-.7-2.2-.3-.4-1-.8-2.1-1.4-1.1-.6-2.4-1.2-3.9-1.8-1.5-.7-3.1-1.3-4.7-2.1-1.7-.7-3.2-1.4-4.7-2.2-1.4-.7-2.6-1.4-3.6-2.1-.9-.7-1.5-1.3-1.6-1.9-.1-.8-.2-1.7-.2-2.7-.1-1 0-2 .2-3s.5-1.9 1.1-2.9c.5-.9 1.3-1.7 2.4-2.3.7-.4 1.7-.7 2.8-.9 1.2-.2 2.5-.3 3.9-.3s2.9 0 4.4.2c1.5.1 3 .3 4.4.5 1.4.2 2.7.4 3.8.6 1.1.3 2 .5 2.6.7.7.3 1.5.3 2.3.1.7-.2 1.5-.5 2.3-1 .9-.1 1.7-1 2.6-2.3zM521.8 388.4c1.5.2 2.8.3 3.9.4 1 .1 1.9.2 2.6.2.8.1 1.4.1 1.8.1.5.1 1.1.1 1.8 0 .7 0 1.5-.1 2.6-.2s2.4-.2 4-.4c-.4.5-.6 1-.8 1.3-.2.4-.4.7-.5 1l-.5.9-.3.9-.3.9-.2 1.1h11.7l-1.1 6.2-10.8-.6c-.3 2.6-.4 4.6-.5 6-.1 1.4-.2 2.5-.3 3.1l-.2 1.4c-.2 1.9-.3 4-.5 6.3s-.2 4.4-.2 6.3c.1 1.9.2 3.5.5 4.8.3 1.3.8 1.9 1.6 1.9s1.5-.2 2.1-.6c.7-.4 1.2-.9 1.7-1.4.5-.6.9-1.1 1.1-1.7.3-.6.4-1 .4-1.3 0-.3-.1-.7-.2-1.1-.3-.8-.7-1.7-1.4-2.9 1.5.4 2.8.7 3.9 1.1.6.2 1.1.4 1.5.6.5.2 1.1.4 1.8.7.6.3 1.3.6 2.1.9.9.4 1.9.8 3.1 1.3-1.1.2-1.9.5-2.4 1-.3.2-.5.4-.7.7-.4.6-.8 1.3-1.2 2.2-.5.9-1.1 1.9-2.1 2.8-.9.9-2.1 1.7-3.7 2.4s-3.6 1.1-6.2 1.2c-2.7.1-4.7-.4-6.1-1.4-1.4-1-2.4-2.2-3.1-3.5-.6-1.3-1-2.7-1.1-4-.1-1.3-.2-2.2-.2-2.7-.1-.5-.1-1.6 0-3.4 0-1.8.1-3.9.2-6.1.1-2.2.2-4.3.3-6.4.1-2.1.2-3.6.2-4.5 0-.5 0-1 .1-1.6v-3.1l-11.1-.1-.5-4.3 11.1.3c-.1-.6-.2-1.1-.3-1.6-.1-.5-.2-.9-.3-1.2-.2-.4-.3-.7-.5-.9-.2-.3-.4-.5-.7-.8l-1-1c0-.3-.5-.7-1.1-1.2zM569.2 424.1c1.4 0 2.7-.2 4-.5 1-.3 2-.7 2.9-1.3.9-.6 1.6-1.5 1.9-2.6 1 .2 1.9.4 2.6.5.7.1 1.3.2 1.8.3.6.2 1 .3 1.4.3.4.1.9.2 1.4.3.5.1 1.1.2 1.9.3.7.1 1.6.3 2.6.5-.8-.1-1.5 0-2.3.2-.8.3-1.5.5-2.2.8-.8.4-1.6.8-2.3 1.3-.5.3-1 .8-1.6 1.4-.6.6-1.4 1.2-2.5 1.8-1.1.6-2.5 1-4.2 1.4-1.8.4-4 .5-6.8.4-3.3-.1-6.1-.7-8.3-1.8-2.2-1.1-4-2.4-5.4-4-1.4-1.6-2.4-3.3-3-5.2-.6-1.9-.9-3.6-1-5.3-.1-1.6.4-3.3 1.4-5.1 1-1.8 2.5-3.4 4.3-4.9 1.9-1.5 4.1-2.7 6.8-3.6 2.6-.9 5.5-1.4 8.7-1.4 1.8 0 3.5.2 5.1.6 1.6.4 3 1 4.3 1.7s2.4 1.5 3.4 2.4 1.8 1.8 2.4 2.7c.7 1 1.2 2 1.7 3.1.4.9.7 2 1 3.1.3 1.2.3 2.4.2 3.6-3.9.1-7 .2-9.3.2-2.4.1-4.2.1-5.5.1h-6c-.9 0-2.1 0-3.6.1s-3.3.1-5.4.2c.3 2 .9 3.6 1.9 4.7 1 1.1 2.1 1.9 3.3 2.5 1.4.8 2.8 1.1 4.4 1.2zm-6.9-13.7c1.6.1 3 .2 4.1.2 1.1.1 2 .1 2.7.2.8.1 1.4.1 1.8.1h1.9c1.3 0 3.6-.1 7.1-.2-.2-2.2-.6-3.9-1.4-5.1-.8-1.2-1.6-2-2.5-2.6-1-.6-2.1-1-3.4-1.1-3.3.1-5.8.7-7.4 2.1-1.5 1.2-2.5 3.4-2.9 6.4zM591.8 399.9c1 .1 1.8.1 2.6 0 .8 0 1.5-.1 2-.1.7 0 1.2-.1 1.8-.2.8-.1 1.5-.2 2.4-.4.7-.1 1.5-.2 2.2-.4.8-.2 1.6-.4 2.3-.6-.3.8-.6 1.4-.8 2-.2.6-.4 1-.5 1.4-.2.5-.2.8-.2 1.1-.1.4-.1.8-.1 1.3-.1.9-.1 2.3 0 4.2 2.6-2.3 4.9-4.1 6.7-5.3 1.8-1.3 3.2-2.3 4.3-3 1.3-.8 2.3-1.3 3-1.6 1.9-.3 3.5.1 5 1.3.6.5 1.2 1.2 1.8 2s1 1.9 1.4 3.3c.4 1.4.7 3 .9 4.9.2 1.9.2 4.2.1 6.8-1.1.1-2 .2-2.9.3-.8.1-1.5.2-2.1.2-.7.1-1.3.2-1.8.2l-2.1.2c-.7.1-1.6.2-2.6.3-1 .1-2.3.2-3.8.3 2.1-1.7 3.5-3.2 4.2-4.5.6-1.3.9-2.4.8-3.2-.1-1-.6-1.8-1.4-2.5-1-.6-2-.8-3.1-.6-1 .1-2.1.5-3.4 1.3-1.3.8-2.6 2.2-4 4.3.1 3.3.2 5.9.3 8.1s.2 3.9.3 5.2c.2 1.5.3 2.7.4 3.6.2.8.5 1.6.9 2.4.4.7.9 1.5 1.5 2.4.7.9 1.5 1.7 2.6 2.6-2.2-.1-4.1-.1-5.5 0-.9 0-1.6.1-2.3.2-.7.1-1.5.2-2.3.3-.7.1-1.5.2-2.5.3-.9.1-2 .3-3.1.4.4-.6.7-1.2 1-1.9.3-.7.5-1.4.6-2.1.2-.8.4-1.5.5-2.4.1-.7.1-1.8.1-3.2 0-1.4 0-3-.1-4.8-.1-1.8-.2-3.7-.3-5.6-.1-2-.2-3.8-.4-5.5-.2-1.7-.3-3.2-.5-4.5-.2-1.3-.4-2.2-.6-2.7l-.9-1.8c-.3-.6-.7-1.2-1.1-1.8-.3-.8-.8-1.5-1.3-2.2zM663.5 392.9c-.5 1.1-.9 2.1-1.2 3.1-.3.9-.6 1.7-.9 2.4-.3.8-.5 1.5-.7 2.1-.2.7-.4 1.5-.7 2.4-.3.8-.6 1.8-1 3s-.8 2.6-1.3 4.2c-.4-2.4-1.1-4.4-2.2-5.8-1.1-1.4-2.2-2.6-3.3-3.4-1.3-.9-2.7-1.6-4.3-2-2.7-.5-4.7-.4-5.9.2-1.2.6-2 1.3-2.4 2.1-.2.4-.4.8-.6 1.3-.2.5-.4 1.1-.5 1.6-.1.6-.2 1.1-.1 1.7s.3 1 .7 1.4c.3.3.9.6 2 1s2.4.9 3.9 1.4c1.5.5 3.1 1.1 4.8 1.7 1.7.6 3.3 1.2 4.8 1.8s2.8 1.2 4 1.8c1.1.6 1.9 1.2 2.2 1.7.3.5.6 1.2 1 2s.7 1.8.8 2.7c.2 1 .2 2 .2 3.1-.1 1-.4 2.1-.9 3.1s-1.3 2-2.4 2.8c-1.1.9-2.6 1.6-4.4 2.1-2.1.7-4.2.8-6.2.5-2-.3-3.8-.8-5.5-1.4-1.7-.6-3.1-1.2-4.3-1.8-1.2-.6-2.1-.8-2.6-.7-.6.1-1.2.4-1.9.8-.7.5-1.4.9-2 1.4-.6.5-1.2.9-1.6 1.3-.5.4-.7.5-.7.4 0-.1.1-.4.3-.9.2-.5.4-1.1.6-1.9.2-.7.5-1.5.7-2.4.2-.9.4-1.7.5-2.6.1-.7.2-1.5.4-2.4.1-.9.2-1.9.4-3.2.2-1.2.4-2.8.6-4.5.3 1.3.6 2.5 1.1 3.4.5 1 1 1.8 1.4 2.5.6.8 1.1 1.5 1.6 2.1.8.7 1.7 1.4 2.7 2s2.1 1.1 3.2 1.6c1.1.4 2.1.7 3.1.8 1 .1 1.8 0 2.4-.3.7-.3 1.2-.9 1.7-1.7.5-.8.8-1.7 1-2.7.2-1 .3-1.9.2-2.8-.1-.9-.3-1.6-.7-2.2-.3-.4-1-.8-2.1-1.4-1.1-.6-2.4-1.2-3.9-1.8-1.5-.7-3.1-1.3-4.7-2.1-1.7-.7-3.2-1.4-4.7-2.2-1.4-.7-2.6-1.4-3.6-2.1-.9-.7-1.5-1.3-1.6-1.9-.1-.8-.2-1.7-.2-2.7-.1-1 0-2 .2-3s.5-1.9 1.1-2.9c.5-.9 1.3-1.7 2.4-2.3.7-.4 1.7-.7 2.8-.9 1.2-.2 2.5-.3 3.9-.3s2.9 0 4.4.2c1.5.1 3 .3 4.4.5 1.4.2 2.7.4 3.8.6 1.1.3 2 .5 2.6.7.7.3 1.5.3 2.3.1.7-.2 1.5-.5 2.3-1 .9-.1 1.8-1 2.6-2.3z"/></g><path fill="#962D69" d="M552.2 227.7l1.2-2-4-3.3-.7 1-.6 1.3 1.1.5 1.1.7 1 .8.9 1"/><path fill="#E9058A" d="M553.4 225.7l-1.2 2 2.1 3.6.4 1 1.9-.9-.6-1.7-.7-1.5-.9-1.5-1-1M548.7 223.4l.7-1-2.8-1-1-.3h-3.3000000000000003l-2.1.5 1.9 1.9 3.2.3 2.8.9.6-1.3"/><path fill="#962D69" d="M554.7 238.9l2.5-.5.1-1v-2.5l-.1-.8-.1-.8-.2-1-.3-.9-1.9.9.3.8.1.8.2.9v.8l-.2.8v.7l-.3.9-.1.9"/><path fill="#E9058A" d="M557.2 238.4l-2.5.5-1.5 2.9-2.3 2.2.3.3 1.6 1.3.5-.3.7-.8.7-.9.6-.8.5-.9.5-.9.3-.9.3-.9.3-.8"/><path fill="#962D69" d="M551.2 244.3l-.3-.3-.7.3-.5.3-.3.2-.9.2h-.4l-.4.2h-2l-1-.4h-.9l-1.9-.5 1.7 3.3h3.5l.3-.2h.5l.3-.1h.5l.9-.3 1-.3.9-.4 1.3-.7-1.6-1.3M546.8 240.1l.9-.6.4-.3.3-.2.7-.6.4-.8.4-.9.1-.4.3-.4.3-.7.1-.7v-.4l.2-.5v-1.2l-.2-.8-.1-.6-.3-.7-.4-.6-.2-.4-.1-.3-.5-.5-.6-.6-.3-.4-.3-.2-.7-.6-.5-.4-.6-.3-.5-.3h-2.3l-.5.3-.8.3-.7.4-.7.5-.5.5-.5.3-.4.5-.2.3-.3.5-.3.2-.2.5-.1.4v.9l.1.3v.4l.2.4.3.4.1.5.4.3.3.5v.5l.1.3.2.4.3.3.1.3.3.2.3.2.1.1.3.2.3.1h.8v-.1h.30000000000000004l.3-.2.2-.1.3-.2.4-.4.1-.1h.1l.3-.3.1-.2.2-.3.1-.3v-1l-.1-.4-.2-.5-.1-.3-.4-.8-.5-.5-.5-.3-.3-.2h-.6l-.2.2-.5.1-.3.2-.8.4.1-.1.2-.8.3-.4.4-.6.4-.3 1-.6 1-.3h1l.8.2.7.3.7.5.6.4.4.7.4.7.3.9.2.5v2l-.2.6-.1.2-.2.6-.3.3-.2.4-.5.3-.4.2-.4.3-.5.3-1.2.5-.3.2h-.4l-.4.2h-.30000000000000004l-.7.1-.8.2-.6-.2h-.7l-.7-.3-.3-.2h-.30000000000000004l-1.4 1.8.4.2.6.3.5.3.5.2h1l.1.2h1.7000000000000002l.5-.2h1.2l.4-.2h.2l.7-.3.5-.1.7-.3"/><path fill="#E9058A" d="M538.1 249.3l.3-.7.3-.3.1-.5.4-.2.3-.2.5-.1.3-.2h.6l.4.2 2.3.3-1.7-3.3h-.9l-.8.2-.9.3-.6.4-.7.3-.8.3-.7.5-.3.7 1.9 2.3"/><path fill="#962D69" d="M537.2 250.8l1-1.5-2-2.3-1.3 2.1h-.2v.2l-.8.3-2.5-.8-1.3-.5-1.3-.3-1.3-.3-1.3-.2-1.3-.2h-2.6l-1.3.2-3 .5-1.8.5-1.7.5-1.7.7-1.7.8-1.1.5-1.1.7-1 .7-1 .8-1 .8-.8.8-.8 1-.8 1.1-.8 1.3-.3.7-.4.7 2.3.8 2.3 1 4.5 1.7 1.1.5-.3.7-.3.7-.2.7-.2.8-.2.7v2.4000000000000004l-.2 1.3.5 1.3.5 1.1.5 1.1.3.5.2.3.2.2.2.2.7 1 .7 1 .8.8.8.8.8.7 1 .7 1 .5 1.1.5 1.1.5h.2l.2.2.3.2.5.3 1.3.5 1.3.5 1 .2h.5l.5.2h3.2l.8-.2.8-.2.8-.3.2-.2h.2l.5-.2.8-.3.8-.3.2-.2.2-.2.5-.2.2-.2.2-.2.5-.2.8-.5.8-.5 1.3-1.1 1.1-1.1 1-1.1 1-1.3 4.5 1.8 4.6 1.8.5-.8.5-.8.3-.8.3-.8.2-.8.2-.8v-3l-.2-1.3-.2-.7-.2-.5-.3-1.3-.5-1.3-.5-1.3-.5-1.1-.5-1.1-2-3.1-4.5-4.3-1.7-1.3-1.8-1.1-1.8-1-2.1-1.3zm-9.8 3.8l1.3-.3 1.3-.2h1l1.3.3.7.2.8.3.8.3.7.5.7.5.7.5.5.5.5.5.5.5 1 1.3.5.5.5.7.3.7.3.8.3.8.2 1v.2l.2 1.1v2.3l-.2 1.3-.3 1.1-.5 1.1-.5 1.1-.5 1.1-.7 1.1-.8 1-.8.8h-.2l-.2.2-.3.2-.5.5-1 .7-.5.2-.2.2-.2.2-.8.5-.8.3-.8.3-.8.3-.8.2-.8.2-1 .2h-2.2l-.5-.2-.3-.2h-.4l-.5-.2-.3-.2h-.4l-.5-.3-.5-.2-1-.5-.5-.3-.3-.2-.3-.2-.5-.3-.5-.3-1-.8-.8-.8-.8-.8-.7-1-.5-1.1-.5-1.1-.5-1.1-.3-1.1-.2-.5v-2l.2-.5.3-1v-.2l.5-1.5.7-1.4.8-1.3.8-1.1.8-.8.8-.7 1-.7 1-.7 1.1-.5 1.1-.5 1.1-.5 2.9-1"/><path fill="#EC509D" d="M532.5 254.3l-1.3-.3h-1l-1.3.2-1.3.3-1.3.3-1.1.5-1.1.5-1.1.5-1 .7-1 .7-.8.7-.8.8-.8 1.1-1 1.3-.7 1.4-.5 1.5v.2l-.3 1-.2.5v2l.2.5.3 1.1.5 1.1.5 1.1.5 1.1.7 1 .8.8.8.8 1 .8.5.3.5.3.3.2.3.2.5.3 1 .5.5.2.5.3h.4l.3.2.5.2h.4l.3.2.5.2h2.2l1-.2.8-.2.8-.2.8-.3.8-.3.8-.3.8-.5.2-.2.2-.2.5-.2 1-.7.5-.5.3-.2.2-.2h.2l.8-.8.8-1 .7-1.1.5-1.1.5-1.1.5-1.1.3-1.1.2-1.3v-2.3l-.2-1.1v-.2l-.2-1-.3-.8-.3-.8-.5-.2-.5-.7-.5-.5-1-1.3-.5-.5-.5-.5-.5-.5-.7-.5-.7-.5-.7-.5-.8-.3-.8-.3h-1.9zm5.7 8.5l.3.5.2.8v1.6l-.2.8-.2.8-.2.8-.3.8-.3.8-1.5 2.8-.5.5-.2.2-.2.2-.3.3-.7.5-.2.2-.2.2-.5.3-.5.2-.5.2-.8.3h-.5l-.5.2-.8.2.5-.3h-1.1l-1 .2h-1.8.1l-.5-.2h-.2.4l-.7-.2-.3-.2-.2-.2-.5-.3.2.3-.8-.5-.8-.5-.7-.5-.5-.5-.5-.7-.5-.8-.5-.8-.3-.8-.3-3.3.2-1 .2-1 .3-1 .5-1 .5-1.1.3-.5.5-.5.5-.8.7-.7.8-.7.5-.3.5-.3.7-.5.8-.5.8-.3.8-.2.8-.3h1.6l.8.2.7.2.7.3.5.3.5.3.5.3.5.5 1 .8.5.5.5.5.3.5.3.5.3.5.3.7.2.7"/><path fill="#fff" d="M538.5 263.4l-.3-.6-.1-.8-.1-.7-.3-.5-.3-.6-.2-.7-.5-.5-.3-.5-.4-.4-1-.9-.6-.4-.5-.3-.5-.3-.7-.2-.6-.1-.7-.2-.8-.2h-1l-.8.2-.7.2-.8.3-.8.2-.7.3-1 .5-.3.2-.6.3-.9.6-.6.7-.6 1-.4.5-.4.5-.5 1.1-.4 1-.4 1-.2 1-.1 1.1.3 3.3.3.8.2.9.5.8.5.7.8.7.7.6.8.5 1 .5-.3-.3.6.4h.2l.2.1.3.1.8.2h.30000000000000004v.1l.4.2h2.5999999999999996l.5-.2h.5l-.4.4.9-.4h.4l.6-.1.6-.3.5-.1.4-.1.3-.3h.1v-.2h.3l.6-.4.3-.4.2-.2h.1l.5-.5 1.7-2.8.3-.8.2-.9.2-.9.1-.8.2-.9v-.8l-.2-.8v-.9"/><path fill="#E9058A" d="M537.8 240l1.4-1.8-2.4-2-.6.1-.3.1-.4.2-.6.7 2.9 2.7"/><path fill="#962D69" d="M542.1 223.5l-1.9-1.9-1 .3-.8.3-.9.5-.7.5-.6.6-.8.7-.5.9-.6.9-.3.4h.3l1.9.9.6-.9.6-.8.7-.7.7-.5.8-.5.9-.4.8-.1.8-.2"/><path fill="#E9058A" d="M536.2 227.6l-1.9-.9h-.3l-.4.6-.2.7-.3.6-.2.7-.2.5-.1.7v1.3l.8-.3.2-.1.3-.1.5-.5.3-.1.2-.3h.3l.1-.7.1-.7.3-.7.5-.7"/><path fill="#962D69" d="M535.5 236.6l.4-.2.3-.1.6-.1-.3-.3-.3-.7-.5-.7-.3-.7-.1-.7-.1-.7-.2-.8v-.6l.2-.6h-.3l-.2.3-.3.1-.5.5-.3.1-.2.1-.8.3.1.7.2.8.2.5.3.7.2.7.4.7.3.7.6.7.6-.7"/><path fill="#E9058A" d="M549.9 281.9l2.1-2.8-4.6-1.8-4.5-1.8-1 1.3-1 1.1-1.1 1.1-1.3 1.1-.8.5-.8.5-.5.2-.2.2-.2.2-.5.2-.2.2-.2.2-.8.3-.8.3-.5.2-.2.2-.8.3-.8.2-.8.2h-3.2l-.5-.2h-.5l-1-.2-1.3-.5-1.3-.5-.5-.3-.3-.2-.2-.2h-.2l-1.1-.5-1-.6-1-.5-1-.7-.8-.7-.8-.8-.7-1.1-.7-1-.7-1-.2-.2-.2-.2-.2-.3-.3-.5-.5-1.1-.5-1.1-.5-1.3.2-1.3v-2.4000000000000004l.2-.7.2-.8.2-.7.3-.7.3-.7-1.1-.5-4.5-1.7-2.3-1-2.3-.8-.3.5-.3.7-.3.7-.2.7-.2.7-.2.7-.2.7v1.8l.2 1 1.8 9.9.2 4.3-.2.7-.2.7-.5 1.4-.5 1.4-.5.7-.5.7-.8 1.3-.8 1.3-1 1.1-.3.3-.2.2v.2l-.5.5-.8.8-2.4 2-5.9 3.6-2.8 1.3-2 1.1-2.3 1-2.3 1.1-2.3 1.3-.7.5-1.7 1-1.7 1-1.7 1.1-1.5 1.1-1-.8-1.3-1.1-1.3-1-2.5-1.7-2.7-1.7-1.4-.7-1.4-.7-1.4 1.4-1.4 1.5-1.3 1.5-.7.8-.5.8 2.1 1.8 8.1 5.6-1.7 2-2.1 3.9-.3.5 1.4.8 1.5.8.7.5h.4l.2.2.5.3 1.5.8 1.5.7.8.3.8.5 1.7.5.8.3.8.3 2.7.8 2.7.8 5.3 1.7 5.3 1.5 5.3 1.4 20.8 5.1 31 5.9.5-2.1.8-6.8 2.1.2 2.1.2 2.1.2 2 .2 4.5-.2 1.3-8.9-3.1-.5-1.4-.3-1.5-.2-1.4-.2h-2.8l-1.4.2-1.4.2-1.4.3-.3-1-.3-.8-.5-1.7-.3-.8-.5-.8-.8-1.7-.3-.5-5.8-9-.2-.2-1.4-2.3-3.3-5.5-.5-.8-.5-.8-.3-1-.2-.8v-1.6l.2-.8.2-.7.3-.8.3-.7.5-.7.5-.5.5-.5.5-.5.5-.5.7-.3 7.4-3.5.3-.2.2-.2h.2l.5-.3 1.3-.5 1.1-.7 1.1-.7 1.1-.8 1-.8.5-.5.5-.5 1 .2zm-18.8 28l.5.5v.2l-.5.5-.5.5-.7.5-.7.5.3.5.2.5.2.5v1.7l-.3 1.4-.3.8-.3.8-.3.7-.2.3-.2.2-.2.2-.3.3-.3.3-.5.5-.5.5-.3.2-.3.3-.8.2-.8.2h-.5l-.5.2-1 .2-.8-.2-.8-.2-.7-.3-.3-.2-.2-.2h-.2l-.3-.3-.3-.2-.2-.2-.2-.2h-.2l-.3-.3-.3-.3-.3-.3-.3-.5-.2-.2-.2-.2-.5-1-.3-.5-.2-.5-.2-.5-.2-.5-.2-.5v-1.2l.2-.5.2-.5.3-.5.3-.5.5-.5.5-.5.5-.5.5-.3-.5-2 .2-.3.5-.3h.5l1.3 1.7.8-.3 2.7-.3-.3-1.1.5-1.3.5-.5.5.2.5.5.2.3-.2.3-.2.5.2.3.2.5v.7h.5l2.4 1.5.5-.5.5-.3.5-.3.7-.2.3-.2.4.2zm-28.2-5.9l-1.5.8.2.5v1l-.2.7-.2.5-.2.7-.3.7-.3.7-.7 1.1-1.5 1.7-.5.3-.5.3-.3.2-.3.2-.5.3-.5.2-.5.2h-.5l-.5.2h-.9l-.5-.2h-.5l-.5-.2-.5-.2-.5-.3-.2-.2h-.2l-.3-.2-2.7-3.1-.3-.7-.2-.7v-1.2l.2-.7.2-.7.3-.7.3-.5.3-.7.5-.5.5-.5.5-.5.5-.5.7-.5.7-.5.7-.3v-1.4l.2-.5-.2-.5v-.3l.2-.2.3-.2h.5l.3.2.5 2.4.8-.2h.8l.8.2.8.3 1.3-2.1.3-.3h.7v-.2l.5.5v.3l-1.3 2.7 1.7 1.8 1.7-1.3.2-.2h.3l.3.2.5.5.2.3-.7 1.3zm-6 14.2l.7-.3.7-.2h.7l.7.2.7.2.5.3.7.5.7.5.5.3.5.3.5.3h.2l.2.2.3.2.5.2.3.2h.2l.2.2.5.2h.3l.3.2h2.1l.5-.2h.7l.5-.2.3-.2h.3l2.5-.5.5.2.5.2.3.2.3.2.3.2.2.3.2.2.2.3v1.4l-.2.3-.2.5-.3.5-.3.5-1 .7-.3.3-.7-.1-.8.5-.2.2-.2.2-.5.3-.5.2h-.4l-.3.2-1 .3h-.6l-.5.2h-1l-.7-.2h-.8l-.7-.2-.7-.2-1.4-.5-.7-.3-.3-.2-.3-.2-.5-.5-.5-.5-.3-.3.1-.1h-.4l-.5-.5-.5-.9-.5-.5-1-1.1-.5-.5-.3-.5-.2-.5-.2-.5v-1l.2-.5.4-.7"/><path fill="#fff" d="M531.6 310.5l-.5-.5h-.5l-.3.2-.7.2-.5.3-.5.3-.5.5-2.4-1.5h-.7v-.7l-.2-.5-.2-.3.2-.5.2-.3-.2-.3-.5-.5-.5-.2-.5.5-.5 1.3.3 1.1-2.7.3-.8.3-1.3-1.7h-.5l-.2.3-.2.3.5 2-.5.3-.5.5-.5.5-.5.5-.3.5-.3.5-.2.5-.2.5v1.2l.2.5.2.5.2.5.2.5.3.5.5 1 .2.2.2.2.3.5.3.3.3.3.3.3h.2l.2.2.2.2.3.2.3.3h.2l.2.2.3.2.7.3.8.2.8.2 1-.2.5-.2h.5l.8-.2.8-.2.3-.3.3-.2.5-.5.5-.5.3-.3.3-.3.2-.2.2-.2.2-.3.3-.7.3-.8.3-.8.3-1.4v-2.1l-.2-.5-.2-.5-.3-.5.7-.5.7-.5.5-.5.5-.5zm-12.5 6.6l.2-.8.3-.7.3-.7.5-.5.5-.5.5-.5.5-.5.7-.3.5-.3.5-.2h.6l.5.2.5.3.5.3.5.3.3.3.3.5.2.3.2.5.2.3v1.5l-.2.5-.2.5-.2.5-.2.5-.2.3-.2.2-.2.3-.2.3h-.2l-.2.2-.3.2-.5.3-.5.2h-1.4000000000000001l-.3-.2h-.4l-.2-.2h-.2l-.3-.2-.5-.3-.3-.3-.3-.2-.5-.5-.6-1.6"/><path fill="#E9058A" d="M522.7 312.4l-.7.5-.8.4-.4.4-.6.6-.2.6-.5.6-.1.7-.3.9 1 1.2.4.5.2.2.3.2.5.4.3.2h.2v.2h2.5l.3-.4.4-.3.1-.1.3-.2.2-.2v-.5l.2-.2.3-.6.2-.4.1-.6v-.3l.2-.5v-.5l-.2-.3v-.3l-.1-.4-.4-.3-.3-.5-.2-.2-.3-.3-.5-.3-.3-.2-.5-.2h-.7l-.4.2h-.2"/><path fill="#fff" d="M501.4 305l1.5-.8.7-1.3-.2-.3-.5-.5-.3-.2h-.3l-.2.2-1.7 1.3-1.7-1.8 1.3-2.7v-.3l-.5-.5v.2h-.7l-.3.3-1.3 2.1-.8-.3-.8-.2h-.8l-.8.2-.5-2.4-.3-.2h-.5l-.3.2-.2.2v.3l.2.5-.2.5v1.4l-.7.3-.7.5-.7.5-.5.5-.5.5-.5.5-.5.5-.3.7-.3.5-.3.7-.2.7-.2.7v1.4l.2.7.3.7 2.7 3.1.3.2h.2l.2.2.5.3.5.2.5.2h.5l.5.2h1l.5-.2h.5l.5-.2.5-.2.5-.3.3-.2.3-.2.5-.3.5-.3 1.5-1.7.7-1.1.3-.7.3-.7.2-.7.2-.5.2-.7v-1l-.3-.7zm-3.6 3.9l-.5.7-.5.5-.5.5-.5.5-.7.2h-.1l-.3.2h-1.7l-.3-.3-.3-.2-.5-.3-.3-.3-.2-.2-.2-.3-.2-.3-.3-.5-.2-.5-.2-.5v-1l.2-.5.2-.5.3-.5.3-.5.3-.5.5-.5.5-.3.5-.5.5-.3.5-.2h.7l.5.2.5.2.5.2.5.3.3.3.3.3.3.3.3.5.2.3.2.5v1.5l-.2.5-.4 1"/><path fill="#E9058A" d="M493 311.2h.4l.4.2h.7l.5-.2h.3l.7-.1.5-.5.4-.4.4-.7.5-.6.3-1.1v-.4l.1-.4v-.4l-.1-.5v-.4l-.3-.2-.2-.3-.3-.4-.2-.3-.3-.2-.5-.3-.3-.2-.7-.2-.3-.1h-.7l-.6.1-.7.4-.5.5-.3.3-.5.4-.4.3-.1.5-.3.4-.2.4-.1.6v1.4l.3.5.1.5.2.1.3.3v.2l.4.2.4.3.4.2.3.1"/><path fill="#962D69" d="M502.2 319.2l-.7-.5-.7-.5-.5-.3-.7-.2-.7-.2h-.7l-.7.2-.7.3-.2.5-.2.5v1l.2.5.2.5.3.5.5.5 1 1.1.5.5.5.5.5.5h.4l.2.2.3.3.5.5.5.5.3.2.3.2.7.3 1.4.5.7.2.7.2h.8l.7.2h1l.5-.2h.6l1-.3.3-.2h.4l.5-.2.5-.3.2-.2.2-.2.8-.5.5-.5.3-.3.7-.8.3-.5.3-.5.2-.5.2-.3v-1.4000000000000001l-.2-.3-.2-.2-.2-.3-.3-.2-.3-.2-.3-.2-.5-.2-.5-.2-2.5.5h-.3l-.3.2-.5.2h-1l-.5.2h-2.2l-.3-.2h-.3l-.5-.2-.2-.2h-.2l-.3-.2-.5-.2-.3-.2-.2-.2h-.2l-.5-.3-.5-.3-.1.9zm-3.3.4l.7-.2.3.5.3.5.2.2.2.2.2.2.3.5.3.3.2.2.2.2.8.5.8.5.8.3.5.2.5.2 1.1.2h3.3l.8-.2.5-.2h.5l1.5-.3.3.3v.3l-.8.5-.8.5-.8.3-.8.3-1 .2h-3.0999999999999996l-1-.3-.5-.2-.5-.2-.8-.3-.2-.2h-.2l-.5-.2-.7-.5-.5-.3-.2-.2-.2-.2-.7-.5-.7-.5-.5-.5-.2-.5-.2-.5.6-1.1"/><path fill="#E9058A" d="M499.6 319.5l-.7.1v1l.2.4.3.6.7.5.8.7.1.1.1.1.5.3.6.4.5.1h.2v.2l.2.1.8.3.5.2.4.1.9.1h.8l.3.1h.9l.5-.1h.5l.9-.1.9-.3.8-.4.8-.4.8-.6v-.1l-.4-.3-1.5.3h-.4l-.3.1-.8.1h-.9l-.9.2h-1.5l-1.1-.2-.6-.1-.4-.1-1-.3-.9-.5-.8-.5-.1-.1-.2-.2-.2-.3-.5-.4v-.1h-.1l-.2-.2-.2-.3-.3-.5"/><path fill="#5DC1AF" d="M556.6 300.2l-.5-1.3-.8-1.2-.8-1.1-1-.9-1-.8-1.2-.7-1.3-.4-1.3-.5h-1.8l-1.5-.2-1.6-.2h-1.7l-1.6.2-1.5.2-1.8.2-1.5.3-1.4.4-1.2.4-1.3.6-1.2.7-.5.2-.3.8v.7l-.2.8.2.8v.9l.3.9.5.9.3 1 3.4 5.5.6-.3.6-.3.7-.2.5-.5.5-.4.5-.6.5-.5.5-.8.3.7.3.6.3.6.5.6.2.3.6.7.9.8.1.2h.1l.5.2h.3l.2.1h1l.4-.1.7-.2.7-.5.4-.4.5-.6.2-.7.3-.7v-.7l.2-.9 3.8 3.2.1.1.2.2.4.1h.1l.2.2h1.3l.3-.2h.30000000000000004v-.1h.2l.2-.2.3-.3.2-.2.3-.3.5-.5.3-.4.2-.4.6-.8.3-.9v-.5l.1-.5v-.5l-.1-.5-.1-.9-.5-1.2"/><path fill="#5CA3D2" d="M568.5 332.8l.1-.5.1-.3v-.5l-.1-.2-.1-.4-.3-.3-.3-.3-.4-.1-1-.7-.8-.5-2-.8-1-.5-1.1-.1-1-.2-1.2-.2-.3-.1-1.2 8.9 7.8-1 .5-.2.6-.1.4-.4h.4l.3-.5.3-.3.1-.4.2-.3"/><path fill="#EC509D" d="M540.8 351l1-2-24.1-4.2-20.8-4.4-4.9-1.1-1.3-.3-.2-.1h-.3l-.7-.1-2.4-.7-5-1.2-4.9-1.4-1-.3-1.3-.4-2.4-.7-2.4-.8-2.4-.8-2.5-.8-.6-.3-.6-.1-1.2-.4-2.4-.9-2.2-.8-1.8-.6.2 3.9 2.3 1.2 2.1 1 2.2.8 1.1.6 1.2.4 2.3.7 2.3.9 1.1.2.7.1.6.2 1.1.3.6.1.7.1 9.8 2.3 10 2.7 4.9 1.1 5.1 1 2.5.5 2.5.5 1.3.1.5.2.8.1 2.5.4 1.5.3h.8l.3.2h.5l2.9.3 3.1.5 3.1.4 6.1.6 3.1.2 3 .3 1.6.2"/><path fill="#962D69" d="M538.7 353.8l2.1-2.8-1.6-.2-3-.3-3.1-.2-6.1-.6-3.1-.4-3.1-.5-2.9-.3h-.5l-.3-.2h-.8l-1.5-.3-2.5-.4-.8-.1-.5-.2-1.3-.1-2.5-.5-2.5-.5-5.1-1-4.9-1.1-10-2.7-9.8-2.3-.7-.1-.6-.1-1.1-.3-.6-.2-.7-.1-1.1-.2-2.3-.9-2.3-.7-1.2-.4-1.1-.6-2.2-.8-2.1-1-2.3-1.2 1 4.4 10.2 3.4 10.3 3.4 10.3 3.3 10.4 3.4 3.8 1.1 3.8 1 3.7 1 1.9.3.9.3h.4l.2.1.4.1 2 .3 1.8.5 2 .2 2 .4 1.8.4 1 .1 1 .1 3.9.6h2.4l.7.1.9-.1h2.3l3-3.1M541.8 349l2.1-4.8-31-5.9-20.7-5.2-5.5-1.4-5.2-1.4-5.3-1.7-2.8-.9-2.5-.6-1-.4-.8-.3-1.7-.6-.8-.2-.8-.5-1.6-.7-1.7-.7-.3-.3-.2-.1h-.2l-.8-.4-1.5-.9-1.3-1-.5 1-.4 1-.1 1-.3 1.1-.2.8-.3 2.7 1.8.6 2.2.8 2.4.9 1.2.4.6.1.6.3 2.5.8 2.4.8 2.4.8 2.4.7 1.3.4 1 .3 4.9 1.4 5 1.2 2.4.7.7.1h.3l.2.1 1.3.3 4.9 1.1 20.8 4.4 24.1 4.2"/><path fill="#EC509D" d="M460 342.4l3.6 1.4 3.7 1.6 1.8.5 2 .8 1.8.6 2 .6 5.7 1.6 5.6 1.6 5.8 1.8 5.6 1.9 2.8.8 2.7.7 2.7.7 1.4.3 1.3.3 1.3.1.8.2.7.1 1.3.2h.8l.5.4h1.4l1.4.3 1.5.1 1.3.1 2.7.3 2.6.4 2.5.4 2.3.6 6.1-3.9h-2.3l-.9.1-.7-.1h-2.4l-3.9-.6-1-.1-1-.1-1.8-.4-2-.4-2-.2-1.8-.5-2-.3-.4-.1-.2-.1h-.4l-.9-.3-1.9-.3-3.7-1-3.8-1-3.8-1.1-10.4-3.4-10.3-3.3-10.3-3.4-10.2-3.4 1.6 4.2.8 1.3"/><path fill="#962D69" d="M474.9 347.9l-2-.5-1.8-.5-2-.7-1.8-.7-3.6-1.4-3.5-1.5 1.4 2.5v.3h.3l.5 1.3-2.5 1.7-1.3 1-1.1 1.1-1.1 1-1.1 1.1-2 2.4.7 1.1.8 1.1.8 1 .8 1.1 1 1 1 1 .5.5.2.2.2.2.3.3 1.1.8 11.1-8.3 1.8 1.1 2 1.1 2 1 1 .5 1 .5 1 .5 1 .5.5.2.5.3 1 .5 2.1.8 2.1.8 3.1.8.7.2h.6000000000000001l.5.2 1.5.5 3.3.7 1.5.3.8.2h.5l.5.2h.7l.7.2h.7l.7.2 1.3.2 1.3.2h4.9l3.1-.5.5 3 .7 3.1 1 3.1h3l1.5-.2.5-.2h1.3l.7-.2.7-.2 1.5-.3.7-.3.7-.2 1.5-.5-.3-1.3-.3-1.1-.5-1.1-.5-1.1-.5-1.1-.5-1.1-.8-1.3-.5-1 5.3-2.5-2.4-.5-2.5-.5-2.5-.5-2.7-.3-1.4-.2-1.4-.2-1.4-.2-1.4-.2-.7-.2-.7-.2-1.4-.2-.7-.2-.7-.2-1.4-.2-1.4-.3-1.4-.3-2.7-.7-2.7-.7-2.7-.7-5.6-2-5.8-1.8-5.8-1.7-5.6-1.8zm44 14.3l.2-.3h.5l-.7.3"/><path fill="#5CA3D2" d="M525.2 383.8l.3-.1h.30000000000000004l.7-.3.3-.3.5-.2.3-.6.2-.5.2-.3.1-.4v-.6l.3-3.1-.6-5-1.5.6-.7.2-.8.1-1.6.4-.7.2-.8.1h-1.2l-.4.2-1.5.1h-3.2l.7 1.4.6 1.4.7 1.4.8 1.5 1 1.1.8.8.2.2.5.3.8.6 1 .4.5.2.8.1.7.1h.7"/><path fill="#5DC1AF" d="M500.9 286.9l.4-.7.4-.7.5-1.4.5-1.4.2-.8v-.5l-.5-1.3-.5-1-.5-.3-.4-.7-.7-.8-1-.7-1-.6-1.2-.7-1.1-.5-2.5-.1-1-.2-1.2.2-2.2.3-1.2.1-1.1.4-1 .3-1 .4-2 1-1 .6-1 .5-.8.7-1 .9-.6.4-.4.7-.5.6-.3.5v.8l-.2.6v.7l.2.7v.6l.2.5.1.3.5.4.4.3h.1l.2.2h.1l.4.1.8.2h1.2l1.1-.2h1.3l1.2-.1 1.1-.3 1.3-.2 1.3-.4.6-.1.5-.2-.2.7-.3.3-.2.5-.2.5v1.2999999999999998l.2.7.5.7.3.7.8.4h1v-.2h1l.5-.1h.3l.7-.2.7-.3.6-.3.7-.3-.2.7.2.4v.3l.3.7.8-.9.5-.5v-.1l.2-.2h.1l.3-.3.9-1 1-1.3.8-1.3"/><path fill="#5CA3D2" d="M450.5 298.4l-.7-.2h-.5l-.6.2-.2.3-.5.3-.1.4-.2.4-.1.7v1.2l.1.3.2.5.3.4.5.9.8.8.8.9.8.8.9.8.5-.8.6-.8 1.4-1.7 1.3-1.6 1.5-1.4-5.3-2.2-1.5-.2M448.8 363.8v.4l.2.3v.1l.2.2.3.3.1.2.4.2h.3l.5.1h1.2l.5.1.6-.1h.8l.2-.1h.1v.1l.6-.1h.1l.2-.2h.2l.6-.2.5-.1.2-.2h.5l.2-.2h.1l.2-.1.3-.2h.30000000000000004l.5-.4.3-.1h.1l.1-.2 1.3-.8-1-1-.3-.3-.1-.1h-.1l-.6-.4-1-1-.8-1-.8-1-1-1.1-.9-1.2-.6-.9-2.2 2.6-.4.7-.4.8-.5.8-.2.8-.3.7-.1.8-.2.9-.2.9"/><path fill="#f69" d="M231.1 171.4l-.9.1-.9.5-.8.5-.8.7-.9.8-.5 1-.4 1.1-.1.6v4.6000000000000005l.2 1.5.6 2.6.8 2.7 3.9 9.4.8-.6 1-.5 1.8-1.1 3.7-2.1.2-.2.3-.2.4-.3.9-.6 1.8-1.2 1.9-1.2 1.8-1.2-2.8-5.5-1.1-2.1-.7-1-.5-.8-1.4-1.7-1.4-1.5-1.7-1.4-.8-.6-.8-.5-1.8-1z"/><path fill="#6c9" d="M231.3 197.5l4.3 9.2 1.6-.9 1.8-.9.8-.5.9-.6 1.7-.9 1.6-1.2.8-.7.9-.6 1.7-1.3 1.5-1.4.9-.8-3.9-8.6-1.8 1.2-1.9 1.2-1.8 1.2-.9.6-.4.3-.3.2-.2.2-3.7 2.1-1.8 1.1-1 .5z"/><path fill="#F46E1D" d="M375 23.7l-1.2-1.9-1.2-1.7-1.3-1.5-1.3-1.4-.7-.7-.7-.6-.8-.6-.7-.5-1.5-1-.8-.5-.7-.4-1.7-.8-1.7-.6-1.9-.5-1.9-.4-2-.3-1-.1h-3l-1.1.1-1 .2-2.6.2-2.4.5-2.4.6-2.3 1-2.3 1.1-2 1.4-2 1.6-1.8 1.9-2.2 2.4-1 1.3-.9 1.4-1.6 2.7-.7 1.4-.5 1.5-1.2 2.9-.5 1.4-.4 1.5-.8 3-.3 3.3-.1 2.6.2 2.6 2.9 7.4 1.1 1.1 1.2 1 1.2 1 1.3.9 1.2.9 1.2.8 2.4 1.5 1.2.6 1.3.5 2.5 1 2.5.7 2.6.5 2.6.3 2.7.1 2.6-.2 1.4-.2 1.4-.2 1.4-.3 1.4-.4 1.4-.4 1.4-.5 1.4-.5 1.4-.5 1.4-.6 1.5-.6 6.4-3.3 2-2.5 1.9-2.4 1.6-2.4 1.5-2.4.5-3.1.2-3v-3l-.4-3-.7-3.1-.9-3-.5-1.5-.4-.8-.2-.4-.1-.4-.6-1.5-.9-1.2zm-26.3-11.3l1.9-.1h.9l.9.1 1.7.3 1.6.4 1.5.5 1.5.5 1.4.7 1.4.8 1.3.9.5.5.6.5 1.1 1.2 1.1 1.3.9 1.4.9 1.5.8 1.6.4.9.5 1 .3.8.1.5.2.5.3.9.1.5.2.5.3 1.6.3 1.7.1 1.6-.1 1.6-.1.8-.1.4v.5l-.3 1.6-.1.2-.1.2-.1.4-.2.8-.1.2-.1.2-.1.4-.3.8-.7 1.4-.7 1.4-1 1.4-.5.6-.2.2-.1.2-.2.4-.4.3-.2.2-.2.1-.5.6-1.4 1.4-.4.2-.2.1-.1.2-.5.5-1.2.9-.4.2-.3.2-.5.4-1.2.7-1.3.5-.4.1-.2.1-.1.1-.5.3-1.3.4-.4.1-.3.1-.5.2-1.4.2-1.3.2-1.4.1-1.3-.1-1.4-.2-1.4-.3-1.4-.4-1.4-.4-1.7-.6-1.5-.7-1.5-.8-1.4-.9-1.4-1.2-1.2-1.2-1.1-1.4-.9-1.4-.8-1.4-.6-1.4-1-2.6-.5-1.4-.3-1.3-.2-1.4v-1.3l-.1-1.4.2-1.4.2-1.4.5-1.4.5-1.4.5-1.4.6-1.4.7-1.4.9-1.5 1-1.4.3-.8.5-.6.8-1.4 1-1.3 1-1.1 1.2-1 1.3-.9 1.4-.7 1.4-.5 1.5-.4 2-.9 2.5-.6z"/><path fill="#fff" d="M369.6 26.3l-.4-.9-.4-.9-.8-1.6-.9-1.6-.9-1.3-1.2-1.4-1.1-1.2-.6-.5-.5-.5-1.3-.9-1.4-.9-1.3-.7-1.6-.6-1.5-.4-1.7-.3-1.6-.2-1-.1h-.9l-1.8.1-2.3.5-2 .9-1.6.4-1.5.6-1.3.7-1.3.8-1.2 1-1 1.1-1 1.3-.8 1.3-.4.8-.3.7-1 1.5-.9 1.6-.7 1.3-.7 1.4-.5 1.3-.5 1.4-.3 1.4-.2 1.3-.2 1.4.1 1.3v1.3l.2 1.3.3 1.3.3 1.4 1 2.5.6 1.3.9 1.3.9 1.5 1.1 1.3 1.1 1.2 1.4 1.2 1.3 1 1.5.8 1.6.7 1.7.7 1.4.3 1.4.4 1.4.2 1.5.1h2.5999999999999996l1.2-.1 1.4-.2.5-.2.3-.1.4-.1 1.2-.3.7-.3.1-.1.1-.1.4-.1 1.3-.5 1.2-.8.5-.3.3-.2.3-.1 1.2-.9.6-.4.1-.2.2-.1.3-.2 1.3-1.4.7-.6.1-.2.1-.1.4-.3.2-.4.1-.2.2-.1.6-.7 1-1.3.7-1.5.7-1.4.3-.8.1-.3.1-.2.1-.2.3-.8v-.5l.2-.2.3-1.6v-.8l.2-.8.1-1.6-.1-1.6-.3-1.8-.4-1.7-.1-.4-.1-.5-.2-.8-.2-.5-.2-.4z"/><path fill="#c30" d="M321 46.6l.2 2 .2 1 .4 1 .6 2 .8 1.9.9 1.8 1.2 1.8 1.3 1.8.7.8.8.8 2 2 2.3 1.8 1 .8 1.2.8 2.5 1.4 2.5 1 2.6.8 1.3.4 1.4.2 1.4.3 1.4.2.5 2.1.5 2.1.7 2.2.8 2.3.7 1.4.5.7.6.8 1.2 1 .7.6.8.4 5.5 3.7h1.7000000000000002l.5.1h2.2l2.1-.1 2-.2-4.4-3.5-1.4-1.1-1.4-1.1-1.3-1.2-1.2-1.1-1.2-1.3-1.2-1.2-1.1-1.4-1-1.2-.8-4 1.7-.2.9-.2.8-.1.8-.2.8-.1 1.6-.4.7-.4.3-.1h.5l1.4-.7 1.4-.6 1.3-.7.7-.6.1-.1.1-.1.4-.2 1.3-.8 1.1-1.1 1.2-1.1 1-1.3 1.1-1.2.9-1.4.9-1.5 1.4-2.7 1.1-2.5 1-2.7.8-2.6-1.5 2.4-1.6 2.4-1.9 2.6-1.9 2.5-6.4 3.3-1.6.7-1.4.6-1.5.6-1.3.5-1.6.4-1.3.4-1.4.3-1.3.4-1.4.1-1.4.1-2.7.2h-2.7l-2.6-.3-2.5-.6-2.7-.7-2.5-1.1-1.3-.5-1.1-.7-2.5-1.5-1.2-.8-1.1-.8-1.3-1-1.2-1-1.1-1-1.1-1.1z"/><path fill="#F46E1D" d="M368.7 88.3l-2.1.1-2.1.1h-2.2l-.5-.1h-1.5l.5.5 2 1.7 1.9 1.9 1.7 1.9 1.6 2.1 1.4 2 1.3 2.2 1.1 2.2 1 2.3.7 2.3.6 2.4.5 2.4.4 2.5.1 2.5v2.6l-.3 2.7-.4 2.7-.8 1.5-.5.8-.4.8-.9 1.5-.8 1.5-1 1.4-.9 1.4-1 1.4-1.1 1.4-1.2 1.3-.6.5-.5.5-.7.5-.4.3-.3.3-.7.5-.4.2-.2.1-.1.2-.2.1-.2.1-.4.2-.7.4-1.4.5-1.6.4-.9.1-.8.2-2.1.1h-1.9l-1.9-.2-1.7-.3-1.7-.5-1.6-.5-1.5-.7-1.4-.8-1.4-1-1.3-1-1.2-1.3-1-1.4-1.1-1.5-.9-1.5-.8-1.7-.6-1.9-.9-2.9-.3-1.4-.1-1.4-.1-1.4.1-1.3.5-2.5.7-2.4 1.3-2.4.7-1.2.9-1.1 2-2.1 1.4-1.2 1.5-1 1.3-.7 1.4-.5 1.3-.5 1.3-.3.5-.2.5-.1h1.7l.5.1.5.1.5.2 1 .4.5.2.5.3.9.6.9.8.8.9.8 1 .4.5.5.6.7 1.3.5 1 .5 1 .4 1 .3 1 .1 1 .1 1v.9l-.1 1-.3.8-.1.2-.1.1v.2l-.1.5-.3.4-.1.2-.1.1v.2l-.5.9-.5.7-.4.4-.2.2-.1.3-.7.8-.5.4-.4.5-.5.3-.5.3-.5.2-.5.2-1.1-.1-.9-.1-.9-.2-.7-.2-.7-.3-.6-.3-.5-.4-.5-.5-.5-.5-.3-.5-.3-.6-.1-.6-.1-.8v-.8l.1-.8.2-.9.5-.2.5-.1.5-.2.5-.2.4-.3.4-.2.3-.3.4-.3.1-.2.1-.2.1-.2.1-.2.1-.4.1-.2.1-.2v-.8l.1-.2-.1-.5v-.5l-.3-.8-.3-.6-.4-.5-.5-.5-.5-.3-.5-.3-.6-.2-.7.1h-1l-.9.1-.8.2-.7.3-.7.3-.6.4-.5.4-.5.5-.5.5-.5.5-.6 1.4-.3.7-.2.8-.1.9v1l-.1 1.3.1 1.3.1 1.2.3 1.2.3 1.1.5 1 .5 1 .6 1 .6.8.7.8.8.8 1 .7 1 .6 1.1.5 1.2.5 1.4.5 1 .3.5.1.5.2 1 .2h.5l.5.1.5-.1h.5l1-.1.9-.3.5-.2.5-.1.8-.5.1-.1.1-.1.2-.1.5-.2.8-.5.2-.2.3-.2.5-.3.4-.4.2-.2.2-.2.8-.8.7-.9.4-.5.1-.2.1-.1.2-.2.9-1.5.7-1.4.6-1.5.5-1.4.4-1.5.3-1.4.1-1.5.1-1.4-.2-1.5-.3-1.4-.5-1.5-.5-1.4-.7-1.5-.8-1.4-.9-1.5-1-1.4-.9-1.3-.9-1-1-.9-1-.8-1.2-.7-1.2-.6-.6-.3-.5-.2-1.3-.4-2-.5-1.9-.3-1.9-.1-1.7.1-1.7.1-1.6.3-1.6.5-1.5.5-1.5.6-1.4.8-1.4 1-1.4 1.1-1.4 1.2-1.2 1.4-1.2 1.5-1.1 1.7-.7 1.1-.5 1.2-1 2.4-.6 2.5-.2 2.6-.1 2.4v1.3l.1 1.3.3 2.4.5 2.4.3 1.2.4 1.2.8 2.4 1 2.3 1.2 2.3.5.9.6 1 1.4 1.8 1.4 1.6.7.8.9.8 1.7 1.4 1.9 1.3 2 1 1 .5 1.2.5.9.4-3.2.2-3 .5-3 .5-2.9.8 1.2 2.3 1.1 2.3.9 2.4.8 2.4.5 2.4.5 2.4.3 2.4.1 2.4-.1 2.4-.2 2.4-.5 2.4-.5 2.5-.8 2.4-.9 2.6-1.1 2.6-1.2 2.6-.5.8-.5.8-.5.7-.5.8-.2 1.4-.2-.1-.1.1-.1.2-.5.7-.4.3h-.1l-.1.1-.1.2-.5.6-1.4 1.1-.7.5-.7.5-.8.4-.7.4-1.6.6-2.9.8-2.8.7-2.8.6-2.8.5-2.9.5-2.8.4-1.4.1-1.4.2-2.8.3-2.9.1h-2.8l-3.2-.7-2.8-.2-2.9-.3-2.8-.3-2.9-.5-2.8-.5-12.2 30.3 2.4 2.9 2.5 3 2.4 3.1 2.4 3.2 2.4 3.2 2.4 3.3 2.4 3.3 2.4 3.4.9 1.4 1 1.4 1 1.3 1.2 1.4 1.6-1.1 1.7-1.2 1.6-1.4 1.7-1.4 1.7-1.5 1.7-1.6 1.7-1.9 1.7-1.9 2-2.4 1.9-2.4 1.8-2.4 1.7-2.4 21.7 20.8 1.7-1.4.9-.8.9-.7 1.7-1.5 1.7-1.5 1.6-1.7 1.6-1.7.7-1 .8-.9.4-.5.5-.5.8-.9 8.3-11 1.4 1.6 1.7 1.8 1.7 1.9 1.9 2 2 2 2.2 2.2 2.3 2.2 2.4 2.4 2.4 2.1 2.5 2 2.5 1.9 2.7 1.8 12.1-24.6 4.6 5 2.4 2.4 2.5 2.4 5.1 4.8 5.2 4.7 8.1 7.1 7.3-31.4 1.4 2.4 1.6 2.4 1.7 2.4 1.9 2.5 15.7 20.9v-21l.8.9 1 1 1.1.9 1.2 1-7.6-20.4-2.6-6.2-2.7-6-2.9-6-3-5.9-1.6-2.9-2.3 1.2-2.4 1.2-2.2.9-2.1.8-2.1.7-2 .6-2 .5-2 .5-1.9.4-1.9.4-1.9.2-1.9.1-1.8-.1-1.7-.1-1.7-.3-1.7-.3-1.6-.5-1.6-.5-1.6-.6-1.5-.6-1.5-.8-1.5-.8-1.5-1-1.4-1-1.4-1.1-1.4-1.2-1.4-1.4-1.3-1.4-1.3-1.4-1.3-1.5-1.2-1.6-1.2-1.7-1.2-1.9-1.1-2-1-1.9-.7-1.8-.7-1.8-.5-1.8-.3-1-.2-.9-.3-1.8-.2-1.8v-1.8l.1-1.9.2-1.8.3-1.9.5-1.8.5-1.9.7-1.8.9-1.9 1-1.8 1-1.9-15.8-3 1.3-.5 1.4-.6 1.3-.7 1.4-.8 1.3-.9 1.3-1 1.3-1.1 1.3-1.1.5-.7.6-.6 1.2-1.4 1-1.4 1-1.4.9-1.4.5-.8.5-.7.7-1.5.7-1.5.5-1.6.5-1.6.2-.9.3-.8.2-.9.2-.8.1-.9.2-.9.2-1.7.1-1.7.1-1.7-.1-2.4-.2-2.2-.3-2.2-.4-2-.5-2.1-.5-2-.6-2-.7-1.9-.9-1.9-1-1.7-1.1-1.7-1.1-1.6-1.4-1.6-1.4-1.5-1.4-1.5-.5-2zm-14 90.5l1.4.3 1.4.5 1.4.5 1.3.6 1.2.6 1.2.8 1 .8 1 1 .9 1 .8 1.1.7 1.2.7 1.3.5 1.3.5 1.4.5 1.4.5 1.6.3 2.2.3 2.2.1 2.2.1 2.3-.1 2.3-.2 2.3-.3 2.2-.4 2.3-.4 1.3-.2.6-.2.6-.5 1.3-.5 1.3-.6 1.2-.4.5-.2.3-.1.4-.2.3-.2.3-.4.5-.7 1.2-1.5 1.6-.8.7-.7.6-.8.5-.8.5-.5.2-.3.1-.1.1-.1.1-.8.4-.9.3-.6-.1h-.5l-.2.1-.5.1-.9.1h-1l-.2-.1h-.9l-1-.1-.5-.1-.5-.1-1-.3-.9-.3-1.8-.7-1.6-.8-1.5-1.1-1.4-1.3-.7-.7-.6-.7-1.2-1.5-1-1.7-1.3-2.7-.5-1.4-.6-1-.7-2.7-.5-2.7-.2-2.8.1-2.8.1-1.4.3-1.4.3-1.4.5-1.4.5-1.7.6-1.6.6-1.5.8-1.4.8-1.4.9-1.3 1-1.3 1.2-1.1 1.1-1.1 1.3-1 1.4-.9 1.5-.7 1.4-.7 1.6-.6 1.6-.5 1.8-.5z"/><path fill="#c30" d="M369.6 194.3l-.5-1.6-.5-1.4-.5-1.4-.5-1.3-.7-1.3-.7-1.2-.8-1.1-.9-1-.9-1.1-1-.8-1.2-.8-1.2-.6-1.3-.6-1.4-.5-1.4-.5-1.4-.3-1.9.5-1.6.5-1.6.6-1.4.7-1.5.7-1.4.9-1.3 1-1.1 1.1-1.2 1.1-1 1.3-.9 1.3-.8 1.4-.8 1.4-.6 1.5-.6 1.6-.5 1.7-.5 1.4-.3 1.4-.3 1.4-.1 1.4-.1 2.8.2 2.8.5 2.7.7 2.7.5 1.3.5 1.4 1.3 2.7 1 1.7 1.2 1.5.6.7.7.7 1.4 1.3 1.5 1.1 1.6.8 1.8.7.9.3 1 .3.5.1.5.1 1 .1h.9l.2.1h1l.9-.1.5-.1.2-.1h.3l.9-.3.9-.3.8-.4.1-.1.1-.1.3-.1.5-.2.8-.5.8-.5.7-.6.8-.7 1.5-1.6.7-1.2.4-.5.2-.3.2-.3.1-.4.2-.3.4-.5.6-1.2.5-1.3.5-1.3.2-.6.2-.6.4-1.3.4-2.3.3-2.2.2-2.3.1-2.2.1-2.3-.1-2.2-.3-2.2-.5-2.1zm-16.8-8.3l2.5-.6 1 .4 1 .5 1 .5 1 .6.9.5.8.6.7.8.7.8.6.8.5 1 .5 1 .5 1.1.4 1.1.4 1.2.3 1.3.3 1.4.2 2v.8l.1.3.1 1-.1 2-.1 1-.1 1.1-.2.9-.1.5-.1.1v.5l-.5 2-.7 1.9-.5 1-.4 1-.6 1-.4.5-.1.1-.1.2-.1.3-.7.9-.4.4-.2.2-.1.3-.3.2-.2.2-.4.4-.7.6-.8.5-.2.1-.1.1-.1.1-.4.3-.9.4-.5.2-.5.2-.9.2-.9.2h-1l-1-.1-.5-.1-.2-.1h-.30000000000000004l-1.2.1-1.2-.5-1.1-.6-1-.8-.4-1.6-1.1-1.5-1-1.4-.9-1.5-.6-1.4-.6-1.5-.5-1.5-.5-1.5-.2-1.5-.2-1.6-.1-1.6.1-1.6.3-1.6.3-1.7.5-1.6.5-1.7.7-1.7.7-1.5.9-1.4 1-1.2 1.2-.9.5-.5.7-.4 1.4-.5.7-.3.9-.2 2.1-1.2z"/><path fill="#fff" d="M355.3 185.4l-2.5.6-1.8.3-.9.2-.7.2-1.5.6-.7.4-.5.5-1.3 1-1 1.2-.8 1.3-.7 1.6-.8 1.7-.5 1.7-.6 1.7-.2 1.6-.3 1.7-.1 1.7.1 1.6.2 1.7.2 1.5.4 1.5.4 1.6.6 1.5.6 1.5 1 1.6.9 1.3 1.1 1.6.9 1 1 .8 1.1.7 1.3.5 1 .1h.3l.2.1.7.1h2l.9-.2 1-.1.4-.2.5-.1.9-.4.3-.2v-.1l.2-.1.2-.1.8-.6.7-.6.4-.4.2-.1.2-.2.1-.3.2-.2.4-.3.6-.9.2-.3.1-.2.1-.1.3-.4.7-1.1.3-1 .4-1 .7-1.9.5-2v-.4l.1-.1v-.5l.3-.9v-1.1l.2-1 .1-2-.1-1.1v-.9l-.2-2-.3-1.4-.3-1.3-.4-1.1-.3-1.1-.5-1.1-.5-1-.7-1-.5-.7-.8-.9-.8-.8-.8-.7-.8-.6-1-.6-1-.5-1.1-.5z"/><path fill="#c30" d="M318.7 148.2l-3.8-3.5-.5 1.1-.5 1.1-.4.5-.1.1-.1.1v.1l-.1.3-.6 1-.7.8-.7.9-.8.8-.8.7 3.3 2.6 1.1 1 1.1 1.1 1 1.2 1.1 1.4-5.2 3.3-2.5 1.6-2.4 1.8-4.8 3.7-2.4 2-2.3 2.1-2.6 2.4-2.4 2.6-2.4 2.7-1.2 1.4-1 1.5-3.2 4.3-2.8 4.4-2.6 4.5-2.4 4.8 2.8.5 2.9.5 2.8.4 2.9.3 2.8.2 2.9.1h2.8l2.9-.1 2.8-.3 1.4-.2 1.4-.1 2.8-.4 2.9-.5 2.8-.5 2.8-.6 2.8-.7 2.9-.8 1.6-.6.7-.4.8-.4.7-.5.7-.5 1.4-1.1.5-.6.1-.2.1-.1.1-.1.4-.3.5-.6.1-.2.1-.1.1-.1.4-.3.5-.8.5-.7.5-.8.5-.8 1.2-2.6 1.1-2.6.9-2.6.8-2.4.5-2.5.5-2.4.2-2.4.1-2.4-.1-2.4-.3-2.4-.5-2.3-.5-2.4-.8-2.4-.9-2.4-1.1-2.3-1.2-2.3-2.4.6-2.4.8-2.3.9-2.2 1.1-1.1-2.1-1.2-1.9-1.3-1.7-1-1.9zm3.3 19.6l1.5.4 1.5.5 1.4.5 1.4.6 1.1.6 1 .8.9.8.8 1 .5 1 .5 1.1.4 1.2.3 1.3.1 1.3v1.4l-.2 1.4-.2 1.6-.4 1-1-1.3-.9-1.1-1-1.1-1-.9-1.1-.9-1.1-.8-1.2-.8-1.2-.6-1.4-.6-1.3-.5-1.4-.5-1.4-.4-1.5-.4-1.4-.2-1.5-.2-1.5-.1.7-1.4.9-1.2 1-1 1.1-.8 1.2-.7 1.4-.5 1.4-.5h1.6zm9.6 18.5l-2.1 2.7-.9.6-.8.6-.8.5-.8.5-.5.2-.5.2-.8.3-.8.2-.8.2-.9-.1-.8-.1-.8-.2-.8-.3-.5-.2-.3-.1-.1-.1h-.1l-.8-.5-.8-.5-.8-.5-1.5-1.3-.8-.6-.5-.6-.6-.7-.5-.6-.5-.7-.3-.6-.5-1.5-.2-1.5v-1.6l.2-1.6 1.2-.2h1.2l2.4.2 2.4.5 2.4.8 1.4.5 1.5.7 1.4.7 1.4.9 1.3.9 1.4 1 1.3 1 1.4.9z"/><path fill="#fff" d="M332.9 183.3l.1-1.6.3-1.5-.1-1.5v-1.3l-.3-1.2-.4-1.2-.5-1.1-.5-1-.9-1-.9-.8-1-.8-1-.7-1.3-.6-1.4-.4-1.5-.4-1.5-.4-1.8.2-1.4.5-1.3.5-1.2.7-1.1.8-1 1-.9 1.2-.8 1.3 1.6.1 1.5.2 1.5.1 1.5.3 1.4.4 1.4.4 1.3.6 1.2.6 1.2.6 1.3.8 1.1.9 1.1.9 1 1 1 1 .9 1.1 1 1.3zM329.6 189l2-2.7-1.2-1.2-1.2-1.1-1.4-.9-1.2-1-1.5-.8-1.4-.7-1.5-.7-1.4-.6-2.6-.7-2.3-.5-2.4-.1-1.1.1h-1.2l-.3 1.7v1.6l.3 1.5.5 1.6.3.6.4.7.5.8.5.7.6.5.7.8 1.5 1.1.8.7.8.4.8.5h.1l.1.1h.3l.4.2.8.3.8.2h.9l.9.1.8-.2.8-.2.8-.3.4-.1.4-.1.8-.5.8-.5.9-.7z"/><path fill="#c30" d="M376.8 153.3l-1 1.9-1 1.8-.9 1.9-.7 1.8-.5 1.9-.5 1.8-.3 1.9-.2 1.8-.1 1.9v1.8l.2 1.8.3 1.8.2.9.3 1 .5 1.8.7 1.8.7 1.8 1 1.9 1.1 2 1.2 1.9 1.2 1.7 1.2 1.6 1.3 1.5 1.3 1.4 1.3 1.4 1.4 1.4 1.4 1.2 1.4 1.1 1.4 1 1.5 1 1.5.8 1.5.8 1.5.6 1.6.6 1.6.5 1.6.5 1.7.3 1.7.3 1.7.1 1.8.1 1.9-.1 1.9-.2 1.9-.4 1.9-.4 2-.5 2-.5 2-.6 2.1-.7 2.1-.8 2.2-.9 2.4-1.2 2.3-1.2-1.6-2.7-1.6-2.6-3.3-5.1-1.9-2.5-1.8-2.4-1.9-2.4-2-2.4-2.3-2.4-2.3-2.4-2.4-2.3-1.2-1.1-1.2-1-2.5-2.1-2.5-1.9-2.6-1.7-2.7-1.6-3.4-2 1-1.9 3.6-5.2-.7-.3-1.2-.5-1.2-.5-1.2-.6-1-.7-2.3-2.4-1.9 3.8-.6 1.3-.5 1.4-.3 1.4-.2 1.4-2.9-1.2-2.8-1-2.9-1-3-1zm26.5 25.2l.3 3.1-.1.8-.1.4v.5l-.1.4-.1.4-.1.8-.2.6-.2.7-.4.6-.1.2-.1.2-.1.4-.5.5-.2.3-.1.2-.1.2-.2.1-.1.2-.2.3-.5.5-.6.5-.5.5-.7.5-.7.5-1.1.5-1 .5-1.1.3-1 .4-1 .2-.9.2-.9-.1-.8-.1-.9-.3-.8-.3-.7-.4-.7-.5-.7-.5-.7-.6-.6-.7-.5-.8.5-1.5.7-1.4.9-1.3.9-1.2 1-1 1-1 1-.8 1.1-.8 1.2-.6 1.2-.5 1.2-.5 1.3-.4 1.4-.3 1.4-.2h1.4l1.4.1 1.5.2zm-4.2-3.9l-2.4.3-2.3.5-2.2.7-2 1-2 1.2-1.8 1.4-1.7 1.7-1.5 1.9-.2 1-.9 1.4-.5-1.3-.4-1.2-.3-1.2-.1-1.1.1-2.2.2-1 .5-1 .5-1 .5-.9.6-.9.7-.9 1.8-1.6 1.1-.8 1.2-.7 2.6-1.2h.9l1 .1.9.1.9.2.8.2.8.3 1.5.6 1.3.7 1.2.9 1 1 .5.5.5.6-2.8.7z"/><path fill="#fff" d="M403.6 181.6l-.3-3.1-1.5-.3h-2.9l-1.4.1-1.3.3-1.3.4-1.3.4-1.1.6-1.2.6-1.1.7-1.1.8-1 1-.9 1.1-1 1.2-.8 1.2-.8 1.4-.6 1.5.7.9.6.7.6.5.9.7.6.3.8.5.8.2.8.2h.8l.9.1 1-.2.9-.1 1-.3 1-.4 1.1-.4 1.1-.5.7-.5.8-.5.5-.5.6-.6.5-.5.3-.3v-.2h.2l.1-.2.1-.1.2-.4.4-.5.2-.4v-.2l.2-.1.3-.7.2-.7.2-.6.2-.9v-.3l.2-.4v-.8zM399.1 174.6l2.7-.4-.5-.7-.4-.6-1-1-1.3-.9-1.3-.7-1.5-.6-.8-.2-.8-.2-1-.2-.8-.1-1-.1h-.9l-2.7 1.2-1.1.7-1.2.8-1.7 1.7-.9.9-.6.9-.5.9-.4 1-.4 1-.1 1-.1 2 .1 1.1.2 1.2.4 1.2.5 1.2.9-1.5.2-.9 1.6-1.9 1.7-1.7 1.7-1.5 2.1-1.1 2-1 2.2-.8 2.3-.4z"/><path fill="#6c9" d="M309.3 140.8h-.2l-6.2 8.1 1.7.6 1.2.5 1.2.5 1.2.7 1.2.8.8-.7.8-.8.7-.9.8-.9.7-.9.1-.2v-.1l.1-.1v-.1l.4-.5.6-1.1.6-1-1.5-1.2-1.3-1-1.5-.9z"/><path fill="#f69" d="M309.1 140.8l-.4-.3-1.4-.6-1.3-.5-2.6-.9-1.4-.4-1.4-.4-2.8-.5-.8.1-1.7.3-1.5.5-1.4.7-1.3 1-.6.3-.4.6-.5.5-.1.7-.2 1.2.1.7.2 1 .6.4.7.4 1.6.8.8.3.9.2 1.8.4 6.7 1.5.2.1z"/><path fill="#f90" d="M249.8 196.9l-.9.8-1.5 1.4-1.7 1.3-.9.6-.8.7-1.6 1.2-1.7.9-.9.6-.8.5-1.8.9-1.6.9 2 4.4 2 4.4 1.9 4.5 1.8 4.6 1.6 4.6 1.6 4.7 1.5 4.7 1.4 4.8 4.4 19.1-1.6 9.9-1.8 9.9-1.1 5.3-.7 5.2-.7 5.3-.4 5.3-.8 3.4-.6 4.4-.4 5.9-.3 6-.1 6 .3 6 .1 3.2.3 3.3.5 3.2.6 3.4 1.9 1 1.9 1 2 .9 2 .9 2 .7 2.1.7 2 .7 2.2.5 2.1.5 2.2.4 2.1.4 2.2.3 2.3.1 2.2.2h4.699999999999999l4.8-.3 4.2-9.5 4.4-9.2 4.5-9.1 4.6-9.1 1.1-2.2 1.2-2 1.4-2 1.5-1.8 1.6-1.9 1.7-1.7 1.7-1.7 2-1.4 3.2-2.5 3.2-2.2 3.4-2.2 3.4-1.9 3.6-1.9 3.5-1.6 3.7-1.6 3.7-1.2 2.6-.7 18.8-2.8 2.7-.2 2.5-.1 2.5.1 2.6.2 2.4.3 2.5.4 1.1.2 1.2.4 2.5.7 1 .4 1.2.3 2.3.9 2.2 1 2.2 1.3 2.1 1.2 2.1 1.3 1 .8 1.1.8 2 1.7 1 .9 1.1 1.1 1 1 .9 1.2.8 1.1.9 1.3.7 1.4.7 1.3 1 2.5.9 2.5.7 2.5.8 2.6.4 2.6.5 2.6.2 2.6.2 2.7.9 25.6 45.2 4.2 1.1-3 1.2-2.9 1.1-2.9 1.1-3v-.7l.6-4.5.5-4.4.4-4.6.5-4.3-1.1-20.7v-.3l-2.6-17.7-.7-4.8-1-4.6-.9-4.7-1.2-4.6-.4-.8 1.5-2.8 3.1-6.8 1.8-3.3 1.9-3.3 1.8-3.3 2-3.2 2-3.2 2.2-3 1.8-2.7 1.9-2.5 1.9-2.4 2-2.5 4.2-4.7 4.3-4.4-14.3-9.8-1.7 1.9-2.4 2.5-2.1 2.7-2.2 2.9-2 2.8-2.2 3-2 3.1-1.8 3.2-1.6 3.2-1.5 3.3-1.3 3.3-1.2 3.5-1 3.5-1.1-3.7-1.3-1.1-1.1-.9-1-1.1-.8-.9v20.9l-15.7-20.8-1.9-2.6-1.7-2.5-1.7-2.4-1.5-2.4-7.3 31.5-8.1-7-5.3-4.8-5-4.8-2.6-2.5-2.3-2.4-4.6-5-12.2 24.5-2.7-1.8-2.5-1.8-2.6-2.1-2.4-2-2.4-2.3-2.2-2.3-2.2-2-2.1-2.1-1.9-2-1.7-1.8-1.7-1.8-1.5-1.8-8.3 11.1-.8 1-.4.4-.3.6-.8.9-.8 1-1.6 1.7-1.6 1.8-1.7 1.5-1.8 1.7-1 .7-.8.7-1.8 1.4-21.7-20.8-1.7 2.4-1.8 2.4-1.9 2.4-2 2.4-1.7 1.9-1.8 1.9-1.8 1.7-1.6 1.5-1.8 1.5-1.5 1.3-1.8 1.1-1.6 1.1-1.2-1.3-1.1-1.2-1-1.4-.9-1.4-2.4-3.4-2.3-3.3-2.3-3.3-2.4-3.2-2.4-3.2-2.5-3-2.5-3.1-2.4-2.9v.2l-2.2 5.9-.9-4.9-1.2-4.9-1.2-4.8-1.3-4.8-1.9-5.8-1.9-5.6-2.1-5.6z"/><path fill="#6c9" d="M391.6 148.2l2.3 2.4 1 .7 1.2.6 1.2.5 1.2.5.7.3 4-4-.7-1.1-.7-.9-.9-.9-.9-.8-1.1-.8-1.2-.6-1.2-.6-1.4-.5-3.5 5.2zm6.4-1.5l.2.2-.5.3.3-.5z"/><path fill="#f69" d="M403.1 149.3l1.7-1.5 1.8-1.4 1.9-1.3 2-1.2.5-.5.5-.5.2-.3.1-.2.2-.1.5-.5.5-.5.5-.5.4-.6.4-.6.3-1 .3-.9.2-.9.1-.8-.1-.7-.1-.6-.3-.6-.3-.5-.5-.5-.5-.3-.6-.4-.6-.2-.8-.3-.9-.1h-1l-1 .1-2 1-2 1.1-1.8 1.2-1.7 1.4-1.6 1.4-1.5 1.5-1.4 1.6-1.4 1.7 1.4.5 1.2.6 1.2.6 1.1.8.9.8.9.9.7.9.6 1.4zm7.5-12.8l-.2.3-.3-.3.3-.1.2.1zM503.9 193.1l-2.6.8-2.3 1-2.4 1.1-2.2 1.1-2.3 1.3-2.2 1.4-2.2 1.3-1.9 1.7 3.1 2.7 1.7 1.2 1.9 1.3 1.7 1.2 1.9 1.1 3.9 2.1 1.2-1.2 1.1-1 1.1-1 .9-1.1 1-1 .7-1.2.5-.5.4-.6.4-.6.4-.5.3-.7.5-.6.5-1.1.4-.9.2-1 .3-.8v-1.5l-.2-.8-.1-.5-.4-.6-.5-.5-.5-.4-.6-.3-.8-.4-.9-.3-1-.1z"/><path fill="#6c9" d="M479 208.6l-2.4 2.4 14.3 9.8 9.1-8.4-3.9-2.1-1.9-1.1-1.7-1.2-1.9-1.3-1.7-1.2-3.1-2.7z"/><path fill="#f69" d="M429.1 367.3l-11.8-2.3.9 2.4 1 2.4 1.1 2.4 1.2 2.2 1.8 3.7 8 3.1 3.8.6 4.9-.9 4.3-2.1v.2l.7-.5 2.4-2.5 1.2-1.4.6-.6.1-.3v-.1h.2l.3-.3 1-1.4 1.1-1.4 1.1-1.3 1-1.5-1.5.3-1.6.2-3 .3h-1.5l-1.6.1h-4.7l-1.5-.1-3.2-.2-1.6-.3-1.5-.2-1.7-.2-.8-.2z"/><path fill="#6c9" d="M417.3 365l11.8 2.3.7.1.8.2 1.7.2 1.5.2 1.6.3 3.2.2 1.5.1h4.7l1.6-.1h1.5l3-.3 1.6-.2 1.5-.3 1.5-2.4 1.5-2.5 1.3-2.6 1.4-2.6.2-.2-45.2-4.2.5 3 .1 1.5.4 1.5.8 2.9z"/><path fill="#f69" d="M280.6 366.7h-1.9l-1.8.1-1.8.1h-1.7l-1.9-.2-1.8-.2-1.7-.3-1.7-.3-1.7-.5-1.8-.6-1.8-.5-1.6-.6-1.8-.8-1.6-.9-1.6-.8-1.7-1-2.4-.2.9 2.5 1.3 3.2 1.4 3 1.6 2.9 1.8 3 .5.3.8.2 1 .2h.2l.2.1.4.1 1 .2.7.1.9.1 1.8.1.3-.1h1.3l.7-.1.8-.1 1.6-.3 1.4-.4.4-.2.3-.1.7-.4.6-.3.7-.4 1.3-.8 1.3-1 1.1-1.2 1.2-1.1 1-1.4z"/><path fill="#6c9" d="M252.7 360.2l1.7 1 1.6.8 1.6.9 1.8.8 1.6.6 1.8.5 1.8.6 1.7.5 1.7.3 1.7.3 1.8.2 1.9.2h1.7l1.8-.1 1.8-.1h1.9l5.2-10.5-4.8.3h-4.699999999999999l-2.2-.2-2.3-.1-2.2-.3-2.1-.4-2.2-.4-2.1-.5-2.2-.5-2-.7-2.1-.7-2-.7-2-.9-2-.9-1.9-1-1.9-1 2.6 10.2.6 1.6z"/></svg>