<?xml version="1.0" encoding="utf-8"?>
<!-- Generator: Adobe Illustrator 17.1.0, SVG Export Plug-In . SVG Version: 6.00 Build 0)  -->
<!DOCTYPE svg PUBLIC "-//W3C//DTD SVG 1.1//EN" "http://www.w3.org/Graphics/SVG/1.1/DTD/svg11.dtd">
<svg version="1.1" xmlns="http://www.w3.org/2000/svg" xmlns:xlink="http://www.w3.org/1999/xlink" x="0px" y="0px"
	 viewBox="0 0 84 67" enable-background="new 0 0 84 67" xml:space="preserve">
<g>
	<polygon fill-rule="evenodd" clip-rule="evenodd" fill="#FF6699" points="29.16,26.367 29.059,26.388 28.965,26.429 28.878,26.486 
		28.797,26.558 28.703,26.646 28.641,26.755 28.603,26.873 28.591,26.935 28.591,27.008 28.584,27.296 28.592,27.441 28.611,27.59 
		28.667,27.879 28.755,28.167 29.177,29.188 29.27,29.126 29.371,29.069 29.572,28.955 29.972,28.717 29.991,28.697 30.016,28.681 
		30.066,28.65 30.167,28.588 30.367,28.459 30.56,28.324 30.76,28.195 30.46,27.592 30.333,27.371 30.264,27.268 30.201,27.175 
		30.057,26.995 29.899,26.835 29.73,26.686 29.636,26.619 29.549,26.562 29.354,26.455 29.16,26.367 	"/>
	<polygon fill-rule="evenodd" clip-rule="evenodd" fill="#66CC99" points="29.177,29.188 29.642,30.177 29.824,30.084 
		30.012,29.986 30.099,29.929 30.194,29.878 30.382,29.763 30.556,29.634 30.644,29.567 30.737,29.505 30.913,29.36 31.088,29.21 
		31.182,29.123 30.76,28.195 30.56,28.324 30.367,28.459 30.167,28.588 30.066,28.65 30.016,28.681 29.991,28.697 29.972,28.717 
		29.572,28.955 29.371,29.069 29.27,29.126 29.177,29.188 	"/>
	<path fill-rule="evenodd" clip-rule="evenodd" fill="#F46E1D" d="M44.698,10.406l-0.126-0.201l-0.126-0.185l-0.138-0.17
		l-0.138-0.155l-0.082-0.077l-0.075-0.067l-0.082-0.067l-0.075-0.057l-0.162-0.113l-0.089-0.052l-0.08-0.041l-0.188-0.087
		l-0.188-0.072l-0.2-0.056l-0.201-0.041l-0.213-0.031l-0.113-0.01l-0.106,0l-0.227,0L41.97,8.93l-0.113,0.016l-0.288,0.016
		L41.3,9.009l-0.257,0.073l-0.245,0.104l-0.244,0.119l-0.218,0.149L40.123,9.63l-0.193,0.202l-0.238,0.263l-0.113,0.134
		l-0.094,0.144l-0.174,0.295l-0.082,0.149l-0.062,0.16l-0.125,0.315l-0.05,0.16l-0.036,0.171l-0.062,0.346l-0.031,0.356
		l-0.013,0.278l0.021,0.279l0.314,0.799l0.119,0.119l0.126,0.113l0.125,0.108l0.132,0.103l0.125,0.093l0.131,0.087l0.263,0.165
		l0.126,0.067l0.138,0.062l0.277,0.113l0.275,0.082l0.282,0.061l0.281,0.031l0.289,0.01l0.288-0.021l0.151-0.016l0.15-0.021
		l0.145-0.031l0.15-0.037l0.15-0.041l0.157-0.047l0.15-0.057l0.157-0.062l0.156-0.067l0.163-0.073l0.695-0.357l0.213-0.273
		l0.2-0.268l0.175-0.263l0.162-0.258l0.05-0.33l0.024-0.32l0-0.165l-0.006-0.165l-0.038-0.32l-0.076-0.33l-0.101-0.32l-0.062-0.165
		l-0.038-0.082l-0.019-0.041l-0.012-0.036l-0.075-0.165L44.698,10.406L44.698,10.406z M41.858,9.183l0.2-0.005l0.094,0l0.101,0.01
		l0.182,0.025l0.181,0.036l0.169,0.045l0.164,0.062l0.15,0.077l0.15,0.092l0.132,0.098l0.063,0.051l0.068,0.061l0.12,0.129
		l0.119,0.139l0.101,0.15l0.1,0.165l0.088,0.18l0.037,0.093l0.044,0.103l0.026,0.092l0.012,0.047l0.019,0.051l0.025,0.093
		l0.012,0.046l0.019,0.052l0.032,0.186l0.032,0.185l0.007,0.175L44.3,11.799l-0.012,0.083l-0.007,0.041l0,0.047l-0.031,0.175
		l-0.012,0.016l-0.007,0.021l-0.012,0.041l-0.024,0.082l-0.012,0.016l-0.007,0.021l-0.012,0.041l-0.025,0.083l-0.08,0.155
		l-0.081,0.155l-0.106,0.145l-0.063,0.072l-0.019,0.016l-0.012,0.021l-0.025,0.041L43.713,13.1l-0.019,0.015l-0.012,0.021
		l-0.062,0.072l-0.144,0.144l-0.037,0.021l-0.019,0.01l-0.012,0.015l-0.063,0.052l-0.125,0.093l-0.038,0.015l-0.031,0.021
		l-0.063,0.041l-0.125,0.078l-0.137,0.057l-0.037,0.01l-0.019,0.005l-0.012,0.011l-0.063,0.031l-0.138,0.041l-0.038,0.005
		l-0.031,0.01l-0.063,0.021l-0.145,0.021l-0.138,0.015l-0.15,0.005l-0.138-0.005l-0.15-0.015l-0.151-0.025l-0.15-0.036l-0.15-0.036
		l-0.188-0.072l-0.169-0.077l-0.164-0.093l-0.144-0.103l-0.145-0.124l-0.125-0.129l-0.119-0.15l-0.101-0.154l-0.088-0.144
		l-0.07-0.139l-0.107-0.278l-0.044-0.145l-0.025-0.139l-0.019-0.144l0-0.14l-0.007-0.15l0.019-0.144l0.019-0.144l0.043-0.145
		l0.043-0.15l0.056-0.144l0.069-0.15l0.081-0.144l0.094-0.17l0.111-0.16l0.032-0.082l0.044-0.072l0.087-0.155l0.106-0.134
		l0.113-0.119l0.131-0.103l0.132-0.093l0.15-0.078l0.157-0.062l0.169-0.042l0.219-0.099L41.858,9.183L41.858,9.183z"/>
	<polygon fill-rule="evenodd" clip-rule="evenodd" fill="#FFFFFF" points="44.122,10.696 44.078,10.593 44.041,10.5 43.952,10.319 
		43.852,10.155 43.751,10.005 43.632,9.866 43.512,9.737 43.444,9.676 43.381,9.624 43.249,9.526 43.099,9.434 42.949,9.357 
		42.785,9.295 42.616,9.249 42.434,9.213 42.253,9.188 42.152,9.178 42.058,9.178 41.858,9.183 41.613,9.245 41.394,9.344 
		41.225,9.386 41.068,9.448 40.919,9.525 40.786,9.618 40.656,9.721 40.543,9.84 40.437,9.974 40.349,10.129 40.305,10.202 
		40.274,10.284 40.162,10.444 40.068,10.615 39.987,10.759 39.917,10.909 39.862,11.053 39.818,11.203 39.775,11.348 39.756,11.492 
		39.737,11.636 39.744,11.786 39.744,11.925 39.764,12.07 39.789,12.209 39.833,12.353 39.939,12.632 40.009,12.771 40.097,12.915 
		40.198,13.069 40.317,13.219 40.442,13.347 40.587,13.471 40.73,13.573 40.894,13.666 41.063,13.743 41.252,13.815 41.402,13.851 
		41.552,13.887 41.703,13.913 41.853,13.928 41.991,13.933 42.141,13.927 42.279,13.912 42.423,13.891 42.486,13.87 42.517,13.86 
		42.555,13.854 42.693,13.813 42.755,13.782 42.768,13.771 42.787,13.766 42.824,13.756 42.961,13.699 43.087,13.621 43.149,13.58 
		43.181,13.559 43.218,13.544 43.344,13.451 43.406,13.399 43.419,13.383 43.438,13.373 43.475,13.352 43.619,13.208 43.682,13.136 
		43.694,13.115 43.713,13.1 43.751,13.068 43.775,13.027 43.788,13.007 43.807,12.991 43.869,12.919 43.975,12.774 44.057,12.619 
		44.137,12.464 44.163,12.382 44.175,12.341 44.182,12.32 44.194,12.304 44.218,12.222 44.231,12.181 44.238,12.16 44.25,12.144 
		44.281,11.969 44.281,11.923 44.287,11.881 44.3,11.799 44.306,11.623 44.299,11.448 44.267,11.263 44.236,11.077 44.216,11.025 
		44.204,10.979 44.18,10.886 44.16,10.835 44.148,10.788 44.122,10.696 	"/>
	<polygon fill-rule="evenodd" clip-rule="evenodd" fill="#CC3300" points="38.87,12.881 38.9,13.102 38.919,13.211 38.951,13.324 
		39.021,13.535 39.108,13.741 39.209,13.937 39.334,14.133 39.473,14.318 39.548,14.406 39.636,14.499 39.855,14.715 40.094,14.911 
		40.213,14.998 40.339,15.08 40.608,15.224 40.878,15.337 41.16,15.43 41.305,15.465 41.455,15.496 41.605,15.522 41.761,15.542 
		41.806,15.768 41.863,16.006 41.932,16.238 42.021,16.475 42.102,16.64 42.152,16.717 42.215,16.789 42.346,16.913 42.423,16.969 
		42.51,17.021 43.112,17.412 43.225,17.411 43.281,17.411 43.344,17.416 43.575,17.416 43.802,17.405 44.027,17.395 43.55,17.009 
		43.393,16.89 43.248,16.772 43.105,16.648 42.973,16.525 42.841,16.391 42.722,16.257 42.602,16.113 42.496,15.974 42.401,15.541 
		42.408,15.541 42.589,15.52 42.676,15.504 42.771,15.494 42.852,15.473 42.939,15.458 43.115,15.411 43.19,15.38 43.227,15.364 
		43.272,15.354 43.428,15.291 43.579,15.214 43.729,15.136 43.791,15.085 43.803,15.069 43.822,15.059 43.861,15.038 43.998,14.94 
		44.123,14.827 44.248,14.708 44.36,14.578 44.473,14.439 44.574,14.289 44.673,14.134 44.822,13.845 44.948,13.566 45.048,13.278 
		45.135,12.999 44.973,13.257 44.797,13.521 44.598,13.789 44.385,14.063 43.69,14.42 43.527,14.492 43.37,14.559 43.214,14.622 
		43.064,14.679 42.907,14.726 42.757,14.767 42.607,14.803 42.463,14.834 42.313,14.855 42.162,14.871 41.874,14.892 41.585,14.882 
		41.304,14.852 41.021,14.79 40.746,14.708 40.469,14.595 40.331,14.533 40.206,14.467 39.942,14.302 39.811,14.215 39.686,14.122 
		39.553,14.019 39.428,13.911 39.302,13.798 39.183,13.679 38.87,12.881 	"/>
	<path fill-rule="evenodd" clip-rule="evenodd" fill="#F46E1D" d="M44.027,17.395l-0.225,0.01l-0.226,0.011l-0.232,0l-0.063-0.005
		l-0.056,0l-0.113,0l0.05,0.057l0.213,0.191l0.208,0.206l0.182,0.206l0.176,0.221l0.15,0.216l0.138,0.232l0.114,0.237l0.107,0.247
		l0.075,0.247l0.07,0.258l0.044,0.263l0.038,0.273l0.013,0.273l0,0.284l-0.025,0.289l-0.031,0.299l-0.087,0.171l-0.044,0.082
		l-0.038,0.088l-0.094,0.165l-0.087,0.166l-0.106,0.155l-0.1,0.16l-0.112,0.155l-0.113,0.155l-0.125,0.139l-0.069,0.062
		l-0.061,0.062l-0.076,0.052l-0.037,0.026l-0.031,0.031l-0.075,0.047l-0.038,0.02l-0.019,0.011l-0.012,0.015l-0.025,0.006
		l-0.019,0.01l-0.038,0.021l-0.075,0.036l-0.162,0.057l-0.176,0.042l-0.094,0.01l-0.087,0.016l-0.227,0.006l-0.206,0l-0.207-0.02
		l-0.188-0.031l-0.188-0.051l-0.169-0.056l-0.162-0.077l-0.144-0.082l-0.151-0.108l-0.132-0.113l-0.126-0.134l-0.107-0.144
		l-0.114-0.165l-0.094-0.17l-0.088-0.191l-0.069-0.201l-0.094-0.315l-0.033-0.155l-0.013-0.144l-0.006-0.149l0.006-0.14l0.044-0.273
		l0.08-0.263l0.132-0.253l0.075-0.124l0.094-0.114l0.219-0.222l0.143-0.124l0.17-0.103l0.137-0.078l0.143-0.057l0.132-0.047
		l0.138-0.026l0.056-0.015l0.063-0.006l0.126,0l0.057,0l0.062,0.011l0.057,0.01l0.063,0.02l0.106,0.036l0.05,0.021l0.056,0.031
		l0.101,0.067l0.1,0.082l0.089,0.093l0.088,0.113l0.037,0.057l0.045,0.067l0.081,0.139l0.05,0.108l0.044,0.113l0.038,0.108
		l0.031,0.113l0.013,0.103l0.007,0.103l0,0.098l-0.006,0.103l-0.025,0.093l-0.012,0.021l-0.007,0.01l0,0.016l-0.012,0.052
		l-0.026,0.041l-0.012,0.021l-0.007,0.011l0,0.015l-0.044,0.093l-0.062,0.083l-0.037,0.041l-0.019,0.021l-0.012,0.026l-0.082,0.083
		l-0.044,0.041l-0.038,0.047l-0.063,0.031l-0.049,0.026l-0.05,0.021l-0.05,0.015l-0.119-0.005l-0.101-0.01l-0.1-0.016l-0.082-0.02
		l-0.082-0.031l-0.068-0.031l-0.063-0.041l-0.044-0.046l-0.051-0.057l-0.031-0.062l-0.031-0.067l-0.012-0.072l-0.013-0.083l0-0.088
		l0.006-0.092l0.019-0.098l0.051-0.016l0.056-0.01l0.051-0.016l0.05-0.015l0.037-0.026l0.038-0.021l0.031-0.031l0.037-0.026
		l0.007-0.021l0.012-0.016l0.006-0.02l0.014-0.016l0.012-0.041l0.007-0.02l0.012-0.016l0-0.052l0-0.026l0.005-0.021l-0.005-0.052
		l0-0.052l-0.026-0.083l-0.025-0.067l-0.038-0.057l-0.044-0.046l-0.056-0.036l-0.057-0.026l-0.068-0.015l-0.075,0.005l-0.106,0
		l-0.094,0.01l-0.089,0.016l-0.075,0.026l-0.082,0.026l-0.068,0.036l-0.063,0.042l-0.05,0.052l-0.056,0.052l-0.044,0.062
		l-0.069,0.145l-0.032,0.077l-0.019,0.093l-0.012,0.093l0,0.108l-0.012,0.139l0.007,0.139l0.013,0.129l0.032,0.129l0.025,0.114
		l0.044,0.113l0.05,0.108l0.069,0.103l0.064,0.087l0.08,0.088l0.089,0.082l0.106,0.077l0.107,0.067l0.119,0.062l0.125,0.056
		l0.145,0.051l0.113,0.031l0.056,0.011l0.063,0.015l0.113,0.015l0.056,0l0.063,0.005l0.051-0.005l0.056,0l0.106-0.011l0.101-0.026
		l0.049-0.016l0.057-0.011l0.087-0.046l0.007-0.011l0.012-0.005l0.025-0.01l0.05-0.021l0.088-0.062l0.018-0.021l0.026-0.016
		l0.049-0.031l0.038-0.041l0.019-0.02l0.025-0.016l0.087-0.088l0.076-0.098l0.037-0.052l0.007-0.016l0.012-0.01l0.025-0.021
		l0.094-0.165l0.081-0.155l0.069-0.165l0.062-0.155l0.037-0.165l0.031-0.154l0.012-0.165l0.006-0.155L43.8,20.335l-0.025-0.154
		l-0.044-0.165L43.68,19.86l-0.075-0.165l-0.082-0.155l-0.094-0.165l-0.107-0.155l-0.101-0.128l-0.1-0.109l-0.106-0.097
		l-0.113-0.088l-0.125-0.077l-0.126-0.067l-0.069-0.031l-0.062-0.021l-0.139-0.036l-0.213-0.051l-0.201-0.031l-0.201-0.015
		l-0.188,0.005l-0.188,0.01l-0.181,0.032l-0.176,0.046l-0.162,0.062L40.702,18.7l-0.156,0.088l-0.15,0.104l-0.144,0.124
		l-0.144,0.129l-0.131,0.15l-0.125,0.165l-0.119,0.186l-0.081,0.119l-0.062,0.129l-0.106,0.263l-0.069,0.273l-0.018,0.284
		l-0.005,0.268l0,0.134l0.013,0.139l0.032,0.263l0.056,0.263l0.026,0.124l0.037,0.129l0.088,0.257l0.108,0.248l0.126,0.248
		l0.056,0.102L40,22.997l0.145,0.196l0.157,0.18l0.082,0.082l0.094,0.082l0.182,0.145l0.207,0.134l0.22,0.113l0.112,0.046
		l0.126,0.051l0.094,0.036l-0.338,0.021l-0.326,0.047l-0.32,0.062l-0.307,0.083l0.126,0.248l0.12,0.247l0.095,0.253l0.088,0.258
		l0.056,0.257l0.051,0.258l0.025,0.263l0.014,0.269l-0.013,0.258l-0.024,0.268l-0.05,0.268l-0.056,0.273l-0.087,0.269l-0.094,0.279
		l-0.119,0.278l-0.125,0.284l-0.056,0.082l-0.05,0.088l-0.063,0.077l-0.056,0.083l-0.038,0.031l-0.012,0.005l-0.007,0.01
		l-0.012,0.021l-0.062,0.073l-0.038,0.031l-0.012,0.005l-0.007,0.011l-0.012,0.02l-0.063,0.067l-0.15,0.114l-0.081,0.052
		l-0.075,0.052l-0.089,0.042l-0.081,0.041l-0.175,0.073l-0.313,0.083l-0.301,0.078l-0.3,0.068l-0.301,0.057l-0.312,0.047
		l-0.301,0.036l-0.157,0.011l-0.15,0.016l-0.301,0.026l-0.313,0.005l-0.3,0l-0.314-0.009l-0.301-0.015l-0.312-0.03l-0.302-0.035
		l-0.314-0.046l-0.3-0.056l-1.317,3.277l0.264,0.314l0.27,0.324l0.263,0.33l0.265,0.345l0.251,0.345l0.257,0.356l0.251,0.36
		l0.257,0.371l0.094,0.144l0.113,0.144l0.113,0.139l0.131,0.144l0.176-0.119l0.181-0.124l0.174-0.144l0.188-0.15l0.182-0.17
		l0.188-0.181l0.188-0.202l0.187-0.207L37,34.745l0.207-0.258l0.193-0.258l0.188-0.258l2.347,2.25l0.188-0.15l0.094-0.083l0.1-0.078
		l0.188-0.171l0.188-0.17l0.176-0.191l0.174-0.191l0.081-0.103l0.088-0.098l0.037-0.057l0.044-0.052l0.088-0.103l0.901-1.193
		l0.157,0.18l0.182,0.196l0.189,0.201l0.206,0.216l0.22,0.217l0.232,0.231l0.246,0.237l0.257,0.252l0.257,0.227l0.277,0.216
		l0.276,0.201l0.295,0.195l1.312-2.653l0.496,0.541l0.257,0.263l0.27,0.268l0.546,0.52l0.571,0.509l0.879,0.762l0.796-3.395
		l0.157,0.252l0.175,0.263l0.189,0.268l0.208,0.278l1.696,2.256l-0.004-2.264l0.087,0.103l0.106,0.108l0.12,0.103l0.131,0.113
		l-0.818-2.201l-0.283-0.665l-0.29-0.65l-0.314-0.644l-0.321-0.634l-0.175-0.309l-0.245,0.125l-0.251,0.129l-0.237,0.098
		l-0.226,0.088l-0.225,0.078l-0.219,0.068l-0.219,0.057l-0.213,0.047l-0.207,0.036l-0.2,0.036l-0.206,0.016l-0.202,0.005
		l-0.194-0.005l-0.188-0.005l-0.188-0.026l-0.182-0.025l-0.181-0.046l-0.176-0.046l-0.176-0.066l-0.169-0.067l-0.169-0.087
		l-0.162-0.087l-0.164-0.108l-0.157-0.108l-0.151-0.118l-0.144-0.129l-0.151-0.15l-0.138-0.149l-0.138-0.16l-0.132-0.17l-0.131-0.18
		l-0.126-0.19l-0.126-0.201l-0.114-0.211l-0.107-0.201l-0.082-0.196l-0.076-0.196l-0.056-0.196l-0.031-0.103l-0.019-0.098
		l-0.032-0.196l-0.019-0.196l0-0.196l0.006-0.206l0.024-0.196l0.031-0.201l0.057-0.196l0.061-0.206l0.082-0.196l0.094-0.201
		l0.106-0.196l0.106-0.207l-1.71-0.317l0.138-0.062l0.15-0.067l0.137-0.078l0.144-0.083l0.137-0.098l0.138-0.103l0.137-0.119
		l0.138-0.119l0.062-0.078l0.069-0.072l0.125-0.15l0.113-0.155l0.112-0.15l0.101-0.16l0.044-0.082l0.05-0.078l0.082-0.165
		l0.08-0.165l0.063-0.176l0.057-0.176l0.018-0.093l0.025-0.087l0.019-0.093l0.024-0.088l0.012-0.098l0.019-0.093l0.024-0.186
		l0.012-0.191l0.013-0.191l-0.014-0.253l-0.018-0.237l-0.032-0.237l-0.032-0.227l-0.057-0.227l-0.056-0.216l-0.069-0.211
		l-0.082-0.201l-0.095-0.206l-0.107-0.191l-0.12-0.19l-0.119-0.18l-0.145-0.18l-0.144-0.165l-0.157-0.164L44.027,17.395
		L44.027,17.395z M42.514,27.165l0.157,0.03l0.157,0.046l0.143,0.051l0.138,0.066l0.125,0.067l0.126,0.088l0.113,0.087l0.106,0.109
		l0.094,0.108l0.088,0.118l0.075,0.129l0.076,0.139l0.056,0.139l0.056,0.16l0.045,0.16l0.044,0.18l0.032,0.237l0.032,0.237
		l0.012,0.237l0.007,0.248l-0.007,0.237l-0.019,0.247l-0.031,0.237l-0.037,0.248l-0.038,0.134l-0.025,0.067l-0.019,0.072
		l-0.05,0.134l-0.05,0.134l-0.068,0.124L43.818,31.5L43.8,31.531l-0.012,0.036l-0.025,0.026l-0.019,0.031l-0.037,0.062l-0.081,0.124
		l-0.163,0.176l-0.087,0.077l-0.082,0.073l-0.087,0.062l-0.088,0.057l-0.049,0.021l-0.026,0.01L43.03,32.29l-0.006,0.01
		l-0.088,0.042l-0.1,0.031l-0.1,0.026l-0.032,0l-0.024,0.005l-0.051,0.01l-0.1,0.011l-0.112,0l-0.019-0.005l-0.012,0l-0.026,0
		l-0.05,0l-0.112-0.011l-0.056-0.01l-0.05-0.005l-0.113-0.031l-0.101-0.031l-0.194-0.077l-0.181-0.092l-0.17-0.114l-0.157-0.134
		L41.1,31.839l-0.064-0.077l-0.131-0.17l-0.107-0.185l-0.138-0.288l-0.063-0.144l-0.044-0.139l-0.075-0.289l-0.045-0.289
		l-0.019-0.299l0.012-0.299l0.012-0.155l0.031-0.15L40.5,29.2l0.043-0.15l0.05-0.191l0.069-0.181l0.068-0.17l0.087-0.155
		l0.088-0.155l0.099-0.139l0.106-0.134l0.125-0.119l0.119-0.118l0.138-0.103l0.143-0.098l0.163-0.078l0.156-0.078l0.176-0.067
		l0.181-0.057L42.514,27.165L42.514,27.165z"/>
	<path fill-rule="evenodd" clip-rule="evenodd" fill="#CC3300" d="M44.115,28.843l-0.044-0.18l-0.045-0.16l-0.056-0.16l-0.056-0.139
		l-0.076-0.139l-0.075-0.129l-0.088-0.118L43.58,27.71l-0.106-0.109l-0.113-0.087l-0.126-0.088L43.11,27.36l-0.138-0.066
		l-0.143-0.051l-0.157-0.046l-0.157-0.03l-0.201,0.041l-0.181,0.057l-0.176,0.067l-0.156,0.078l-0.163,0.078l-0.143,0.098
		l-0.138,0.103l-0.119,0.118l-0.125,0.119l-0.106,0.134l-0.099,0.139l-0.088,0.155l-0.087,0.155l-0.068,0.17l-0.069,0.181
		l-0.05,0.191L40.5,29.2l-0.031,0.155l-0.031,0.15l-0.012,0.155l-0.012,0.299l0.019,0.299l0.045,0.289l0.075,0.289l0.044,0.139
		l0.063,0.144l0.138,0.288l0.107,0.185l0.131,0.17l0.064,0.077l0.075,0.077l0.157,0.134l0.17,0.114l0.181,0.092l0.194,0.077
		l0.101,0.031l0.113,0.031l0.05,0.005l0.056,0.01l0.112,0.011l0.05,0l0.026,0l0.012,0l0.019,0.005l0.112,0l0.1-0.011l0.051-0.01
		l0.024-0.005l0.032,0l0.1-0.026l0.1-0.031l0.088-0.042l0.006-0.01l0.012-0.006l0.026-0.01l0.049-0.021l0.088-0.057l0.087-0.062
		l0.082-0.073l0.087-0.077l0.163-0.176l0.081-0.124l0.037-0.062l0.019-0.031l0.025-0.026l0.012-0.036l0.019-0.031l0.038-0.062
		l0.068-0.124l0.05-0.134l0.05-0.134l0.019-0.072l0.025-0.067l0.038-0.134l0.037-0.248l0.031-0.237l0.019-0.247l0.007-0.237
		l-0.007-0.248l-0.012-0.237l-0.032-0.237L44.115,28.843L44.115,28.843z M42.302,27.949l0.276-0.068l0.112,0.036l0.113,0.051
		l0.106,0.052l0.108,0.067l0.093,0.062l0.088,0.077l0.081,0.083l0.082,0.092l0.063,0.087l0.063,0.103l0.056,0.109l0.057,0.118
		l0.037,0.119l0.039,0.128l0.032,0.134l0.032,0.144l0.019,0.216l0,0.052l0,0.026l0.006,0.031l0.007,0.113l-0.012,0.216l-0.012,0.108
		l-0.006,0.114l-0.025,0.103l-0.012,0.052l-0.007,0.01l0,0.015l0,0.031l-0.057,0.217l-0.075,0.206l-0.044,0.103l-0.037,0.108
		l-0.069,0.113l-0.038,0.052l-0.012,0.011l-0.006,0.015l-0.014,0.031l-0.075,0.098l-0.037,0.041l-0.019,0.021l-0.012,0.025
		l-0.025,0.016l-0.018,0.021l-0.038,0.041l-0.082,0.072l-0.087,0.057l-0.024,0.011l-0.014,0.005l-0.006,0.01l-0.038,0.031
		l-0.1,0.036l-0.05,0.015l-0.044,0.021l-0.101,0.021l-0.1,0.016l-0.113,0l-0.113-0.005l-0.063-0.011l-0.019-0.005l-0.012,0l-0.025,0
		l-0.113-0.021l-0.131-0.051l-0.12-0.072l-0.112-0.092l-0.094-0.103l-0.12-0.165l-0.107-0.155l-0.094-0.165l-0.069-0.16l-0.07-0.17
		l-0.044-0.165l-0.044-0.17l-0.019-0.165l-0.019-0.175l-0.006-0.175l0.005-0.181l0.031-0.175l0.031-0.186l0.057-0.181l0.056-0.186
		l0.081-0.186l0.075-0.17l0.094-0.144l0.106-0.13l0.131-0.103l0.063-0.052l0.075-0.042l0.157-0.062l0.082-0.031l0.094-0.021
		L42.302,27.949L42.302,27.949z"/>
	<polygon fill-rule="evenodd" clip-rule="evenodd" fill="#FFFFFF" points="42.578,27.881 42.302,27.949 42.108,27.975 
		42.014,27.996 41.933,28.027 41.776,28.089 41.701,28.131 41.638,28.182 41.508,28.285 41.401,28.415 41.307,28.559 41.233,28.73 
		41.151,28.915 41.096,29.101 41.039,29.282 41.008,29.468 40.977,29.643 40.971,29.823 40.977,29.999 40.997,30.174 41.016,30.339 
		41.06,30.509 41.104,30.674 41.174,30.844 41.242,31.004 41.336,31.169 41.443,31.323 41.563,31.488 41.657,31.591 41.769,31.684 
		41.889,31.756 42.02,31.807 42.134,31.828 42.159,31.827 42.171,31.827 42.19,31.832 42.252,31.843 42.365,31.848 42.479,31.848 
		42.578,31.832 42.679,31.811 42.723,31.79 42.773,31.775 42.873,31.739 42.91,31.707 42.916,31.697 42.93,31.692 42.954,31.682 
		43.041,31.625 43.123,31.553 43.161,31.511 43.179,31.491 43.205,31.475 43.217,31.449 43.236,31.429 43.273,31.387 43.348,31.289 
		43.361,31.258 43.367,31.243 43.379,31.232 43.417,31.181 43.486,31.067 43.523,30.959 43.566,30.856 43.641,30.649 43.698,30.432 
		43.698,30.401 43.698,30.386 43.704,30.376 43.717,30.324 43.741,30.221 43.748,30.107 43.76,29.999 43.772,29.783 43.765,29.669 
		43.759,29.638 43.759,29.612 43.759,29.561 43.74,29.344 43.708,29.2 43.677,29.066 43.638,28.937 43.601,28.818 43.544,28.7 
		43.488,28.592 43.425,28.488 43.362,28.401 43.28,28.309 43.199,28.226 43.111,28.149 43.018,28.087 42.91,28.021 42.804,27.969 
		42.69,27.918 42.578,27.881 	"/>
	<path fill-rule="evenodd" clip-rule="evenodd" fill="#CC3300" d="M38.623,23.861l-0.407-0.381l-0.062,0.118l-0.062,0.114
		l-0.038,0.052l-0.012,0.01l-0.007,0.005l0,0.01l-0.012,0.031l-0.068,0.103l-0.081,0.093l-0.082,0.093l-0.087,0.083l-0.087,0.078
		l0.363,0.283l0.119,0.108l0.12,0.118l0.112,0.129l0.12,0.145l-0.557,0.351l-0.275,0.181l-0.264,0.197l-0.519,0.403l-0.256,0.212
		l-0.245,0.222l-0.281,0.264l-0.269,0.284l-0.257,0.294l-0.124,0.149L35.29,27.77l-0.338,0.459l-0.306,0.48l-0.287,0.49
		l-0.255,0.516l0.3,0.056l0.314,0.046l0.302,0.035l0.312,0.03l0.301,0.015l0.314,0.009l0.3,0l0.313-0.005l0.301-0.026l0.15-0.016
		l0.157-0.011l0.301-0.036l0.312-0.047l0.301-0.057l0.3-0.068l0.301-0.078l0.313-0.083l0.175-0.073l0.081-0.041l0.089-0.042
		l0.075-0.052l0.081-0.052l0.15-0.114l0.063-0.067l0.012-0.02l0.007-0.011l0.012-0.005l0.038-0.031l0.062-0.073l0.012-0.021
		l0.007-0.01l0.012-0.005l0.038-0.031l0.056-0.083l0.063-0.077l0.05-0.088l0.056-0.082l0.125-0.284l0.119-0.278l0.094-0.279
		l0.087-0.269l0.056-0.273l0.05-0.268l0.024-0.268l0.013-0.258l-0.014-0.269l-0.025-0.263l-0.051-0.258l-0.056-0.257l-0.088-0.258
		l-0.095-0.253l-0.12-0.247l-0.126-0.248l-0.257,0.073l-0.251,0.088l-0.244,0.098l-0.232,0.114l-0.12-0.222L38.9,24.226
		l-0.139-0.191L38.623,23.861L38.623,23.861z M38.972,25.979l0.169,0.036l0.164,0.046l0.143,0.051l0.144,0.067l0.119,0.067
		l0.108,0.087l0.093,0.087l0.089,0.108l0.056,0.108l0.057,0.119l0.037,0.124l0.032,0.139l0.007,0.14l0,0.159l-0.019,0.16
		l-0.019,0.181l-0.037,0.103l-0.108-0.139l-0.1-0.118l-0.113-0.119l-0.106-0.103L39.57,27.18l-0.12-0.087l-0.131-0.088l-0.126-0.067
		l-0.145-0.067l-0.138-0.056l-0.15-0.051l-0.15-0.036l-0.163-0.036l-0.157-0.021l-0.169-0.015l-0.162-0.005l0.08-0.145l0.094-0.124
		l0.106-0.108l0.12-0.088l0.131-0.078l0.144-0.057l0.157-0.047L38.972,25.979L38.972,25.979z M40.015,27.979l-0.225,0.289
		l-0.1,0.072l-0.087,0.067l-0.088,0.057l-0.087,0.047l-0.051,0.016l-0.044,0.02l-0.087,0.031l-0.088,0.016l-0.087,0.016
		l-0.101-0.005l-0.087-0.005l-0.087-0.02l-0.087-0.025l-0.051-0.021l-0.026-0.01l-0.012-0.006l-0.006,0l-0.088-0.046l-0.087-0.057
		l-0.087-0.062l-0.164-0.134l-0.075-0.072l-0.056-0.067l-0.064-0.077l-0.05-0.072l-0.044-0.077l-0.031-0.072l-0.058-0.165
		l-0.025-0.165l0-0.175l0.024-0.176l0.126-0.015l0.125-0.006l0.258,0.015l0.256,0.046l0.27,0.087L39,27.284l0.162,0.077l0.15,0.077
		l0.157,0.093l0.138,0.097l0.145,0.108l0.132,0.113L40.015,27.979L40.015,27.979z"/>
	<polygon fill-rule="evenodd" clip-rule="evenodd" fill="#FFFFFF" points="40.153,27.659 40.171,27.478 40.19,27.318 40.19,27.159 
		40.183,27.019 40.151,26.88 40.114,26.756 40.057,26.638 40.001,26.529 39.912,26.421 39.819,26.334 39.711,26.247 39.592,26.179 
		39.448,26.113 39.305,26.061 39.141,26.015 38.972,25.979 38.79,26.006 38.634,26.052 38.49,26.109 38.359,26.187 38.239,26.275 
		38.132,26.383 38.039,26.507 37.958,26.652 38.121,26.656 38.29,26.672 38.447,26.692 38.61,26.728 38.76,26.763 38.91,26.815 
		39.048,26.871 39.193,26.938 39.319,27.005 39.45,27.093 39.57,27.18 39.689,27.283 39.795,27.386 39.908,27.505 40.008,27.623 
		40.116,27.762 40.153,27.659 	"/>
	<polygon fill-rule="evenodd" clip-rule="evenodd" fill="#FFFFFF" points="39.791,28.268 40.015,27.979 39.884,27.85 39.752,27.737 
		39.607,27.629 39.469,27.531 39.312,27.438 39.162,27.361 39,27.284 38.843,27.228 38.573,27.141 38.316,27.095 38.059,27.079 
		37.933,27.085 37.808,27.1 37.784,27.276 37.784,27.452 37.809,27.616 37.866,27.781 37.898,27.853 37.941,27.931 37.991,28.003 
		38.055,28.08 38.111,28.147 38.186,28.219 38.35,28.353 38.437,28.414 38.525,28.471 38.613,28.517 38.619,28.517 38.631,28.523 
		38.657,28.533 38.707,28.553 38.795,28.579 38.882,28.599 38.969,28.605 39.07,28.609 39.158,28.594 39.246,28.578 39.333,28.547 
		39.377,28.527 39.427,28.511 39.515,28.464 39.603,28.407 39.69,28.34 39.791,28.268 	"/>
	<path fill-rule="evenodd" clip-rule="evenodd" fill="#CC3300" d="M44.903,24.407l-0.106,0.207l-0.106,0.196l-0.094,0.201
		l-0.082,0.196l-0.061,0.206l-0.057,0.196l-0.031,0.201l-0.024,0.196l-0.006,0.206l0,0.196l0.019,0.196l0.032,0.196l0.019,0.098
		l0.031,0.103l0.056,0.196l0.076,0.196l0.082,0.196l0.107,0.201l0.114,0.211l0.126,0.201l0.126,0.19l0.131,0.18l0.132,0.17
		l0.138,0.16l0.138,0.149l0.151,0.15l0.144,0.129l0.151,0.118l0.157,0.108l0.164,0.108l0.162,0.087l0.169,0.087l0.169,0.067
		l0.176,0.066l0.176,0.046l0.181,0.046l0.182,0.025l0.188,0.026l0.188,0.005l0.194,0.005l0.202-0.005l0.206-0.016l0.2-0.036
		l0.207-0.036l0.213-0.047l0.219-0.057l0.219-0.068l0.225-0.078l0.226-0.088l0.237-0.098l0.251-0.129l0.245-0.125l-0.171-0.293
		l-0.175-0.283l-0.365-0.551l-0.201-0.273l-0.201-0.263l-0.208-0.258l-0.213-0.252l-0.244-0.263l-0.245-0.252l-0.258-0.242
		l-0.131-0.118l-0.126-0.108l-0.277-0.222l-0.276-0.2l-0.288-0.191l-0.295-0.179l-0.376-0.211l0.106-0.207l0.394-0.567l-0.082-0.026
		l-0.131-0.056l-0.125-0.062l-0.126-0.067l-0.113-0.077L46.5,23.863l-0.205,0.413l-0.069,0.139l-0.043,0.144l-0.031,0.145
		l-0.019,0.144l-0.307-0.128l-0.301-0.113l-0.313-0.108L44.903,24.407L44.903,24.407z M47.765,27.135l0.026,0.33l-0.007,0.082
		l-0.007,0.041l0,0.047l-0.012,0.036l-0.007,0.042l-0.012,0.082l-0.025,0.073l-0.025,0.077l-0.038,0.073l-0.012,0.015l-0.007,0.021
		l-0.012,0.041l-0.051,0.062l-0.024,0.031l-0.012,0.016l-0.007,0.021l-0.019,0.01l-0.012,0.016l-0.025,0.031l-0.05,0.062
		l-0.07,0.052l-0.062,0.057l-0.075,0.052l-0.075,0.057l-0.119,0.057l-0.113,0.046L46.803,28.7l-0.107,0.036l-0.106,0.016l-0.1,0.015
		l-0.094-0.005l-0.089-0.005l-0.094-0.026l-0.087-0.026l-0.082-0.041l-0.075-0.046l-0.082-0.062l-0.075-0.067l-0.069-0.077
		l-0.063-0.088l0.062-0.165l0.08-0.15l0.094-0.134l0.1-0.129l0.106-0.108l0.106-0.108l0.113-0.088l0.119-0.083l0.132-0.068
		l0.126-0.062l0.131-0.047l0.137-0.036l0.151-0.026l0.143-0.015l0.157,0l0.157,0.004L47.765,27.135L47.765,27.135z M47.313,26.713
		l0,0.005l-0.269,0.026l-0.245,0.052l-0.238,0.078l-0.219,0.108l-0.219,0.125l-0.194,0.155l-0.182,0.181l-0.169,0.207l-0.025,0.103
		l-0.094,0.16l-0.058-0.134l-0.037-0.123l-0.032-0.124l-0.007-0.119l0.006-0.232l0.019-0.108l0.043-0.103l0.043-0.109l0.056-0.098
		l0.069-0.098l0.081-0.093l0.194-0.181l0.12-0.083l0.131-0.077l0.282-0.13l0.1,0l0.106,0.011l0.094,0.01l0.101,0.02l0.087,0.016
		l0.089,0.026l0.169,0.066l0.138,0.077l0.131,0.098l0.108,0.108l0.049,0.062l0.051,0.072L47.313,26.713L47.313,26.713z"/>
	<polygon fill-rule="evenodd" clip-rule="evenodd" fill="#FFFFFF" points="47.792,27.466 47.765,27.135 47.596,27.11 47.439,27.105 
		47.282,27.106 47.139,27.121 46.988,27.147 46.85,27.184 46.719,27.23 46.594,27.292 46.462,27.36 46.344,27.442 46.231,27.53 
		46.124,27.638 46.018,27.747 45.918,27.876 45.824,28.01 45.743,28.16 45.681,28.325 45.744,28.413 45.812,28.49 45.888,28.557 
		45.969,28.619 46.044,28.665 46.126,28.706 46.214,28.732 46.308,28.757 46.396,28.762 46.49,28.767 46.59,28.752 46.696,28.736 
		46.803,28.7 46.915,28.663 47.029,28.617 47.147,28.56 47.222,28.503 47.297,28.451 47.359,28.394 47.429,28.343 47.479,28.281 
		47.504,28.25 47.516,28.234 47.535,28.224 47.542,28.204 47.554,28.188 47.579,28.157 47.629,28.095 47.641,28.054 47.648,28.033 
		47.66,28.018 47.698,27.945 47.723,27.868 47.747,27.795 47.759,27.713 47.766,27.672 47.778,27.636 47.778,27.589 47.785,27.548 
		47.792,27.466 	"/>
	<polygon fill-rule="evenodd" clip-rule="evenodd" fill="#FFFFFF" points="47.313,26.719 47.313,26.713 47.595,26.667 
		47.545,26.594 47.496,26.532 47.388,26.425 47.257,26.326 47.119,26.249 46.95,26.183 46.861,26.157 46.774,26.142 46.673,26.121 
		46.579,26.111 46.472,26.101 46.373,26.101 46.091,26.231 45.96,26.308 45.84,26.391 45.647,26.572 45.565,26.665 45.496,26.763 
		45.44,26.861 45.396,26.969 45.353,27.073 45.334,27.181 45.328,27.413 45.335,27.531 45.366,27.655 45.403,27.779 45.461,27.913 
		45.555,27.753 45.579,27.65 45.748,27.443 45.93,27.263 46.124,27.108 46.343,26.983 46.562,26.874 46.799,26.797 47.044,26.745 
		47.313,26.719 	"/>
	<polygon fill-rule="evenodd" clip-rule="evenodd" fill="#66CC99" points="37.607,23.063 37.588,23.063 36.914,23.935 
		37.095,23.997 37.227,24.054 37.358,24.12 37.484,24.187 37.616,24.27 37.703,24.192 37.79,24.109 37.872,24.016 37.954,23.924 
		38.022,23.82 38.034,23.789 38.034,23.779 38.041,23.774 38.053,23.763 38.091,23.712 38.154,23.598 38.216,23.48 38.065,23.356 
		37.915,23.248 37.758,23.15 37.607,23.063 	"/>
	<polygon fill-rule="evenodd" clip-rule="evenodd" fill="#FF6699" points="37.588,23.063 37.538,23.032 37.394,22.965 
		37.255,22.909 36.974,22.811 36.817,22.765 36.667,22.729 36.36,22.673 36.272,22.683 36.096,22.714 35.934,22.772 35.777,22.844 
		35.64,22.947 35.57,22.994 35.527,23.051 35.483,23.113 35.464,23.18 35.446,23.319 35.452,23.396 35.472,23.484 35.547,23.536 
		35.622,23.582 35.791,23.664 35.878,23.695 35.972,23.721 36.167,23.762 36.895,23.925 36.914,23.935 37.588,23.063 	"/>
	<polygon fill-rule="evenodd" clip-rule="evenodd" fill="#FF9900" points="31.182,29.123 31.088,29.21 30.913,29.36 30.737,29.505 
		30.644,29.567 30.556,29.634 30.382,29.763 30.194,29.878 30.099,29.929 30.012,29.986 29.824,30.084 29.642,30.177 29.862,30.651 
		30.082,31.136 30.284,31.62 30.479,32.115 30.655,32.61 30.825,33.115 30.982,33.625 31.133,34.14 31.614,36.208 31.44,37.275 
		31.241,38.354 31.129,38.916 31.043,39.484 30.975,40.051 30.932,40.628 30.838,40.995 30.783,41.464 30.728,42.104 30.703,42.754 
		30.698,43.398 30.718,44.048 30.737,44.399 30.776,44.754 30.82,45.105 30.89,45.461 31.091,45.574 31.297,45.682 31.511,45.78 
		31.73,45.872 31.943,45.954 32.169,46.031 32.395,46.098 32.626,46.165 32.852,46.211 33.084,46.256 33.323,46.292 33.56,46.323 
		33.799,46.343 34.043,46.358 34.294,46.363 34.545,46.363 35.071,46.325 35.526,45.309 36.001,44.312 36.482,43.322 36.976,42.346 
		37.094,42.109 37.231,41.887 37.375,41.675 37.544,41.474 37.713,41.272 37.894,41.092 38.089,40.911 38.301,40.75 38.639,40.487 
		38.995,40.244 39.352,40.011 39.728,39.804 40.104,39.603 40.493,39.427 40.887,39.261 41.294,39.121 41.576,39.049 43.611,38.751 
		43.886,38.73 44.169,38.724 44.438,38.729 44.714,38.749 44.977,38.78 45.241,38.826 45.366,38.851 45.498,38.887 45.754,38.964 
		45.874,39 45.999,39.046 46.244,39.144 46.482,39.252 46.721,39.38 46.946,39.514 47.178,39.663 47.284,39.74 47.398,39.828 
		47.624,40.008 47.736,40.111 47.85,40.224 47.956,40.337 48.057,40.466 48.145,40.59 48.232,40.729 48.309,40.868 48.384,41.017 
		48.491,41.28 48.591,41.553 48.673,41.826 48.749,42.105 48.799,42.383 48.843,42.667 48.876,42.95 48.895,43.245 48.994,46.003 
		53.869,46.459 54,46.139 54.125,45.824 54.243,45.504 54.356,45.185 54.361,45.112 54.424,44.627 54.48,44.143 54.529,43.658 
		54.572,43.183 54.462,40.945 54.455,40.92 54.177,39.007 54.094,38.486 53.999,37.981 53.886,37.481 53.759,36.991 53.729,36.898 
		53.878,36.599 54.227,35.861 54.415,35.5 54.615,35.149 54.815,34.792 55.027,34.447 55.247,34.106 55.484,33.775 55.678,33.491 
		55.884,33.218 56.09,32.949 56.309,32.691 56.753,32.184 57.222,31.699 55.679,30.645 55.498,30.846 55.242,31.125 55.004,31.419 
		54.772,31.719 54.553,32.028 54.322,32.354 54.11,32.689 53.909,33.03 53.735,33.381 53.572,33.732 53.429,34.098 53.304,34.47 
		53.199,34.852 53.066,34.445 52.935,34.331 52.815,34.228 52.708,34.12 52.621,34.017 52.624,36.281 50.929,34.025 50.721,33.747 
		50.533,33.48 50.358,33.216 50.2,32.964 49.404,36.359 48.525,35.597 47.954,35.087 47.408,34.567 47.138,34.3 46.881,34.037 
		46.385,33.497 45.073,36.149 44.779,35.954 44.503,35.753 44.226,35.537 43.969,35.311 43.712,35.059 43.467,34.821 43.234,34.59 
		43.015,34.374 42.808,34.157 42.62,33.957 42.438,33.761 42.281,33.581 41.38,34.774 41.292,34.877 41.249,34.928 41.212,34.985 
		41.123,35.083 41.042,35.186 40.868,35.377 40.692,35.569 40.504,35.739 40.316,35.91 40.217,35.988 40.123,36.07 39.935,36.22 
		37.588,33.97 37.4,34.228 37.207,34.486 37,34.745 36.781,35.013 36.594,35.22 36.406,35.421 36.218,35.602 36.036,35.772 
		35.849,35.922 35.674,36.067 35.493,36.191 35.317,36.31 35.186,36.166 35.073,36.027 34.959,35.882 34.865,35.738 34.608,35.368 
		34.356,35.007 34.1,34.651 33.848,34.306 33.583,33.961 33.321,33.632 33.05,33.307 32.786,32.993 32.786,33.014 32.556,33.649 
		32.448,33.118 32.329,32.591 32.196,32.071 32.051,31.556 31.849,30.932 31.642,30.324 31.415,29.716 31.182,29.123 	"/>
	<path fill-rule="evenodd" clip-rule="evenodd" fill="#66CC99" d="M46.5,23.863l0.239,0.258l0.113,0.077l0.126,0.067l0.125,0.062
		l0.131,0.056l0.082,0.026l0.425-0.429l-0.081-0.118l-0.082-0.103l-0.094-0.103l-0.101-0.087l-0.119-0.088l-0.125-0.072
		l-0.131-0.067l-0.145-0.051L46.5,23.863L46.5,23.863z M47.189,23.707l0.019,0.021l-0.045,0.026L47.189,23.707L47.189,23.707z"/>
	<path fill-rule="evenodd" clip-rule="evenodd" fill="#FF6699" d="M47.741,23.979l0.182-0.17l0.193-0.155l0.207-0.139l0.219-0.124
		l0.063-0.046l0.063-0.047l0.025-0.031l0.012-0.015l0.019-0.011l0.056-0.052l0.044-0.062l0.051-0.062l0.038-0.072l0.037-0.067
		l0.031-0.113l0.025-0.098l0.018-0.093l0.006-0.083l-0.007-0.082l-0.012-0.067l-0.025-0.067l-0.031-0.052l-0.05-0.057l-0.056-0.041
		l-0.07-0.036l-0.068-0.021l-0.088-0.026l-0.094-0.01l-0.106-0.005l-0.112,0.005l-0.219,0.108l-0.2,0.129l-0.2,0.134l-0.182,0.15
		l-0.181,0.15l-0.163,0.17l-0.155,0.176l-0.144,0.191l0.145,0.051l0.131,0.067l0.125,0.072l0.119,0.088l0.101,0.087l0.094,0.103
		l0.082,0.103L47.741,23.979L47.741,23.979z M48.559,22.596l-0.024,0.031l-0.031-0.031l0.031-0.011L48.559,22.596L48.559,22.596z"/>
	<polygon fill-rule="evenodd" clip-rule="evenodd" fill="#FF6699" points="58.621,28.711 58.351,28.799 58.095,28.908 
		57.838,29.022 57.595,29.151 57.349,29.281 57.118,29.43 56.887,29.58 56.667,29.751 57.013,30.049 57.194,30.188 57.389,30.322 
		57.577,30.445 57.778,30.569 58.198,30.795 58.342,30.666 58.455,30.558 58.568,30.449 58.667,30.335 58.775,30.222 58.862,30.098 
		58.905,30.036 58.955,29.979 58.992,29.912 59.036,29.85 59.074,29.783 59.117,29.721 59.174,29.602 59.218,29.499 59.249,29.396 
		59.274,29.308 59.28,29.215 59.28,29.138 59.261,29.066 59.242,29.004 59.198,28.937 59.154,28.885 59.091,28.839 59.022,28.803 
		58.94,28.767 58.846,28.741 58.74,28.721 58.621,28.711 	"/>
	<polygon fill-rule="evenodd" clip-rule="evenodd" fill="#66CC99" points="55.936,30.381 55.679,30.645 57.222,31.699 
		58.198,30.795 57.778,30.569 57.577,30.445 57.389,30.322 57.194,30.188 57.013,30.049 56.667,29.751 55.936,30.381 	"/>
	<polygon fill-rule="evenodd" clip-rule="evenodd" fill="#FF6699" points="50.544,47.527 49.278,47.282 49.373,47.54 49.479,47.797 
		49.598,48.05 49.731,48.302 49.925,48.694 50.785,49.038 51.193,49.089 51.718,48.99 52.187,48.772 52.194,48.788 52.269,48.741 
		52.526,48.462 52.65,48.318 52.713,48.246 52.726,48.225 52.732,48.215 52.744,48.209 52.782,48.178 52.894,48.028 53.013,47.884 
		53.126,47.729 53.238,47.579 53.069,47.6 52.907,47.621 52.581,47.653 52.492,47.653 52.449,47.653 52.412,47.658 52.248,47.669 
		52.079,47.669 51.916,47.674 51.741,47.664 51.572,47.654 51.234,47.629 51.058,47.604 50.889,47.583 50.713,47.553 50.626,47.537 
		50.544,47.527 	"/>
	<polygon fill-rule="evenodd" clip-rule="evenodd" fill="#66CC99" points="49.278,47.282 50.544,47.527 50.626,47.537 
		50.713,47.553 50.889,47.583 51.058,47.604 51.234,47.629 51.572,47.654 51.741,47.664 51.916,47.674 52.079,47.669 52.248,47.669 
		52.412,47.658 52.449,47.653 52.492,47.653 52.581,47.653 52.907,47.621 53.069,47.6 53.238,47.579 53.401,47.311 53.557,47.043 
		53.707,46.764 53.851,46.485 53.869,46.459 48.994,46.003 49.038,46.328 49.063,46.488 49.101,46.653 49.183,46.967 49.278,47.282 
			"/>
	<polygon fill-rule="evenodd" clip-rule="evenodd" fill="#FF6699" points="34.503,47.456 34.302,47.472 34.107,47.482 
		33.907,47.488 33.719,47.483 33.525,47.468 33.337,47.442 33.149,47.412 32.96,47.376 32.772,47.325 32.584,47.268 32.397,47.201 
		32.214,47.135 32.026,47.053 31.851,46.965 31.67,46.868 31.494,46.77 31.236,46.734 31.331,47.012 31.463,47.347 31.62,47.682 
		31.796,48.002 31.991,48.316 32.04,48.352 32.135,48.373 32.235,48.398 32.254,48.398 32.279,48.403 32.33,48.414 32.429,48.434 
		32.518,48.444 32.612,48.454 32.8,48.465 32.837,48.459 32.881,48.459 32.969,48.454 33.051,48.443 33.138,48.438 33.3,48.402 
		33.464,48.36 33.495,48.339 33.533,48.324 33.607,48.293 33.676,48.252 33.751,48.215 33.889,48.122 34.027,48.019 34.152,47.895 
		34.277,47.766 34.39,47.616 34.503,47.456 	"/>
	<polygon fill-rule="evenodd" clip-rule="evenodd" fill="#66CC99" points="31.494,46.77 31.67,46.868 31.851,46.965 32.026,47.053 
		32.214,47.135 32.397,47.201 32.584,47.268 32.772,47.325 32.96,47.376 33.149,47.412 33.337,47.442 33.525,47.468 33.719,47.483 
		33.907,47.488 34.107,47.482 34.302,47.472 34.503,47.456 35.071,46.325 34.545,46.363 34.294,46.363 34.043,46.358 33.799,46.343 
		33.56,46.323 33.323,46.292 33.084,46.256 32.852,46.211 32.626,46.165 32.395,46.098 32.169,46.031 31.943,45.954 31.73,45.872 
		31.511,45.78 31.297,45.682 31.091,45.574 30.89,45.461 31.173,46.569 31.236,46.734 31.494,46.77 	"/>
</g>
<text transform="matrix(1 0 0 1 7.3771 54.9942)"><tspan x="0" y="0" font-family="'IrishGrover'" font-size="12.6541">P</tspan><tspan x="7.377" y="0" font-family="'IrishGrover'" font-size="8.436">aper</tspan><tspan x="26.095" y="0" font-family="'IrishGrover'" font-size="12.6541"> M</tspan><tspan x="40.121" y="0" font-family="'IrishGrover'" font-size="8.436">onsters</tspan></text>
</svg>
